<?xml version="1.0" encoding="UTF-8"?>
<svg width="112px" height="112px" viewBox="0 0 112 112" version="1.1" xmlns="http://www.w3.org/2000/svg" xmlns:xlink="http://www.w3.org/1999/xlink">
    <!-- Generator: Sketch 52.6 (67491) - http://www.bohemiancoding.com/sketch -->
    <title>bakery</title>
    <desc>Created with Sketch.</desc>
    <defs>
        <circle id="path-1" cx="48" cy="48" r="48"></circle>
        <filter x="-14.1%" y="-10.9%" width="128.1%" height="128.1%" filterUnits="objectBoundingBox" id="filter-2">
            <feOffset dx="0" dy="3" in="SourceAlpha" result="shadowOffsetOuter1"></feOffset>
            <feGaussianBlur stdDeviation="4" in="shadowOffsetOuter1" result="shadowBlurOuter1"></feGaussianBlur>
            <feColorMatrix values="0 0 0 0 0.298039216   0 0 0 0 0.407843137   0 0 0 0 1  0 0 0 0.48 0" type="matrix" in="shadowBlurOuter1"></feColorMatrix>
        </filter>
    </defs>
    <g id="Page-1" stroke="none" stroke-width="1" fill="none" fill-rule="evenodd">
        <g id="Artboard" transform="translate(-862.000000, -348.000000)">
            <g id="bakery" transform="translate(870.000000, 353.000000)">
                <g id="Group-6">
                    <g id="Oval">
                        <use fill="black" fill-opacity="1" filter="url(#filter-2)" xlink:href="#path-1"></use>
                        <use fill="#4C68FF" fill-rule="evenodd" xlink:href="#path-1"></use>
                    </g>
                    <g id="Orion_bread" transform="translate(28.000000, 25.000000)" stroke-linecap="round" stroke-linejoin="round">
                        <circle id="Oval" stroke="#93A4FF" stroke-width="2" fill="#93A4FF" cx="10.7692308" cy="12.3076923" r="1.53846154"></circle>
                        <circle id="Oval" stroke="#93A4FF" stroke-width="2" cx="27.6923077" cy="10.7692308" r="3.07692308"></circle>
                        <circle id="Oval" stroke="#FFFFFF" stroke-width="4" cx="23.0769231" cy="24.6153846" r="4.61538462"></circle>
                        <circle id="Oval" stroke="#93A4FF" stroke-width="2" cx="12.3076923" cy="33.8461538" r="3.07692308"></circle>
                        <circle id="Oval" stroke="#93A4FF" stroke-width="2" fill="#93A4FF" cx="26.1538462" cy="38.4615385" r="1.53846154"></circle>
                        <path d="M40,16.9230769 C40,7.53846154 31.0769231,0 20,0 C8.92307692,0 0,7.53846154 0,16.9230769 C0.022155395,20.1774297 1.10211079,23.3362992 3.07692308,25.9230769 L3.07692308,41.5384615 C3.07692308,44.0874681 5.14330115,46.1538462 7.69230769,46.1538462 L32.3076923,46.1538462 C34.8566988,46.1538462 36.9230769,44.0874681 36.9230769,41.5384615 L36.9230769,25.9230769 C38.8978892,23.3362992 39.9778446,20.1774297 40,16.9230769 Z" id="Path" stroke="#FFFFFF" stroke-width="4"></path>
                    </g>
                </g>
            </g>
        </g>
    </g>
</svg>