<?xml version="1.0" encoding="UTF-8"?>
<svg width="112px" height="112px" viewBox="0 0 112 112" version="1.1" xmlns="http://www.w3.org/2000/svg" xmlns:xlink="http://www.w3.org/1999/xlink">
    <!-- Generator: Sketch 52.6 (67491) - http://www.bohemiancoding.com/sketch -->
    <title>billing</title>
    <desc>Created with Sketch.</desc>
    <defs>
        <circle id="path-1" cx="48" cy="48" r="48"></circle>
        <filter x="-14.1%" y="-10.9%" width="128.1%" height="128.1%" filterUnits="objectBoundingBox" id="filter-2">
            <feOffset dx="0" dy="3" in="SourceAlpha" result="shadowOffsetOuter1"></feOffset>
            <feGaussianBlur stdDeviation="4" in="shadowOffsetOuter1" result="shadowBlurOuter1"></feGaussianBlur>
            <feColorMatrix values="0 0 0 0 0.298039216   0 0 0 0 0.407843137   0 0 0 0 1  0 0 0 0.48 0" type="matrix" in="shadowBlurOuter1"></feColorMatrix>
        </filter>
    </defs>
    <g id="Page-1" stroke="none" stroke-width="1" fill="none" fill-rule="evenodd">
        <g id="Artboard" transform="translate(-686.000000, -158.000000)">
            <g id="billing" transform="translate(694.000000, 163.000000)">
                <g id="Group-6">
                    <g id="Oval">
                        <use fill="black" fill-opacity="1" filter="url(#filter-2)" xlink:href="#path-1"></use>
                        <use fill="#4C68FF" fill-rule="evenodd" xlink:href="#path-1"></use>
                    </g>
                    <g id="Icon" transform="translate(16.000000, 16.000000)" stroke-width="4">
                        <path d="M26.2822134,18 C22.8101681,18 20.8809476,18.4044009 19.0821235,19.3664226 C17.4751049,20.2258656 16.2258656,21.4751049 15.3664226,23.0821235 C14.4044009,24.8809476 14,26.8101681 14,30.2822134 L14,33.7177866 C14,37.1898319 14.4044009,39.1190524 15.3664226,40.9178765 C16.2258656,42.5248951 17.4751049,43.7741344 19.0821235,44.6335774 C20.8809476,45.5955991 22.8101681,46 26.2822134,46 L37.7177866,46 C41.1898319,46 43.1190524,45.5955991 44.9178765,44.6335774 C46.5248951,43.7741344 47.7741344,42.5248951 48.6335774,40.9178765 C49.5955991,39.1190524 50,37.1898319 50,33.7177866 L50,30.2822134 C50,26.8101681 49.5955991,24.8809476 48.6335774,23.0821235 C47.7741344,21.4751049 46.5248951,20.2258656 44.9178765,19.3664226 C43.1190524,18.4044009 41.1898319,18 37.7177866,18 L26.2822134,18 Z" id="Rectangle" stroke="#93A4FF"></path>
                        <path d="M24,28 L40,28" id="Line-5" stroke="#FFFFFF" stroke-linecap="round"></path>
                        <path d="M24,37 L28,37" id="Line-5-Copy" stroke="#FFFFFF" stroke-linecap="round"></path>
                    </g>
                    <g id="Icon-Copy-2" transform="translate(16.000000, 16.000000)"></g>
                </g>
            </g>
        </g>
    </g>
</svg>