<?xml version="1.0" encoding="UTF-8"?>
<svg width="112px" height="112px" viewBox="0 0 112 112" version="1.1" xmlns="http://www.w3.org/2000/svg" xmlns:xlink="http://www.w3.org/1999/xlink">
    <!-- Generator: Sketch 52.6 (67491) - http://www.bohemiancoding.com/sketch -->
    <title>bookings</title>
    <desc>Created with Sketch.</desc>
    <defs>
        <circle id="path-1" cx="48" cy="48" r="48"></circle>
        <filter x="-14.1%" y="-10.9%" width="128.1%" height="128.1%" filterUnits="objectBoundingBox" id="filter-2">
            <feOffset dx="0" dy="3" in="SourceAlpha" result="shadowOffsetOuter1"></feOffset>
            <feGaussianBlur stdDeviation="4" in="shadowOffsetOuter1" result="shadowBlurOuter1"></feGaussianBlur>
            <feColorMatrix values="0 0 0 0 0.298039216   0 0 0 0 0.407843137   0 0 0 0 1  0 0 0 0.48 0" type="matrix" in="shadowBlurOuter1"></feColorMatrix>
        </filter>
    </defs>
    <g id="Page-1" stroke="none" stroke-width="1" fill="none" fill-rule="evenodd">
        <g id="Artboard" transform="translate(-158.000000, -158.000000)">
            <g id="bookings" transform="translate(166.000000, 163.000000)">
                <g id="Group-6">
                    <g id="Oval">
                        <use fill="black" fill-opacity="1" filter="url(#filter-2)" xlink:href="#path-1"></use>
                        <use fill="#4C68FF" fill-rule="evenodd" xlink:href="#path-1"></use>
                    </g>
                    <g id="Icon" transform="translate(16.000000, 16.000000)">
                        <path d="M27.3833112,14 C22.8083409,14 20.9751953,14.3539967 19.0821235,15.3664226 C17.4751049,16.2258656 16.2258656,17.4751049 15.3664226,19.0821235 C14.3539967,20.9751953 14,22.8083409 14,27.3833112 L14,36.6166888 C14,41.1916591 14.3539967,43.0248047 15.3664226,44.9178765 C16.2258656,46.5248951 17.4751049,47.7741344 19.0821235,48.6335774 C20.9751953,49.6460033 22.8083409,50 27.3833112,50 L36.6166888,50 C41.1916591,50 43.0248047,49.6460033 44.9178765,48.6335774 C46.5248951,47.7741344 47.7741344,46.5248951 48.6335774,44.9178765 C49.6460033,43.0248047 50,41.1916591 50,36.6166888 L50,27.3833112 C50,22.8083409 49.6460033,20.9751953 48.6335774,19.0821235 C47.7741344,17.4751049 46.5248951,16.2258656 44.9178765,15.3664226 C43.0248047,14.3539967 41.1916591,14 36.6166888,14 L27.3833112,14 Z" id="Rectangle" stroke="#93A4FF" stroke-width="4"></path>
                        <path d="M22.5638852,24 L25.4361148,24 C26.3276335,24 26.6509198,24.0928256 26.9768457,24.2671327 C27.3027716,24.4414398 27.5585602,24.6972284 27.7328673,25.0231543 C27.9071744,25.3490802 28,25.6723665 28,26.5638852 L28,29.4361148 C28,30.3276335 27.9071744,30.6509198 27.7328673,30.9768457 C27.5585602,31.3027716 27.3027716,31.5585602 26.9768457,31.7328673 C26.6509198,31.9071744 26.3276335,32 25.4361148,32 L22.5638852,32 C21.6723665,32 21.3490802,31.9071744 21.0231543,31.7328673 C20.6972284,31.5585602 20.4414398,31.3027716 20.2671327,30.9768457 C20.0928256,30.6509198 20,30.3276335 20,29.4361148 L20,26.5638852 C20,25.6723665 20.0928256,25.3490802 20.2671327,25.0231543 C20.4414398,24.6972284 20.6972284,24.4414398 21.0231543,24.2671327 C21.3490802,24.0928256 21.6723665,24 22.5638852,24 Z" id="Rectangle" fill="#93A4FF"></path>
                        <path d="M26.5638852,36 L29.4361148,36 C30.3276335,36 30.6509198,36.0928256 30.9768457,36.2671327 C31.3027716,36.4414398 31.5585602,36.6972284 31.7328673,37.0231543 C31.9071744,37.3490802 32,37.6723665 32,38.5638852 L32,41.4361148 C32,42.3276335 31.9071744,42.6509198 31.7328673,42.9768457 C31.5585602,43.3027716 31.3027716,43.5585602 30.9768457,43.7328673 C30.6509198,43.9071744 30.3276335,44 29.4361148,44 L26.5638852,44 C25.6723665,44 25.3490802,43.9071744 25.0231543,43.7328673 C24.6972284,43.5585602 24.4414398,43.3027716 24.2671327,42.9768457 C24.0928256,42.6509198 24,42.3276335 24,41.4361148 L24,38.5638852 C24,37.6723665 24.0928256,37.3490802 24.2671327,37.0231543 C24.4414398,36.6972284 24.6972284,36.4414398 25.0231543,36.2671327 C25.3490802,36.0928256 25.6723665,36 26.5638852,36 Z" id="Rectangle-Copy-4" fill="#FFFFFF"></path>
                        <path d="M34.5638852,24 L37.4361148,24 C38.3276335,24 38.6509198,24.0928256 38.9768457,24.2671327 C39.3027716,24.4414398 39.5585602,24.6972284 39.7328673,25.0231543 C39.9071744,25.3490802 40,25.6723665 40,26.5638852 L40,29.4361148 C40,30.3276335 39.9071744,30.6509198 39.7328673,30.9768457 C39.5585602,31.3027716 39.3027716,31.5585602 38.9768457,31.7328673 C38.6509198,31.9071744 38.3276335,32 37.4361148,32 L34.5638852,32 C33.6723665,32 33.3490802,31.9071744 33.0231543,31.7328673 C32.6972284,31.5585602 32.4414398,31.3027716 32.2671327,30.9768457 C32.0928256,30.6509198 32,30.3276335 32,29.4361148 L32,26.5638852 C32,25.6723665 32.0928256,25.3490802 32.2671327,25.0231543 C32.4414398,24.6972284 32.6972284,24.4414398 33.0231543,24.2671327 C33.3490802,24.0928256 33.6723665,24 34.5638852,24 Z" id="Rectangle-Copy-3" fill="#FFFFFF"></path>
                        <path d="M38.5638852,36 L41.4361148,36 C42.3276335,36 42.6509198,36.0928256 42.9768457,36.2671327 C43.3027716,36.4414398 43.5585602,36.6972284 43.7328673,37.0231543 C43.9071744,37.3490802 44,37.6723665 44,38.5638852 L44,41.4361148 C44,42.3276335 43.9071744,42.6509198 43.7328673,42.9768457 C43.5585602,43.3027716 43.3027716,43.5585602 42.9768457,43.7328673 C42.6509198,43.9071744 42.3276335,44 41.4361148,44 L38.5638852,44 C37.6723665,44 37.3490802,43.9071744 37.0231543,43.7328673 C36.6972284,43.5585602 36.4414398,43.3027716 36.2671327,42.9768457 C36.0928256,42.6509198 36,42.3276335 36,41.4361148 L36,38.5638852 C36,37.6723665 36.0928256,37.3490802 36.2671327,37.0231543 C36.4414398,36.6972284 36.6972284,36.4414398 37.0231543,36.2671327 C37.3490802,36.0928256 37.6723665,36 38.5638852,36 Z" id="Rectangle-Copy-5" fill="#93A4FF"></path>
                        <path d="M26,10 L26,10 C27.1045695,10 28,10.8954305 28,12 L28,18 C28,19.1045695 27.1045695,20 26,20 L26,20 C24.8954305,20 24,19.1045695 24,18 L24,12 C24,10.8954305 24.8954305,10 26,10 Z" id="Rectangle" fill="#FFFFFF"></path>
                        <path d="M38,10 L38,10 C39.1045695,10 40,10.8954305 40,12 L40,18 C40,19.1045695 39.1045695,20 38,20 L38,20 C36.8954305,20 36,19.1045695 36,18 L36,12 C36,10.8954305 36.8954305,10 38,10 Z" id="Rectangle-Copy" fill="#FFFFFF"></path>
                    </g>
                </g>
            </g>
        </g>
    </g>
</svg>