<?xml version="1.0" encoding="UTF-8"?>
<svg width="112px" height="112px" viewBox="0 0 112 112" version="1.1" xmlns="http://www.w3.org/2000/svg" xmlns:xlink="http://www.w3.org/1999/xlink">
    <!-- Generator: Sketch 52.6 (67491) - http://www.bohemiancoding.com/sketch -->
    <title>coffee-shops</title>
    <desc>Created with Sketch.</desc>
    <defs>
        <circle id="path-1" cx="48" cy="48" r="48"></circle>
        <filter x="-14.1%" y="-10.9%" width="128.1%" height="128.1%" filterUnits="objectBoundingBox" id="filter-2">
            <feOffset dx="0" dy="3" in="SourceAlpha" result="shadowOffsetOuter1"></feOffset>
            <feGaussianBlur stdDeviation="4" in="shadowOffsetOuter1" result="shadowBlurOuter1"></feGaussianBlur>
            <feColorMatrix values="0 0 0 0 0.298039216   0 0 0 0 0.407843137   0 0 0 0 1  0 0 0 0.48 0" type="matrix" in="shadowBlurOuter1"></feColorMatrix>
        </filter>
    </defs>
    <g id="Page-1" stroke="none" stroke-width="1" fill="none" fill-rule="evenodd">
        <g id="Artboard" transform="translate(-686.000000, -348.000000)">
            <g id="coffee-shops" transform="translate(694.000000, 353.000000)">
                <g id="Group-6">
                    <g id="Oval">
                        <use fill="black" fill-opacity="1" filter="url(#filter-2)" xlink:href="#path-1"></use>
                        <use fill="#4C68FF" fill-rule="evenodd" xlink:href="#path-1"></use>
                    </g>
                    <g id="Orion_hot-coffee-2" transform="translate(28.000000, 19.000000)" stroke-linecap="round" stroke-linejoin="round" stroke-width="4">
                        <path d="M31.998,16.3113333 L31.998,31.5486667 C31.998,37.8606667 25.6106667,42.978 19.2986667,42.978 L18.03,42.978 C11.718,42.978 5.33133333,37.8606667 5.33133333,31.5486667 L5.33133333,16.3113333 L31.998,16.3113333 Z" id="Path" stroke="#FFFFFF"></path>
                        <path d="M0,43 L38.6626667,43" id="Path" stroke="#FFFFFF"></path>
                        <path d="M32,16 L34.0113333,16 C37.3188904,16.0003682 40,18.6817762 40,21.9893333 C39.9996319,25.2966301 37.3186301,27.9776319 34.0113333,27.978 L32,27.978" id="Path" stroke="#FFFFFF"></path>
                        <path d="M18.6646667,9.33266667 L18.6646667,0 M10.6633333,9.33266667 L10.6633333,4.002 M26.666,9.33266667 L26.666,4.002" id="Shape" stroke="#93A4FF"></path>
                    </g>
                    <g id="Icon-Copy-2" transform="translate(16.000000, 16.000000)"></g>
                </g>
            </g>
        </g>
    </g>
</svg>