<?xml version="1.0" encoding="UTF-8"?>
<svg width="112px" height="112px" viewBox="0 0 112 112" version="1.1" xmlns="http://www.w3.org/2000/svg" xmlns:xlink="http://www.w3.org/1999/xlink">
    <!-- Generator: Sketch 52.6 (67491) - http://www.bohemiancoding.com/sketch -->
    <title>feedback</title>
    <desc>Created with Sketch.</desc>
    <defs>
        <circle id="path-1" cx="48" cy="48" r="48"></circle>
        <filter x="-14.1%" y="-10.9%" width="128.1%" height="128.1%" filterUnits="objectBoundingBox" id="filter-2">
            <feOffset dx="0" dy="3" in="SourceAlpha" result="shadowOffsetOuter1"></feOffset>
            <feGaussianBlur stdDeviation="4" in="shadowOffsetOuter1" result="shadowBlurOuter1"></feGaussianBlur>
            <feColorMatrix values="0 0 0 0 0.298039216   0 0 0 0 0.407843137   0 0 0 0 1  0 0 0 0.48 0" type="matrix" in="shadowBlurOuter1"></feColorMatrix>
        </filter>
    </defs>
    <g id="Page-1" stroke="none" stroke-width="1" fill="none" fill-rule="evenodd">
        <g id="Artboard" transform="translate(-1390.000000, -158.000000)">
            <g id="feedback" transform="translate(1398.000000, 163.000000)">
                <g id="Group-6">
                    <g id="Oval">
                        <use fill="black" fill-opacity="1" filter="url(#filter-2)" xlink:href="#path-1"></use>
                        <use fill="#4C68FF" fill-rule="evenodd" xlink:href="#path-1"></use>
                    </g>
                    <g id="megaphone" transform="translate(29.000000, 33.000000)">
                        <path d="M8,20 L14,30" id="Path-277" stroke="#93A4FF" stroke-width="4" stroke-linecap="round" stroke-linejoin="round"></path>
                        <path d="M6,5.46313565 C2,5.46313565 0,8.59714241 0,12.4631357 C0,16.3291289 2.13400676,19.4631357 6,19.4631357 C7.08327625,19.4631357 12.5671303,20.783309 22.4515623,23.4236557 L22.4515625,23.4236549 C25.65302,24.2788338 28.9415735,22.3767992 29.7967524,19.1753417 C29.9316721,18.6702546 30,18.1497 30,17.6269034 L30.0000015,6.00000155 C30.0000015,2.68629219 27.3137094,-1.57484649e-13 24,-8.8817842e-16 C23.3151274,3.14769519e-14 22.6353101,0.117256389 21.9900103,0.346687484 C12.3963,3.75765293 7.06629662,5.46313565 6,5.46313565 Z" id="Oval-198" stroke="#FFFFFF" stroke-width="4" stroke-linecap="round" stroke-linejoin="round"></path>
                        <rect id="Rectangle" fill="#93A4FF" x="34" y="8" width="4" height="8" rx="2"></rect>
                    </g>
                    <g id="Icon" transform="translate(16.000000, 16.000000)"></g>
                </g>
            </g>
        </g>
    </g>
</svg>