<svg xmlns="http://www.w3.org/2000/svg" xmlns:xlink="http://www.w3.org/1999/xlink" viewBox="0 0 112 112"><defs><style>.cls-1{filter:url(#filter-2);}.cls-2{fill:#4c68ff;}.cls-3,.cls-4{fill:none;}.cls-3{stroke:#fff;stroke-width:3px;}.cls-3,.cls-4,.cls-5{stroke-linecap:round;stroke-linejoin:round;}.cls-4,.cls-5{stroke:#93a4ff;}.cls-4{stroke-width:2px;}.cls-5{fill:#93a4ff;}</style><filter id="filter-2" x="-14.1%" y="-10.9%" width="128.1%" height="128.1%" name="filter-2"><feOffset result="shadowOffsetOuter1" dy="3" in="SourceAlpha"/><feGaussianBlur result="shadowBlurOuter1" stdDeviation="4" in="shadowOffsetOuter1"/><feColorMatrix values="0 0 0 0 0.3 0 0 0 0 0.41 0 0 0 0 1 0 0 0 0.48 0" in="shadowBlurOuter1"/></filter></defs><g id="fond"><g id="Page-1"><g id="salad-bar"><g id="Group-6"><g id="Oval"><g class="cls-1"><circle id="path-1" cx="56" cy="56" r="48"/></g><circle id="path-1-2" data-name="path-1" class="cls-2" cx="56" cy="56" r="48"/></g></g></g></g></g><g id="Calque_1" data-name="Calque 1"><path class="cls-3" d="M72.51,38.23s-4.88-2.65-8.81-.6-10.71,2-14-.09-8.35-.4-10.24,1.6A86.5,86.5,0,0,0,51.56,45.4a6.07,6.07,0,0,1,5.29-2.09c3.18.24,4.21,2.09,4.21,2.09A24.9,24.9,0,0,0,72.51,38.23Z"/><path class="cls-3" d="M72.51,38.23a33.37,33.37,0,0,0-6.3,19.69c0,12,7.41,15.29,7.41,15.29s-8,7.05-17.64,7.05c-10.4,0-15.75-4.83-17.6-7.05,0,0,6.58-4.66,6.57-14.81,0,0,.95-10.63-5.51-19.26"/><path class="cls-3" d="M40.5,73.21s9.34-2.9,11-1.48,2.81,2.36,4.32,2.36,2.69-1.72,3.52-2.37c0,0,2.07-1.34,12,1.49"/><path class="cls-4" d="M53.28,54.83a2.5,2.5,0,0,0-1.41,2.45c0,1.61.76,2.3,1.41,2.3"/><path class="cls-4" d="M57.6,54.83a2.51,2.51,0,0,1,1.49,2.45c0,1.61-.8,2.3-1.49,2.3"/><path class="cls-5" d="M64,33.71s-7.41-.47-7.86,6.66C56.15,40.37,64.62,41.38,64,33.71Z"/><path class="cls-5" d="M56,40.42s3.13-9.26-7.88-10.3C48.12,30.12,46.13,40.15,56,40.42Z"/></g></svg>