<?xml version="1.0" encoding="UTF-8"?>
<svg width="112px" height="112px" viewBox="0 0 112 112" version="1.1" xmlns="http://www.w3.org/2000/svg" xmlns:xlink="http://www.w3.org/1999/xlink">
    <!-- Generator: Sketch 52.6 (67491) - http://www.bohemiancoding.com/sketch -->
    <title>fromagerie</title>
    <desc>Created with Sketch.</desc>
    <defs>
        <circle id="path-1" cx="48" cy="48" r="48"></circle>
        <filter x="-14.1%" y="-10.9%" width="128.1%" height="128.1%" filterUnits="objectBoundingBox" id="filter-2">
            <feOffset dx="0" dy="3" in="SourceAlpha" result="shadowOffsetOuter1"></feOffset>
            <feGaussianBlur stdDeviation="4" in="shadowOffsetOuter1" result="shadowBlurOuter1"></feGaussianBlur>
            <feColorMatrix values="0 0 0 0 0.298039216   0 0 0 0 0.407843137   0 0 0 0 1  0 0 0 0.48 0" type="matrix" in="shadowBlurOuter1"></feColorMatrix>
        </filter>
    </defs>
    <g id="Page-1" stroke="none" stroke-width="1" fill="none" fill-rule="evenodd">
        <g id="Artboard" transform="translate(-1214.000000, -348.000000)">
            <g id="fromagerie" transform="translate(1222.000000, 353.000000)">
                <g id="Group-6">
                    <g id="Oval">
                        <use fill="black" fill-opacity="1" filter="url(#filter-2)" xlink:href="#path-1"></use>
                        <use fill="#4C68FF" fill-rule="evenodd" xlink:href="#path-1"></use>
                    </g>
                    <g id="Orion_cheese" transform="translate(28.000000, 25.000000)">
                        <circle id="Oval" fill="#FFFFFF" cx="28" cy="24" r="2"></circle>
                        <circle id="Oval" fill="#93A4FF" cx="22" cy="30" r="3.33333333"></circle>
                        <circle id="Oval" fill="#93A4FF" cx="16.0666667" cy="22.6666667" r="1.33333333"></circle>
                        <circle id="Oval" fill="#93A4FF" cx="13.3333333" cy="29.3333333" r="1.33333333"></circle>
                        <circle id="Oval" fill="#FFFFFF" cx="8.66666667" cy="22.3333333" r="2.66666667"></circle>
                        <path d="M40,18.6666667 L18.6666667,0 C18.6666667,0 0,2.2 0,13.3333333 L40,18.6666667 Z" id="Path" stroke="#FFFFFF" stroke-width="4" stroke-linecap="round" stroke-linejoin="round"></path>
                        <path d="M0,13.3333333 L0,34.6666667 L40,40 L40,35.8666667 L39,36.0666667 C37.1590508,36.0666667 35.6666667,34.5742825 35.6666667,32.7333333 C35.6666667,30.8923842 37.1590508,29.4 39,29.4 L40,29.6 L40,18.6666667" id="Path" stroke="#FFFFFF" stroke-width="4" stroke-linecap="round" stroke-linejoin="round"></path>
                    </g>
                </g>
            </g>
        </g>
    </g>
</svg>