<svg xmlns="http://www.w3.org/2000/svg" xmlns:xlink="http://www.w3.org/1999/xlink" viewBox="0 0 112 112"><defs><style>.cls-1{filter:url(#filter-2);}.cls-2{fill:#4c68ff;}.cls-3,.cls-6{fill:none;}.cls-3,.cls-7{stroke:#fff;}.cls-3,.cls-4,.cls-5,.cls-6,.cls-7{stroke-linecap:round;stroke-linejoin:round;}.cls-3,.cls-5,.cls-6{stroke-width:4px;}.cls-4,.cls-5{fill:#93a4ff;}.cls-4,.cls-5,.cls-6{stroke:#93a4ff;}.cls-4{stroke-width:3px;}.cls-7{fill:#fff;}</style><filter id="filter-2" x="-14.1%" y="-10.9%" width="128.1%" height="128.1%" name="filter-2"><feOffset result="shadowOffsetOuter1" dy="3" in="SourceAlpha"/><feGaussianBlur result="shadowBlurOuter1" stdDeviation="4" in="shadowOffsetOuter1"/><feColorMatrix values="0 0 0 0 0.3 0 0 0 0 0.41 0 0 0 0 1 0 0 0 0.48 0" in="shadowBlurOuter1"/></filter></defs><g id="fond"><g id="Page-1"><g id="salad-bar"><g id="Group-6"><g id="Oval"><g class="cls-1"><circle id="path-1" cx="56" cy="56" r="48"/></g><circle id="path-1-2" data-name="path-1" class="cls-2" cx="56" cy="56" r="48"/></g></g></g></g></g><g id="Calque_1" data-name="Calque 1"><polygon class="cls-3" points="68.79 80.63 43.21 80.63 43.21 55.24 48.11 45.89 63.89 45.89 68.79 55.78 68.79 80.63"/><rect class="cls-4" x="46.57" y="40.82" width="18.86" height="5.58"/><line class="cls-5" x1="56.3" y1="43.12" x2="56.3" y2="29.3"/><polyline class="cls-6" points="62.72 27.37 49.09 27.37 45.67 31.23"/><polygon class="cls-7" points="60.91 61.82 58.11 61.82 57.52 61.82 57.52 58.73 54.48 58.73 54.48 61.82 53.8 61.82 51.09 61.82 51.09 64.87 53.8 64.87 53.8 64.86 54.48 64.86 54.48 68.25 57.52 68.25 57.57 64.86 58.08 64.86 58.11 64.87 60.91 64.87 60.91 61.82"/></g></svg>