<?xml version="1.0" encoding="UTF-8"?>
<svg width="112px" height="112px" viewBox="0 0 112 112" version="1.1" xmlns="http://www.w3.org/2000/svg" xmlns:xlink="http://www.w3.org/1999/xlink">
    <!-- Generator: Sketch 52.6 (67491) - http://www.bohemiancoding.com/sketch -->
    <title>ice-cream-shop</title>
    <desc>Created with Sketch.</desc>
    <defs>
        <circle id="path-1" cx="48" cy="48" r="48"></circle>
        <filter x="-14.1%" y="-10.9%" width="128.1%" height="128.1%" filterUnits="objectBoundingBox" id="filter-2">
            <feOffset dx="0" dy="3" in="SourceAlpha" result="shadowOffsetOuter1"></feOffset>
            <feGaussianBlur stdDeviation="4" in="shadowOffsetOuter1" result="shadowBlurOuter1"></feGaussianBlur>
            <feColorMatrix values="0 0 0 0 0.298039216   0 0 0 0 0.407843137   0 0 0 0 1  0 0 0 0.48 0" type="matrix" in="shadowBlurOuter1"></feColorMatrix>
        </filter>
    </defs>
    <g id="Page-1" stroke="none" stroke-width="1" fill="none" fill-rule="evenodd">
        <g id="Artboard" transform="translate(-862.000000, -538.000000)">
            <g id="ice-cream-shop" transform="translate(870.000000, 543.000000)">
                <g id="Group-6">
                    <g id="Oval">
                        <use fill="black" fill-opacity="1" filter="url(#filter-2)" xlink:href="#path-1"></use>
                        <use fill="#4C68FF" fill-rule="evenodd" xlink:href="#path-1"></use>
                    </g>
                    <g id="Orion_ice-cream" transform="translate(32.000000, 23.000000)" stroke-linecap="round" stroke-linejoin="round" stroke-width="4">
                        <path d="M29.0833333,10.3333333 C29.1354752,9.94656915 29.1633077,9.55691534 29.1666667,9.16666667 C29.1311489,5.23633948 26.5939183,1.76607334 22.8595107,0.540131464 C19.1251032,-0.685810412 15.0247453,0.605449383 12.6666667,3.75" id="Path" stroke="#93A4FF"></path>
                        <path d="M18.6666667,9.58333333 C17.3970996,5.79202863 13.8166859,3.26093585 9.81903665,3.32870057 C5.82138736,3.3964653 2.3288159,6.04745327 1.18847519,9.87960867 C0.0481344774,13.7117641 1.52311702,17.8409552 4.83333333,20.0833333 L4.91666667,20.0833333" id="Path" stroke="#FFFFFF"></path>
                        <polyline id="Path" stroke="#FFFFFF" points="24.1666667 18.3333333 4.25 18.3333333 4.91666667 20.0833333 16.6666667 50 26.8333333 26.5833333"></polyline>
                        <path d="M24.1666667,18.3333333 L24.1666667,23.3333333 C24.1742382,24.911297 25.2872295,26.2677551 26.8333333,26.5833333 L27.5,26.5833333 C29.3409492,26.5833333 30.8333333,25.0909492 30.8333333,23.25 L30.8333333,17.5 L32.5,17.5 C32.5,12.4373898 28.3959435,8.33333333 23.3333333,8.33333333 C18.2707231,8.33333333 14.1666667,12.4373898 14.1666667,17.5 L14.1666667,18.3333333" id="Path" stroke="#FFFFFF"></path>
                    </g>
                </g>
            </g>
        </g>
    </g>
</svg>