<?xml version="1.0" encoding="UTF-8"?>
<svg width="112px" height="112px" viewBox="0 0 112 112" version="1.1" xmlns="http://www.w3.org/2000/svg" xmlns:xlink="http://www.w3.org/1999/xlink">
    <!-- Generator: Sketch 52.6 (67491) - http://www.bohemiancoding.com/sketch -->
    <title>juice-bar</title>
    <desc>Created with Sketch.</desc>
    <defs>
        <circle id="path-1" cx="48" cy="48" r="48"></circle>
        <filter x="-14.1%" y="-10.9%" width="128.1%" height="128.1%" filterUnits="objectBoundingBox" id="filter-2">
            <feOffset dx="0" dy="3" in="SourceAlpha" result="shadowOffsetOuter1"></feOffset>
            <feGaussianBlur stdDeviation="4" in="shadowOffsetOuter1" result="shadowBlurOuter1"></feGaussianBlur>
            <feColorMatrix values="0 0 0 0 0.298039216   0 0 0 0 0.407843137   0 0 0 0 1  0 0 0 0.48 0" type="matrix" in="shadowBlurOuter1"></feColorMatrix>
        </filter>
    </defs>
    <g id="Page-1" stroke="none" stroke-width="1" fill="none" fill-rule="evenodd">
        <g id="Artboard" transform="translate(-1742.000000, -348.000000)">
            <g id="juice-bar" transform="translate(1750.000000, 353.000000)">
                <g id="Group-6">
                    <g id="Oval">
                        <use fill="black" fill-opacity="1" filter="url(#filter-2)" xlink:href="#path-1"></use>
                        <use fill="#4C68FF" fill-rule="evenodd" xlink:href="#path-1"></use>
                    </g>
                    <g id="Orion_strawberry" transform="translate(28.000000, 23.000000)" stroke-linecap="round" stroke-linejoin="round">
                        <path d="M5,1.66666667 C8.83333333,2.75 15.0833333,6.5 20,11.6666667 C24.8333333,6.58333333 29.3333333,3.08333333 35,1.66666667 M20,0 L20,11.6666667" id="Shape" stroke="#FFFFFF" stroke-width="4"></path>
                        <path d="M20,11.6666667 C13.8333333,8.91666667 0,7.08333333 0,22.3333333 C0,37.5833333 15.4166667,50 19.9166667,50 C24.4166667,50 40,37.0833333 40,21.8333333 C40,6.58333333 25.5833333,9.41666667 20,11.6666667 Z" id="Path" stroke="#FFFFFF" stroke-width="4"></path>
                        <circle id="Oval" stroke="#93A4FF" stroke-width="2" fill="#93A4FF" cx="10.5" cy="21.5" r="1.5"></circle>
                        <circle id="Oval-Copy-5" stroke="#93A4FF" stroke-width="2" fill="#93A4FF" cx="20.5" cy="21.5" r="1.5"></circle>
                        <circle id="Oval-Copy-7" stroke="#93A4FF" stroke-width="2" fill="#93A4FF" cx="15.5" cy="30.5" r="1.5"></circle>
                        <circle id="Oval-Copy-6" stroke="#93A4FF" stroke-width="2" fill="#93A4FF" cx="30.5" cy="21.5" r="1.5"></circle>
                        <circle id="Oval-Copy-8" stroke="#93A4FF" stroke-width="2" fill="#93A4FF" cx="25.5" cy="30.5" r="1.5"></circle>
                        <circle id="Oval-Copy-9" stroke="#93A4FF" stroke-width="2" fill="#93A4FF" cx="20.5" cy="38.5" r="1.5"></circle>
                    </g>
                </g>
            </g>
        </g>
    </g>
</svg>