<?xml version="1.0" encoding="UTF-8"?>
<svg width="112px" height="112px" viewBox="0 0 112 112" version="1.1" xmlns="http://www.w3.org/2000/svg" xmlns:xlink="http://www.w3.org/1999/xlink">
    <!-- Generator: Sketch 52.6 (67491) - http://www.bohemiancoding.com/sketch -->
    <title>le-food</title>
    <desc>Created with Sketch.</desc>
    <defs>
        <circle id="path-1" cx="48" cy="48" r="48"></circle>
        <filter x="-14.1%" y="-10.9%" width="128.1%" height="128.1%" filterUnits="objectBoundingBox" id="filter-2">
            <feOffset dx="0" dy="3" in="SourceAlpha" result="shadowOffsetOuter1"></feOffset>
            <feGaussianBlur stdDeviation="4" in="shadowOffsetOuter1" result="shadowBlurOuter1"></feGaussianBlur>
            <feColorMatrix values="0 0 0 0 0.298039216   0 0 0 0 0.407843137   0 0 0 0 1  0 0 0 0.48 0" type="matrix" in="shadowBlurOuter1"></feColorMatrix>
        </filter>
    </defs>
    <g id="Page-1" stroke="none" stroke-width="1" fill="none" fill-rule="evenodd">
        <g id="Artboard" transform="translate(-1214.000000, -158.000000)">
            <g id="le-food" transform="translate(1222.000000, 163.000000)">
                <g id="Group-6">
                    <g id="Oval">
                        <use fill="black" fill-opacity="1" filter="url(#filter-2)" xlink:href="#path-1"></use>
                        <use fill="#4C68FF" fill-rule="evenodd" xlink:href="#path-1"></use>
                    </g>
                    <g id="Icon" transform="translate(16.000000, 16.000000)" stroke-linecap="round" stroke-linejoin="round">
                        <g id="Group-5" transform="translate(18.000000, 16.000000)">
                            <path d="M17.2088748,24.0328878 L20.3488905,24.5091894 C21.4830287,24.6812242 22.2629676,25.7400866 22.0909328,26.8742248 C22.0250269,27.3087091 21.8230113,27.7110936 21.5139438,28.0234995 L19.1924381,30.3700811 L19.7233805,33.5827121 C19.9104233,34.714472 19.1445788,35.7835728 18.0128189,35.9706155 C17.555486,36.0461976 17.0860129,35.966625 16.6791286,35.7445638 L13.9998641,34.282328 L11.3205996,35.7445638 C10.3136846,36.2940979 9.05193341,35.9233174 8.50239935,34.9164024 C8.28033811,34.5095181 8.2007655,34.040045 8.27634762,33.5827121 L8.8072901,30.3700811 L6.48578437,28.0234995 C5.6790227,27.2080235 5.68608701,25.8929401 6.50156296,25.0861785 C6.81396889,24.7771109 7.21635336,24.5750953 7.65083767,24.5091894 L10.7908534,24.0328878 L12.1241945,21.2296232 C12.6169104,20.1937195 13.8561015,19.7533788 14.8920052,20.2460947 C15.32314,20.4511591 15.6704692,20.7984884 15.8755336,21.2296232 L17.2088748,24.0328878 Z" id="Path" stroke="#93A4FF" stroke-width="2"></path>
                            <path d="M19.6155309,6.55344261 L25.9739756,7.44904755 C27.6146348,7.68013905 28.7573152,9.19749282 28.5262237,10.8381521 C28.4308681,11.5151394 28.1071413,12.1392509 27.6086527,12.607133 L23.0867666,16.8513818 L24.1777176,22.9810072 C24.4680422,24.6122269 23.3810319,26.1699462 21.7498122,26.4602708 C21.1090374,26.5743159 20.4485539,26.4768842 19.8680032,26.1826743 L13.9997621,23.208783 L8.13152112,26.1826743 C6.65361377,26.9316441 4.8483731,26.3407236 4.09940322,24.8628162 C3.80519329,24.2822655 3.70776155,23.621782 3.82180668,22.9810072 L4.91275768,16.8513818 L0.390871584,12.607133 C-0.8172011,11.4732342 -0.877330947,9.57469124 0.256567811,8.36661856 C0.724449892,7.86813 1.34856143,7.54440313 2.02554873,7.44904755 L8.38399339,6.55344261 L11.3296658,0.802718049 C12.0850222,-0.671935417 13.8928023,-1.25504097 15.3674557,-0.499684655 C15.9274171,-0.21285773 16.3830315,0.242756727 16.6698584,0.802718049 L19.6155309,6.55344261 Z" id="Path" stroke="#FFFFFF" stroke-width="4"></path>
                        </g>
                    </g>
                </g>
            </g>
        </g>
    </g>
</svg>