<svg xmlns="http://www.w3.org/2000/svg" xmlns:xlink="http://www.w3.org/1999/xlink" viewBox="0 0 112 112"><defs><style>.cls-1{filter:url(#filter-2);}.cls-2{fill:#4c68ff;}.cls-3,.cls-4,.cls-5{fill:none;stroke-linecap:round;stroke-linejoin:round;}.cls-3{stroke:#fff;}.cls-3,.cls-5{stroke-width:4px;}.cls-4,.cls-5{stroke:#93a4ff;}.cls-4{stroke-width:3px;}</style><filter id="filter-2" x="-14.1%" y="-10.9%" width="128.1%" height="128.1%" name="filter-2"><feOffset result="shadowOffsetOuter1" dy="3" in="SourceAlpha"/><feGaussianBlur result="shadowBlurOuter1" stdDeviation="4" in="shadowOffsetOuter1"/><feColorMatrix values="0 0 0 0 0.3 0 0 0 0 0.41 0 0 0 0 1 0 0 0 0.48 0" in="shadowBlurOuter1"/></filter></defs><g id="fond"><g id="Page-1"><g id="salad-bar"><g id="Group-6"><g id="Oval"><g class="cls-1"><circle id="path-1" cx="56" cy="56" r="48"/></g><circle id="path-1-2" data-name="path-1" class="cls-2" cx="56" cy="56" r="48"/></g></g></g></g></g><g id="Calque_1" data-name="Calque 1"><polygon class="cls-3" points="76.77 41.99 73.74 41.99 38.26 41.99 35.23 41.99 35.23 52.34 38.26 52.34 38.26 77.47 73.74 77.47 73.74 52.34 76.77 52.34 76.77 41.99"/><line class="cls-3" x1="76.77" y1="52.34" x2="35.23" y2="52.34"/><path class="cls-4" d="M56,42s4.48-14.1,9.23-11C71,34.75,56,42,56,42Z"/><line class="cls-4" x1="56" y1="41.99" x2="69.63" y2="37.75"/><path class="cls-4" d="M56,42s-4.48-14.1-9.23-11C41,34.75,56,42,56,42Z"/><line class="cls-4" x1="42.37" y1="37.75" x2="56" y2="41.99"/><line class="cls-5" x1="56" y1="41.99" x2="56" y2="80.23"/></g></svg>