<svg xmlns="http://www.w3.org/2000/svg" xmlns:xlink="http://www.w3.org/1999/xlink" viewBox="0 0 112 112"><defs><style>.cls-1{filter:url(#filter-2);}.cls-2{fill:#4c68ff;}.cls-3{fill:none;stroke:#93a4ff;}.cls-3,.cls-4{stroke-linecap:round;stroke-linejoin:round;}.cls-3,.cls-5{stroke-width:3px;}.cls-4,.cls-5{fill:#fff;stroke:#fff;}.cls-4{stroke-width:2px;}.cls-5{stroke-miterlimit:10;}</style><filter id="filter-2" x="-14.1%" y="-10.9%" width="128.1%" height="128.1%" name="filter-2"><feOffset result="shadowOffsetOuter1" dy="3" in="SourceAlpha"/><feGaussianBlur result="shadowBlurOuter1" stdDeviation="4" in="shadowOffsetOuter1"/><feColorMatrix values="0 0 0 0 0.3 0 0 0 0 0.41 0 0 0 0 1 0 0 0 0.48 0" in="shadowBlurOuter1"/></filter></defs><g id="fond"><g id="Page-1"><g id="salad-bar"><g id="Group-6"><g id="Oval"><g class="cls-1"><circle id="path-1" cx="56" cy="56" r="48"/></g><circle id="path-1-2" data-name="path-1" class="cls-2" cx="56" cy="56" r="48"/></g></g></g></g></g><g id="Calque_1" data-name="Calque 1"><ellipse class="cls-3" cx="45.23" cy="66.12" rx="7.35" ry="6.77"/><ellipse class="cls-3" cx="66.34" cy="66.12" rx="7.35" ry="6.77"/><path class="cls-3" d="M52.41,67.57a4.9,4.9,0,0,1,6.75,0"/><path class="cls-4" d="M65.51,79.62a.23.23,0,0,0,.15-.43,19.94,19.94,0,0,0-9.87-2.9A19.91,19.91,0,0,0,46.16,79a.31.31,0,0,0,.19.58Z"/><path class="cls-5" d="M82.69,51.86l-8.38-1.1a1.24,1.24,0,0,1-1-1l-2.5-9.7a40.23,40.23,0,0,0-1.71-4.65c-.88-2.2-3.3-3.23-5.44-3.93a24.66,24.66,0,0,0-7-1.12v0H55.37v0a24.66,24.66,0,0,0-7,1.12c-2.14.7-4.56,1.73-5.44,3.93a40.23,40.23,0,0,0-1.71,4.65l-2.5,9.7a1.24,1.24,0,0,1-1,1l-8.38,1.1a1.34,1.34,0,0,0-.76,2.22h0c2.31,2.26,7.64,6.76,27,6.89h.84c19.37-.13,24.7-4.63,27-6.89h0A1.34,1.34,0,0,0,82.69,51.86Z"/></g></svg>