<?xml version="1.0" encoding="UTF-8"?>
<svg width="112px" height="112px" viewBox="0 0 112 112" version="1.1" xmlns="http://www.w3.org/2000/svg" xmlns:xlink="http://www.w3.org/1999/xlink">
    <!-- Generator: Sketch 52.6 (67491) - http://www.bohemiancoding.com/sketch -->
    <title>salad-bar</title>
    <desc>Created with Sketch.</desc>
    <defs>
        <circle id="path-1" cx="48" cy="48" r="48"></circle>
        <filter x="-14.1%" y="-10.9%" width="128.1%" height="128.1%" filterUnits="objectBoundingBox" id="filter-2">
            <feOffset dx="0" dy="3" in="SourceAlpha" result="shadowOffsetOuter1"></feOffset>
            <feGaussianBlur stdDeviation="4" in="shadowOffsetOuter1" result="shadowBlurOuter1"></feGaussianBlur>
            <feColorMatrix values="0 0 0 0 0.298039216   0 0 0 0 0.407843137   0 0 0 0 1  0 0 0 0.48 0" type="matrix" in="shadowBlurOuter1"></feColorMatrix>
        </filter>
    </defs>
    <g id="Page-1" stroke="none" stroke-width="1" fill="none" fill-rule="evenodd">
        <g id="Artboard" transform="translate(-158.000000, -538.000000)">
            <g id="salad-bar" transform="translate(166.000000, 543.000000)">
                <g id="Group-6">
                    <g id="Oval">
                        <use fill="black" fill-opacity="1" filter="url(#filter-2)" xlink:href="#path-1"></use>
                        <use fill="#4C68FF" fill-rule="evenodd" xlink:href="#path-1"></use>
                    </g>
                    <path d="M44.2666667,38.4 L49.4666667,43.6666667 L44.2666667,38.4 Z" id="Path" stroke="#93A4FF" stroke-width="4" stroke-linecap="round" stroke-linejoin="round"></path>
                    <path d="M53.6,53.3333333 L49.4666667,49.2 L53.6,53.3333333 Z" id="Path" stroke="#93A4FF" stroke-width="4" stroke-linecap="round" stroke-linejoin="round"></path>
                    <path d="M38.5333333,45.7333333 L42.0666667,49.2 L38.5333333,45.7333333 Z" id="Path" stroke="#93A4FF" stroke-width="4" stroke-linecap="round" stroke-linejoin="round"></path>
                    <path d="M44.7333333,59.2666667 L40.2,54.8 L44.7333333,59.2666667 Z" id="Path" stroke="#93A4FF" stroke-width="4" stroke-linecap="round" stroke-linejoin="round"></path>
                    <g id="Orion_carrot-2" transform="translate(28.000000, 27.000000)" stroke="#FFFFFF" stroke-linecap="round" stroke-linejoin="round" stroke-width="4">
                        <path d="M35.4,4.6 L29.8,10.2 M28.8666667,0 C30.4666667,1.6 32.6,7.4 29.8,10.2 M40,11.1333333 C38.4,9.53333333 32.6,7.4 29.8,10.2" id="Shape"></path>
                        <path d="M29.8,10.2 C26.2,6.6 21.7333333,5.26666667 18.6666667,8.33333333 C10.7333333,16.3333333 -1.66666667,37.9333333 0.2,39.8 C2.06666667,41.6666667 24.2666667,28.7333333 31.6666667,21.2666667 C34.7333333,18.2 33.4,13.7333333 29.8,10.2 Z" id="Shape"></path>
                    </g>
                </g>
            </g>
        </g>
    </g>
</svg>