<svg width="24" height="24" viewBox="0 0 24 24" fill="none" xmlns="http://www.w3.org/2000/svg">
<path d="M10.9658 5.37485C11.6017 4.99062 12.3983 4.99062 13.0342 5.37485L17.0342 7.79151C17.6337 8.15367 18 8.803 18 9.50335V14.4967C18 15.197 17.6337 15.8463 17.0342 16.2085L13.0342 18.6252C12.3983 19.0094 11.6017 19.0094 10.9658 18.6252L6.96577 16.2085C6.36633 15.8463 6 15.197 6 14.4967V9.50335C6 8.803 6.36633 8.15367 6.96577 7.79151L10.9658 5.37485Z" fill="#E4E6F1" stroke="#160042" stroke-width="1.5" stroke-linejoin="round"/>
<path d="M10.5008 11.9504C10.4943 12.1473 10.5266 12.3435 10.596 12.5279C10.6653 12.7123 10.7702 12.8812 10.9048 13.025C11.0395 13.1688 11.2011 13.2847 11.3805 13.3661C11.5599 13.4474 11.7535 13.4927 11.9504 13.4992C12.1473 13.5057 12.3435 13.4734 12.5279 13.404C12.7123 13.3347 12.8812 13.2298 13.025 13.0952C13.1688 12.9605 13.2847 12.7989 13.3661 12.6195C13.4474 12.4401 13.4927 12.2465 13.4992 12.0496C13.5057 11.8527 13.4734 11.6565 13.404 11.4721C13.3347 11.2877 13.2298 11.1188 13.0952 10.975C12.9605 10.8312 12.7989 10.7153 12.6195 10.6339C12.4401 10.5526 12.2465 10.5073 12.0496 10.5008C11.8527 10.4943 11.6565 10.5266 11.4721 10.596C11.2877 10.6653 11.1188 10.7702 10.975 10.9048C10.8312 11.0395 10.7153 11.2011 10.6339 11.3805C10.5526 11.5599 10.5073 11.7535 10.5008 11.9504Z" stroke="#160042" stroke-width="1.5" stroke-linecap="round" stroke-linejoin="round"/>
</svg>
