<svg width="24" height="24" viewBox="0 0 24 24" fill="none" xmlns="http://www.w3.org/2000/svg">
<path d="M17 10H7C5.89543 10 5 10.8954 5 12V17C5 18.1046 5.89543 19 7 19H17C18.1046 19 19 18.1046 19 17V12C19 10.8954 18.1046 10 17 10Z" fill="#E4E6F1"/>
<path d="M5.25 16.75V11.75C5.25 10.6454 6.14543 9.75 7.25 9.75H16.75C17.8546 9.75 18.75 10.6454 18.75 11.75V16.75C18.75 17.8546 17.8546 18.75 16.75 18.75H7.25C6.14543 18.75 5.25 17.8546 5.25 16.75Z" stroke="#160042" stroke-width="1.5"/>
<path d="M8.5 11.6667L8.5 8.75C8.5 8.29037 8.59053 7.83525 8.76642 7.41061C8.94231 6.98597 9.20012 6.60013 9.52513 6.27513C9.85013 5.95012 10.236 5.69231 10.6606 5.51642C11.0852 5.34053 11.5404 5.25 12 5.25C12.4596 5.25 12.9148 5.34053 13.3394 5.51642C13.764 5.69231 14.1499 5.95012 14.4749 6.27513C14.7999 6.60013 15.0577 6.98597 15.2336 7.41061C15.4095 7.83525 15.5 8.29037 15.5 8.75V11.6667" stroke="#160042" stroke-width="1.5" stroke-linecap="round"/>
</svg>
