<svg xmlns="http://www.w3.org/2000/svg" xmlns:xlink="http://www.w3.org/1999/xlink" viewBox="0 0 112 112"><defs><style>.cls-1{filter:url(#filter-2);}.cls-2{fill:#4c68ff;}.cls-3,.cls-4{fill:none;stroke-linecap:round;stroke-linejoin:round;}.cls-3{stroke:#fff;stroke-width:4px;}.cls-4{stroke:#93a4ff;stroke-width:3px;}</style><filter id="filter-2" x="-14.1%" y="-10.9%" width="128.1%" height="128.1%" name="filter-2"><feOffset result="shadowOffsetOuter1" dy="3" in="SourceAlpha"/><feGaussianBlur result="shadowBlurOuter1" stdDeviation="4" in="shadowOffsetOuter1"/><feColorMatrix values="0 0 0 0 0.3 0 0 0 0 0.41 0 0 0 0 1 0 0 0 0.48 0" in="shadowBlurOuter1"/></filter></defs><g id="fond"><g id="Page-1"><g id="salad-bar"><g id="Group-6"><g id="Oval"><g class="cls-1"><circle id="path-1" cx="56" cy="56" r="48"/></g><circle id="path-1-2" data-name="path-1" class="cls-2" cx="56" cy="56" r="48"/></g></g></g></g></g><g id="Calque_1" data-name="Calque 1"><path class="cls-3" d="M73.39,41.15H38.61a6,6,0,0,0-6,6V59.93a6,6,0,0,0,6,6H49l7,11,6.07-11H73.39a6,6,0,0,0,6-6V47.11A6,6,0,0,0,73.39,41.15Z"/><path class="cls-4" d="M61.05,49.29c-2.81-1.7-5,1.31-5,1.31s-2.24-3-5-1.31c-3.28,2-.91,5.91,0,7.16A48,48,0,0,0,56,61a48,48,0,0,0,5-4.55C62,55.2,64.33,51.29,61.05,49.29Z"/></g></svg>