<?xml version="1.0" encoding="UTF-8"?>
<svg width="112px" height="112px" viewBox="0 0 112 112" version="1.1" xmlns="http://www.w3.org/2000/svg" xmlns:xlink="http://www.w3.org/1999/xlink">
    <!-- Generator: Sketch 52.6 (67491) - http://www.bohemiancoding.com/sketch -->
    <title>street-food</title>
    <desc>Created with Sketch.</desc>
    <defs>
        <circle id="path-1" cx="48" cy="48" r="48"></circle>
        <filter x="-14.1%" y="-10.9%" width="128.1%" height="128.1%" filterUnits="objectBoundingBox" id="filter-2">
            <feOffset dx="0" dy="3" in="SourceAlpha" result="shadowOffsetOuter1"></feOffset>
            <feGaussianBlur stdDeviation="4" in="shadowOffsetOuter1" result="shadowBlurOuter1"></feGaussianBlur>
            <feColorMatrix values="0 0 0 0 0.298039216   0 0 0 0 0.407843137   0 0 0 0 1  0 0 0 0.48 0" type="matrix" in="shadowBlurOuter1"></feColorMatrix>
        </filter>
    </defs>
    <g id="Page-1" stroke="none" stroke-width="1" fill="none" fill-rule="evenodd">
        <g id="Artboard" transform="translate(-1038.000000, -348.000000)">
            <g id="street-food" transform="translate(1046.000000, 353.000000)">
                <g id="Group-6">
                    <g id="Oval">
                        <use fill="black" fill-opacity="1" filter="url(#filter-2)" xlink:href="#path-1"></use>
                        <use fill="#4C68FF" fill-rule="evenodd" xlink:href="#path-1"></use>
                    </g>
                    <g id="Orion_hamburger" transform="translate(23.000000, 31.000000)" stroke-linecap="round" stroke-linejoin="round">
                        <path d="M46.6666667,26.6666667 L46.6666667,30.8333333 C46.6666667,33.1345198 44.8011865,35 42.5,35 L7.5,35 C5.19881354,35 3.33333333,33.1345198 3.33333333,30.8333333 L3.33333333,26.6666667 M3.33333333,16.6666667 L3.33333333,11.6666667 C3.33333333,5.22334459 8.55667792,1.48029737e-15 15,0 L35,0 C41.4433221,4.4408921e-15 46.6666667,5.22334459 46.6666667,11.6666667 L46.6666667,16.6666667" id="Shape" stroke="#FFFFFF" stroke-width="4"></path>
                        <rect id="Rectangle" stroke="#FFFFFF" stroke-width="4" x="0" y="16.6666667" width="50" height="10" rx="5"></rect>
                        <circle id="Oval" stroke="#93A4FF" stroke-width="2" fill="#93A4FF" cx="24.8333333" cy="8.83333333" r="1"></circle>
                        <circle id="Oval-Copy-3" stroke="#93A4FF" stroke-width="2" fill="#93A4FF" cx="34.8333333" cy="8.83333333" r="1"></circle>
                        <circle id="Oval-Copy-4" stroke="#93A4FF" stroke-width="2" fill="#93A4FF" cx="14.8333333" cy="8.83333333" r="1"></circle>
                        <circle id="Oval-Copy" stroke="#93A4FF" stroke-width="2" fill="#93A4FF" cx="19.8333333" cy="8.83333333" r="1"></circle>
                        <circle id="Oval-Copy-2" stroke="#93A4FF" stroke-width="2" fill="#93A4FF" cx="29.8333333" cy="8.83333333" r="1"></circle>
                    </g>
                </g>
            </g>
        </g>
    </g>
</svg>