<?xml version="1.0" encoding="UTF-8"?>
<svg width="112px" height="112px" viewBox="0 0 112 112" version="1.1" xmlns="http://www.w3.org/2000/svg" xmlns:xlink="http://www.w3.org/1999/xlink">
    <!-- Generator: Sketch 52.6 (67491) - http://www.bohemiancoding.com/sketch -->
    <title>take-away</title>
    <desc>Created with Sketch.</desc>
    <defs>
        <circle id="path-1" cx="48" cy="48" r="48"></circle>
        <filter x="-14.1%" y="-10.9%" width="128.1%" height="128.1%" filterUnits="objectBoundingBox" id="filter-2">
            <feOffset dx="0" dy="3" in="SourceAlpha" result="shadowOffsetOuter1"></feOffset>
            <feGaussianBlur stdDeviation="4" in="shadowOffsetOuter1" result="shadowBlurOuter1"></feGaussianBlur>
            <feColorMatrix values="0 0 0 0 0.298039216   0 0 0 0 0.407843137   0 0 0 0 1  0 0 0 0.48 0" type="matrix" in="shadowBlurOuter1"></feColorMatrix>
        </filter>
    </defs>
    <g id="Page-1" stroke="none" stroke-width="1" fill="none" fill-rule="evenodd">
        <g id="Artboard" transform="translate(-510.000000, -158.000000)">
            <g id="take-away" transform="translate(518.000000, 163.000000)">
                <g id="Group-6">
                    <g id="Oval">
                        <use fill="black" fill-opacity="1" filter="url(#filter-2)" xlink:href="#path-1"></use>
                        <use fill="#4C68FF" fill-rule="evenodd" xlink:href="#path-1"></use>
                    </g>
                    <g id="Icon" transform="translate(16.000000, 16.000000)" stroke-width="4">
                        <g id="package" transform="translate(12.000000, 10.000000)">
                            <path d="M12,7 L28,15" id="Path" stroke="#93A4FF" stroke-linecap="round" stroke-linejoin="round"></path>
                            <path d="M20.8881639,2.69014991 C20.3279295,2.41247632 19.6700255,2.41277765 19.1144272,2.68885438 L3.10999972,10.6910613 C2.43034204,11.0287913 2.00040244,11.7221173 2,12.48 L1.99995157,31.5339185 C1.99466023,32.2942322 2.42094397,32.9917874 3.09442719,33.3311456 L19.095,41.3314321 C19.6583679,41.6133417 20.3216321,41.6133417 20.8855728,41.3311456 L36.8900003,33.3289387 C37.569658,32.9912087 37.9995976,32.2978827 38,31.54 L38.0000003,12.4810613 C37.9995976,11.7221173 37.569658,11.0287913 36.8855728,10.6888544 L20.8881639,2.69014991 Z" id="Path" stroke="#FFFFFF"></path>
                            <polyline id="Path" stroke="#FFFFFF" stroke-linecap="round" stroke-linejoin="round" points="2.64 12.32 20 20 37.36 12.32"></polyline>
                            <path d="M20,41.52 L20,20" id="Path" stroke="#FFFFFF" stroke-linecap="round" stroke-linejoin="round"></path>
                        </g>
                    </g>
                </g>
            </g>
        </g>
    </g>
</svg>