<svg width="21" height="20" fill="none" xmlns="http://www.w3.org/2000/svg">
  <path fill-rule="evenodd" clip-rule="evenodd" d="M13.654.086a.91.91 0 011.029.18c.53.53 1.01 1.55 1.209 2.567l.476-.475a.91.91 0 111.285 1.286l-.475.475c1.016.199 2.038.68 2.567 1.21a.91.91 0 01-1.286 1.285c-.195-.195-.846-.56-1.642-.712a3.08 3.08 0 00-.887-.053c.483.657.834 1.372.986 2.11.237 1.152-.026 2.327-.958 3.26-1.77 1.786-5.218 4.152-8.282 5.948-1.541.904-3.023 1.686-4.187 2.19-.578.251-1.112.449-1.553.553a2.766 2.766 0 01-.686.086c-.204-.004-.585-.046-.887-.348-.294-.294-.343-.665-.35-.87a2.71 2.71 0 01.075-.681c.098-.436.287-.962.528-1.53.486-1.145 1.244-2.602 2.132-4.127a64.638 64.638 0 012.234-3.565C6.253 6.988 7.595 5.23 8.757 4.058l.002-.003c.935-.934 2.111-1.197 3.266-.96.46.094.912.266 1.347.498l-.238-2.6a.91.91 0 01.52-.907zM5.857 10.85l.817.802a.91.91 0 001.274-1.298L6.886 9.312c.473-.684.949-1.338 1.413-1.938l1.73 1.752a.91.91 0 001.294-1.278l-1.86-1.884c.2-.225.395-.434.584-.624.46-.459.995-.59 1.613-.463.66.135 1.424.576 2.161 1.313l.006.006c.734.72 1.173 1.476 1.308 2.13.126.613-.005 1.15-.465 1.61l-.003.002c-.52.524-1.217 1.119-2.027 1.743l-1.322-1.321a.91.91 0 00-1.285 1.286l1.125 1.125a60.937 60.937 0 01-2.498 1.667L7.1 12.9a.91.91 0 00-1.276 1.296l1.24 1.22-.308.181c-1.508.885-2.92 1.627-3.991 2.091-.285.124-.537.224-.753.3.072-.205.164-.442.278-.71.445-1.05 1.162-2.434 2.03-3.925.48-.825 1-1.673 1.537-2.504z" fill="#fff"/>
</svg>
