<svg width="24" height="24" viewBox="0 0 24 24" fill="none" xmlns="http://www.w3.org/2000/svg">
<path d="M6.25 5.25H13.25C13.8023 5.25 14.25 5.69772 14.25 6.25V8.75C14.25 9.30228 14.6977 9.75 15.25 9.75H17.75C18.3023 9.75 18.75 10.1977 18.75 10.75V17.75C18.75 18.3023 18.3023 18.75 17.75 18.75H10.75C10.1977 18.75 9.75 18.3023 9.75 17.75V15.25C9.75 14.6977 9.30228 14.25 8.75 14.25H6.25C5.69772 14.25 5.25 13.8023 5.25 13.25V6.25C5.25 5.69772 5.69772 5.25 6.25 5.25Z" fill="#E4E6F1" stroke="#160042" stroke-width="1.5"/>
</svg>
