<svg width="43" height="43" viewBox="0 0 43 43" fill="none" xmlns="http://www.w3.org/2000/svg">
<g filter="url(#filter0_d_207_1065)">
<circle cx="21.5" cy="17.5" r="17.5" fill="white"/>
</g>
<path d="M31.0344 12.55C30.927 12.1076 30.7081 11.7022 30.4 11.3749C30.0918 11.0475 29.7053 10.8098 29.2795 10.6856C27.7236 10.2941 21.5001 10.2941 21.5001 10.2941C21.5001 10.2941 15.2765 10.2941 13.7206 10.7229C13.2948 10.8471 12.9083 11.0848 12.6001 11.4122C12.292 11.7395 12.0732 12.1449 11.9657 12.5873C11.6809 14.2145 11.5417 15.8652 11.5496 17.5186C11.5394 19.1845 11.6787 20.8478 11.9657 22.4872C12.0842 22.9159 12.3079 23.3058 12.6153 23.6194C12.9227 23.9329 13.3034 24.1594 13.7206 24.2771C15.2765 24.7059 21.5001 24.7059 21.5001 24.7059C21.5001 24.7059 27.7236 24.7059 29.2795 24.2771C29.7053 24.1529 30.0918 23.9151 30.4 23.5878C30.7081 23.2604 30.927 22.8551 31.0344 22.4127C31.317 20.7977 31.4562 19.1596 31.4505 17.5186C31.4607 15.8527 31.3214 14.1895 31.0344 12.55Z" fill="white" stroke="#0F1554" stroke-width="2" stroke-linecap="round" stroke-linejoin="round"/>
<path d="M19.098 20.5882L25.9608 17.5L19.098 14.4118V20.5882Z" fill="#0F1554" stroke="#0F1554" stroke-width="2" stroke-linecap="round" stroke-linejoin="round"/>
<defs>
<filter id="filter0_d_207_1065" x="0" y="0" width="43" height="43" filterUnits="userSpaceOnUse" color-interpolation-filters="sRGB">
<feFlood flood-opacity="0" result="BackgroundImageFix"/>
<feColorMatrix in="SourceAlpha" type="matrix" values="0 0 0 0 0 0 0 0 0 0 0 0 0 0 0 0 0 0 127 0" result="hardAlpha"/>
<feOffset dy="4"/>
<feGaussianBlur stdDeviation="2"/>
<feComposite in2="hardAlpha" operator="out"/>
<feColorMatrix type="matrix" values="0 0 0 0 0 0 0 0 0 0 0 0 0 0 0 0 0 0 0.25 0"/>
<feBlend mode="normal" in2="BackgroundImageFix" result="effect1_dropShadow_207_1065"/>
<feBlend mode="normal" in="SourceGraphic" in2="effect1_dropShadow_207_1065" result="shape"/>
</filter>
</defs>
</svg>
