<svg width="100" height="100" viewBox="0 0 100 100" fill="none" xmlns="http://www.w3.org/2000/svg">
<rect width="100" height="100" fill="#35B8B2"/>
<path d="M56.5927 49.5727C56.2023 50.331 55.191 50.4274 54.1989 49.8811C53.5268 49.5084 53.5332 48.5636 53.61 47.9852C53.6484 47.6703 53.7636 47.3747 53.9364 47.124C54.1733 46.7834 54.5765 46.3335 55.0374 46.3207C55.7862 46.295 56.4327 46.6806 56.7975 47.3682C57.1624 48.0559 56.9832 48.8143 56.5927 49.5727ZM49.1487 48.6279C48.6175 49.1806 47.9134 49.1292 47.1709 48.8464C46.4284 48.5701 46.0956 47.5482 46.3772 46.3207C46.5885 45.408 47.5742 45.2731 48.067 45.2602C48.2526 45.2538 48.4383 45.2988 48.6111 45.3888C48.9631 45.5687 49.552 45.9479 49.6736 46.5327C49.8464 47.3682 49.68 48.0752 49.1487 48.6279ZM57.2712 19L55.3766 39.4246L52.1443 22.2071L41.9992 24.6493L45.2315 41.8668L30.606 45.3823L33.1918 59.1358L58.9034 65.3185L64.7856 50.376L67.5827 20.234L57.2712 19Z" fill="white"/>
<path d="M63.0317 72.6578C62.1165 72.6578 61.3484 73.0756 60.8619 73.8468L60.6443 72.8378H58.5513L58.8905 74.3995V80.8264H60.9259V75.7363C61.2012 75.2093 61.7196 74.888 62.3917 74.888C62.8077 74.888 63.1854 74.9972 63.5374 75.2415L64.5039 73.0563C64.0559 72.78 63.5374 72.6578 63.0317 72.6578Z" fill="white"/>
<path d="M67.6593 78.847C66.4816 78.847 65.6111 78.0565 65.6111 76.8354C65.6111 75.595 66.4816 74.8238 67.6593 74.8238C68.8499 74.8238 69.7075 75.595 69.7075 76.8354C69.7139 78.0629 68.8563 78.847 67.6593 78.847ZM67.6593 72.6708C65.3487 72.6708 63.6333 74.361 63.6333 76.8354C63.6333 79.3097 65.3487 81 67.6529 81C69.9636 81 71.6726 79.3162 71.6726 76.8354C71.6854 74.361 69.97 72.6708 67.6593 72.6708Z" fill="white"/>
<path d="M75.9804 78.847C74.8026 78.847 73.9322 78.0565 73.9322 76.8354C73.9322 75.595 74.8026 74.8238 75.9804 74.8238C77.1709 74.8238 78.0286 75.595 78.0286 76.8354C78.0286 78.0629 77.1773 78.847 75.9804 78.847ZM75.9804 72.6708C73.6697 72.6708 71.9543 74.361 71.9543 76.8354C71.9543 79.3097 73.6697 81 75.974 81C78.2846 81 80 79.3162 80 76.8354C80.0064 74.361 78.291 72.6708 75.9804 72.6708Z" fill="white"/>
<path d="M24.0196 78.847C22.8419 78.847 21.9714 78.0565 21.9714 76.8354C21.9714 75.595 22.8419 74.8238 24.0196 74.8238C25.2102 74.8238 26.0678 75.595 26.0678 76.8354C26.0742 78.0629 25.2166 78.847 24.0196 78.847ZM28.0905 69.2967H26.0551V73.8019C25.4406 73.0885 24.6021 72.6708 23.61 72.6708C21.5746 72.6708 20 74.3546 20 76.8354C20 79.3097 21.5746 81 23.61 81C24.6213 81 25.4918 80.5694 26.1063 79.8239L26.3174 80.8329H28.4425L28.0905 79.1748V69.2967Z" fill="white"/>
<path d="M46.6526 79.3161L45.0908 72.8443H42.9082L45.0332 80.8329H48.304L50.429 72.8443H48.2144L46.6526 79.3161Z" fill="white"/>
<path d="M52.3107 76.1091C52.5411 75.1965 53.226 74.7017 54.2693 74.7017C55.3254 74.7017 56.0167 75.1965 56.2279 76.1091H52.3107ZM54.2693 72.6708C51.9778 72.6708 50.2944 74.3418 50.2944 76.8354C50.2944 79.374 51.965 81 54.5445 81C55.6774 81 56.7911 80.6915 57.7257 80.0874L56.9448 78.32C56.2087 78.7056 55.4022 78.937 54.5765 78.937C53.5076 78.937 52.7587 78.5192 52.4323 77.748H58.1545C58.2185 77.4524 58.2441 77.1632 58.2441 76.8032C58.2441 74.3289 56.5479 72.6708 54.2693 72.6708Z" fill="white"/>
<path d="M30.7339 76.1092C30.9643 75.1965 31.6492 74.7017 32.6925 74.7017C33.7486 74.7017 34.4335 75.1965 34.6511 76.1092H30.7339ZM32.7309 72.6515C30.4395 72.6515 28.7561 74.3225 28.7561 76.8161C28.7561 79.3547 30.4203 80.9807 33.0062 80.9807C34.1391 80.9807 35.2528 80.6722 36.1873 80.0681L35.4064 78.3007C34.6703 78.6863 33.8639 78.9177 33.0382 78.9177C31.9692 78.9177 31.2204 78.4999 30.8939 77.7287H36.6162C36.6802 77.4331 36.7058 77.1439 36.7058 76.784C36.7058 74.3096 35.0096 72.6515 32.7309 72.6515Z" fill="white"/>
<path d="M41.4999 69.1424C40.7638 69.1424 40.2134 69.7016 40.2134 70.4407C40.2134 71.1798 40.7638 71.7389 41.4999 71.7389C42.2168 71.7389 42.7673 71.1798 42.7673 70.4407C42.7673 69.7016 42.2168 69.1424 41.4999 69.1424Z" fill="white"/>
<path d="M40.4758 72.8443H42.5112V80.8329H40.4758V72.8443Z" fill="white"/>
<path d="M37.3074 80.8329H39.3428V69.2966H37.3074V80.8329Z" fill="white"/>
</svg>
