<svg width="100" height="100" viewBox="0 0 100 100" fill="none" xmlns="http://www.w3.org/2000/svg">
<rect width="100" height="100" fill="#D70F64"/>
<path d="M15 61.2884H16.2635V60.0744C16.2635 58.6074 17.0722 57.6464 18.6895 57.6464L19.4982 57.7981V59.265L18.639 59.1133C18.1336 59.1133 17.9314 59.4168 17.9314 59.9226V61.2884H19.5487V62.7553H17.9314V68.8253H16.3141V62.7553H15V61.2884Z" fill="white"/>
<path d="M23.6427 61.1366C25.7149 61.1366 27.5849 62.7553 27.5849 65.0821C27.5849 67.4089 25.7654 69.0276 23.6427 69.0276C21.5199 69.0276 19.7004 67.4089 19.7004 65.0821C19.7004 62.7047 21.5705 61.1366 23.6427 61.1366ZM23.6427 67.5607C25.1589 67.5607 25.9676 66.4478 25.9676 65.0821C25.9676 63.7163 25.1589 62.6035 23.6427 62.6035C22.1264 62.6035 21.3178 63.7163 21.3178 65.0821C21.3178 66.3973 22.1264 67.5607 23.6427 67.5607V67.5607Z" fill="white"/>
<path d="M32.1842 61.1366C34.2564 61.1366 36.1264 62.7553 36.1264 65.0821C36.1264 67.4089 34.3069 69.0276 32.1842 69.0276C30.0614 69.0276 28.2419 67.4089 28.2419 65.0821C28.2925 62.7047 30.112 61.1366 32.1842 61.1366ZM32.1842 67.5607C33.7004 67.5607 34.5091 66.4478 34.5091 65.0821C34.5091 63.7163 33.7004 62.6035 32.1842 62.6035C30.6679 62.6035 29.8593 63.7163 29.8593 65.0821C29.8593 66.3973 30.6679 67.5607 32.1842 67.5607V67.5607Z" fill="white"/>
<path d="M44.5161 68.8253H43.0504L42.8987 68.1678L42.7976 68.0666L42.6966 68.1678C42.1911 68.6736 41.433 68.9771 40.6244 68.9771C38.5522 68.9771 36.7832 67.3584 36.7832 65.0316C36.7832 62.7048 38.5522 61.0861 40.6244 61.0861C41.433 61.0861 42.2417 61.3896 42.6966 61.8954L42.7976 61.9966L42.8987 61.8954V57.697H44.5161V68.8253ZM40.7254 62.553C39.2092 62.553 38.4005 63.6659 38.4005 65.0316C38.4005 66.3974 39.2092 67.5102 40.7254 67.5102C42.0901 67.5102 43.0504 66.3974 43.0504 65.0316C43.0504 63.7164 42.0901 62.553 40.7254 62.553V62.553Z" fill="white"/>
<path d="M46.1335 61.2883H47.5992L47.7509 61.9459L47.852 62.0471L47.953 61.9459C48.4585 61.4401 49.2166 61.1366 50.0252 61.1366C52.0974 61.1366 53.8664 62.7553 53.8664 65.0821C53.8664 67.4089 52.0974 69.0276 50.0252 69.0276C49.2166 69.0276 48.4079 68.7241 47.953 68.2183L47.852 68.1171L47.7509 68.2183V72.2649H46.1841V61.2883H46.1335ZM49.8736 67.5607C51.3899 67.5607 52.1985 66.4478 52.1985 65.0821C52.1985 63.7163 51.3899 62.6035 49.8736 62.6035C48.509 62.6035 47.5487 63.7163 47.5487 65.0821C47.5487 66.3973 48.509 67.5607 49.8736 67.5607Z" fill="white"/>
<path d="M57.8591 64.1211H59.1732V63.767C59.1732 62.8565 58.5667 62.4518 57.7075 62.4518C56.9999 62.4518 56.545 62.8059 56.2923 63.4635L54.8772 63.16C55.1804 61.8954 56.2923 61.0861 57.758 61.0861C59.7797 61.0861 60.7905 62.0977 60.7905 64.0705V68.7747H59.4764L59.3248 67.7631C58.8194 68.5218 58.0107 68.8759 56.9494 68.8759C55.5847 68.8759 54.6245 68.0666 54.6245 66.5491C54.5739 65.0821 55.888 64.1211 57.8591 64.1211V64.1211ZM57.1515 67.5607C57.6569 67.5607 58.1624 67.409 58.5162 67.0549C58.9205 66.7008 59.1226 66.2456 59.1226 65.6386V65.4868H57.758C56.7977 65.4868 56.1912 65.9421 56.1912 66.6502C56.1912 67.1561 56.545 67.5607 57.1515 67.5607V67.5607Z" fill="white"/>
<path d="M62.2058 61.2883H63.6715L63.8231 61.9459L63.9242 62.0471L64.0253 61.9459C64.3286 61.4401 65.1372 61.1366 65.7943 61.1366C67.7148 61.1366 68.8268 62.4012 68.8268 64.1716V68.8253H67.2094V64.1716C67.1589 63.1599 66.6535 62.5529 65.5921 62.5529C64.6318 62.5529 63.8737 63.3117 63.8231 64.2728V68.8253H62.2058V61.2883Z" fill="white"/>
<path d="M77.4692 68.8253H76.0035L75.8519 68.1678L75.7508 68.0666L75.6497 68.1678C75.1443 68.6736 74.3862 68.9771 73.5775 68.9771C71.5053 68.9771 69.7363 67.3584 69.7363 65.0316C69.7363 62.7048 71.5053 61.0861 73.5775 61.0861C74.3862 61.0861 75.1948 61.3896 75.6497 61.8954L75.7508 61.9966L75.8519 61.8954V57.697H77.4692V68.8253ZM73.7291 62.553C72.2129 62.553 71.4042 63.6659 71.4042 65.0316C71.4042 66.3974 72.2129 67.5102 73.7291 67.5102C75.0937 67.5102 76.054 66.3974 76.054 65.0316C76.054 63.7164 75.0937 62.553 73.7291 62.553Z" fill="white"/>
<path d="M82.0686 64.1211H83.3827V63.767C83.3827 62.8565 82.7762 62.4518 81.917 62.4518C81.2094 62.4518 80.7546 62.8059 80.5019 63.4635L79.0867 63.16C79.3899 61.8954 80.5019 61.0861 81.9676 61.0861C83.9892 61.0861 85 62.0977 85 64.0705V68.7747H83.686L83.5343 67.7631C83.0289 68.5218 82.2203 68.8759 81.1589 68.8759C79.7943 68.8759 78.834 68.0666 78.834 66.5491C78.7834 65.0821 80.047 64.1211 82.0686 64.1211V64.1211ZM81.3611 67.5607C81.8665 67.5607 82.3719 67.409 82.7257 67.0549C83.13 66.7008 83.3322 66.2456 83.3322 65.6386V65.4868H81.9676C81.0073 65.4868 80.4008 65.9421 80.4008 66.6502C80.4008 67.1561 80.7546 67.5607 81.3611 67.5607V67.5607Z" fill="white"/>
<path d="M49.9122 46.6466C51.7688 46.6466 53.316 45.3046 53.316 43.6528H46.5083C46.5083 45.3046 47.9524 46.6466 49.9122 46.6466V46.6466Z" fill="white"/>
<path d="M61.3615 32.4004C62.1867 31.7811 62.5993 30.7487 62.5993 29.6132C62.5993 27.5485 60.9489 26 58.886 26C57.545 26 56.4104 26.6194 55.7915 27.6517C53.9349 26.7226 51.8719 26.3097 49.809 26.3097C47.6429 26.3097 45.5799 26.8259 43.8264 27.6517C43.2075 26.6194 42.0729 26 40.732 26C38.669 26 37.0186 27.6517 37.0186 29.6132C37.0186 30.7487 37.5344 31.6778 38.2564 32.4004C36.7092 34.6716 35.884 37.2524 35.884 40.1429C35.884 47.7822 42.0729 54.0794 49.809 54.0794C57.4419 54.0794 63.7339 47.8854 63.7339 40.1429C63.7339 37.2524 62.9087 34.5683 61.3615 32.4004V32.4004ZM49.9121 52.9438C42.8981 52.9438 37.1218 47.1628 37.1218 40.1429C37.1218 37.4589 37.947 34.9813 39.2879 32.9166C40.5257 31.0584 42.2792 29.5099 44.3421 28.5808C45.9925 27.755 47.9523 27.342 49.9121 27.342C51.8719 27.342 53.8317 27.755 55.4821 28.5808C57.545 29.6132 59.1954 31.0584 60.5363 32.9166C61.8772 34.9813 62.7024 37.4589 62.7024 40.1429C62.7024 47.1628 56.9261 52.9438 49.9121 52.9438Z" fill="white"/>
<path d="M49.9119 42.827C50.1182 42.9302 52.2843 42.1043 52.2843 41.072C52.2843 40.4526 50.5308 40.3494 49.9119 40.3494C49.293 40.3494 47.5395 40.4526 47.5395 41.072C47.4364 42.1043 49.7056 42.9302 49.9119 42.827Z" fill="white"/>
<path d="M57.9575 34.1554C56.7197 33.3296 54.0378 32.9167 53.0064 34.2587C53.0064 34.2587 51.6654 35.7039 53.0064 37.1492C54.3473 38.5945 55.2756 40.0397 55.5851 41.1753C55.8945 42.4141 56.4102 42.827 57.3386 42.827C58.2669 42.827 60.1236 41.3818 60.433 39.0074C60.6393 36.633 59.1952 34.8781 57.9575 34.1554V34.1554ZM55.1725 37.1492C54.7599 37.1492 54.4504 36.8395 54.4504 36.4266C54.4504 36.0136 54.7599 35.7039 55.1725 35.7039C55.5851 35.7039 55.8945 36.0136 55.8945 36.4266C55.8945 36.8395 55.5851 37.1492 55.1725 37.1492Z" fill="white"/>
<path d="M46.7145 34.2587C45.683 32.9167 43.0012 33.3296 41.7634 34.1554C40.5257 34.9813 39.0816 36.633 39.2879 39.0074C39.4942 41.3818 41.3508 42.827 42.3823 42.827C43.3106 42.827 43.8264 42.3109 44.1358 41.1753C44.4453 39.9365 45.4767 38.5945 46.7145 37.1492C48.0554 35.6007 46.7145 34.2587 46.7145 34.2587V34.2587ZM44.7547 37.1492C44.3421 37.1492 44.0327 36.8395 44.0327 36.4266C44.0327 36.0136 44.3421 35.7039 44.7547 35.7039C45.1673 35.7039 45.4767 36.0136 45.4767 36.4266C45.4767 36.8395 45.1673 37.1492 44.7547 37.1492Z" fill="white"/>
</svg>
