<svg width="292" height="208" viewBox="0 0 292 208" fill="none" xmlns="http://www.w3.org/2000/svg">
<g filter="url(#filter0_d_1310_10486)">
<rect x="18" y="18" width="256" height="172" rx="16" fill="white"/>
<rect x="44.2054" y="131.963" width="99.9464" height="32.9092" rx="3.72944" fill="white"/>
<path d="M75.7066 143.017L72.0828 152.667H70.2501L66.6124 143.017H68.3063L71.1664 151.043L74.0405 143.017H75.7066ZM77.4798 144.003C77.1929 144.003 76.9522 143.906 76.7578 143.712C76.5635 143.517 76.4663 143.277 76.4663 142.99C76.4663 142.703 76.5635 142.462 76.7578 142.268C76.9522 142.073 77.1929 141.976 77.4798 141.976C77.7575 141.976 77.9936 142.073 78.1879 142.268C78.3823 142.462 78.4795 142.703 78.4795 142.99C78.4795 143.277 78.3823 143.517 78.1879 143.712C77.9936 143.906 77.7575 144.003 77.4798 144.003ZM78.2574 145.017V152.667H76.6745V145.017H78.2574ZM79.4521 148.807C79.4521 148.039 79.6094 147.359 79.9241 146.766C80.2481 146.174 80.6831 145.716 81.2293 145.392C81.7846 145.058 82.4002 144.892 83.0759 144.892C83.5757 144.892 84.0663 145.003 84.5476 145.225C85.0382 145.438 85.427 145.725 85.7139 146.086V142.393H87.3106V152.667H85.7139V151.515C85.4548 151.885 85.0938 152.19 84.6309 152.431C84.1774 152.672 83.6544 152.792 83.062 152.792C82.3956 152.792 81.7846 152.625 81.2293 152.292C80.6831 151.95 80.2481 151.478 79.9241 150.876C79.6094 150.265 79.4521 149.575 79.4521 148.807ZM85.7139 148.835C85.7139 148.307 85.6029 147.849 85.3807 147.46C85.1678 147.072 84.8855 146.775 84.5338 146.572C84.182 146.368 83.8025 146.266 83.3952 146.266C82.988 146.266 82.6085 146.368 82.2567 146.572C81.905 146.766 81.618 147.058 81.3959 147.446C81.183 147.826 81.0765 148.28 81.0765 148.807C81.0765 149.335 81.183 149.798 81.3959 150.196C81.618 150.594 81.905 150.899 82.2567 151.112C82.6177 151.316 82.9972 151.417 83.3952 151.417C83.8025 151.417 84.182 151.316 84.5338 151.112C84.8855 150.908 85.1678 150.612 85.3807 150.223C85.6029 149.825 85.7139 149.363 85.7139 148.835ZM96.0454 148.654C96.0454 148.941 96.0269 149.201 95.9899 149.432H90.1446C90.1908 150.043 90.4176 150.533 90.8249 150.904C91.2322 151.274 91.732 151.459 92.3244 151.459C93.176 151.459 93.7777 151.103 94.1294 150.39H95.8372C95.6058 151.093 95.1846 151.672 94.5737 152.126C93.972 152.57 93.2223 152.792 92.3244 152.792C91.5932 152.792 90.936 152.63 90.3528 152.306C89.7789 151.973 89.3254 151.51 88.9922 150.918C88.6682 150.316 88.5062 149.622 88.5062 148.835C88.5062 148.048 88.6636 147.359 88.9783 146.766C89.3022 146.164 89.7512 145.702 90.3251 145.378C90.9082 145.054 91.5747 144.892 92.3244 144.892C93.0464 144.892 93.6897 145.049 94.2544 145.364C94.819 145.679 95.2587 146.123 95.5734 146.697C95.8881 147.261 96.0454 147.914 96.0454 148.654ZM94.3932 148.155C94.3839 147.571 94.1757 147.104 93.7684 146.752C93.3611 146.401 92.8567 146.225 92.255 146.225C91.7089 146.225 91.2414 146.401 90.8527 146.752C90.4639 147.095 90.2325 147.562 90.1585 148.155H94.3932ZM100.566 152.792C99.8437 152.792 99.1911 152.63 98.608 152.306C98.0248 151.973 97.5666 151.51 97.2334 150.918C96.9002 150.316 96.7336 149.622 96.7336 148.835C96.7336 148.057 96.9048 147.368 97.2473 146.766C97.5898 146.164 98.0572 145.702 98.6496 145.378C99.242 145.054 99.9039 144.892 100.635 144.892C101.366 144.892 102.028 145.054 102.621 145.378C103.213 145.702 103.68 146.164 104.023 146.766C104.365 147.368 104.537 148.057 104.537 148.835C104.537 149.612 104.361 150.302 104.009 150.904C103.657 151.505 103.176 151.973 102.565 152.306C101.963 152.63 101.297 152.792 100.566 152.792ZM100.566 151.417C100.973 151.417 101.352 151.32 101.704 151.126C102.065 150.931 102.357 150.64 102.579 150.251C102.801 149.862 102.912 149.39 102.912 148.835C102.912 148.28 102.806 147.812 102.593 147.433C102.38 147.044 102.098 146.752 101.746 146.558C101.394 146.363 101.015 146.266 100.607 146.266C100.2 146.266 99.8205 146.363 99.4688 146.558C99.1263 146.752 98.8533 147.044 98.6496 147.433C98.446 147.812 98.3442 148.28 98.3442 148.835C98.3442 149.659 98.5524 150.297 98.969 150.751C99.3948 151.195 99.927 151.417 100.566 151.417Z" fill="#4C68FF"/>
<path d="M123.431 147.362C124.244 147.831 124.244 149.004 123.431 149.473L114.29 154.751C113.477 155.22 112.461 154.634 112.461 153.696V143.14C112.461 142.202 113.477 141.615 114.29 142.084L123.431 147.362Z" fill="#4C68FF"/>
<rect x="44.2054" y="131.963" width="99.9464" height="32.9092" rx="3.72944" stroke="#4C68FF" stroke-width="1.21886"/>
<rect x="155.731" y="131.354" width="103.603" height="34.1281" rx="4.33887" fill="#4C68FF"/>
<path d="M197.359 143.017V152.667H195.776V143.017H197.359ZM202.941 144.892C203.543 144.892 204.08 145.017 204.552 145.267C205.033 145.517 205.408 145.887 205.676 146.377C205.945 146.868 206.079 147.46 206.079 148.155V152.667H204.51V148.391C204.51 147.706 204.339 147.183 203.996 146.822C203.654 146.451 203.186 146.266 202.594 146.266C202.002 146.266 201.53 146.451 201.178 146.822C200.835 147.183 200.664 147.706 200.664 148.391V152.667H199.081V145.017H200.664V145.891C200.923 145.577 201.252 145.331 201.65 145.156C202.057 144.98 202.488 144.892 202.941 144.892ZM210.95 146.308H209.533V152.667H207.937V146.308H207.034V145.017H207.937V144.475C207.937 143.596 208.168 142.957 208.631 142.559C209.103 142.152 209.839 141.948 210.838 141.948V143.267C210.357 143.267 210.019 143.36 209.825 143.545C209.631 143.721 209.533 144.031 209.533 144.475V145.017H210.95V146.308ZM215.315 152.792C214.593 152.792 213.94 152.63 213.357 152.306C212.774 151.973 212.316 151.51 211.983 150.918C211.649 150.316 211.483 149.622 211.483 148.835C211.483 148.057 211.654 147.368 211.997 146.766C212.339 146.164 212.806 145.702 213.399 145.378C213.991 145.054 214.653 144.892 215.384 144.892C216.116 144.892 216.777 145.054 217.37 145.378C217.962 145.702 218.43 146.164 218.772 146.766C219.115 147.368 219.286 148.057 219.286 148.835C219.286 149.612 219.11 150.302 218.758 150.904C218.406 151.505 217.925 151.973 217.314 152.306C216.713 152.63 216.046 152.792 215.315 152.792ZM215.315 151.417C215.722 151.417 216.102 151.32 216.453 151.126C216.814 150.931 217.106 150.64 217.328 150.251C217.55 149.862 217.661 149.39 217.661 148.835C217.661 148.28 217.555 147.812 217.342 147.433C217.129 147.044 216.847 146.752 216.495 146.558C216.143 146.363 215.764 146.266 215.357 146.266C214.949 146.266 214.57 146.363 214.218 146.558C213.876 146.752 213.602 147.044 213.399 147.433C213.195 147.812 213.093 148.28 213.093 148.835C213.093 149.659 213.302 150.297 213.718 150.751C214.144 151.195 214.676 151.417 215.315 151.417Z" fill="white"/>
<path d="M124.811 54.3932V61.9525C124.811 62.8513 125.044 63.5281 125.511 63.9832C125.989 64.4382 126.648 64.6657 127.49 64.6657C128.343 64.6657 129.003 64.4382 129.47 63.9832C129.947 63.5281 130.186 62.8513 130.186 61.9525V54.3932H132.132V61.9184C132.132 62.8854 131.921 63.7045 131.5 64.3756C131.079 65.0468 130.516 65.5474 129.811 65.8773C129.106 66.2072 128.326 66.3721 127.473 66.3721C126.62 66.3721 125.841 66.2072 125.135 65.8773C124.441 65.5474 123.89 65.0468 123.48 64.3756C123.071 63.7045 122.866 62.8854 122.866 61.9184V54.3932H124.811ZM136.61 58.2497C136.94 57.7946 137.389 57.4249 137.958 57.1405C138.538 56.8447 139.181 56.6968 139.886 56.6968C140.717 56.6968 141.467 56.8959 142.139 57.2941C142.81 57.6922 143.339 58.261 143.725 59.0005C144.112 59.7285 144.306 60.5647 144.306 61.5089C144.306 62.4531 144.112 63.3006 143.725 64.0514C143.339 64.7909 142.804 65.371 142.121 65.792C141.45 66.2015 140.705 66.4063 139.886 66.4063C139.158 66.4063 138.51 66.2641 137.941 65.9797C137.383 65.6953 136.94 65.3312 136.61 64.8876V66.2527H134.664V53.6253H136.61V58.2497ZM142.326 61.5089C142.326 60.8605 142.19 60.303 141.917 59.8366C141.655 59.3588 141.302 59.0005 140.859 58.7616C140.426 58.5113 139.96 58.3862 139.459 58.3862C138.97 58.3862 138.504 58.5113 138.06 58.7616C137.628 59.0118 137.275 59.3759 137.002 59.8537C136.741 60.3315 136.61 60.8946 136.61 61.543C136.61 62.1914 136.741 62.7602 137.002 63.2494C137.275 63.7272 137.628 64.0912 138.06 64.3415C138.504 64.5918 138.97 64.7169 139.459 64.7169C139.96 64.7169 140.426 64.5918 140.859 64.3415C141.302 64.0799 141.655 63.7045 141.917 63.2153C142.19 62.7261 142.326 62.1573 142.326 61.5089ZM154.847 61.3212C154.847 61.6738 154.824 61.9924 154.778 62.2768H147.594C147.651 63.0276 147.93 63.6305 148.431 64.0856C148.931 64.5406 149.545 64.7681 150.274 64.7681C151.32 64.7681 152.06 64.3301 152.492 63.4542H154.591C154.306 64.3188 153.789 65.0298 153.038 65.5872C152.298 66.1332 151.377 66.4063 150.274 66.4063C149.375 66.4063 148.567 66.2072 147.85 65.809C147.145 65.3995 146.588 64.8307 146.178 64.1026C145.78 63.3632 145.581 62.51 145.581 61.543C145.581 60.5761 145.774 59.7285 146.161 59.0005C146.559 58.261 147.111 57.6922 147.816 57.2941C148.533 56.8959 149.352 56.6968 150.274 56.6968C151.161 56.6968 151.951 56.8902 152.645 57.277C153.339 57.6638 153.88 58.2098 154.267 58.9152C154.653 59.6091 154.847 60.4111 154.847 61.3212ZM152.816 60.7069C152.805 59.9902 152.549 59.4157 152.048 58.9834C151.548 58.5511 150.928 58.335 150.188 58.335C149.517 58.335 148.943 58.5511 148.465 58.9834C147.987 59.4043 147.703 59.9788 147.612 60.7069H152.816ZM158.706 58.2155C158.991 57.7377 159.366 57.368 159.833 57.1064C160.31 56.8333 160.873 56.6968 161.522 56.6968V58.7104H161.027C160.265 58.7104 159.685 58.9038 159.287 59.2906C158.9 59.6773 158.706 60.3485 158.706 61.3041V66.2527H156.761V56.8504H158.706V58.2155ZM165.255 55.9631V59.4441H169.351V61.0311H165.255V64.6657H169.863V66.2527H163.31V54.3761H169.863V55.9631H165.255ZM171.61 61.5089C171.61 60.5647 171.804 59.7285 172.19 59.0005C172.589 58.2724 173.123 57.7093 173.794 57.3111C174.477 56.9016 175.228 56.6968 176.047 56.6968C176.786 56.6968 177.429 56.8447 177.975 57.1405C178.533 57.4249 178.976 57.7832 179.306 58.2155V56.8504H181.268V66.2527H179.306V64.8534C178.976 65.2971 178.527 65.6668 177.958 65.9626C177.389 66.2584 176.741 66.4063 176.013 66.4063C175.205 66.4063 174.466 66.2015 173.794 65.792C173.123 65.371 172.589 64.7909 172.19 64.0514C171.804 63.3006 171.61 62.4531 171.61 61.5089ZM179.306 61.543C179.306 60.8946 179.17 60.3315 178.897 59.8537C178.635 59.3759 178.288 59.0118 177.856 58.7616C177.423 58.5113 176.957 58.3862 176.456 58.3862C175.956 58.3862 175.489 58.5113 175.057 58.7616C174.625 59.0005 174.272 59.3588 173.999 59.8366C173.738 60.303 173.607 60.8605 173.607 61.5089C173.607 62.1573 173.738 62.7261 173.999 63.2153C174.272 63.7045 174.625 64.0799 175.057 64.3415C175.501 64.5918 175.967 64.7169 176.456 64.7169C176.957 64.7169 177.423 64.5918 177.856 64.3415C178.288 64.0912 178.635 63.7272 178.897 63.2494C179.17 62.7602 179.306 62.1914 179.306 61.543ZM186.093 58.4374V63.6419C186.093 63.9945 186.173 64.2505 186.332 64.4098C186.503 64.5577 186.787 64.6316 187.185 64.6316H188.38V66.2527H186.844C185.968 66.2527 185.297 66.0479 184.83 65.6384C184.364 65.2288 184.131 64.5633 184.131 63.6419V58.4374H183.022V56.8504H184.131V54.5126H186.093V56.8504H188.38V58.4374H186.093ZM193.585 66.4063C192.846 66.4063 192.18 66.2754 191.589 66.0138C191.009 65.7408 190.548 65.3767 190.207 64.9217C189.865 64.4553 189.683 63.9377 189.661 63.3689H191.674C191.708 63.767 191.896 64.1026 192.237 64.3756C192.59 64.6373 193.028 64.7681 193.551 64.7681C194.097 64.7681 194.518 64.6657 194.814 64.461C195.121 64.2448 195.275 63.9718 195.275 63.6419C195.275 63.2892 195.104 63.0276 194.763 62.8569C194.433 62.6863 193.904 62.4986 193.176 62.2938C192.471 62.1004 191.896 61.9127 191.452 61.7307C191.009 61.5487 190.622 61.27 190.292 60.8946C189.973 60.5192 189.814 60.0243 189.814 59.41C189.814 58.9095 189.962 58.4544 190.258 58.0449C190.554 57.624 190.975 57.2941 191.521 57.0552C192.078 56.8163 192.715 56.6968 193.432 56.6968C194.501 56.6968 195.36 56.9699 196.008 57.5159C196.668 58.0506 197.021 58.7843 197.066 59.7172H195.121C195.087 59.2962 194.916 58.9607 194.609 58.7104C194.302 58.4601 193.887 58.335 193.364 58.335C192.852 58.335 192.459 58.4317 192.186 58.6251C191.913 58.8185 191.777 59.0744 191.777 59.3929C191.777 59.6432 191.868 59.8537 192.05 60.0243C192.232 60.195 192.453 60.3315 192.715 60.4339C192.977 60.5249 193.364 60.6443 193.875 60.7922C194.558 60.9742 195.115 61.1619 195.548 61.3553C195.991 61.5373 196.372 61.8103 196.691 62.1744C197.01 62.5384 197.174 63.0219 197.186 63.6248C197.186 64.1595 197.038 64.6373 196.742 65.0582C196.446 65.4791 196.026 65.809 195.479 66.0479C194.945 66.2868 194.313 66.4063 193.585 66.4063Z" fill="black"/>
<g filter="url(#filter1_d_1310_10486)">
<rect x="43.5966" y="47.2527" width="68.2561" height="65.8184" rx="6.0943" fill="#C4C4C4"/>
<rect x="43.5966" y="47.2527" width="68.2561" height="65.8184" rx="6.0943" fill="white"/>
</g>
<g filter="url(#filter2_d_1310_10486)">
<circle cx="153.903" cy="101.492" r="5.48487" fill="#4C68FF"/>
</g>
<g filter="url(#filter3_d_1310_10486)">
<rect x="122.658" y="92.1868" width="41.7685" height="19.829" rx="8.44173" stroke="url(#paint0_linear_1310_10486)" stroke-width="2.11043"/>
</g>
<path d="M171.939 103.162C171.939 102.451 172.098 101.815 172.416 101.256C172.74 100.69 173.179 100.251 173.732 99.9402C174.291 99.6225 174.916 99.4636 175.607 99.4636C176.415 99.4636 177.123 99.6708 177.731 100.085C178.338 100.5 178.763 101.073 179.005 101.805H177.337C177.171 101.46 176.936 101.201 176.632 101.028C176.335 100.855 175.99 100.769 175.596 100.769C175.175 100.769 174.799 100.869 174.467 101.069C174.143 101.263 173.887 101.539 173.701 101.898C173.521 102.257 173.431 102.679 173.431 103.162C173.431 103.639 173.521 104.06 173.701 104.426C173.887 104.785 174.143 105.065 174.467 105.265C174.799 105.459 175.175 105.555 175.596 105.555C175.99 105.555 176.335 105.469 176.632 105.296C176.936 105.117 177.171 104.854 177.337 104.509H179.005C178.763 105.248 178.338 105.825 177.731 106.239C177.13 106.647 176.422 106.85 175.607 106.85C174.916 106.85 174.291 106.695 173.732 106.384C173.179 106.067 172.74 105.628 172.416 105.069C172.098 104.509 171.939 103.874 171.939 103.162ZM182.792 106.882C182.24 106.882 181.743 106.761 181.301 106.519C180.859 106.27 180.51 105.922 180.254 105.473C180.006 105.024 179.881 104.506 179.881 103.919C179.881 103.331 180.009 102.813 180.265 102.364C180.527 101.916 180.883 101.57 181.332 101.328C181.781 101.08 182.281 100.955 182.834 100.955C183.386 100.955 183.887 101.08 184.336 101.328C184.785 101.57 185.137 101.916 185.393 102.364C185.655 102.813 185.787 103.331 185.787 103.919C185.787 104.506 185.652 105.024 185.383 105.473C185.12 105.922 184.761 106.27 184.305 106.519C183.856 106.761 183.352 106.882 182.792 106.882ZM182.792 105.618C183.055 105.618 183.3 105.555 183.528 105.431C183.763 105.3 183.949 105.107 184.088 104.851C184.226 104.595 184.295 104.285 184.295 103.919C184.295 103.373 184.15 102.955 183.86 102.665C183.576 102.368 183.228 102.219 182.813 102.219C182.399 102.219 182.05 102.368 181.767 102.665C181.491 102.955 181.352 103.373 181.352 103.919C181.352 104.464 181.487 104.885 181.756 105.182C182.033 105.473 182.378 105.618 182.792 105.618ZM190.031 100.966C190.715 100.966 191.268 101.183 191.689 101.619C192.11 102.047 192.321 102.648 192.321 103.421V106.788H190.87V103.618C190.87 103.162 190.756 102.813 190.528 102.572C190.301 102.323 189.99 102.199 189.596 102.199C189.195 102.199 188.878 102.323 188.643 102.572C188.415 102.813 188.301 103.162 188.301 103.618V106.788H186.851V101.049H188.301V101.764C188.494 101.515 188.74 101.322 189.037 101.183C189.341 101.038 189.672 100.966 190.031 100.966ZM196.881 100.966C197.565 100.966 198.117 101.183 198.538 101.619C198.96 102.047 199.17 102.648 199.17 103.421V106.788H197.72V103.618C197.72 103.162 197.606 102.813 197.378 102.572C197.15 102.323 196.839 102.199 196.446 102.199C196.045 102.199 195.727 102.323 195.492 102.572C195.265 102.813 195.151 103.162 195.151 103.618V106.788H193.7V101.049H195.151V101.764C195.344 101.515 195.589 101.322 195.886 101.183C196.19 101.038 196.522 100.966 196.881 100.966ZM205.885 103.794C205.885 104.001 205.871 104.188 205.844 104.354H201.648C201.682 104.768 201.827 105.093 202.083 105.328C202.339 105.562 202.653 105.68 203.026 105.68C203.565 105.68 203.948 105.448 204.176 104.986H205.74C205.574 105.538 205.257 105.994 204.787 106.353C204.317 106.705 203.741 106.882 203.057 106.882C202.504 106.882 202.007 106.761 201.565 106.519C201.13 106.27 200.788 105.922 200.539 105.473C200.298 105.024 200.177 104.506 200.177 103.919C200.177 103.325 200.298 102.803 200.539 102.354C200.781 101.905 201.119 101.56 201.555 101.318C201.99 101.076 202.49 100.955 203.057 100.955C203.602 100.955 204.089 101.073 204.518 101.308C204.953 101.543 205.288 101.878 205.523 102.313C205.764 102.741 205.885 103.235 205.885 103.794ZM204.383 103.38C204.376 103.007 204.241 102.71 203.979 102.489C203.716 102.261 203.395 102.147 203.015 102.147C202.656 102.147 202.352 102.257 202.104 102.478C201.862 102.693 201.713 102.993 201.658 103.38H204.383ZM206.571 103.919C206.571 103.325 206.692 102.807 206.934 102.364C207.175 101.916 207.51 101.57 207.938 101.328C208.367 101.08 208.857 100.955 209.41 100.955C210.121 100.955 210.708 101.135 211.171 101.494C211.641 101.846 211.955 102.344 212.114 102.986H210.549C210.466 102.737 210.325 102.544 210.125 102.406C209.931 102.261 209.689 102.188 209.399 102.188C208.985 102.188 208.657 102.34 208.415 102.644C208.173 102.941 208.052 103.366 208.052 103.919C208.052 104.464 208.173 104.889 208.415 105.193C208.657 105.49 208.985 105.638 209.399 105.638C209.986 105.638 210.37 105.376 210.549 104.851H212.114C211.955 105.473 211.641 105.966 211.171 106.332C210.701 106.699 210.114 106.882 209.41 106.882C208.857 106.882 208.367 106.761 207.938 106.519C207.51 106.27 207.175 105.925 206.934 105.483C206.692 105.034 206.571 104.513 206.571 103.919ZM214.865 102.24V105.017C214.865 105.21 214.91 105.352 215 105.441C215.096 105.524 215.255 105.566 215.476 105.566H216.15V106.788H215.238C214.015 106.788 213.404 106.194 213.404 105.006V102.24H212.72V101.049H213.404V99.6294H214.865V101.049H216.15V102.24H214.865ZM222.528 103.794C222.528 104.001 222.515 104.188 222.487 104.354H218.291C218.326 104.768 218.471 105.093 218.726 105.328C218.982 105.562 219.296 105.68 219.669 105.68C220.208 105.68 220.591 105.448 220.819 104.986H222.383C222.218 105.538 221.9 105.994 221.43 106.353C220.961 106.705 220.384 106.882 219.7 106.882C219.148 106.882 218.65 106.761 218.208 106.519C217.773 106.27 217.431 105.922 217.183 105.473C216.941 105.024 216.82 104.506 216.82 103.919C216.82 103.325 216.941 102.803 217.183 102.354C217.424 101.905 217.763 101.56 218.198 101.318C218.633 101.076 219.134 100.955 219.7 100.955C220.246 100.955 220.733 101.073 221.161 101.308C221.596 101.543 221.931 101.878 222.166 102.313C222.408 102.741 222.528 103.235 222.528 103.794ZM221.026 103.38C221.019 103.007 220.885 102.71 220.622 102.489C220.36 102.261 220.039 102.147 219.659 102.147C219.3 102.147 218.996 102.257 218.747 102.478C218.505 102.693 218.357 102.993 218.301 103.38H221.026ZM223.214 103.898C223.214 103.318 223.328 102.803 223.556 102.354C223.791 101.905 224.109 101.56 224.509 101.318C224.91 101.076 225.355 100.955 225.846 100.955C226.219 100.955 226.574 101.038 226.913 101.204C227.251 101.363 227.521 101.577 227.721 101.846V99.1217H229.192V106.788H227.721V105.939C227.541 106.222 227.289 106.45 226.965 106.623C226.64 106.795 226.264 106.882 225.835 106.882C225.352 106.882 224.91 106.757 224.509 106.509C224.109 106.26 223.791 105.911 223.556 105.462C223.328 105.006 223.214 104.485 223.214 103.898ZM227.731 103.919C227.731 103.566 227.662 103.266 227.524 103.017C227.386 102.762 227.199 102.568 226.965 102.437C226.73 102.299 226.478 102.23 226.208 102.23C225.939 102.23 225.69 102.295 225.462 102.427C225.234 102.558 225.048 102.751 224.903 103.007C224.765 103.255 224.696 103.552 224.696 103.898C224.696 104.243 224.765 104.547 224.903 104.81C225.048 105.065 225.234 105.262 225.462 105.4C225.697 105.538 225.946 105.607 226.208 105.607C226.478 105.607 226.73 105.542 226.965 105.41C227.199 105.272 227.386 105.079 227.524 104.83C227.662 104.575 227.731 104.271 227.731 103.919Z" fill="#4C68FF"/>
<path d="M91.6427 81.3205C91.6427 80.1194 90.7515 79.1726 89.6244 79.1726C88.5103 79.1726 87.606 80.1194 87.606 81.3205C87.606 82.5217 88.5103 83.4685 89.6244 83.4685C90.7515 83.4827 91.6427 82.5359 91.6427 81.3205ZM93.2941 77.8018V84.8534H91.6034V84.2175C91.0136 84.7404 90.2797 85.0371 89.4671 85.0371C87.475 85.0371 85.9154 83.3837 85.9154 81.3347C85.9154 79.2856 87.475 77.6322 89.4671 77.6322C90.2666 77.6322 91.0136 77.929 91.6034 78.4519V77.8159C91.6034 77.8018 93.2941 77.8018 93.2941 77.8018ZM98.8772 83.2566H97.6059C97.2259 83.2566 96.9769 83.0729 96.9769 82.7054V79.3987H98.8772V77.8018H96.9769V75.7951H95.2731V77.8018H93.9887V79.3987H95.2731V83.1435C95.2731 84.0903 95.9022 84.8393 97.0424 84.8393H98.8641L98.8772 83.2566ZM102.717 85.0371C104.657 85.0371 105.758 84.0621 105.758 82.7054C105.758 81.7445 105.103 81.0238 103.753 80.7129L102.311 80.402C101.485 80.2466 101.21 80.077 101.21 79.752C101.21 79.328 101.603 79.0736 102.35 79.0736C103.15 79.0736 103.74 79.2997 103.91 80.0911H105.588C105.496 78.6214 104.487 77.6322 102.455 77.6322C100.699 77.6322 99.467 78.3953 99.467 79.8933C99.467 80.9249 100.149 81.589 101.616 81.9141L103.215 82.3098C103.844 82.4369 104.015 82.6206 104.015 82.8891C104.015 83.3272 103.53 83.6098 102.77 83.6098C101.8 83.6098 101.236 83.3837 101.027 82.5924H99.3228C99.585 84.0479 100.62 85.0371 102.717 85.0371ZM79.1395 75.3005H85.4829V76.9257H80.8564V79.2574H85.3649V80.8542H80.8564V83.2142H85.4829V84.8393H79.1395V75.3005Z" fill="#06C167"/>
<path d="M76.1253 79.116V77.83H75.6666C74.9458 77.83 74.4215 78.1833 74.0939 78.7486V77.8866H72.8095V84.8393H74.107V80.8824C74.107 79.8084 74.723 79.1019 75.5749 79.1019H76.1253V79.116ZM66.7807 80.727C67.0166 79.6671 67.8292 78.9464 68.7859 78.9464C69.7427 78.9464 70.5684 79.653 70.7781 80.727H66.7807ZM68.8122 77.7594C66.8987 77.7594 65.4308 79.4128 65.4308 81.377C65.4308 83.4544 66.9511 85.0088 68.9301 85.0088C70.1228 85.0088 71.1057 84.4577 71.761 83.525L70.8174 82.7902C70.3325 83.4826 69.6772 83.8077 68.917 83.8077C67.803 83.8077 66.9249 82.9598 66.7414 81.8292H72.0887V81.377C72.1018 79.2997 70.7125 77.7594 68.8122 77.7594ZM61.381 83.7935C60.1228 83.7935 59.1137 82.7195 59.1137 81.377C59.1137 80.0346 60.1359 78.9606 61.381 78.9606C62.613 78.9606 63.6353 80.0204 63.6353 81.377C63.6353 82.7195 62.613 83.7935 61.381 83.7935ZM57.8293 84.8534H59.1137V83.9772C59.7035 84.6273 60.5422 85.0088 61.4597 85.0088C63.3862 85.0088 64.9066 83.3837 64.9066 81.377C64.9066 79.3562 63.3862 77.7311 61.4597 77.7311C60.5422 77.7311 59.7166 78.1268 59.1268 78.7627V75.2864H57.8293C57.8293 75.3005 57.8293 84.8534 57.8293 84.8534ZM53.2553 83.7229C54.5003 83.7229 55.4702 82.7054 55.4702 81.1792V75.2864H56.8201V84.8251H55.4833V83.9631C54.8804 84.6273 54.0416 85.0088 53.098 85.0088C51.1714 85.0088 49.6904 83.525 49.6904 81.264V75.2864H51.0535V81.1792C51.0404 82.7337 51.9971 83.7229 53.2553 83.7229Z" fill="#142328"/>
<rect x="19.2189" y="19.2189" width="253.562" height="169.562" rx="14.7811" stroke="#4C68FF" stroke-width="2.43772"/>
</g>
<defs>
<filter id="filter0_d_1310_10486" x="0.303003" y="0.303003" width="291.394" height="207.394" filterUnits="userSpaceOnUse" color-interpolation-filters="sRGB">
<feFlood flood-opacity="0" result="BackgroundImageFix"/>
<feColorMatrix in="SourceAlpha" type="matrix" values="0 0 0 0 0 0 0 0 0 0 0 0 0 0 0 0 0 0 127 0" result="hardAlpha"/>
<feOffset/>
<feGaussianBlur stdDeviation="8.8485"/>
<feComposite in2="hardAlpha" operator="out"/>
<feColorMatrix type="matrix" values="0 0 0 0 0.215686 0 0 0 0 0.317647 0 0 0 0 1 0 0 0 0.15 0"/>
<feBlend mode="normal" in2="BackgroundImageFix" result="effect1_dropShadow_1310_10486"/>
<feBlend mode="normal" in="SourceGraphic" in2="effect1_dropShadow_1310_10486" result="shape"/>
</filter>
<filter id="filter1_d_1310_10486" x="30.1891" y="36.283" width="95.071" height="92.6333" filterUnits="userSpaceOnUse" color-interpolation-filters="sRGB">
<feFlood flood-opacity="0" result="BackgroundImageFix"/>
<feColorMatrix in="SourceAlpha" type="matrix" values="0 0 0 0 0 0 0 0 0 0 0 0 0 0 0 0 0 0 127 0" result="hardAlpha"/>
<feOffset dy="2.43772"/>
<feGaussianBlur stdDeviation="6.70373"/>
<feColorMatrix type="matrix" values="0 0 0 0 0.164706 0 0 0 0 0.352941 0 0 0 0 0.917647 0 0 0 0.22 0"/>
<feBlend mode="normal" in2="BackgroundImageFix" result="effect1_dropShadow_1310_10486"/>
<feBlend mode="normal" in="SourceGraphic" in2="effect1_dropShadow_1310_10486" result="shape"/>
</filter>
<filter id="filter2_d_1310_10486" x="145.78" y="93.369" width="16.2458" height="16.2458" filterUnits="userSpaceOnUse" color-interpolation-filters="sRGB">
<feFlood flood-opacity="0" result="BackgroundImageFix"/>
<feColorMatrix in="SourceAlpha" type="matrix" values="0 0 0 0 0 0 0 0 0 0 0 0 0 0 0 0 0 0 127 0" result="hardAlpha"/>
<feOffset/>
<feGaussianBlur stdDeviation="1.31902"/>
<feColorMatrix type="matrix" values="0 0 0 0 0 0 0 0 0 0 0 0 0 0 0 0 0 0 0.25 0"/>
<feBlend mode="normal" in2="BackgroundImageFix" result="effect1_dropShadow_1310_10486"/>
<feBlend mode="normal" in="SourceGraphic" in2="effect1_dropShadow_1310_10486" result="shape"/>
</filter>
<filter id="filter3_d_1310_10486" x="116.855" y="86.3831" width="53.3759" height="31.4364" filterUnits="userSpaceOnUse" color-interpolation-filters="sRGB">
<feFlood flood-opacity="0" result="BackgroundImageFix"/>
<feColorMatrix in="SourceAlpha" type="matrix" values="0 0 0 0 0 0 0 0 0 0 0 0 0 0 0 0 0 0 127 0" result="hardAlpha"/>
<feOffset/>
<feGaussianBlur stdDeviation="2.37424"/>
<feColorMatrix type="matrix" values="0 0 0 0 0.462745 0 0 0 0 0.388235 0 0 0 0 0.85098 0 0 0 0.2 0"/>
<feBlend mode="normal" in2="BackgroundImageFix" result="effect1_dropShadow_1310_10486"/>
<feBlend mode="normal" in="SourceGraphic" in2="effect1_dropShadow_1310_10486" result="shape"/>
</filter>
<linearGradient id="paint0_linear_1310_10486" x1="165.482" y1="102.383" x2="121.603" y2="102.383" gradientUnits="userSpaceOnUse">
<stop stop-color="#2A5AEA"/>
<stop offset="1" stop-color="#9FA0A8"/>
</linearGradient>
</defs>
</svg>
