<svg width="100" height="100" viewBox="0 0 100 100" fill="none" xmlns="http://www.w3.org/2000/svg">
<rect width="100" height="100" fill="#EF7F22"/>
<path d="M21.5508 73.8843V72.7313C21.5508 72.574 21.4493 72.4691 21.2969 72.4691H15.2539C15.1016 72.4691 15 72.574 15 72.7313V73.8843C15 74.0416 15.1016 74.1464 15.2539 74.1464H17.2344C17.285 74.1464 17.3868 74.1987 17.3868 74.3036V80.8028C17.3868 80.96 17.4883 81.0651 17.6407 81.0651H18.961C19.1133 81.0651 19.2149 80.96 19.2149 80.8028V74.2512C19.2149 74.1987 19.2657 74.1464 19.3165 74.1464H21.2969C21.3985 74.1464 21.5 74.0416 21.5508 73.8843" fill="white"/>
<path d="M35.4649 77.0816H33.4335C33.3828 77.0816 33.2814 77.0291 33.2814 76.9766C33.2814 76.8718 33.3321 76.7668 33.3828 76.7147C33.4335 76.5575 33.5353 76.4526 33.637 76.3481C33.7385 76.2431 33.8906 76.1383 33.9921 76.0854C34.1446 76.0333 34.297 75.981 34.5002 75.981C34.8049 75.981 35.0588 76.0854 35.2617 76.2952C35.4142 76.5049 35.5156 76.7147 35.5663 76.9766C35.5663 77.0291 35.5156 77.0816 35.4649 77.0816V77.0816ZM36.633 75.509C36.3791 75.247 36.1252 75.0375 35.7698 74.8802C35.4142 74.723 35.0588 74.6707 34.6524 74.6707C34.1956 74.6707 33.7892 74.723 33.4335 74.8802C33.0274 75.0375 32.7228 75.247 32.4182 75.509C32.1135 75.7712 31.9103 76.0854 31.7578 76.5049C31.6053 76.8718 31.5039 77.501 31.5039 77.9726C31.5039 78.4443 31.6053 79.0208 31.7578 79.4403C31.9103 79.8072 32.1642 80.1217 32.4182 80.4361C32.7228 80.6983 33.0274 80.9077 33.4335 81.0651C33.8399 81.222 34.2463 81.2749 34.6524 81.2749C35.1095 81.2749 35.5663 81.1699 35.9727 80.9601C36.3284 80.8029 36.582 80.5935 36.8359 80.3312C36.9377 80.2264 36.9377 80.0691 36.8359 79.9641L36.0234 79.3356V79.2306C35.922 79.1782 35.7698 79.1782 35.7188 79.2827C35.6174 79.3877 35.4649 79.5449 35.3634 79.5975C35.1602 79.7547 34.9063 79.8072 34.6524 79.8072C34.297 79.8072 34.0431 79.7022 33.7892 79.4924C33.586 79.2827 33.3828 78.9161 33.3321 78.4443C33.3321 78.3919 33.3828 78.3395 33.4335 78.287H37.1409C37.293 78.287 37.3945 78.1824 37.3945 78.0247V77.7105C37.3945 77.2389 37.3438 76.8197 37.1916 76.4526C37.0391 76.0854 36.8359 75.7712 36.633 75.509V75.509ZM56.3869 78.8639C56.3869 79.0733 56.3365 79.2306 56.2851 79.3356C56.2347 79.4924 56.1333 79.5975 55.9808 79.6498C55.879 79.7547 55.7266 79.8072 55.5744 79.8593C55.4222 79.912 55.2698 79.912 55.0666 79.912C54.8637 79.912 54.6605 79.8593 54.508 79.7547C54.3051 79.6498 54.2541 79.4924 54.2541 79.2827C54.2541 79.0733 54.3051 78.9161 54.4573 78.8112C54.6094 78.7063 54.7619 78.6014 54.9144 78.5493C55.1176 78.4968 55.2698 78.4443 55.473 78.4443H56.2851C56.3365 78.4443 56.3869 78.4968 56.3869 78.6014V78.8639ZM57.4536 75.4568C57.2504 75.1946 56.9965 74.985 56.6408 74.8802C56.2851 74.723 55.879 74.6707 55.3712 74.6707C54.9144 74.6707 54.4573 74.723 54.0005 74.8802C53.6448 74.985 53.3402 75.1946 53.0355 75.4044C52.9338 75.509 52.9338 75.6667 53.0355 75.7712L53.5941 76.3481C53.6955 76.4526 53.8477 76.4526 53.9494 76.3481L54.4062 76.0333C54.6605 75.9286 54.9144 75.8235 55.2194 75.8235C55.5237 75.8235 55.7779 75.9286 56.0315 76.0854C56.2347 76.2431 56.3365 76.5575 56.3869 77.0816C56.3869 77.134 56.3365 77.1865 56.2347 77.1865H55.5744C55.2698 77.1865 55.0158 77.2389 54.7112 77.2389C54.4062 77.2914 54.1526 77.3433 53.8987 77.4484C53.6448 77.5531 53.3909 77.6581 53.1877 77.8154C52.9845 77.9726 52.8323 78.1824 52.6802 78.3919C52.5784 78.6014 52.477 78.9161 52.477 79.2306C52.477 79.5449 52.5273 79.8072 52.6291 80.017C52.7305 80.2264 52.883 80.4361 53.0862 80.5935C53.2891 80.7504 53.4923 80.8554 53.7462 80.9601C54.0005 81.0126 54.2541 81.0651 54.508 81.0651C54.8637 81.0651 55.2194 81.0126 55.5237 80.8554C55.7779 80.7504 55.9808 80.5935 56.1837 80.3837H56.2851L56.3365 80.4361V80.6456C56.3365 80.8029 56.4379 80.9077 56.5901 80.9077H57.7072C57.8597 80.9077 57.9611 80.8029 57.9611 80.6456V77.9203C57.9611 77.4484 57.9104 76.6623 57.8597 76.2952C57.809 76.0333 57.6568 75.7188 57.4536 75.4568V75.4568ZM41.3047 78.8639C41.3047 79.0733 41.254 79.2306 41.2033 79.3356C41.1526 79.4924 41.0511 79.5975 40.8987 79.6498C40.7969 79.7547 40.6447 79.8072 40.4926 79.8593C40.3398 79.912 40.1876 79.912 39.9844 79.912C39.7812 79.912 39.5783 79.8593 39.4259 79.7547C39.2227 79.6498 39.1719 79.4924 39.1719 79.2827C39.1719 79.0733 39.2227 78.9161 39.3751 78.8112C39.5273 78.7063 39.6798 78.6014 39.8323 78.5493C40.0355 78.4968 40.1876 78.4443 40.3908 78.4443H41.2033C41.254 78.4443 41.3047 78.4968 41.3047 78.6014V78.8639ZM42.3715 75.4568C42.1683 75.1946 41.914 74.985 41.5587 74.8802C41.2033 74.723 40.7969 74.6707 40.2894 74.6707C39.8323 74.6707 39.3751 74.723 38.918 74.8802C38.5627 74.985 38.258 75.1946 37.953 75.4044C37.8516 75.509 37.8516 75.6667 37.953 75.7712L38.5119 76.3481C38.6134 76.4526 38.7659 76.4526 38.8673 76.3481L39.3244 76.0333C39.5783 75.9286 39.8323 75.8235 40.1369 75.8235C40.4412 75.8235 40.6955 75.9286 40.9494 76.0854C41.1526 76.2431 41.254 76.5575 41.3047 77.0816C41.3047 77.134 41.254 77.1865 41.1526 77.1865H40.4926C40.1876 77.1865 39.9337 77.2389 39.6291 77.2389C39.3244 77.2914 39.0705 77.3433 38.8166 77.4484C38.5627 77.5531 38.3087 77.6581 38.1055 77.8154C37.9023 77.9726 37.7502 78.1824 37.5977 78.3919C37.4963 78.6014 37.3945 78.9161 37.3945 79.2306C37.3945 79.5449 37.4455 79.8072 37.547 80.017C37.6484 80.2264 37.8009 80.4361 38.0041 80.5935C38.2073 80.7504 38.4102 80.8554 38.6641 80.9601C38.918 81.0126 39.1719 81.0651 39.4259 81.0651C39.7812 81.0651 40.1369 81.0126 40.4412 80.8554C40.6955 80.7504 40.8987 80.5935 41.1015 80.3837H41.2033L41.254 80.4361V80.6456C41.254 80.8029 41.3555 80.9077 41.5079 80.9077H42.6251C42.7772 80.9077 42.879 80.8029 42.879 80.6456V77.9203C42.879 77.4484 42.8283 76.6623 42.7772 76.2952C42.7268 76.0333 42.5743 75.7188 42.3715 75.4568V75.4568ZM23.836 78.8639C23.836 79.0733 23.7852 79.2306 23.7344 79.3356C23.6835 79.4924 23.5822 79.5975 23.4297 79.6498C23.3281 79.7547 23.1758 79.8072 23.0234 79.8593C22.8711 79.912 22.7186 79.912 22.5156 79.912C22.3125 79.912 22.1093 79.8593 21.9571 79.7547C21.754 79.6498 21.7032 79.4924 21.7032 79.2827C21.7032 79.0733 21.754 78.9161 21.9062 78.8112C22.0587 78.7063 22.2109 78.6014 22.3634 78.5493C22.5664 78.4968 22.7186 78.4443 22.922 78.4443H23.7344C23.7852 78.4443 23.836 78.4968 23.836 78.6014V78.8639ZM24.9023 75.4568C24.6992 75.1946 24.4454 74.985 24.0899 74.8802C23.7344 74.723 23.3281 74.6707 22.8204 74.6707C22.3634 74.6707 21.9062 74.723 21.4492 74.8802C21.0938 74.985 20.789 75.1946 20.4845 75.4044C20.3827 75.509 20.3827 75.6667 20.4845 75.7712L21.0429 76.3481C21.1447 76.4526 21.2969 76.4526 21.3985 76.3481L21.8555 76.0333C22.1093 75.9286 22.3634 75.8235 22.668 75.8235C22.9727 75.8235 23.2266 75.9286 23.4804 76.0854C23.6835 76.2431 23.7852 76.5575 23.836 77.0816C23.836 77.134 23.7852 77.1865 23.6835 77.1865H23.0234C22.7186 77.1865 22.4648 77.2389 22.1602 77.2389C21.8555 77.2914 21.6015 77.3433 21.3476 77.4484C21.0938 77.5531 20.8399 77.6581 20.6367 77.8154C20.4336 77.9726 20.2812 78.1824 20.1289 78.3919C20.0273 78.6014 19.9258 78.9161 19.9258 79.2306C19.9258 79.5449 19.9765 79.8072 20.0781 80.017C20.1797 80.2264 20.332 80.4361 20.5352 80.5935C20.7383 80.7504 20.9414 80.8554 21.1953 80.9601C21.4492 81.0126 21.7032 81.0651 21.9571 81.0651C22.3125 81.0651 22.668 81.0126 22.9727 80.8554C23.2266 80.7504 23.4297 80.5935 23.6328 80.3837H23.7344L23.7852 80.4361V80.6456C23.7852 80.8029 23.8868 80.9077 24.0391 80.9077H25.1561C25.3086 80.9077 25.4103 80.8029 25.4103 80.6456V77.9203C25.4103 77.4484 25.3594 76.6623 25.3086 76.2952C25.2579 76.0333 25.1055 75.7188 24.9023 75.4568" fill="white"/>
<path d="M84.52 76.0853C84.4693 75.7711 84.3168 75.5617 84.165 75.3519C84.0125 75.1422 83.7583 74.9849 83.5047 74.88C83.2508 74.7753 82.8954 74.7229 82.489 74.7229C82.0826 74.7229 81.7272 74.8277 81.4226 74.9849C81.2194 75.1422 81.0162 75.3519 80.813 75.6138C80.813 75.6138 80.813 75.6666 80.7623 75.6666L80.7119 75.7187C80.6608 75.7187 80.6608 75.7187 80.6101 75.6666V75.6138C80.5591 75.5617 80.5591 75.5089 80.5087 75.4567C80.4573 75.3519 80.3055 75.1945 80.2037 75.0898C80.0516 74.9849 79.8987 74.88 79.6959 74.8277C79.493 74.7753 79.2391 74.7229 78.9341 74.7229C78.6802 74.7229 78.4773 74.7753 78.2744 74.8277C78.0709 74.88 77.9188 74.9849 77.7663 75.0898C77.6141 75.1945 77.4613 75.2994 77.3602 75.4567C77.3091 75.5089 77.3091 75.5617 77.2584 75.6138L77.2077 75.6666C77.157 75.6666 77.1059 75.6138 77.1059 75.6138V75.1945C77.1059 75.0374 77.0045 74.9326 76.8524 74.9326H76.4967C76.3442 74.9326 76.2427 75.0374 76.2427 75.1945V80.8553C76.2427 81.0125 76.3442 81.1171 76.4967 81.1171H76.9027C77.0555 81.1171 77.157 81.0125 77.157 80.8553V77.8678C77.157 77.553 77.2077 77.2388 77.2584 76.9765C77.3091 76.7146 77.4109 76.4525 77.5631 76.2951C77.7159 76.0853 77.8677 75.9285 78.0709 75.8234C78.2744 75.7187 78.528 75.6666 78.833 75.6666C79.1884 75.6666 79.493 75.8234 79.6452 76.0853C79.7976 76.348 79.8987 76.8196 79.8987 77.4483V80.9076C79.8987 81.065 80.0005 81.1698 80.153 81.1698H80.5591C80.7119 81.1698 80.813 81.065 80.813 80.9076V77.3961C80.813 77.1339 80.864 76.9244 80.9148 76.7146C80.9655 76.5048 81.1176 76.348 81.2194 76.1903C81.3719 76.0332 81.524 75.9285 81.6762 75.8234C81.829 75.7187 82.0319 75.7187 82.2351 75.7187C82.489 75.7187 82.7429 75.7711 82.8954 75.8759C83.0476 75.9808 83.1997 76.0853 83.3015 76.243C83.4029 76.4001 83.454 76.5574 83.5047 76.7667C83.5551 76.9765 83.5551 77.1339 83.5551 77.3432V80.96C83.5551 81.1171 83.6568 81.2219 83.8097 81.2219H84.2154C84.3682 81.2219 84.4693 81.1171 84.4693 80.96V77.2912C84.6218 76.7146 84.5711 76.348 84.52 76.0853V76.0853ZM66.188 76.1903C66.3405 75.9808 66.5437 75.8234 66.7973 75.7187C67.0515 75.6138 67.3054 75.5617 67.6101 75.5617C67.864 75.5617 68.1179 75.6138 68.3715 75.7187C68.5243 75.8234 68.6765 75.9285 68.8286 76.0853C68.9301 76.1903 69.0829 76.1903 69.1843 76.0853L69.5397 75.7711C69.6414 75.6666 69.6414 75.5089 69.5904 75.4043C69.3365 75.1945 69.0829 75.0374 68.8286 74.88C68.4729 74.7229 68.0669 74.6705 67.6608 74.6705C67.2544 74.6705 66.8483 74.7229 66.4926 74.88C66.1373 75.0374 65.8326 75.2469 65.5787 75.5089C65.3248 75.7711 65.1216 76.0853 64.9691 76.4525C64.8169 76.8196 64.7662 77.4483 64.7662 77.8678C64.7662 78.2869 64.8169 78.9683 64.9691 79.3355C65.1216 79.7021 65.3248 80.0169 65.528 80.2787C65.7819 80.5405 66.0865 80.7502 66.4419 80.9076C66.7973 81.065 67.204 81.1171 67.6101 81.1171C68.0161 81.1171 68.3715 81.065 68.7779 80.9076C69.0829 80.8028 69.3365 80.6455 69.5397 80.3836C69.6414 80.2787 69.6414 80.1216 69.5397 80.0169L69.235 79.7021C69.1333 79.5974 68.9811 79.5974 68.8797 79.7021C68.5747 80.0169 68.1686 80.2262 67.6101 80.2262C67.3054 80.2262 67.0515 80.1739 66.8483 80.069C66.5941 79.964 66.4419 79.8071 66.2387 79.5974C66.0865 79.3876 65.9341 79.1781 65.8833 78.9159C65.7819 78.6541 65.7312 78.1297 65.7312 77.8678C65.7312 77.553 65.7819 77.0815 65.8326 76.8196C65.8833 76.6099 66.0355 76.348 66.188 76.1903V76.1903ZM74.5667 79.0207C74.4653 79.2826 74.3639 79.4923 74.1607 79.7021C74.0082 79.9118 73.805 80.069 73.5514 80.1739C73.2978 80.2787 73.0435 80.3311 72.7392 80.3311C72.4342 80.3311 72.1807 80.2787 71.9264 80.1739C71.6725 80.069 71.4693 79.9118 71.3171 79.7021C71.1646 79.4923 71.0122 79.2826 70.9107 79.0207C70.809 78.7589 70.7586 78.3394 70.7586 78.0246C70.7586 77.7104 70.809 77.1339 70.9107 76.8717C71.0122 76.6099 71.1139 76.4001 71.3171 76.1903C71.4693 75.9808 71.7232 75.8234 71.9264 75.7187C72.1807 75.6138 72.4342 75.5617 72.7392 75.5617C73.0435 75.5617 73.2978 75.6138 73.5514 75.7187C73.805 75.8234 74.0082 75.9808 74.1607 76.1903C74.3131 76.4001 74.4653 76.6099 74.5667 76.8717C74.6685 77.1339 74.7192 77.7104 74.7192 78.0246C74.7192 78.2869 74.6685 78.7589 74.5667 79.0207ZM74.8717 75.5089C74.6181 75.2469 74.3131 75.0374 73.9578 74.88C73.6021 74.7229 73.196 74.6705 72.7896 74.6705C72.3835 74.6705 71.9771 74.7229 71.6218 74.88C71.2664 75.0374 70.9618 75.2469 70.7078 75.5089C70.4536 75.7711 70.2504 76.0853 70.0982 76.4525C69.9458 76.8196 69.895 77.553 69.895 77.9725C69.895 78.4442 69.9458 79.0207 70.0982 79.3876C70.2504 79.7546 70.4536 80.069 70.7078 80.3311C70.9618 80.5934 71.2664 80.8028 71.6218 80.96C71.9771 81.1171 72.3835 81.1698 72.7896 81.1698C73.196 81.1698 73.6021 81.1171 73.9578 80.96C74.3131 80.8028 74.6181 80.5934 74.8717 80.3311C75.1256 80.069 75.3288 79.7546 75.481 79.3876C75.6335 79.0207 75.6842 78.4442 75.6842 77.9725C75.6842 77.5009 75.6335 76.8196 75.481 76.4525C75.3288 76.0853 75.1256 75.7711 74.8717 75.5089V75.5089ZM63.9537 79.7546C63.7505 79.7546 63.598 79.8071 63.4963 79.964C63.3952 80.1216 63.2934 80.2787 63.2934 80.436C63.2934 80.5934 63.3445 80.7502 63.4963 80.9076C63.598 81.065 63.7505 81.1171 63.9537 81.1171C64.1566 81.1171 64.3094 81.065 64.4105 80.9076C64.5123 80.7502 64.6137 80.5934 64.6137 80.436C64.6137 80.2787 64.563 80.1216 64.4105 79.964C64.3094 79.8071 64.1566 79.7546 63.9537 79.7546ZM64.2077 75.0374C64.2077 74.9849 64.2077 74.9849 64.2077 75.0374C64.1566 74.88 64.0548 74.8277 63.9537 74.8277H62.8873C62.6841 74.8277 62.4809 74.9849 62.4305 75.1422V75.2994L62.3792 75.4043L61.4145 78.6541V78.7062C61.4145 78.7589 61.3638 78.811 61.262 78.811C61.2117 78.811 61.1606 78.7589 61.1606 78.7062L59.9928 75.4043V75.3519L59.8913 75.1422C59.7896 74.9849 59.6374 74.88 59.4342 74.88H58.2156C58.1139 74.88 58.0628 74.9849 58.0124 75.0374V75.2469L60.2974 81.0125C60.2974 81.1171 60.3481 81.2219 60.2974 81.3795L60.2467 81.4842C60.196 81.6414 60.1449 81.7985 60.0942 81.9034C60.0435 82.0082 59.9928 82.1132 59.8913 82.2179C59.7896 82.3229 59.6881 82.3751 59.5864 82.4277C59.4849 82.4798 59.2817 82.4798 59.1296 82.4798H58.3678C58.2156 82.4798 58.1139 82.5848 58.1139 82.7421V83.7377C58.1139 83.8951 58.2156 84 58.3678 84H59.3832C59.7896 84 60.1449 83.9475 60.3988 83.8951C60.6531 83.7906 60.856 83.6856 61.0588 83.5284C61.2116 83.3711 61.3638 83.1612 61.4652 82.8993C61.567 82.6372 61.6688 82.3751 61.8206 82.0607L64.2584 75.1945C64.2077 75.0898 64.2077 75.0374 64.2077 75.0374V75.0374ZM52.6294 75.2469C52.6804 75.1422 52.6804 75.0898 52.6804 75.0898V75.0374C52.6804 74.9326 52.5787 74.8277 52.4262 74.8277H51.4105C51.1569 74.8277 50.9534 75.0374 50.903 75.2469L50.8519 75.3519L49.9887 78.5492C49.9887 78.5492 49.938 78.6013 49.8873 78.6013C49.8362 78.6013 49.7855 78.5492 49.7855 78.5492V78.4967L48.9223 75.2469V75.1945C48.8713 74.9849 48.6684 74.8277 48.4145 74.8277H47.3481C47.0942 74.8277 46.891 75.0374 46.8402 75.2469V75.4043L46.0785 78.6013C46.0785 78.6541 46.0281 78.6541 45.9767 78.6541C45.9263 78.6541 45.9263 78.6541 45.8753 78.6013L44.9613 75.4043L44.9106 75.2469V75.1945C44.8596 74.9849 44.6564 74.8277 44.4028 74.8277H43.2857C43.1839 74.8277 43.0825 74.9326 43.0317 75.0374V75.0898C43.0317 75.1422 43.0317 75.1945 43.0825 75.2469L44.9106 80.6455V80.6981C45.0121 80.8553 45.1645 81.0125 45.3678 81.0125H46.4338C46.637 81.0125 46.8402 80.8553 46.8909 80.6455L46.942 80.4884L47.7542 77.3961C47.7542 77.3961 47.8052 77.3432 47.8559 77.3432C47.907 77.3432 47.907 77.3432 47.9574 77.3961L48.9223 80.5405C48.9223 80.5934 48.973 80.6981 48.973 80.6981C49.0745 80.8553 49.227 81.0125 49.4302 81.0125H50.4458C50.649 81.0125 50.8015 80.8553 50.903 80.6981C50.903 80.6981 50.9534 80.5934 50.9534 80.4884L52.6294 75.2469V75.2469ZM29.8792 78.0246L29.8285 77.9725C29.7778 77.8678 29.7778 77.7628 29.8285 77.7104L31.8595 75.0898C31.9106 75.0374 31.9106 74.9326 31.8595 74.88C31.8595 74.88 31.8091 74.8277 31.7581 74.8277H30.1331C29.981 74.8277 29.8285 74.9326 29.7267 75.0374L29.6253 75.1422L28.0511 77.2388H27.9495C27.9495 77.2388 27.9495 77.1864 27.8987 77.1864V72.1547C27.8987 71.9973 27.7972 71.8926 27.6448 71.8926H26.3752C26.2229 71.8926 26.1213 71.9973 26.1213 72.1547V80.7502C26.1213 80.9076 26.2229 81.0125 26.3752 81.0125H27.6448C27.7972 81.0125 27.8987 80.9076 27.8987 80.7502V78.3394C27.8987 78.3394 27.8987 78.2869 27.9495 78.2869C28.0003 78.2344 28.0511 78.2344 28.0511 78.2869L28.1019 78.3394L29.6253 80.6981L29.7267 80.8028C29.8285 80.96 29.981 81.0125 30.1331 81.0125H31.9106C31.9613 80.96 31.9613 80.9076 31.9613 80.8553L29.8792 78.0246" fill="white"/>
<path d="M75.73 42.6594C73.9468 39.6092 72.0025 36.8798 70.0578 34.4713C69.8963 34.3105 69.7345 33.9895 69.5721 33.8292C68.5998 32.5445 68.7621 31.5811 68.7621 31.5811C68.1136 25.1593 67.4655 22.2695 67.4655 21.4669C67.3032 20.5036 66.9798 19.701 65.6832 19.5401C64.549 19.3798 63.0909 19.2189 61.3081 19.2189C59.85 19.2189 59.6877 20.6644 59.6877 20.6644V23.0721C59.6877 23.233 59.6877 23.3934 59.3635 23.5542C59.2019 23.5542 59.2019 23.5542 59.0396 23.3934C54.8264 20.0219 51.9098 18.2559 51.5855 18.0951C50.7756 17.2925 49.8032 17.2925 49.8032 17.2925C49.8032 17.2925 48.9932 17.2925 48.3451 17.7742C47.5351 18.2559 34.2475 25.8015 24.0392 42.4989C24.0392 42.4989 23.3907 43.3015 23.8773 44.265C24.3635 45.0675 25.1739 45.0675 25.1739 45.0675C25.1739 45.0675 28.7382 45.5495 29.3862 45.5495C30.1967 45.5495 30.1967 46.1921 30.1967 46.1921C30.1967 46.1921 30.0347 56.7875 31.4928 68.0259C31.4928 68.0259 31.6552 69.311 32.9517 69.311C33.4375 69.311 35.2198 69.1497 40.0811 69.1497C40.4049 69.1497 40.4049 68.9901 40.4049 68.8292C39.9188 64.0122 39.7572 59.9986 39.7572 59.6769C39.7572 59.3561 39.433 59.3561 39.433 59.3561C36.354 57.5897 36.516 54.379 36.516 54.379C36.516 44.9071 37.1641 37.6824 37.1641 37.6824C37.1641 37.6824 37.1641 36.7189 38.1365 36.7189C38.9465 36.7189 38.9465 37.8427 38.9465 37.8427C38.623 41.8568 38.4607 49.242 38.4607 49.242C38.4607 49.242 38.4607 50.6867 39.7572 50.6867C41.053 50.6867 41.053 49.242 41.053 49.242C41.053 43.4624 41.5397 37.8427 41.5397 37.8427C41.5397 37.8427 41.5397 36.8798 42.5115 36.8798C43.322 36.8798 43.322 38.0036 43.322 38.0036C42.9977 42.9803 42.8354 49.4028 42.8354 49.4028C42.8354 49.4028 42.8354 50.8474 44.132 50.8474C45.4286 50.8474 45.4286 49.4028 45.4286 49.4028C45.4286 44.5862 45.9143 38.0036 45.9143 38.0036C45.9143 38.0036 45.9143 37.0403 46.8866 37.0403C47.6966 37.0403 47.6966 38.0036 47.6966 38.0036C47.2109 43.1406 47.2109 51.0079 47.2109 54.379C47.2109 57.7518 44.7801 59.1965 44.4562 59.3561C44.132 59.5173 44.2938 59.8389 44.2938 59.8389C44.4562 62.8888 44.6185 66.4207 44.9419 68.9901C44.9419 69.1497 45.1043 69.311 45.2662 69.311H56.2849C56.4468 69.311 56.6088 69.1497 56.6088 68.9901C57.0953 64.4943 57.2573 61.2832 57.2573 60.9624C57.2573 60.6411 56.933 60.6411 56.933 60.6411C56.2849 60.6411 54.9887 60.3199 53.6921 60.1598C52.5579 59.9986 52.396 58.5539 52.396 58.5539C51.4241 44.5862 58.8776 35.756 58.8776 35.756C58.8776 35.756 59.5253 34.7925 60.66 35.1138C61.6319 35.4343 61.6319 36.5585 61.6319 36.5585C62.6043 48.2789 61.6319 63.3705 60.9842 68.8292C60.9842 69.1497 61.1462 69.311 61.3081 69.311C64.549 69.4706 66.0074 69.4706 66.3313 69.4706C67.6279 69.311 67.7898 68.1867 67.7898 68.1867C69.4098 57.2697 69.086 46.3517 69.086 46.3517C69.086 46.3517 69.086 45.71 69.8963 45.5495C70.5445 45.5495 74.1091 45.0675 74.1091 45.0675C74.1091 45.0675 74.9191 45.0675 75.4053 44.265C76.2157 43.4624 75.73 42.6594 75.73 42.6594" fill="white"/>
</svg>
