<svg width="265" height="230" viewBox="0 0 265 230" fill="none" xmlns="http://www.w3.org/2000/svg">
<g clip-path="url(#clip0_1690_11597)">
<path d="M80.4108 88.6847C78.998 86.6553 77.0014 84.7774 76.875 82.2731C76.7591 79.9762 78.3039 77.6957 77.6524 75.4983C77.1514 73.8087 75.4987 72.7892 73.8838 72.2493C70.792 71.2306 67.4833 71.3718 64.4712 72.6511L64.6347 72.5233C62.7963 71.7972 60.6475 72.5467 59.2011 73.9349C57.7546 75.3231 56.895 77.2472 56.2281 79.1754C55.5609 81.1036 55.0441 83.1023 54.1174 84.91C53.1905 86.7178 51.7714 88.3617 49.8992 88.9865C50.526 90.3726 52.4853 90.8481 53.6345 89.893C53.9281 89.6286 54.192 89.3262 54.4205 88.9921C55.1869 87.9589 55.9533 86.9257 56.7198 85.8925C57.5085 87.4475 56.3303 89.5937 57.2997 91.0333C57.7995 91.7757 58.7125 92.0576 59.5604 92.2598C66.1873 93.8274 73.0617 93.5447 79.5657 91.4372C80.0884 91.2664 80.6651 91.0312 80.882 90.5066C81.1324 89.9011 80.7822 89.2184 80.4108 88.6847Z" fill="#2F2E41"/>
<path d="M99.2007 96.605C99.1593 96.8067 99.1323 97.0117 99.12 97.2181L84.6356 106.482L81.1149 104.235L77.3617 109.682L83.2456 114.332C83.721 114.707 84.2934 114.902 84.8769 114.886C85.4605 114.87 86.0237 114.645 86.4819 114.244L101.418 101.181C102.092 101.458 102.826 101.5 103.522 101.303C104.219 101.106 104.845 100.678 105.316 100.077C105.788 99.4761 106.084 98.73 106.164 97.9381C106.244 97.1462 106.105 96.3461 105.765 95.6441C105.424 94.9421 104.9 94.3716 104.26 94.0084C103.62 93.6452 102.896 93.5065 102.183 93.6108C101.471 93.7151 100.804 94.0575 100.271 94.5923C99.7381 95.1272 99.3648 95.8292 99.2007 96.605H99.2007Z" fill="#FFB7B7"/>
<path d="M84.1513 106.921L79.47 113.648C79.3368 113.839 79.1679 113.996 78.9749 114.109C78.782 114.221 78.5694 114.287 78.3517 114.3C78.1339 114.313 77.9162 114.274 77.7133 114.186C77.5104 114.097 77.3271 113.961 77.1758 113.787L71.8762 107.686C70.9967 106.925 70.4253 105.808 70.2873 104.581C70.1493 103.353 70.456 102.115 71.1401 101.138C71.8242 100.161 72.83 99.5248 73.9367 99.3686C75.0435 99.2124 76.161 99.5492 77.0441 100.305L83.6909 104.426C83.8812 104.544 84.0463 104.706 84.175 104.901C84.3036 105.096 84.3928 105.32 84.4365 105.557C84.4802 105.793 84.4774 106.038 84.4281 106.273C84.3789 106.509 84.2845 106.73 84.1513 106.921H84.1513Z" fill="#0F1555"/>
<path d="M77.709 224.123L81.8426 224.123L83.809 206.445L77.708 206.446L77.709 224.123Z" fill="#FFB7B7"/>
<path d="M76.6542 222.626L84.7951 222.625H84.7954C86.1713 222.625 87.4909 223.231 88.4638 224.31C89.4367 225.389 89.9834 226.851 89.9835 228.377V228.564L76.6544 228.564L76.6542 222.626Z" fill="#2F2E41"/>
<path d="M49.3855 224.123L53.5195 224.123L55.4859 206.445L49.3849 206.446L49.3855 224.123Z" fill="#FFB7B7"/>
<path d="M48.3311 222.626L56.472 222.625H56.4723C57.8482 222.625 59.1677 223.231 60.1407 224.31C61.1136 225.389 61.6602 226.851 61.6603 228.377V228.564L48.3313 228.564L48.3311 222.626Z" fill="#2F2E41"/>
<path d="M75.2262 86.1849C75.6567 81.8367 72.8263 77.9249 68.9042 77.4476C64.9822 76.9703 61.4537 80.1082 61.0232 84.4564C60.5927 88.8046 63.4231 92.7165 67.3451 93.1938C71.2672 93.6711 74.7956 90.5331 75.2262 86.1849Z" fill="#FFB7B7"/>
<path d="M72.3048 97.1951L76.5136 99.5067C76.5136 99.5067 81.2161 108.567 78.5186 117.165C77.209 121.339 80.8969 134.646 80.8969 134.646C80.8969 134.646 86.6109 194.919 86.629 213.521C79.5301 214.731 72.7865 216.226 72.4493 212.488C72.1122 208.75 68.4212 164.551 68.4212 164.551C68.4212 164.551 63.3454 213.61 59.2993 214.357C55.2531 215.105 47.1608 213.983 47.1608 213.983C47.1608 213.983 53.5852 142.122 57.9686 137.636L58.643 133.898L58.6249 100.343L63.6751 97.671L72.3048 97.1951Z" fill="#2F2E41"/>
<path d="M57.2487 148.134C57.7145 147.855 58.1193 147.466 58.4347 146.994C58.7501 146.522 58.9683 145.98 59.0741 145.405C59.1799 144.829 59.1707 144.235 59.047 143.665C58.9234 143.094 58.6883 142.56 58.3584 142.101L63.2532 105.929L56.8583 105.589L53.0427 141.611C52.3836 142.276 51.9675 143.187 51.8734 144.169C51.7793 145.152 52.0136 146.139 52.5321 146.944C53.0505 147.748 53.817 148.313 54.6863 148.532C55.5556 148.752 56.4674 148.61 57.2487 148.134Z" fill="#FFB7B7"/>
<path d="M63.1142 114.995L55.4661 114.459C55.2485 114.444 55.0364 114.377 54.8443 114.263C54.6522 114.149 54.4845 113.99 54.3528 113.797C54.221 113.604 54.1283 113.383 54.0808 113.147C54.0333 112.911 54.0323 112.666 54.0778 112.43L55.6714 104.146C55.7478 102.912 56.2626 101.762 57.1028 100.948C57.9429 100.134 59.0399 99.7229 60.1532 99.8044C61.2665 99.886 62.3051 100.454 63.0414 101.383C63.7777 102.312 64.1515 103.527 64.0808 104.762L64.7218 113.175C64.74 113.416 64.7113 113.658 64.6374 113.886C64.5636 114.113 64.4464 114.32 64.2939 114.493C64.1413 114.666 63.957 114.8 63.7534 114.886C63.5498 114.973 63.3318 115.01 63.1142 114.995H63.1142Z" fill="#0F1555"/>
<path d="M75.6123 80.1716C75.3339 78.7715 74.4297 77.6115 73.3881 76.762C71.6709 75.3615 69.565 74.6731 67.4372 74.8165C65.3093 74.96 63.2943 75.9262 61.7428 77.5471C60.8759 78.396 60.2509 79.5065 59.9443 80.7429C59.798 81.3609 59.7902 82.0091 59.9215 82.6312C60.0529 83.2533 60.3194 83.8304 60.6978 84.3122L60.8406 84.4113C60.7112 83.8027 61.1376 83.1946 61.647 82.9261C62.1768 82.7105 62.7298 82.5731 63.2919 82.5172C64.1423 82.339 64.9483 81.9606 65.6555 81.4073C66.3626 80.8541 66.9544 80.1391 67.3909 79.3105C67.7143 80.3303 68.2309 81.2615 68.906 82.0414C69.5811 82.8214 70.399 83.4321 71.3047 83.8324C72.2489 84.2418 74.8423 84.8047 75.7412 84.285C76.888 83.622 75.8907 81.5717 75.6123 80.1716Z" fill="#2F2E41"/>
<path d="M23.046 213.201C24.2822 213.683 25.6094 213.803 26.8998 213.551C28.1902 213.299 29.4003 212.683 30.4136 211.762C32.9941 209.361 33.8033 205.406 34.4614 201.743L36.4086 190.908L32.3321 194.02C29.4003 196.258 26.4027 198.568 24.373 201.809C22.3432 205.051 21.4577 209.476 23.0881 212.983" fill="#E6E6E6"/>
<path d="M23.6753 227.074C23.1622 222.93 22.6343 218.732 22.9951 214.543C23.3148 210.823 24.3386 207.191 26.4227 204.211C27.529 202.632 28.8751 201.28 30.4006 200.214C30.7983 199.936 31.1644 200.635 30.7684 200.912C28.1289 202.761 26.0872 205.492 24.9379 208.711C23.6685 212.29 23.4647 216.192 23.6834 219.994C23.8155 222.293 24.0963 224.577 24.3784 226.859C24.4007 226.962 24.3868 227.071 24.3395 227.163C24.2922 227.255 24.2152 227.324 24.1238 227.356C24.0306 227.384 23.9313 227.37 23.8474 227.317C23.7635 227.264 23.7018 227.177 23.6756 227.074L23.6753 227.074Z" fill="#F2F2F2"/>
<path d="M27.3683 220.423C27.8984 221.316 28.6271 222.043 29.4842 222.534C30.3414 223.024 31.298 223.262 32.262 223.224C34.74 223.093 36.805 221.177 38.6637 219.357L44.1626 213.974L40.5234 213.781C37.9062 213.642 35.2215 213.511 32.7287 214.407C30.2359 215.303 27.937 217.456 27.4813 220.316" fill="#E6E6E6"/>
<path d="M22.2247 229.455C24.6949 224.609 27.5598 219.224 32.6795 217.502C34.1029 217.025 35.5954 216.855 37.0767 216.999C37.5436 217.044 37.427 217.841 36.9611 217.797C34.478 217.569 31.9998 218.295 29.9436 219.855C27.9648 221.349 26.4241 223.425 25.1203 225.626C24.3215 226.974 23.606 228.38 22.8906 229.784C22.662 230.232 21.9934 229.908 22.2247 229.455Z" fill="#F2F2F2"/>
<path d="M189.146 139.875C184.51 132.997 176.027 131.338 171.811 134.83C167.595 138.323 166.627 147.813 171.262 154.69C175.552 161.056 183.326 162.792 187.607 160.407C187.594 160.481 187.593 160.558 187.605 160.633L187.846 161.956C187.865 162.057 187.906 162.151 187.966 162.229C188.027 162.307 188.104 162.367 188.191 162.403C188.278 162.438 188.372 162.449 188.464 162.433C188.556 162.417 188.642 162.375 188.715 162.312L190.759 160.542C190.833 160.478 190.89 160.395 190.926 160.3C190.962 160.206 190.976 160.102 190.965 160C190.955 159.898 190.922 159.8 190.868 159.716C190.814 159.632 190.742 159.565 190.658 159.521L189.559 158.941C189.52 158.922 189.479 158.907 189.438 158.899C192.738 155.031 193.445 146.254 189.146 139.875Z" fill="#CCCCCC"/>
<path d="M179.006 137.278C181.274 137.677 183.317 139.026 184.713 141.047C186.109 143.068 186.752 145.605 186.509 148.136C186.46 148.716 187.277 148.712 187.326 148.136C187.56 145.408 186.855 142.683 185.352 140.507C183.849 138.332 181.66 136.866 179.224 136.405C178.709 136.308 178.489 137.18 179.006 137.278Z" fill="white"/>
<path d="M196.701 20.996C200.754 13.6804 199.012 4.32689 194.527 1.27347C190.043 -1.77994 181.73 0.72752 177.678 8.04316C173.926 14.8147 175.342 23.4646 178.923 26.9949C178.855 27.0082 178.791 27.0356 178.732 27.0758L177.713 27.8132C177.635 27.8694 177.571 27.9467 177.528 28.0377C177.485 28.1288 177.463 28.2306 177.466 28.3335C177.468 28.4363 177.494 28.5369 177.541 28.6255C177.588 28.7141 177.655 28.7879 177.735 28.8399L179.974 30.292C180.054 30.3439 180.145 30.3723 180.238 30.3745C180.331 30.3766 180.422 30.3524 180.504 30.3042C180.586 30.2559 180.656 30.1852 180.706 30.0989C180.757 30.0125 180.786 29.9132 180.792 29.8105L180.872 28.4635C180.874 28.4166 180.871 28.3695 180.863 28.3233C185.324 30.2948 192.942 27.7823 196.701 20.996Z" fill="#CCCCCC"/>
<path d="M195.133 9.58985C195.635 12.0734 195.259 14.6762 194.081 16.8609C192.903 19.0456 191.013 20.6455 188.802 21.3304C188.297 21.4932 188.602 22.3336 189.104 22.1718C191.477 21.4051 193.5 19.672 194.769 17.3202C196.038 14.9684 196.458 12.1717 195.945 9.49105C195.836 8.92557 195.023 9.02018 195.133 9.58985Z" fill="white"/>
<path d="M124.883 55.7085C124.544 47.1315 118.375 40.4648 113.117 40.7202C107.859 40.9755 102.24 48.2147 102.579 56.7916C102.893 64.7306 108.436 71.017 113.185 71.7182C113.136 71.7711 113.096 71.834 113.068 71.9034L112.596 73.1476C112.56 73.2424 112.547 73.3459 112.557 73.4482C112.567 73.5504 112.601 73.6481 112.654 73.7319C112.708 73.8157 112.781 73.8829 112.864 73.9271C112.948 73.9712 113.041 73.9909 113.134 73.9841L115.722 73.7967C115.815 73.79 115.904 73.7571 115.982 73.7013C116.06 73.6454 116.124 73.5684 116.167 73.4775C116.211 73.3867 116.233 73.285 116.231 73.1821C116.229 73.0792 116.203 72.9785 116.157 72.8897L115.542 71.7243C115.52 71.6842 115.494 71.6472 115.464 71.6139C120.155 70.4768 125.197 63.6647 124.883 55.7085Z" fill="#0F1555"/>
<path d="M117.821 47.2315C119.492 48.9767 120.496 51.3667 120.623 53.908C120.751 56.4494 119.994 58.9482 118.508 60.8887C118.173 61.3368 118.85 61.8436 119.183 61.3985C120.762 59.2896 121.563 56.5972 121.426 53.861C121.289 51.1249 120.224 48.5473 118.444 46.6454C118.068 46.2444 117.443 46.8276 117.821 47.2315Z" fill="white"/>
<path d="M148.99 112.605C146.964 112.464 144.996 111.792 143.249 110.644C141.502 109.497 140.025 107.907 138.939 106.004C138.635 105.465 138.237 104.872 138.448 104.209C138.521 103.954 138.671 103.735 138.871 103.586C139.071 103.438 139.311 103.369 139.552 103.392C140.173 103.475 140.573 104.149 140.65 104.794C140.737 105.526 140.271 106.101 139.696 106.373C138.29 107.038 136.872 106.011 135.727 105.191C133.118 103.323 130.249 101.633 127.087 101.42C124.163 101.223 121.026 102.495 119.399 105.307C119.115 105.799 119.821 106.253 120.105 105.764C121.718 102.975 124.98 101.973 127.816 102.405C129.506 102.7 131.138 103.314 132.641 104.221C133.42 104.669 134.176 105.166 134.917 105.689C135.622 106.234 136.369 106.709 137.149 107.108C138.451 107.701 140.175 107.654 141.084 106.289C141.932 105.016 141.277 102.896 139.858 102.538C139.546 102.47 139.225 102.489 138.922 102.592C138.618 102.696 138.343 102.881 138.121 103.132C137.898 103.383 137.735 103.691 137.646 104.028C137.557 104.366 137.546 104.723 137.612 105.067C137.753 105.817 138.263 106.55 138.657 107.163C139.841 109.011 141.385 110.54 143.173 111.639C144.961 112.737 146.949 113.377 148.99 113.511C149.516 113.539 149.514 112.634 148.99 112.605L148.99 112.605Z" fill="#CCCCCC"/>
<path d="M227.431 50.2187C229.667 49.0654 232.412 48.6873 234.688 49.759C236.963 50.8307 238.514 53.5776 237.779 56.0087C237.445 57.1108 236.685 58.1948 236.981 59.308C237.209 60.1648 238.004 60.7305 238.784 61.1328C239.565 61.535 240.419 61.8732 240.983 62.5516C241.548 63.23 241.665 64.3978 240.96 64.9239C240.728 65.0973 240.438 65.1795 240.212 65.3621C240.02 65.5351 239.882 65.7701 239.816 66.0345C239.75 66.2989 239.761 66.5794 239.845 66.837C240.033 67.3553 240.344 67.8079 240.744 68.1472C241.544 68.9126 242.602 69.7885 242.354 70.875C242.261 71.1653 242.107 71.4268 241.905 71.637C241.702 71.8473 241.456 72.0003 241.189 72.0829C240.633 72.2605 240.057 72.3449 239.479 72.3331L215.858 73.1581C215.078 73.223 214.294 73.1744 213.526 73.0136C213.152 72.9381 212.797 72.778 212.482 72.5433C212.167 72.3086 211.898 72.0043 211.694 71.6495C211.242 70.7213 211.539 69.5779 212.097 68.7111C212.656 67.8443 213.447 67.1606 214.1 66.3646C214.753 65.5687 215.288 64.5752 215.172 63.5465C215.08 62.723 214.59 62.0113 214.239 61.2631C213.887 60.5149 213.683 59.5799 214.138 58.8916C214.78 57.9216 216.321 58.0094 217.051 57.1056C217.601 56.4235 217.495 55.4416 217.55 54.562C217.681 52.4463 219.003 50.4483 220.883 49.5204C221.84 49.0653 222.88 48.8688 223.918 48.9472C224.957 49.0256 225.963 49.3766 226.855 49.9713L227.431 50.2187Z" fill="#2F2E41"/>
<path d="M256.197 154.917V159.199L241.297 161.237L241.297 154.916L256.197 154.917Z" fill="#9E616A"/>
<path d="M259.941 153.825L259.941 167.634H259.783C258.498 167.634 257.265 167.067 256.355 166.059C255.446 165.052 254.935 163.684 254.935 162.259V162.259L254.936 153.825L259.941 153.825Z" fill="#2F2E41"/>
<path d="M237.778 162.202L236.83 166.353L221.935 164.273L223.334 158.146L237.778 162.202Z" fill="#9E616A"/>
<path d="M241.65 162.163L238.592 175.549L238.439 175.506C237.193 175.156 236.123 174.272 235.465 173.047C234.806 171.823 234.614 170.358 234.929 168.976L234.929 168.976L236.797 160.8L241.65 162.163Z" fill="#2F2E41"/>
<path d="M233.974 114.174L234.778 115.103C234.778 115.103 240.028 119.667 236.144 131.689L229.79 151.981L251.086 152.902L250.63 162.174C250.63 162.174 219.746 164.079 220.016 158.436C220.286 152.793 221.426 131.9 221.426 131.9L215.01 126.187L216.557 116.525L233.974 114.174Z" fill="#2F2E41"/>
<path d="M217.477 123.384L215.01 126.188L206.738 151.397C206.738 151.397 205.477 157.685 208.313 159.082C211.149 160.479 229.395 168.296 229.395 168.296L231.259 160.861L217.199 151.506L223.752 141.965L224.739 126.929L217.477 123.384Z" fill="#2F2E41"/>
<path d="M217.608 78.914L238.604 74.2596L239.06 87.0304L233.622 99.882L234.778 115.105L215.961 118.75L216.55 98.7327C216.55 98.7327 211.497 90.8293 214.474 82.863L217.608 78.914Z" fill="#E4E4E4"/>
<path d="M264.426 48.6167C264.531 49.1528 264.529 49.7079 264.42 50.243C264.31 50.778 264.097 51.2801 263.793 51.7137C263.49 52.1473 263.105 52.5019 262.665 52.7526C262.225 53.0033 261.74 53.1439 261.246 53.1646L241.112 79.0485L236.431 72.7502L257.694 49.2877C257.717 48.3644 258.046 47.4828 258.617 46.81C259.187 46.1372 259.961 45.7199 260.791 45.6372C261.621 45.5545 262.449 45.8121 263.119 46.3613C263.789 46.9104 264.254 47.7129 264.426 48.6167Z" fill="#9E616A"/>
<path d="M245.496 76.2252C245.5 76.4669 245.458 76.7069 245.371 76.9289C245.285 77.1508 245.156 77.3494 244.994 77.5112L239.333 83.1614C238.622 84.115 237.599 84.7173 236.489 84.8363C235.378 84.9552 234.27 84.5812 233.408 83.7961C232.546 83.011 231.999 81.8789 231.889 80.648C231.778 79.4171 232.113 78.1878 232.818 77.2296L236.77 69.9778C236.883 69.7708 237.034 69.5933 237.215 69.4572C237.395 69.3211 237.6 69.2297 237.815 69.1891C238.03 69.1486 238.25 69.16 238.461 69.2224C238.671 69.2848 238.868 69.3968 239.036 69.5508L244.945 74.9638C245.113 75.1178 245.249 75.3102 245.344 75.5278C245.439 75.7455 245.491 75.9834 245.496 76.2252Z" fill="#E4E4E4"/>
<path d="M184.687 109.447C184.655 108.9 184.732 108.351 184.913 107.84C185.093 107.329 185.372 106.869 185.731 106.49C186.089 106.112 186.518 105.825 186.987 105.651C187.456 105.476 187.954 105.418 188.446 105.48L211.855 83.2381L215.631 90.2437L191.433 109.904C191.285 110.812 190.841 111.629 190.185 112.2C189.53 112.77 188.708 113.054 187.877 112.997C187.045 112.941 186.261 112.549 185.673 111.894C185.085 111.24 184.734 110.369 184.687 109.447V109.447Z" fill="#9E616A"/>
<path d="M207.139 85.2996C207.167 85.0598 207.241 84.8295 207.357 84.6245C207.472 84.4195 207.627 84.2445 207.809 84.1116L214.171 79.4671C215.002 78.6423 216.095 78.2169 217.209 78.2839C218.324 78.351 219.368 78.9051 220.115 79.8249C220.861 80.7446 221.248 81.9548 221.19 83.1903C221.133 84.4257 220.636 85.5856 219.809 86.4155L214.92 92.9278C214.78 93.1136 214.606 93.2639 214.41 93.3685C214.213 93.4731 213.998 93.5294 213.78 93.5337C213.562 93.538 213.346 93.4901 213.146 93.3934C212.946 93.2966 212.768 93.1532 212.622 92.973L207.512 86.6382C207.367 86.458 207.258 86.2452 207.194 86.0141C207.129 85.7831 207.11 85.5394 207.139 85.2996Z" fill="#E4E4E4"/>
<path d="M226.557 72.9525C230.831 72.9525 234.296 69.1113 234.296 64.3728C234.296 59.6344 230.831 55.7931 226.557 55.7931C222.283 55.7931 218.818 59.6344 218.818 64.3728C218.818 69.1113 222.283 72.9525 226.557 72.9525Z" fill="#9E616A"/>
<path d="M234.474 63.1546C232.03 62.937 230.001 60.2303 230.255 57.5267C230.283 58.6411 229.942 59.7282 229.294 60.5814C228.647 61.4345 227.74 61.9941 226.744 62.1537C225.623 62.2907 224.394 61.9146 223.419 62.5416C222.338 63.2361 221.992 64.9225 220.866 65.5224C219.778 66.1019 218.397 65.3115 217.859 64.1134C217.322 62.9154 217.453 61.476 217.81 60.1975C218.318 58.3743 219.243 56.7278 220.494 55.4183C221.746 54.1087 223.283 53.1807 224.954 52.7244C226.625 52.2681 228.375 52.2992 230.032 52.8144C231.689 53.3297 233.198 54.3118 234.411 55.665C235.439 56.8109 236.255 58.2714 236.387 59.8807C236.52 61.4899 235.846 63.2361 234.543 63.959L234.474 63.1546Z" fill="#2F2E41"/>
<path d="M120.863 229.121H0.815086C0.73152 229.121 0.651381 229.085 0.592291 229.019C0.533201 228.954 0.5 228.865 0.5 228.772C0.5 228.68 0.533201 228.591 0.592291 228.525C0.651381 228.46 0.73152 228.423 0.815086 228.423H120.863C120.947 228.423 121.027 228.46 121.086 228.525C121.145 228.591 121.178 228.68 121.178 228.772C121.178 228.865 121.145 228.954 121.086 229.019C121.027 229.085 120.947 229.121 120.863 229.121Z" fill="#CACACA"/>
</g>
<defs>
<clipPath id="clip0_1690_11597">
<rect width="264" height="230" fill="white" transform="translate(0.5)"/>
</clipPath>
</defs>
</svg>
