<svg width="307" height="230" viewBox="0 0 307 230" fill="none" xmlns="http://www.w3.org/2000/svg">
<g clip-path="url(#clip0_1690_12161)">
<path d="M122.946 47.6967H121.83V17.4855C121.83 15.1892 121.372 12.9155 120.482 10.7941C119.593 8.67264 118.289 6.74506 116.646 5.12138C115.002 3.49771 113.051 2.20974 110.903 1.33101C108.756 0.452279 106.455 1.94554e-06 104.13 0H39.3406C34.6465 -8.84053e-06 30.1446 1.84219 26.8253 5.12134C23.506 8.40049 21.6412 12.848 21.6412 17.4854V183.227C21.6412 185.523 22.099 187.797 22.9885 189.918C23.878 192.04 25.1817 193.967 26.8252 195.591C28.4688 197.214 30.4199 198.502 32.5673 199.381C34.7147 200.26 37.0163 200.712 39.3406 200.712H104.13C108.824 200.712 113.326 198.87 116.646 195.591C119.965 192.312 121.83 187.864 121.83 183.227V69.2016H122.946V47.6967Z" fill="#3F3D56"/>
<path d="M104.844 4.54913H96.3872C96.7761 5.49113 96.9246 6.51316 96.8195 7.52518C96.7144 8.53721 96.359 9.50819 95.7846 10.3526C95.2102 11.1969 94.4345 11.8888 93.5256 12.3672C92.6168 12.8456 91.6029 13.0959 90.5731 13.0959H53.4559C52.4262 13.0959 51.4122 12.8456 50.5034 12.3672C49.5946 11.8888 48.8188 11.1969 48.2444 10.3526C47.67 9.50819 47.3146 8.53722 47.2095 7.52519C47.1044 6.51316 47.2529 5.49113 47.6418 4.54913H39.7428C38.007 4.54913 36.2882 4.88689 34.6846 5.54311C33.0809 6.19933 31.6238 7.16117 30.3965 8.37371C29.1691 9.58625 28.1955 11.0257 27.5312 12.61C26.867 14.1943 26.5251 15.8923 26.5251 17.6071V183.105C26.5251 184.82 26.867 186.518 27.5312 188.102C28.1955 189.686 29.1691 191.126 30.3964 192.339C31.6238 193.551 33.0809 194.513 34.6846 195.169C36.2882 195.825 38.007 196.163 39.7428 196.163H104.844C106.58 196.163 108.299 195.825 109.903 195.169C111.506 194.513 112.963 193.551 114.191 192.339C115.418 191.126 116.392 189.686 117.056 188.102C117.72 186.518 118.062 184.82 118.062 183.105V17.6071C118.062 15.8923 117.72 14.1943 117.056 12.61C116.392 11.0257 115.418 9.58625 114.191 8.37371C112.963 7.16117 111.506 6.19933 109.903 5.54311C108.299 4.88689 106.58 4.54913 104.844 4.54913Z" fill="white"/>
<path d="M143.712 200.741H0.874901C0.775471 200.741 0.680113 200.702 0.609806 200.632C0.539498 200.563 0.5 200.469 0.5 200.37C0.5 200.272 0.539498 200.178 0.609806 200.108C0.680113 200.039 0.775471 200 0.874901 200H143.712C143.812 200 143.907 200.039 143.977 200.108C144.048 200.178 144.087 200.272 144.087 200.37C144.087 200.469 144.048 200.563 143.977 200.632C143.907 200.702 143.812 200.741 143.712 200.741Z" fill="#CBCBCB"/>
<path d="M72.2936 128.03C89.7783 128.03 103.953 114.027 103.953 96.7533C103.953 79.4798 89.7783 65.4769 72.2936 65.4769C54.8088 65.4769 40.6346 79.4798 40.6346 96.7533C40.6346 114.027 54.8088 128.03 72.2936 128.03Z" fill="#0F1555"/>
<path d="M69.1564 108.684C68.4441 108.685 67.7508 108.458 67.181 108.036L67.1456 108.009L59.7054 102.387C59.3608 102.126 59.0716 101.8 58.8543 101.429C58.6371 101.057 58.496 100.647 58.4391 100.222C58.3823 99.7969 58.4107 99.3647 58.5229 98.9503C58.6351 98.5359 58.8289 98.1474 59.093 97.807C59.3572 97.4666 59.6867 97.1809 60.0626 96.9662C60.4386 96.7516 60.8536 96.6122 61.2841 96.5561C61.7145 96.4999 62.152 96.528 62.5714 96.6389C62.9909 96.7497 63.3841 96.9411 63.7287 97.2021L68.5479 100.853L79.936 86.1756C80.2001 85.8353 80.5294 85.5497 80.9052 85.3352C81.281 85.1206 81.6959 84.9813 82.1261 84.9251C82.5564 84.869 82.9937 84.8971 83.413 85.0079C83.8323 85.1187 84.2253 85.31 84.5698 85.5709L84.5708 85.5716L84.5001 85.6686L84.5727 85.5716C85.2676 86.0992 85.7222 86.8777 85.8368 87.7361C85.9514 88.5945 85.7167 89.4627 85.184 90.1503L71.7892 107.407C71.4793 107.804 71.0808 108.126 70.6248 108.347C70.1687 108.568 69.6672 108.682 69.1593 108.68L69.1564 108.684Z" fill="white"/>
<path d="M260.773 203.815C261.158 203.2 261.612 202.629 262.125 202.113C262.337 201.896 262.56 201.692 262.79 201.493C264.19 200.262 265.896 199.422 267.734 199.058C269.571 198.695 271.474 198.822 273.245 199.425C275.017 200.029 276.594 201.088 277.813 202.494C279.033 203.899 279.852 205.6 280.186 207.422C281.732 201.773 277.707 196.208 273.661 191.934C269.612 187.662 264.984 182.975 265.008 177.12C265.019 173.862 266.632 170.956 269.067 168.802C269.143 168.736 269.218 168.671 269.294 168.608C272.238 166.115 276.025 164.812 279.9 164.957C287.097 165.338 293.382 170.117 297.747 175.786C304.772 184.907 307.85 197.71 302.932 208.093C298.606 217.225 289.38 222.648 279.964 227.008C278.649 227.617 277.337 228.207 276.027 228.779C276.018 228.782 276.009 228.788 276 228.79C275.937 228.817 275.874 228.845 275.815 228.873C275.545 228.991 275.274 229.109 275.007 229.225L275.131 229.305L275.518 229.553C275.384 229.473 275.251 229.395 275.117 229.314C275.077 229.29 275.034 229.267 274.995 229.243C270.37 226.501 265.681 223.601 262.486 219.321C259.172 214.878 257.84 208.513 260.773 203.815Z" fill="#F1F1F1"/>
<path d="M291.629 193.495C292.653 195.796 293.332 198.233 293.644 200.728C293.89 202.953 293.797 205.202 293.37 207.4C292.452 211.916 290.449 216.149 287.53 219.741C285.328 222.469 282.786 224.91 279.964 227.008C278.649 227.617 277.337 228.207 276.027 228.779C276.019 228.782 276.009 228.788 276 228.79C275.937 228.817 275.874 228.845 275.815 228.873C275.545 228.991 275.274 229.109 275.007 229.225L275.131 229.305L275.518 229.553C275.384 229.473 275.251 229.395 275.117 229.314C275.077 229.29 275.034 229.267 274.995 229.243C276.012 225.726 276.162 222.019 275.431 218.433C274.7 214.847 273.109 211.486 270.793 208.633C268.464 205.815 265.494 203.581 262.125 202.113C262.337 201.896 262.56 201.692 262.79 201.493C264.088 202.082 265.33 202.783 266.503 203.587C270.697 206.451 273.847 210.573 275.485 215.343C276.948 219.67 277.131 224.32 276.012 228.746C276.244 228.596 276.477 228.442 276.703 228.289C281.012 225.419 284.982 221.972 287.973 217.744C290.553 214.172 292.204 210.027 292.78 205.676C293.353 200.923 292.149 196.249 290.001 192.007C287.629 187.47 284.64 183.274 281.118 179.537C277.579 175.696 273.579 172.298 269.205 169.418C269.106 169.352 269.037 169.251 269.011 169.137C268.986 169.022 269.006 168.902 269.067 168.802C269.114 168.71 269.196 168.641 269.294 168.608C269.344 168.596 269.397 168.594 269.447 168.604C269.498 168.614 269.546 168.636 269.587 168.667C270.127 169.023 270.662 169.382 271.191 169.751C275.596 172.833 279.596 176.442 283.1 180.498C286.485 184.407 289.567 188.751 291.629 193.495Z" fill="white"/>
<path d="M197.339 14.5224C201.052 14.5224 204.062 11.5486 204.062 7.88016C204.062 4.21175 201.052 1.23792 197.339 1.23792C193.625 1.23792 190.615 4.21175 190.615 7.88016C190.615 11.5486 193.625 14.5224 197.339 14.5224Z" fill="#F1F1F1"/>
<path d="M280.942 103.411C283.206 103.411 285.042 101.598 285.042 99.3616C285.042 97.125 283.206 95.312 280.942 95.312C278.678 95.312 276.843 97.125 276.843 99.3616C276.843 101.598 278.678 103.411 280.942 103.411Z" fill="#F1F1F1"/>
<path d="M160.974 114.522C163.238 114.522 165.073 112.709 165.073 110.473C165.073 108.236 163.238 106.423 160.974 106.423C158.709 106.423 156.874 108.236 156.874 110.473C156.874 112.709 158.709 114.522 160.974 114.522Z" fill="#F1F1F1"/>
<path d="M163.288 230H306.125C306.224 230 306.32 229.961 306.39 229.892C306.46 229.822 306.5 229.728 306.5 229.63C306.5 229.531 306.46 229.437 306.39 229.368C306.32 229.298 306.224 229.259 306.125 229.259H163.288C163.188 229.259 163.093 229.298 163.023 229.368C162.952 229.437 162.913 229.531 162.913 229.63C162.913 229.728 162.952 229.822 163.023 229.892C163.093 229.961 163.188 230 163.288 230Z" fill="#CBCBCB"/>
<path d="M290.362 35.7907C290.55 34.4752 290.242 33.1374 289.498 32.0309C288.754 30.9243 287.625 30.1259 286.325 29.7869C285.024 29.4478 283.643 29.5918 282.443 30.1914C281.243 30.791 280.308 31.8047 279.814 33.0403L268.223 46.1678L271.624 55.5518L283.281 40.2128C284.041 40.4535 284.846 40.5266 285.638 40.4267C286.431 40.3269 287.191 40.0567 287.866 39.6351C288.542 39.2135 289.115 38.6508 289.546 37.9866C289.977 37.3224 290.256 36.5728 290.362 35.7907Z" fill="#FFB7B7"/>
<path d="M242.316 86.87L280.792 46.3037L275.602 38.1526L227.344 78.4726L242.316 86.87Z" fill="#3F3D56"/>
<path d="M233.729 62.2222C241.183 62.2222 247.225 56.2527 247.225 48.8889C247.225 41.5251 241.183 35.5555 233.729 35.5555C226.275 35.5555 220.232 41.5251 220.232 48.8889C220.232 56.2527 226.275 62.2222 233.729 62.2222Z" fill="#2F2E41"/>
<path d="M234.814 41.3567C237.718 38.4473 241.233 36.2021 245.11 34.7793C247.599 33.8684 250.308 33.3056 252.91 33.8229C255.512 34.3402 257.972 36.1185 258.698 38.6406C259.292 40.7029 258.679 42.9235 257.758 44.8648C256.837 46.8062 255.607 48.6065 254.862 50.6203C254.102 52.6752 253.873 54.885 254.197 57.0492C254.52 59.2135 255.386 61.2636 256.715 63.0135C258.044 64.7634 259.795 66.1576 261.808 67.0696C263.821 67.9816 266.032 68.3826 268.242 68.236C265.685 68.5747 263.328 69.7616 260.829 70.3934C258.331 71.0251 255.381 70.9823 253.524 69.2136C251.559 67.3424 251.52 64.2999 251.615 61.6053C251.756 57.5998 251.897 53.5942 252.039 49.5887C252.111 47.5459 252.172 45.4377 251.426 43.5311C250.681 41.6244 248.909 39.9549 246.84 39.9723C245.272 39.9854 243.884 40.9238 242.626 41.8493C241.369 42.7748 240.038 43.7622 238.476 43.8998C236.914 44.0375 235.131 42.8956 235.248 41.3507L234.814 41.3567Z" fill="#2F2E41"/>
<path d="M182.468 138.416C181.173 138.771 179.79 138.645 178.582 138.061C177.375 137.477 176.426 136.475 175.916 135.246C175.405 134.017 175.369 132.645 175.814 131.392C176.259 130.138 177.154 129.089 178.33 128.444L189.989 115.376L199.851 117.481L185.981 130.902C186.322 131.616 186.5 132.394 186.504 133.183C186.507 133.972 186.335 134.753 186 135.469C185.665 136.185 185.176 136.821 184.565 137.33C183.955 137.839 183.239 138.21 182.468 138.416H182.468Z" fill="#FFB7B7"/>
<path d="M220.829 91.6315L191.768 127.668L182.91 123.651L217.067 71.1155L220.829 91.6315Z" fill="#3F3D56"/>
<path d="M197.642 200.448L190.715 200.341L191.548 223.662H197.641L197.642 200.448Z" fill="#FFB7B7"/>
<path d="M199.194 221.697L187.197 221.697H187.196C185.168 221.697 183.224 222.493 181.79 223.909C180.356 225.325 179.551 227.246 179.55 229.25V229.495L199.193 229.496L199.194 221.697Z" fill="#2F2E41"/>
<path d="M243.498 194.263L235.932 199.062L251.066 217.049L256.192 213.797L243.498 194.263Z" fill="#FFB7B7"/>
<path d="M256.425 211.315L246.33 217.718L246.329 217.718C244.623 218.8 243.422 220.508 242.99 222.465C242.558 224.422 242.931 226.469 244.026 228.155L244.16 228.361L260.69 217.877L256.425 211.315Z" fill="#2F2E41"/>
<path d="M246.193 123.052C246.193 123.052 229.383 67.8935 223.98 67.1482C218.578 66.4028 209.874 81.3011 209.874 81.3011C198.588 95.5264 186.951 141.605 186.951 141.605C186.951 141.605 206.35 142.804 220.532 150.258C234.713 157.712 251.449 149.881 251.449 149.881L246.193 123.052Z" fill="#3F3D56"/>
<path opacity="0.1" d="M246.193 123.052C246.193 123.052 229.383 67.8936 223.98 67.1482C218.578 66.4028 212.084 81.4524 212.084 81.4524C206.461 104.415 186.951 141.605 186.951 141.605C186.951 141.605 206.35 142.804 220.532 150.258C234.713 157.712 251.449 149.881 251.449 149.881L246.193 123.052Z" fill="black"/>
<path d="M232.401 106.549V134.266L235.703 174.415L252.199 204.786L244.326 210.341L221.832 181.452L212.935 152.767L198.963 216.267L188.466 215.526L195.756 127.485L209.59 102.704L232.401 106.549Z" fill="#2F2E41"/>
<path d="M215.452 79.7406C210.204 84.9258 215.078 90.4813 215.078 90.4813L209.079 103.815L232.698 110.111L240.952 73.6746L235.328 67.7487C224.081 67.3783 224.075 67.148 224.075 67.148C222.105 69.0531 215.452 79.7406 215.452 79.7406Z" fill="#6C63FF"/>
<path d="M241.903 69.8998C240.83 69.1175 239.611 68.5533 238.316 68.2398C237.021 67.9263 235.676 67.8698 234.359 68.0734C233.041 68.2771 231.778 68.737 230.642 69.4264C229.506 70.1159 228.52 71.0211 227.74 72.0898C221.803 80.2573 216.312 93.4458 223.877 109.894C236.023 136.305 246.593 149.825 250.89 149.824C251.078 149.826 251.265 149.797 251.443 149.738C254.088 148.852 257.912 144.43 258.604 140.534C258.852 139.139 258.793 137.196 257.105 135.862C252.255 132.03 243.549 120.099 240.834 104.394C239.333 95.7166 242.243 87.8121 244.949 82.7092C246.092 80.5977 246.426 78.1501 245.891 75.8149C245.355 73.4796 243.986 71.4133 242.033 69.9947V69.9947L241.903 69.8998Z" fill="#3F3D56"/>
<path d="M234.423 60.9124C239.237 58.3123 241.007 52.3488 238.375 47.5925C235.743 42.8362 229.707 41.0882 224.892 43.6882C220.078 46.2882 218.308 52.2518 220.94 57.0081C223.572 61.7644 229.608 63.5124 234.423 60.9124Z" fill="#FFB7B7"/>
<path d="M215.686 51.5582H230.031L230.179 49.5234L230.914 51.5582H233.123L233.415 47.5254L234.872 51.5582H239.147V51.3584C239.143 48.5508 238.013 45.8591 236.003 43.8738C233.994 41.8886 231.269 40.7718 228.427 40.7687H226.405C223.563 40.7718 220.838 41.8886 218.829 43.8738C216.819 45.8591 215.689 48.5508 215.686 51.3584V51.5582Z" fill="#2F2E41"/>
<path d="M236.979 58.872L243.101 56.9095V42.2222H231.538L231.824 42.5046C235.807 46.4346 240.237 60.3776 236.979 58.872Z" fill="#2F2E41"/>
</g>
<defs>
<clipPath id="clip0_1690_12161">
<rect width="306" height="230" fill="white" transform="translate(0.5)"/>
</clipPath>
</defs>
</svg>
