<svg width="100" height="100" viewBox="0 0 100 100" fill="none" xmlns="http://www.w3.org/2000/svg">
<rect width="100" height="100" fill="#F5F0EA"/>
<path d="M78.7921 34.0739C76.8989 34.0739 75.5561 35.5564 75.5561 37.8321V46.1796H72.6661V31.4865H75.5215V33.2807C75.8737 32.6861 76.3784 32.1965 76.9833 31.8627C77.5882 31.529 78.2712 31.3632 78.9617 31.3826H80V34.0739H78.7921ZM70.6691 38.8331C70.6691 34.4515 67.5542 31.1748 63.3387 31.1748C62.3427 31.1816 61.3579 31.3854 60.4408 31.7745C59.5238 32.1636 58.6927 32.7303 57.9953 33.442C57.298 34.1538 56.7481 34.9965 56.3774 35.9217C56.0067 36.8469 55.8225 37.8363 55.8353 38.8331C55.8353 43.2112 59.2097 46.5225 63.6121 46.5225C64.8419 46.5458 66.0592 46.2728 67.1615 45.7267C68.2637 45.1805 69.2187 44.3772 69.9458 43.3844L67.8484 41.8465C67.3672 42.5186 66.7305 43.0641 65.9928 43.4362C65.255 43.8084 64.4382 43.9962 63.6121 43.9836C62.4356 43.9781 61.3 43.5509 60.4111 42.7795C59.5222 42.0081 58.9388 40.9435 58.7667 39.7787H70.676L70.6691 38.8331ZM58.829 37.4857C59.3447 35.2447 61.1341 33.7275 63.3041 33.7275C65.4742 33.7275 67.26 35.2447 67.7446 37.4857H58.829ZM46.6809 31.1748C45.7151 31.1756 44.759 31.3679 43.868 31.7407C42.9769 32.1135 42.1685 32.6593 41.4894 33.3465V26H38.5994V46.1796H41.4548V44.3161C42.838 45.7166 44.7202 46.5101 46.6878 46.5225C47.7085 46.5442 48.7232 46.3618 49.6725 45.9859C50.6218 45.61 51.4865 45.0482 52.216 44.3335C52.9456 43.6187 53.5251 42.7654 53.9208 41.8236C54.3165 40.8818 54.5203 39.8703 54.5203 38.8487C54.5203 37.827 54.3165 36.8155 53.9208 35.8737C53.5251 34.9319 52.9456 34.0786 52.216 33.3638C51.4865 32.6491 50.6218 32.0873 49.6725 31.7114C48.7232 31.3355 47.7085 31.1531 46.6878 31.1748H46.6809ZM46.4732 43.9386C45.4659 43.9434 44.4799 43.6486 43.6402 43.0917C42.8006 42.5347 42.1452 41.7407 41.7571 40.8104C41.3691 39.8801 41.266 38.8554 41.4608 37.8663C41.6557 36.8772 42.1397 35.9683 42.8515 35.255C43.5633 34.5417 44.4708 34.056 45.4588 33.8597C46.4469 33.6633 47.4709 33.7652 48.401 34.1522C49.3312 34.5393 50.1254 35.1941 50.6831 36.0336C51.2408 36.8732 51.5366 37.8596 51.5332 38.8677C51.5341 39.5326 51.4038 40.1912 51.1498 40.8056C50.8957 41.42 50.5229 41.9782 50.0528 42.448C49.5827 42.9179 49.0244 43.2902 48.4102 43.5436C47.7959 43.797 47.1377 43.9266 46.4732 43.9247V43.9386ZM27.9569 43.8C30.7464 43.8 32.913 41.6595 32.913 38.4521V26H35.9068V46.1796H32.9476V44.2711C32.2563 44.9862 31.4271 45.5535 30.5104 45.9387C29.5937 46.3239 28.6084 46.5189 27.6142 46.5121C23.3122 46.5121 20 43.374 20 38.6149V26H23.0491V38.4694C23.0491 41.6941 25.1257 43.8 27.9569 43.8V43.8Z" fill="black"/>
<path d="M20 51.2858H34.1476V54.7436H23.8216V59.6538H33.8603V62.9941H23.8216V67.9873H34.1476V71.4452H20V51.2858ZM73.2187 71.8083C77.5561 71.8083 80 69.7336 80 66.8843C80 64.8545 78.5531 63.3399 75.5241 62.6829L72.3222 62.0294C70.4633 61.6836 69.8783 61.3378 69.8783 60.6462C69.8783 59.7507 70.7748 59.2009 72.426 59.2009C74.2157 59.2009 75.5415 59.6815 75.8876 61.3344H79.64C79.4358 58.2223 77.1961 56.1683 72.6545 56.1683C68.729 56.1683 65.9736 57.7866 65.9736 60.9229C65.9736 63.091 67.4898 64.5018 70.761 65.1899L74.3403 66.0163C75.7526 66.293 76.1299 66.6733 76.1299 67.2577C76.1299 68.1879 75.0638 68.7723 73.3399 68.7723C71.1729 68.7723 69.9337 68.2916 69.4525 66.6388H65.6793C66.2297 69.7439 68.5352 71.8083 73.2187 71.8083V71.8083ZM64.5889 71.4314H60.5285C57.9807 71.4314 56.5684 69.8477 56.5684 67.849V59.9305H53.7126V56.5556H56.5822V52.3197H60.3554V56.5556H64.5889V59.9305H60.3554V66.8843C60.3554 67.6761 60.9058 68.0565 61.7677 68.0565H64.5889V71.4314ZM48.3194 56.5625V57.9041C46.9909 56.7824 45.3061 56.1695 43.5666 56.1752C42.5252 56.1533 41.4898 56.3393 40.5213 56.7223C39.5528 57.1053 38.6705 57.6776 37.9262 58.4056C37.1819 59.1336 36.5906 60.0027 36.1869 60.9619C35.7833 61.9211 35.5753 62.9512 35.5753 63.9917C35.5753 65.0323 35.7833 66.0624 36.1869 67.0216C36.5906 67.9808 37.1819 68.8499 37.9262 69.5779C38.6705 70.3059 39.5528 70.8782 40.5213 71.2612C41.4898 71.6442 42.5252 71.8302 43.5666 71.8083C45.3064 71.8158 46.9918 71.2027 48.3194 70.0793V71.4245H52.0822V56.5556L48.3194 56.5625ZM43.8781 68.544C42.9756 68.5543 42.0903 68.2963 41.3348 67.8028C40.5794 67.3093 39.9879 66.6026 39.6355 65.7725C39.2831 64.9424 39.1857 64.0263 39.3557 63.1408C39.5257 62.2552 39.9554 61.4402 40.5903 60.7992C41.2251 60.1582 42.0364 59.7202 42.921 59.5409C43.8057 59.3616 44.7237 59.4491 45.5584 59.7922C46.3931 60.1353 47.1069 60.7186 47.609 61.4679C48.1111 62.2172 48.3789 63.0987 48.3782 64.0004C48.3837 64.5948 48.2712 65.1844 48.047 65.735C47.8229 66.2856 47.4917 66.7864 47.0725 67.2083C46.6534 67.6302 46.1546 67.9649 45.6051 68.193C45.0556 68.4211 44.4663 68.5381 43.8712 68.5371L43.8781 68.544Z" fill="#05C167"/>
</svg>
