<?xml version="1.0" standalone="no"?>
<!DOCTYPE svg PUBLIC "-//W3C//DTD SVG 20010904//EN"
 "http://www.w3.org/TR/2001/REC-SVG-20010904/DTD/svg10.dtd">
<svg version="1.0" xmlns="http://www.w3.org/2000/svg"
 width="1400.000000pt" height="1400.000000pt" viewBox="0 0 1400.000000 1400.000000"
 preserveAspectRatio="xMidYMid meet">
<metadata>
Created by potrace 1.11, written by Peter Selinger 2001-2013
</metadata>
<g transform="translate(0.000000,1400.000000) scale(0.100000,-0.100000)"
fill="#000000" stroke="none">
<path d="M6660 13989 c-1442 -71 -2839 -591 -3970 -1478 -240 -188 -403 -334
-635 -566 -454 -453 -809 -916 -1120 -1457 -1008 -1753 -1208 -3851 -550
-5767 291 -845 731 -1609 1334 -2311 149 -174 517 -542 691 -691 1102 -945
2399 -1514 3820 -1673 619 -70 1207 -57 1840 40 1178 181 2303 668 3240 1403
240 188 403 334 635 566 454 453 809 916 1120 1457 1008 1753 1208 3851 550
5767 -251 731 -628 1424 -1104 2031 -188 240 -334 403 -566 635 -232 232 -395
378 -635 566 -1315 1031 -2978 1560 -4650 1478z m535 -2329 c422 -25 808 -114
1180 -274 703 -301 1270 -798 1655 -1451 238 -403 390 -863 452 -1365 19 -157
16 -603 -5 -765 -107 -807 -451 -1499 -1023 -2056 -423 -411 -935 -707 -1507
-869 -76 -22 -177 -47 -225 -55 -48 -9 -95 -19 -104 -21 -17 -5 -18 -61 -18
-1001 0 -872 -2 -1003 -16 -1056 -50 -193 -197 -338 -391 -383 -98 -23 -345
-15 -425 14 -130 47 -235 137 -292 250 -68 135 -66 91 -66 1184 l0 987 -57 11
c-515 99 -987 300 -1398 593 -235 168 -529 447 -708 672 -404 509 -647 1098
-729 1770 -17 141 -17 585 0 725 78 638 296 1192 665 1685 322 430 702 754
1177 1004 447 236 933 373 1422 400 197 12 227 12 413 1z"/>
<path d="M6745 11379 c-700 -64 -1342 -331 -1850 -770 -877 -757 -1270 -1888
-1049 -3022 53 -272 147 -536 290 -817 342 -673 926 -1205 1642 -1499 184 -75
443 -153 590 -176 l42 -7 0 709 0 708 -78 35 c-42 19 -129 69 -194 112 -294
196 -512 503 -598 841 -44 174 -45 207 -45 1174 0 916 0 922 21 950 58 79 164
83 234 8 l25 -27 5 -966 c6 -949 6 -968 27 -1048 64 -238 168 -420 329 -575
135 -128 319 -236 480 -281 l84 -23 0 -1943 c0 -2115 -4 -1969 55 -2047 15
-18 50 -45 78 -60 46 -22 63 -25 168 -25 137 0 186 14 242 68 79 76 71 -132
77 2055 l5 1958 90 30 c103 34 230 100 319 163 192 137 346 343 425 570 60
172 61 181 61 1181 0 847 1 912 18 944 50 100 186 106 250 11 l23 -34 -4 -941
c-3 -831 -5 -951 -20 -1033 -55 -301 -217 -599 -435 -802 -100 -94 -290 -224
-386 -265 l-66 -28 0 -709 c0 -634 2 -708 16 -708 34 0 271 62 406 106 345
113 674 289 974 522 606 470 1033 1170 1168 1912 40 220 50 342 51 580 0 255
-12 372 -61 617 -97 484 -315 952 -625 1344 -96 122 -284 316 -419 433 -359
312 -813 553 -1265 671 -292 76 -495 104 -790 110 -115 2 -255 0 -310 -6z
m-123 -1725 c15 -8 36 -29 45 -47 17 -30 18 -95 18 -1037 0 -1098 3 -1049 -58
-1092 -43 -31 -121 -31 -164 0 -66 47 -63 -2 -63 1093 0 894 2 994 16 1025 36
76 123 100 206 58z m911 -2 c15 -9 36 -35 47 -57 20 -40 20 -65 20 -1028 0
-1091 3 -1042 -63 -1089 -44 -31 -121 -31 -164 1 -66 49 -63 -1 -63 1086 0
875 2 989 16 1024 32 81 126 109 207 63z"/>
</g>
</svg>
