<svg width="57" height="38" viewBox="0 0 57 38" fill="none" xmlns="http://www.w3.org/2000/svg">
<g clip-path="url(#clip0_384_5434)">
<path d="M2.07332 32.4334L1.67082 33.4006H0.226562L2.61788 28.1485H4.06214L6.39427 33.4006H4.89082L4.50016 32.4334H2.07332ZM3.29266 29.4756L2.48766 31.4212H4.08582L3.29266 29.4756ZM8.76192 30.3528C8.40677 30.3528 8.14633 30.4765 7.96876 30.7127C7.79118 30.9488 7.70832 31.2637 7.70832 31.6574V33.4118H6.52449V29.3631H7.70832V29.8917C7.86221 29.723 8.05162 29.588 8.27655 29.4756C8.50148 29.3631 8.73824 29.2956 8.97501 29.2956L8.98684 30.3528H8.76192ZM11.2361 32.5346C11.461 32.5346 11.686 32.4784 11.899 32.3771C12.1121 32.2647 12.2779 32.1297 12.4081 31.9498L13.0829 32.6471C12.5383 33.1981 11.9227 33.4681 11.2479 33.4681C10.5613 33.4681 10.0168 33.2656 9.61427 32.872C9.21177 32.4784 9.01052 31.9723 9.01052 31.3537C9.01052 30.7352 9.23545 30.2403 9.67346 29.8692C10.1233 29.4868 10.6324 29.2956 11.2124 29.2956C11.7925 29.2956 12.2779 29.4531 12.6685 29.7567C13.0592 30.0716 13.2723 30.4652 13.296 30.9601V31.1063L10.4666 32.2197C10.6442 32.4221 10.9046 32.5346 11.2361 32.5346ZM11.2716 30.2628C10.9875 30.2628 10.7271 30.3528 10.5021 30.5327C10.2772 30.7127 10.1707 30.9601 10.1707 31.2862C10.1707 31.3425 10.1707 31.3875 10.1825 31.4212L12.0293 30.7127C11.9582 30.4203 11.7096 30.2628 11.2716 30.2628ZM17.1434 29.2169V33.4006H15.7346V29.2169H14.0773V28.1372H18.8007V29.2169H17.1434ZM20.2923 31.2188V33.4006H19.1085V28.126H20.2923V29.813C20.6475 29.4643 21.05 29.2956 21.4998 29.2956C21.9497 29.2956 22.3167 29.4418 22.6245 29.7455C22.9323 30.0491 23.0862 30.4428 23.0862 30.9488V33.4006H21.9023V31.1963C21.9023 30.5777 21.6656 30.2628 21.1802 30.2628C20.9434 30.2628 20.7422 30.3415 20.5646 30.5102C20.3752 30.6677 20.2923 30.9039 20.2923 31.2188ZM25.6669 32.5346C25.8918 32.5346 26.1167 32.4784 26.3298 32.3771C26.5429 32.2647 26.7087 32.1297 26.8389 31.9498L27.5137 32.6471C26.9691 33.1981 26.3535 33.4681 25.6787 33.4681C24.9921 33.4681 24.4476 33.2656 24.0451 32.872C23.6426 32.4784 23.4413 31.9723 23.4413 31.3537C23.4413 30.7352 23.6662 30.2403 24.1042 29.8692C24.5541 29.4868 25.0631 29.2956 25.6432 29.2956C26.2233 29.2956 26.7087 29.4531 27.0993 29.7567C27.49 30.0716 27.7031 30.4652 27.7267 30.9601V31.1063L24.8974 32.2085C25.0868 32.4221 25.3354 32.5346 25.6669 32.5346ZM25.7142 30.2628C25.4301 30.2628 25.1697 30.3528 24.9448 30.5327C24.7198 30.7127 24.6133 30.9601 24.6133 31.2862C24.6133 31.3425 24.6133 31.3875 24.6251 31.4212L26.4719 30.7127C26.389 30.4203 26.1404 30.2628 25.7142 30.2628ZM29.6919 33.0969C28.5436 33.0969 27.9753 32.5121 27.9753 31.3537V29.3631H29.171V31.0051C29.171 31.41 29.2302 31.6911 29.3367 31.8486C29.4551 32.0173 29.6445 32.096 29.9168 32.096C30.1891 32.096 30.4022 32.0173 30.5442 31.8598C30.6863 31.7024 30.7573 31.4774 30.7573 31.185V29.3518H31.953V32.7483C31.953 33.4568 31.7517 34.0079 31.3611 34.4015C30.9704 34.7951 30.4614 34.9976 29.8458 34.9976C29.3604 34.9976 28.9461 34.8851 28.5909 34.6489C28.2358 34.424 27.9635 34.0866 27.7859 33.6592L28.804 33.2431C29.0053 33.7717 29.3486 34.0416 29.8339 34.0416C30.1299 34.0416 30.3785 33.9404 30.5561 33.7267C30.7336 33.513 30.8284 33.2431 30.8284 32.917C30.8284 32.872 30.8284 32.827 30.8165 32.782C30.4969 32.9845 30.1181 33.0969 29.6919 33.0969ZM37.1381 28.1485H38.3693V33.4006H37.1381V31.3312H34.9362V33.4006H33.705V28.1485H34.9362V30.3415H37.1381V28.1485ZM39.3637 32.8832C38.9612 32.5009 38.76 31.9948 38.76 31.365C38.76 30.7352 38.973 30.2403 39.3874 29.8579C39.8017 29.4868 40.2871 29.2956 40.8316 29.2956C41.2578 29.2956 41.6248 29.4306 41.9444 29.7005V29.3631H43.1283V33.4006H41.9326V33.0744C41.6011 33.3331 41.2105 33.4681 40.7843 33.4681C40.2397 33.4568 39.7662 33.2656 39.3637 32.8832ZM39.9438 31.3875C39.9438 31.7136 40.0503 31.9835 40.2516 32.1972C40.4528 32.3996 40.7014 32.5121 40.9737 32.5121C41.246 32.5121 41.4828 32.4109 41.6722 32.1972C41.8616 31.9948 41.9563 31.7249 41.9563 31.3987C41.9563 31.0726 41.8616 30.7914 41.6722 30.5777C41.4828 30.3528 41.246 30.2516 40.9737 30.2516C40.6896 30.2516 40.4528 30.364 40.2516 30.5777C40.0503 30.7801 39.9438 31.0613 39.9438 31.3875ZM46.0997 29.2956C46.5969 29.2956 47.0349 29.4868 47.4255 29.8804C47.8162 30.2741 48.0056 30.7689 48.0056 31.365C48.0056 31.961 47.8162 32.4559 47.4255 32.8607C47.0349 33.2656 46.585 33.4568 46.0641 33.4568C45.5433 33.4568 45.1289 33.2544 44.8093 32.8607V34.8514H43.6255V29.3631H44.8093V29.813C45.1763 29.4643 45.6024 29.2956 46.0997 29.2956ZM44.7975 31.3875C44.7975 31.7136 44.8922 31.9835 45.0816 32.186C45.271 32.3884 45.5077 32.5009 45.78 32.5009C46.0523 32.5009 46.2891 32.3996 46.5022 32.186C46.7034 31.9835 46.8099 31.7136 46.8099 31.3875C46.8099 31.0613 46.7152 30.7914 46.514 30.5665C46.3127 30.3415 46.076 30.2403 45.7919 30.2403C45.5077 30.2403 45.271 30.3528 45.0816 30.5665C44.8922 30.7801 44.7975 31.0501 44.7975 31.3875ZM50.7994 29.2956C51.2966 29.2956 51.7346 29.4868 52.1253 29.8804C52.516 30.2741 52.7054 30.7689 52.7054 31.365C52.7054 31.961 52.516 32.4559 52.1253 32.8607C51.7346 33.2656 51.2848 33.4568 50.7639 33.4568C50.243 33.4568 49.8287 33.2544 49.5091 32.8607V34.8514H48.3252V29.3631H49.5091V29.813C49.876 29.4643 50.3022 29.2956 50.7994 29.2956ZM49.4972 31.3875C49.4972 31.7136 49.5919 31.9835 49.7813 32.186C49.9708 32.3884 50.2075 32.5009 50.4798 32.5009C50.7521 32.5009 50.9888 32.3996 51.2019 32.186C51.4032 31.9835 51.5097 31.7136 51.5097 31.3875C51.5097 31.0613 51.415 30.7914 51.2138 30.5665C51.0125 30.3415 50.7758 30.2403 50.4916 30.2403C50.2075 30.2403 49.9708 30.3528 49.7813 30.5665C49.5919 30.7801 49.4972 31.0501 49.4972 31.3875ZM54.7416 33.0969C53.5932 33.0969 53.025 32.5121 53.025 31.3537V29.3631H54.2207V31.0051C54.2207 31.41 54.2799 31.6911 54.3864 31.8486C54.5048 32.0173 54.6942 32.096 54.9665 32.096C55.2388 32.096 55.4518 32.0173 55.5939 31.8598C55.736 31.7024 55.807 31.4774 55.807 31.185V29.3518H57.0027V32.7483C57.0027 33.4568 56.8014 34.0079 56.4107 34.4015C56.0201 34.7951 55.511 34.9976 54.8955 34.9976C54.4101 34.9976 53.9957 34.8851 53.6406 34.6489C53.2855 34.4128 53.0132 34.0866 52.8356 33.6592L53.8537 33.2431C54.0549 33.7717 54.3982 34.0416 54.8836 34.0416C55.1796 34.0416 55.4282 33.9404 55.6057 33.7267C55.7833 33.513 55.878 33.2431 55.878 32.917C55.878 32.872 55.878 32.827 55.8662 32.782C55.5347 32.9845 55.1559 33.0969 54.7416 33.0969Z" fill="#A5A8AE"/>
</g>
<path d="M41 2.47364C41 1.66408 40.6542 1.03443 40.0086 0.539703C39.4323 0.112438 38.7637 0 38.072 0H19.8357C18.1297 0 17 1.07941 17 2.69852V15.9662C17 17.5404 18.1297 18.6198 19.7666 18.6198C20.9424 18.6198 22.1182 18.6422 23.2939 18.6198C23.6628 18.6198 23.8934 18.7097 24.1239 19.0021C25.1614 20.3738 26.2219 21.7231 27.2824 23.0498C28.2968 24.3316 29.8876 24.3091 30.879 23.0273C31.9395 21.6781 33 20.3288 34.0375 18.9571C34.245 18.7097 34.4524 18.5973 34.7752 18.5973C35.9971 18.6198 37.219 18.6198 38.4409 18.5973C39.8703 18.5973 40.9769 17.5404 40.9769 16.1461C41 11.5811 41 7.03863 41 2.47364ZM34.2911 12.9304C32.8617 15.0667 31.4784 17.2255 30.0951 19.3619C29.3112 20.5537 28.7118 20.5762 27.928 19.3843C26.4294 17.1131 24.9308 14.8418 23.4784 12.5481C22.8329 11.5362 22.5331 10.4343 22.5562 9.71466C22.5562 5.84678 25.1844 3.50807 27.8357 3.01334C31.2709 2.38369 34.8213 4.74489 35.3746 8.11804C35.6513 9.87207 35.2824 11.4462 34.2911 12.9304Z" fill="#A5A8AE"/>
<path d="M32.6091 9.98435C31.3411 10.3891 30.3959 10.4566 29.174 10.4566C28.0443 10.4566 26.8915 10.3666 25.6696 9.98435C25.1394 9.87192 24.9088 10.0743 25.0702 10.7489C25.6005 12.9527 27.6523 14.257 29.9348 13.8522C31.5025 13.5599 32.8858 12.1657 33.1394 10.6365C33.2316 10.0968 33.1163 9.91689 32.6091 9.98435Z" fill="#A5A8AE"/>
<defs>
<clipPath id="clip0_384_5434">
<rect width="57" height="12" fill="white" transform="translate(0 26)"/>
</clipPath>
</defs>
</svg>
