<svg width="72" height="16" viewBox="0 0 72 16" fill="none" xmlns="http://www.w3.org/2000/svg">
<path d="M26.911 3.78532C25.1771 3.78532 24.062 4.83627 23.3057 6.03506V0.449284C23.3076 0.390285 23.2979 0.331502 23.277 0.276584C23.2562 0.221667 23.2247 0.171788 23.1845 0.130045C23.1443 0.088302 23.0963 0.0555868 23.0435 0.0339309C22.9906 0.0122749 22.934 0.00214077 22.8772 0.0041577C22.8213 0.00244395 22.7656 0.0129258 22.7138 0.0349278C22.662 0.0569297 22.6153 0.0899636 22.5765 0.1319C22.5377 0.173837 22.5079 0.223746 22.4888 0.278411C22.4697 0.333077 22.4619 0.391285 22.4658 0.449284V12.7184C22.4652 12.7771 22.4759 12.8353 22.4971 12.8897C22.5184 12.9441 22.5499 12.9935 22.5898 13.0351C22.6297 13.0767 22.6772 13.1096 22.7295 13.132C22.7817 13.1543 22.8377 13.1655 22.8943 13.1651C22.9499 13.1652 23.0049 13.1535 23.0561 13.1308C23.1073 13.1082 23.1535 13.0749 23.1919 13.0332C23.2304 12.9914 23.2603 12.942 23.2798 12.8879C23.2994 12.8338 23.3082 12.7761 23.3057 12.7184V11.1323C24.0264 12.2733 25.1617 13.3065 26.911 13.3065C29.0222 13.3065 31.1674 11.5067 31.1674 8.54673V8.50977C31.1674 5.54976 29.0222 3.78532 26.911 3.78532ZM30.258 8.58208C30.258 11.0247 28.7299 12.4693 26.8244 12.4693C25.0055 12.4693 23.2546 10.8993 23.2546 8.5644V8.52102C23.2546 6.20379 25.0055 4.61612 26.8244 4.61612C28.6432 4.61612 30.258 6.15076 30.258 8.5403V8.58208Z" fill="#787A7F"/>
<path d="M37.0875 4.34244C37.0898 4.27998 37.08 4.21768 37.0585 4.15928C37.0371 4.10088 37.0045 4.04758 36.9628 4.00256C36.9211 3.95755 36.871 3.92175 36.8156 3.89731C36.7603 3.87288 36.7007 3.86031 36.6406 3.86035C35.4032 3.86035 33.8782 4.82452 33.1219 6.59217V4.37297C33.1253 4.31345 33.1171 4.25382 33.0975 4.19775C33.078 4.14167 33.0476 4.09035 33.0083 4.04692C32.969 4.0035 32.9215 3.96889 32.8688 3.94524C32.8161 3.92159 32.7593 3.90939 32.7019 3.90939C32.6446 3.90939 32.5878 3.92159 32.5351 3.94524C32.4824 3.96889 32.4349 4.0035 32.3956 4.04692C32.3563 4.09035 32.3259 4.14167 32.3064 4.19775C32.2868 4.25382 32.2785 4.31345 32.282 4.37297V12.7179C32.2785 12.7774 32.2868 12.837 32.3064 12.8931C32.3259 12.9492 32.3563 13.0005 32.3956 13.0439C32.4349 13.0874 32.4824 13.122 32.5351 13.1456C32.5878 13.1693 32.6446 13.1815 32.7019 13.1815C32.7593 13.1815 32.8161 13.1693 32.8688 13.1456C32.9215 13.122 32.969 13.0874 33.0083 13.0439C33.0476 13.0005 33.078 12.9492 33.0975 12.8931C33.1171 12.837 33.1253 12.7774 33.1219 12.7179V9.36578C33.1219 6.44112 34.7876 4.99647 36.6406 4.8181C36.7596 4.81357 36.8724 4.76166 36.9556 4.67312C37.0388 4.58457 37.086 4.46618 37.0875 4.34244Z" fill="#787A7F"/>
<path d="M41.0333 3.78516C38.6653 3.78516 36.8789 5.88866 36.8789 8.52728V8.56424C36.8789 11.3989 38.871 13.3064 41.1709 13.3064C42.7501 13.3064 43.7276 12.7182 44.586 11.8264C44.6274 11.7883 44.661 11.7419 44.6847 11.69C44.7083 11.6381 44.7216 11.5817 44.7236 11.5242C44.7226 11.4692 44.7112 11.415 44.6899 11.3646C44.6687 11.3142 44.6381 11.2686 44.5999 11.2306C44.5616 11.1925 44.5165 11.1626 44.4672 11.1427C44.4178 11.1228 44.3652 11.1132 44.3122 11.1145C44.2606 11.1143 44.2095 11.1251 44.1621 11.1464C44.1147 11.1677 44.0721 11.199 44.0369 11.2382C43.3332 11.9517 42.4578 12.4868 41.205 12.4868C39.4881 12.4868 37.926 11.1675 37.7713 8.90331H44.637C44.7425 8.89966 44.8431 8.85565 44.9193 8.77973C44.9955 8.7038 45.042 8.60132 45.05 8.49193C45.05 5.88866 43.4878 3.78516 41.0333 3.78516ZM37.7713 8.12393C37.926 6.10881 39.2654 4.58863 40.9992 4.58863C43.0099 4.58863 44.0199 6.28236 44.1405 8.12393H37.7713Z" fill="#787A7F"/>
<path d="M50.3364 3.78516C47.9685 3.78516 46.1836 5.88866 46.1836 8.52728V8.56424C46.1836 11.3989 48.1742 13.3064 50.4741 13.3064C52.0532 13.3064 53.0323 12.7182 53.8907 11.8264C53.9317 11.788 53.9649 11.7416 53.9883 11.6897C54.0116 11.6378 54.0247 11.5815 54.0268 11.5242C54.0258 11.4692 54.0143 11.415 53.9931 11.3646C53.9718 11.3142 53.9412 11.2686 53.903 11.2306C53.8648 11.1925 53.8197 11.1626 53.7703 11.1427C53.721 11.1228 53.6683 11.1132 53.6154 11.1145C53.5638 11.1145 53.5127 11.1254 53.4654 11.1467C53.418 11.168 53.3754 11.1991 53.3401 11.2382C52.6363 11.9517 51.7609 12.4868 50.5081 12.4868C48.7928 12.4868 47.2307 11.1675 47.076 8.90331H53.9448C54.0501 8.89927 54.1502 8.85509 54.2261 8.77921C54.302 8.70332 54.3483 8.60105 54.3562 8.49193C54.3531 5.88866 52.791 3.78516 50.3364 3.78516ZM47.076 8.12393C47.2307 6.10881 48.5686 4.58863 50.3024 4.58863C52.3131 4.58863 53.323 6.28236 53.4437 8.12393H47.076Z" fill="#787A7F"/>
<path d="M62.3028 12.3084H56.2955L62.4064 4.75573C62.5024 4.65622 62.5578 4.52213 62.5611 4.38131V4.36363C62.5489 4.26396 62.5018 4.17246 62.4287 4.10663C62.3557 4.04081 62.2618 4.0053 62.1651 4.00689H55.5918C55.5422 4.00689 55.4931 4.01703 55.4474 4.03673C55.4016 4.05644 55.36 4.08532 55.3249 4.12173C55.2899 4.15814 55.2621 4.20136 55.2431 4.24894C55.2242 4.29651 55.2144 4.34749 55.2144 4.39898C55.2144 4.45048 55.2242 4.50146 55.2431 4.54903C55.2621 4.5966 55.2899 4.63983 55.3249 4.67624C55.36 4.71265 55.4016 4.74153 55.4474 4.76123C55.4931 4.78094 55.5422 4.79108 55.5918 4.79108H61.3655L55.2484 12.3438C55.1527 12.4435 55.0974 12.5774 55.0938 12.7182V12.7359C55.1059 12.8353 55.1528 12.9265 55.2255 12.9923C55.2982 13.0581 55.3917 13.0938 55.4882 13.0926H62.3012C62.4013 13.0926 62.4973 13.0513 62.5681 12.9778C62.6389 12.9042 62.6786 12.8045 62.6786 12.7005C62.6786 12.5965 62.6389 12.4968 62.5681 12.4233C62.4973 12.3497 62.4013 12.3084 62.3012 12.3084H62.3028Z" fill="#787A7F"/>
<path d="M71.5649 3.92711C71.4718 3.92705 71.3813 3.95834 71.3068 4.01629C71.2324 4.07424 71.178 4.15572 71.1519 4.2485L68.0972 12.1306L64.5956 4.28385C64.5105 4.0878 64.4069 3.92711 64.1501 3.92711C64.0922 3.92473 64.0345 3.93452 63.9803 3.9559C63.9262 3.97728 63.8768 4.00981 63.835 4.05154C63.7933 4.09326 63.7601 4.14331 63.7374 4.1987C63.7147 4.25409 63.7031 4.31366 63.7031 4.37384C63.7103 4.46646 63.7339 4.55691 63.7727 4.6406L67.6858 13.0401L67.6348 13.1655C67.0671 14.5202 66.484 15.1806 65.5236 15.1806C65.1438 15.1954 64.7648 15.1348 64.4069 15.0022C64.3197 14.9638 64.2274 14.9394 64.1331 14.9299C64.0809 14.9291 64.0292 14.9391 63.9808 14.9595C63.9325 14.9799 63.8886 15.0102 63.8518 15.0486C63.815 15.087 63.786 15.1327 63.7666 15.183C63.7471 15.2333 63.7377 15.2871 63.7387 15.3413C63.7347 15.4222 63.7559 15.5022 63.7991 15.5696C63.8422 15.6371 63.9051 15.6883 63.9784 15.7157C64.4543 15.9073 64.9607 16.0038 65.471 16.0002C66.7238 16.0002 67.6162 15.3236 68.3896 13.4146L71.9469 4.60524C71.9799 4.53288 71.9973 4.45391 71.9979 4.37384C71.9986 4.31472 71.9878 4.25607 71.9662 4.20136C71.9446 4.14666 71.9127 4.09701 71.8723 4.05535C71.8319 4.01369 71.7839 3.98088 71.7311 3.95885C71.6783 3.93682 71.6218 3.92603 71.5649 3.92711Z" fill="#787A7F"/>
<path d="M15.1628 5.25099C15.0553 3.99486 14.5542 2.81007 13.7362 1.87841C12.9182 0.94675 11.8285 0.319695 10.6344 0.0934654C9.44036 -0.132764 8.20783 0.0543315 7.12596 0.626042C6.04409 1.19775 5.17267 2.12249 4.6454 3.25836C3.39643 3.28979 2.2094 3.83006 1.34038 4.76263C0.471362 5.69519 -0.00999137 6.94531 0.000157278 8.2433C0.0103059 9.54128 0.511143 10.7831 1.39463 11.7009C2.27811 12.6187 3.47343 13.1388 4.72273 13.1492H14.3121C15.2538 13.1411 16.1601 12.775 16.8597 12.1199C17.5593 11.4649 18.0037 10.5663 18.109 9.59393C18.2143 8.6216 17.9732 7.64287 17.4312 6.84267C16.8892 6.04248 16.0839 5.47626 15.1674 5.25099H15.1628ZM14.2997 12.1079H4.72583C3.74121 12.097 2.80002 11.6851 2.10466 10.9608C1.40929 10.2365 1.01529 9.25753 1.00739 8.23452C0.999484 7.21151 1.37831 6.22613 2.0624 5.4903C2.74648 4.75446 3.68119 4.32694 4.66551 4.29967L5.15116 4.29163C5.98327 4.29967 6.94221 4.99066 7.17112 5.92269C7.45725 7.08452 6.84168 8.27527 5.78994 8.5822C5.39913 8.69621 4.98321 8.67478 4.60519 8.52114C4.22006 8.3974 4.00662 8.46168 3.89681 8.6963C3.787 8.93091 3.84886 9.13339 4.12881 9.33908C4.71476 9.62501 5.38025 9.68206 6.00338 9.49977C7.52531 9.05625 8.42702 7.3352 8.01406 5.65594C7.86697 5.09686 7.57037 4.59255 7.15865 4.20148C6.74693 3.81041 6.23696 3.54859 5.68786 3.44638C6.16403 2.56967 6.89754 1.87412 7.78124 1.46132C8.66493 1.04851 9.65251 0.940094 10.5997 1.15189C11.5469 1.36369 12.4042 1.8846 13.0462 2.63855C13.6882 3.3925 14.0814 4.33997 14.1683 5.34258L14.2317 6.09303L14.9339 6.2714C15.6114 6.43868 16.2066 6.85788 16.607 7.44985C17.0075 8.04183 17.1855 8.76564 17.1074 9.48464C17.0294 10.2036 16.7007 10.8681 16.1835 11.3525C15.6662 11.837 14.9961 12.108 14.2997 12.1143V12.1079Z" fill="#787A7F"/>
</svg>
