<svg width="50" height="61" viewBox="0 0 50 61" fill="none" xmlns="http://www.w3.org/2000/svg">
<path d="M36.2159 23.6525V23.4401C36.2159 23.086 36.2873 22.8028 36.2873 22.6611C36.2873 22.3779 36.7159 19.6161 36.7873 18.9787C36.8587 18.3414 36.7159 18.1998 36.7159 18.1998C36.9302 16.571 36.8587 14.8714 36.3587 13.2427C36.6444 13.0302 36.073 11.7556 36.073 11.7556C35.6444 10.6933 35.073 9.20619 35.073 9.20619C35.0015 8.85212 34.8587 8.35641 34.7873 7.8607C34.7158 7.01091 34.7158 6.23194 34.7158 5.94868C34.6444 5.66542 34.9301 5.73624 34.9301 5.52379C34.8587 5.24053 34.7873 4.95727 34.6444 4.674C34.6444 4.60319 34.6444 4.53237 34.6444 4.46156C34.6444 4.39074 34.7158 4.39074 34.7158 4.31993C34.7158 4.03666 34.5015 3.82422 34.2158 3.82422H31.8586C31.5729 3.82422 31.3586 4.03666 31.3586 4.31993C31.43 4.31993 31.43 4.39074 31.43 4.46156C31.43 4.53237 31.43 4.60319 31.43 4.674C31.3586 4.95727 31.2872 5.24053 31.2157 5.52379C31.2157 5.73624 31.5015 5.73624 31.5015 5.94868C31.5015 6.16113 31.5015 7.08173 31.43 7.8607C31.3586 8.42722 31.2157 8.92293 31.1443 9.20619C31.1443 9.20619 30.5729 10.6933 30.1443 11.7556C30.1443 11.7556 29.5728 13.0302 29.8586 13.2427C29.3585 14.8714 29.2871 16.5002 29.5014 18.1289C29.5014 18.1289 29.3585 18.2706 29.43 18.9079C29.5014 19.5453 29.93 22.3071 29.93 22.5903C29.93 22.6611 29.93 22.9444 30.0014 23.3693V23.5817C30.0014 25.2813 29.2871 26.0603 29.2871 27.1933C29.2871 28.6804 30.2157 29.3886 33.1444 29.3886C36.073 29.3886 37.0016 28.6096 37.0016 27.1933C36.9302 26.1311 36.2159 25.2813 36.2159 23.6525Z" fill="#1A1A18"/>
<path d="M21.9288 23.653V23.4406C21.9288 23.0865 22.0002 22.8032 22.0002 22.6616C22.0002 22.3783 22.4288 19.6165 22.5002 18.9792C22.5716 18.3419 22.4288 18.2002 22.4288 18.2002C22.6431 16.5715 22.5002 14.8719 22.0716 13.2431C22.3573 13.0307 21.7859 11.756 21.7859 11.756C21.2859 10.6938 20.7144 9.20667 20.7144 9.20667C20.643 8.85259 20.5001 8.35688 20.4287 7.86117C20.3573 7.01139 20.3573 6.1616 20.3573 5.94916C20.3573 5.66589 20.643 5.73671 20.643 5.52426C20.5716 5.241 20.5001 5.02856 20.3573 4.74529C20.3573 4.67448 20.3573 4.60366 20.3573 4.53285C20.3573 4.46203 20.4287 4.46203 20.4287 4.39122C20.4287 4.10795 20.2144 3.89551 19.9287 3.89551H17.5715C17.2858 3.96632 17.0715 4.17877 17.0715 4.46203C17.0715 4.46203 17.1429 4.53285 17.1429 4.60366C17.1429 4.67448 17.1429 4.74529 17.1429 4.81611C17.0715 5.02856 16.9286 5.31182 16.9286 5.52426C16.9286 5.73671 17.2143 5.73671 17.2143 5.94916C17.2143 6.1616 17.2143 7.0822 17.1429 7.86117C17.0715 8.4277 16.9286 8.85259 16.8572 9.20667C16.8572 9.20667 16.2857 10.6938 15.8572 11.756C15.8572 11.756 15.2857 13.0307 15.5714 13.2431C15.0714 14.8719 15 16.5007 15.2143 18.2002C15.2143 18.2002 15.0714 18.3419 15.1429 18.9792C15.2143 19.6165 15.6429 22.3783 15.6429 22.6616C15.6429 22.7324 15.6429 23.0157 15.7143 23.4406V23.653C15.7143 25.2818 15 26.1316 15 27.1938C15 28.6809 15.9286 29.3891 18.8572 29.3891C21.7859 29.3891 22.7145 28.6101 22.7145 27.1938C22.6431 26.1316 21.9288 25.2818 21.9288 23.653Z" fill="#8E9090"/>
<path d="M30.0014 25.4227C30.0014 25.3519 30.0014 25.2103 30.0014 25.1395C30.0014 24.6438 30.0728 24.2897 30.0728 24.1481C30.0728 23.794 30.6442 20.1824 30.7871 19.4034C30.93 18.6245 30.6442 18.412 30.6442 18.412C30.93 16.2876 30.7871 14.0923 30.1442 12.0386C30.5014 11.7554 29.7156 10.1266 29.7156 10.1266C29.1442 8.78112 28.5013 6.8691 28.5013 6.8691C28.3585 6.44421 28.2156 5.80687 28.1442 5.09871C28.0727 4.03648 28.0727 2.97425 28.0727 2.62017C28.0727 2.26609 28.4299 2.33691 28.4299 2.12446C28.3585 1.77039 28.2156 1.41631 28.0727 1.06223C28.0727 0.991416 28.0727 0.920601 28.0727 0.849786C28.0727 0.77897 28.1442 0.77897 28.1442 0.708155C28.1442 0.354077 27.787 0 27.4299 0H24.3583C24.0012 0 23.7155 0.283262 23.7155 0.637339C23.7869 0.708155 23.7869 0.708155 23.7869 0.77897C23.7869 0.849785 23.7869 0.920601 23.7869 0.991416C23.7155 1.41631 23.5726 1.77039 23.5012 2.12446C23.5012 2.33691 23.8583 2.33691 23.8583 2.62017C23.8583 2.90343 23.8583 4.03648 23.7869 5.09871C23.644 5.80687 23.5012 6.44421 23.4298 6.8691C23.4298 6.8691 22.7154 8.78112 22.144 10.1266C22.144 10.1266 21.3583 11.7554 21.7154 12.0386C21.0725 14.0923 20.9297 16.2876 21.2154 18.412C21.2154 18.412 21.0011 18.6245 21.0725 19.4034C21.144 20.1824 21.7869 23.794 21.7869 24.1481C21.7869 24.2897 21.8583 24.6438 21.8583 25.1395V25.4936C21.8583 27.6888 20.9297 28.7511 20.9297 30.1674C20.9297 32.0794 22.144 33 25.9298 33C29.7156 33 30.9299 32.0086 30.9299 30.1674C30.9299 28.7511 30.0014 27.6888 30.0014 25.4936" fill="#DD0519"/>
<path d="M6.76083 47.3211C6.62285 47.5639 6.43889 47.7581 6.20893 47.9523C5.97897 48.1465 5.74901 48.2921 5.51905 48.4378C5.24309 48.5834 4.96714 48.7291 4.6452 48.7777C4.32325 48.8748 4.00131 48.9233 3.67936 48.9233C3.17345 48.9233 2.66754 48.8262 2.20762 48.632C1.7477 48.4378 1.37976 48.1465 1.05782 47.8066C0.735872 47.4668 0.45992 47.0298 0.275952 46.5443C0.0919834 46.0588 0 45.5247 0 44.9906C0 44.4566 0.0919834 43.9225 0.275952 43.437C0.45992 42.9515 0.68988 42.5145 1.05782 42.1746C1.37976 41.8348 1.79369 41.5435 2.20762 41.3007C2.66754 41.1065 3.21944 40.9609 3.72536 41.0094C4.32325 41.0094 4.92115 41.1065 5.47305 41.3978C5.97896 41.6406 6.39289 42.029 6.71484 42.5145L5.61103 43.5826C5.42706 43.2913 5.15111 43 4.82916 42.8058C4.55321 42.6116 4.18528 42.5145 3.81734 42.5145C3.49539 42.5145 3.21944 42.5631 2.94349 42.7087C2.71353 42.8058 2.48357 43 2.2996 43.2428C2.11563 43.4855 1.97766 43.7283 1.88567 44.0196C1.79369 44.3109 1.7477 44.6508 1.7477 44.9421C1.7477 45.2819 1.79369 45.5733 1.88567 45.8646C1.97766 46.1559 2.11563 46.3986 2.2996 46.5928C2.48357 46.787 2.71353 46.9812 2.94349 47.0783C3.21944 47.224 3.49539 47.2726 3.77135 47.2726C4.00131 47.2726 4.23127 47.224 4.46123 47.1755C4.6452 47.1269 4.82916 47.0298 4.96714 46.9327C5.10512 46.8356 5.24309 46.7385 5.33508 46.5928C5.42706 46.4472 5.56504 46.3501 5.65702 46.2044L6.76083 47.3211Z" fill="#DD0519"/>
<path d="M9.93521 47.4669C10.1192 47.4669 10.3031 47.4183 10.4411 47.3698C10.5791 47.2727 10.7171 47.1756 10.8091 47.0299C10.901 46.8843 10.993 46.7386 11.039 46.5929C11.085 46.3987 11.131 46.2531 11.131 46.0589C11.131 45.8647 11.085 45.719 11.039 45.5248C10.993 45.3792 10.901 45.1849 10.8091 45.0878C10.7171 44.9422 10.5791 44.8451 10.4411 44.748C10.3031 44.6509 10.1192 44.6023 9.93521 44.6509C9.75124 44.6509 9.56728 44.6994 9.4293 44.748C9.29132 44.8451 9.15335 44.9422 9.06136 45.0878C8.96938 45.2335 8.87739 45.3792 8.8314 45.5248C8.78541 45.6705 8.73942 45.8647 8.73942 46.0589C8.73942 46.2531 8.78541 46.3987 8.8314 46.5929C8.87739 46.7386 8.96938 46.9328 9.06136 47.0299C9.15335 47.1756 9.29132 47.2727 9.4293 47.3698C9.56728 47.4183 9.75124 47.4669 9.93521 47.4669ZM7.22168 46.0103C7.22168 45.6219 7.26767 45.2821 7.40565 44.8936C7.54362 44.5538 7.72759 44.2625 7.95755 44.0197C8.18751 43.777 8.50946 43.5342 8.8314 43.4371C9.19934 43.2914 9.56727 43.1943 9.93521 43.1943C10.3031 43.1943 10.6711 43.2429 11.039 43.4371C11.361 43.5827 11.6369 43.777 11.8669 44.0197C12.0968 44.2625 12.2808 44.6023 12.4188 44.8936C12.5568 45.2335 12.6028 45.6219 12.6028 46.0103C12.6028 46.3987 12.5568 46.7871 12.4188 47.127C12.2808 47.4669 12.0968 47.7582 11.8669 48.0009C11.6369 48.2437 11.361 48.4864 11.039 48.6321C10.6711 48.7778 10.3031 48.8749 9.93521 48.8749C9.56727 48.8749 9.19934 48.7778 8.8314 48.6321C8.50946 48.4864 8.2335 48.2922 8.00354 48.0009C7.77358 47.7582 7.58962 47.4183 7.45164 47.127C7.31366 46.7871 7.22168 46.4473 7.22168 46.0103Z" fill="#DD0519"/>
<path d="M17.9822 48.0012C17.7522 48.244 17.4763 48.4867 17.1543 48.6324C16.7864 48.8266 16.3725 48.9237 15.9586 48.8751C15.5906 48.8751 15.2227 48.8266 14.8547 48.6809C14.5328 48.5353 14.2568 48.3411 14.0269 48.0983C13.7969 47.8556 13.613 47.5157 13.475 47.2244C13.337 46.836 13.291 46.4476 13.291 46.0592C13.291 45.6707 13.337 45.2823 13.475 44.9425C13.613 44.6026 13.7969 44.3113 14.0269 44.0685C14.2568 43.8258 14.5788 43.583 14.9007 43.4859C15.2687 43.3403 15.6366 43.2432 16.0045 43.2432C16.4185 43.2432 16.8324 43.3403 17.2003 43.4859C17.5223 43.6316 17.7982 43.8258 18.0282 44.1171L17.1084 45.1852C16.9704 45.0396 16.8324 44.9425 16.6944 44.8454C16.5105 44.7483 16.2805 44.6512 16.0505 44.6997C15.8666 44.6997 15.6826 44.7483 15.5446 44.7968C15.4066 44.8939 15.2687 44.991 15.1767 45.1367C15.0847 45.2823 14.9927 45.428 14.9467 45.5736C14.9007 45.7678 14.8547 45.9135 14.8547 46.1077C14.8547 46.3019 14.9007 46.4476 14.9467 46.6418C14.9927 46.7874 15.0847 46.9816 15.1767 47.0787C15.2687 47.2244 15.4066 47.3215 15.5446 47.4186C15.6826 47.5157 15.8666 47.5642 16.0505 47.5642C16.2805 47.5642 16.5105 47.5157 16.6944 47.4186C16.8324 47.3215 17.0164 47.2244 17.1084 47.0787L17.9822 48.0012Z" fill="#DD0519"/>
<path d="M21.6628 46.3509C21.6168 46.3509 21.5248 46.3023 21.4788 46.3023C21.3868 46.3023 21.2489 46.3023 21.1109 46.3023C20.789 46.2538 20.467 46.3509 20.1911 46.4965C20.0071 46.5936 19.9151 46.8364 19.9151 47.0306C19.9151 47.4675 20.1451 47.6617 20.651 47.6617C20.789 47.6617 20.8809 47.6617 21.0189 47.6132C21.1109 47.5646 21.2489 47.5161 21.3409 47.419C21.4328 47.3219 21.5248 47.2248 21.5708 47.1277C21.6168 46.982 21.6628 46.8849 21.6628 46.7393V46.3509ZM21.6628 48.1958C21.4788 48.39 21.2489 48.5842 21.0189 48.6813C20.743 48.7784 20.467 48.8755 20.1451 48.827C19.9611 48.827 19.7771 48.7784 19.5932 48.7299C19.4092 48.6813 19.2252 48.5842 19.0413 48.4386C18.8573 48.2929 18.7193 48.1473 18.6273 47.9531C18.4894 47.7103 18.4434 47.419 18.4434 47.1762C18.4434 46.8849 18.4894 46.5936 18.6273 46.3509C18.7653 46.1081 18.9033 45.9139 19.1332 45.7682C19.3632 45.6226 19.5932 45.4769 19.8691 45.3798C20.1911 45.2827 20.467 45.2342 20.789 45.2827C20.9729 45.2827 21.1569 45.2827 21.3409 45.2827C21.4788 45.2827 21.5708 45.2827 21.7088 45.3313V45.2342C21.7088 45.0885 21.7088 44.9914 21.6168 44.8943C21.5708 44.7972 21.4788 44.7001 21.3869 44.6516C21.2949 44.603 21.2029 44.5545 21.0649 44.5059C20.9269 44.4574 20.8349 44.4574 20.697 44.4574C20.421 44.4574 20.0991 44.5059 19.8231 44.603C19.6392 44.7001 19.4092 44.7972 19.2712 44.8943L18.6273 43.9233C18.7653 43.8262 18.8573 43.7291 18.9953 43.6805C19.1332 43.5834 19.3172 43.5349 19.4552 43.4378C19.6392 43.3892 19.8691 43.2921 20.0991 43.2921C20.375 43.2436 20.651 43.2436 20.8809 43.2436C21.5248 43.195 22.1227 43.3892 22.5826 43.8747C22.9506 44.3602 23.1805 44.9914 23.1345 45.6226V48.7299H21.7088L21.6628 48.1958Z" fill="#DD0519"/>
<path d="M28.0089 44.7476H24.6055V46.3012H28.0089V44.7476Z" fill="#DD0519"/>
<path d="M36.0128 47.3211C35.8748 47.5639 35.6908 47.7581 35.4609 47.9523C35.2309 48.1465 35.001 48.2921 34.725 48.4378C34.4491 48.5834 34.1731 48.6805 33.8971 48.7777C33.5752 48.8748 33.2533 48.9233 32.9313 48.9233C32.4254 48.9233 31.9195 48.8262 31.4596 48.632C30.9997 48.4378 30.6317 48.1465 30.3098 47.8066C29.9878 47.4668 29.7119 47.0298 29.5279 46.5443C29.3439 46.0588 29.252 45.5247 29.252 44.9906C29.252 44.4566 29.3439 43.9225 29.5279 43.437C29.7119 42.9515 29.9418 42.5145 30.3098 42.1746C30.6317 41.8348 31.0456 41.5435 31.4596 41.3007C31.9195 41.1065 32.4714 40.9609 32.9773 41.0094C33.5752 41.0094 34.1731 41.1065 34.725 41.3978C35.2309 41.6406 35.6448 42.029 35.9668 42.5145L34.863 43.6312C34.679 43.3399 34.4031 43.0486 34.0811 42.8544C33.7592 42.6602 33.3912 42.5631 33.0233 42.5631C32.7473 42.5631 32.4254 42.6116 32.1495 42.7573C31.9195 42.8544 31.6895 43.0486 31.5056 43.2913C31.3216 43.5341 31.1836 43.7768 31.0916 44.0682C30.9997 44.3595 30.9537 44.6993 30.9537 44.9906C30.9537 45.3305 30.9997 45.6218 31.0916 45.9131C31.1836 46.2044 31.3216 46.4472 31.5056 46.6414C31.6895 46.8356 31.9195 47.0298 32.1495 47.1269C32.4254 47.2726 32.7014 47.3211 32.9773 47.3211C33.2073 47.3211 33.4372 47.2726 33.6672 47.224C33.8512 47.1755 34.0351 47.0783 34.1731 46.9812C34.3111 46.8841 34.4491 46.787 34.541 46.6414C34.633 46.4957 34.771 46.3986 34.863 46.253L36.0128 47.3211Z" fill="#DD0519"/>
<path d="M39.1862 47.4669C39.3702 47.4669 39.5541 47.4183 39.6921 47.3698C39.8301 47.2727 39.9681 47.1756 40.06 47.0299C40.152 46.8843 40.244 46.7386 40.29 46.5929C40.336 46.3987 40.382 46.2531 40.382 46.0589C40.382 45.8647 40.336 45.719 40.29 45.5248C40.244 45.3792 40.152 45.1849 40.06 45.0878C39.9681 44.9422 39.8301 44.8451 39.6921 44.748C39.5541 44.6509 39.3702 44.6023 39.1862 44.6509C39.0022 44.6509 38.8183 44.6994 38.6803 44.748C38.5423 44.8451 38.4043 44.9422 38.3123 45.0878C38.2204 45.2335 38.1284 45.3792 38.0824 45.5248C38.0364 45.6705 37.9904 45.8647 37.9904 46.0589C37.9904 46.2531 38.0364 46.3987 38.0824 46.5929C38.1284 46.7386 38.2204 46.9328 38.3123 47.0299C38.4043 47.1756 38.5423 47.2727 38.6803 47.3698C38.8183 47.4183 39.0022 47.4669 39.1862 47.4669ZM36.4727 46.0103C36.4727 45.6219 36.5186 45.2821 36.6566 44.8936C36.7946 44.5538 36.9786 44.2625 37.2085 44.0197C37.4385 43.777 37.7604 43.5342 38.0364 43.4371C38.4043 43.2914 38.7723 43.1943 39.1402 43.1943C39.5081 43.1943 39.8761 43.2429 40.244 43.4371C40.5659 43.5827 40.8419 43.777 41.0719 44.0197C41.3018 44.2625 41.4858 44.6023 41.6238 44.8936C41.7617 45.2335 41.8077 45.6219 41.8077 46.0103C41.8077 46.3987 41.7617 46.7871 41.6238 47.127C41.4858 47.4669 41.3018 47.7582 41.0719 48.0009C40.8419 48.2437 40.5659 48.4864 40.244 48.6321C39.8761 48.7778 39.5081 48.8749 39.1402 48.8749C38.7723 48.8749 38.4043 48.7778 38.0364 48.6321C37.7144 48.4864 37.4385 48.2922 37.2085 48.0009C36.9786 47.7582 36.7946 47.4183 36.6566 47.127C36.5646 46.7871 36.4727 46.3987 36.4727 46.0103Z" fill="#DD0519"/>
<path d="M44.3362 41.1553H42.7725V48.7293H44.3362V41.1553Z" fill="#DD0519"/>
<path d="M48.5222 46.3507C48.4762 46.3507 48.3842 46.3022 48.3382 46.3022C48.2462 46.3022 48.1083 46.3022 47.9703 46.3022C47.6483 46.2536 47.3264 46.3507 47.0504 46.4964C46.8665 46.5935 46.7745 46.8362 46.7745 47.0304C46.7745 47.4674 47.0044 47.6616 47.5104 47.6616C47.6483 47.6616 47.7403 47.6616 47.8783 47.6131C47.9703 47.5645 48.1083 47.516 48.2002 47.4189C48.2922 47.3218 48.3842 47.2247 48.4302 47.1276C48.4762 46.9819 48.5222 46.8848 48.5222 46.7391V46.3507ZM48.5222 48.1957C48.3382 48.3899 48.1083 48.5841 47.8783 48.6812C47.6023 48.7783 47.3264 48.8754 47.0044 48.8269C46.8205 48.8269 46.6365 48.7783 46.4525 48.7298C46.2686 48.6812 46.0846 48.5841 45.9006 48.4384C45.7167 48.2928 45.5787 48.1471 45.4867 47.9529C45.3487 47.7102 45.3027 47.4189 45.3027 47.1761C45.3027 46.8848 45.3487 46.5935 45.4867 46.3507C45.6247 46.108 45.7627 45.9138 45.9926 45.7681C46.2226 45.6225 46.4525 45.4768 46.7285 45.3797C47.0504 45.2826 47.3264 45.234 47.6483 45.2826C47.8323 45.2826 48.0163 45.2826 48.2002 45.2826C48.3382 45.2826 48.4302 45.2826 48.5682 45.3311V45.234C48.5682 45.0884 48.5222 44.9913 48.4762 44.8942C48.4302 44.7971 48.3382 44.7 48.2462 44.6514C48.1542 44.6029 48.0623 44.5543 47.9243 44.5058C47.7863 44.4572 47.6943 44.4572 47.5563 44.4572C47.2804 44.4572 46.9584 44.5058 46.6825 44.6029C46.4985 44.7 46.2686 44.7971 46.1306 44.8942L45.4867 43.9232C45.6247 43.826 45.7167 43.7289 45.8546 43.6804C45.9926 43.5833 46.1766 43.5347 46.3146 43.4376C46.4985 43.3891 46.7285 43.292 46.9585 43.292C47.2344 43.2434 47.5104 43.2434 47.7403 43.2434C48.3842 43.1949 48.9821 43.4376 49.442 43.8746C49.81 44.3601 50.0399 44.9913 49.9939 45.6225V48.7298H48.5682L48.5222 48.1957Z" fill="#DD0519"/>
<path d="M14.9268 53.3296H16.5365V56.2427H19.6179V53.3296H21.2277V60.8551H19.6179V57.7478H16.5365V60.8551H14.9268V53.3296Z" fill="#1A1A18"/>
<path d="M22.6076 53.3296H25.2751C25.6431 53.3296 26.057 53.3781 26.379 53.4752C26.6549 53.5723 26.8849 53.718 27.1148 53.9122C27.2988 54.0579 27.4368 54.3006 27.5288 54.5434C27.6207 54.7861 27.6667 55.0289 27.6667 55.2716C27.6667 55.5144 27.6207 55.7086 27.5288 55.9028C27.4368 56.097 27.3448 56.2427 27.2528 56.3883C27.1608 56.534 27.0228 56.6311 26.8849 56.6796C26.7929 56.7282 26.7009 56.7767 26.5629 56.8253C26.7009 56.8738 26.8389 56.9224 26.9769 56.971C27.1608 57.0681 27.2988 57.1652 27.4368 57.3108C27.5748 57.4565 27.7127 57.6507 27.8047 57.8449C27.8967 58.0876 27.9887 58.3789 27.9427 58.6217C27.9427 58.9616 27.8967 59.3014 27.7587 59.5927C27.6207 59.884 27.4368 60.0782 27.2068 60.2725C26.9309 60.4667 26.6549 60.5638 26.333 60.6609C25.965 60.758 25.5511 60.758 25.1832 60.758H22.5156V53.3296H22.6076ZM25.1372 56.3398C25.2752 56.3398 25.3671 56.3398 25.5051 56.2912C25.5971 56.2427 25.7351 56.1941 25.8271 56.1456C25.919 56.097 26.011 55.9999 26.057 55.9028C26.103 55.7572 26.149 55.6601 26.149 55.5144C26.149 55.3688 26.103 55.2231 26.057 55.126C26.011 55.0289 25.919 54.9318 25.8271 54.8832C25.7351 54.8347 25.6431 54.7861 25.5051 54.7376C25.4131 54.689 25.2752 54.689 25.1372 54.689H24.1713V56.3398H25.1372ZM25.2292 59.5442C25.3671 59.5442 25.5051 59.5442 25.5971 59.4956C25.7351 59.4956 25.873 59.4471 26.011 59.35C26.149 59.3014 26.241 59.1558 26.333 59.0587C26.425 58.913 26.4709 58.7188 26.4709 58.5246C26.4709 58.3304 26.425 58.1847 26.379 58.0391C26.287 57.8934 26.195 57.7963 26.057 57.7478C25.919 57.6992 25.7811 57.6507 25.6431 57.6021C25.5051 57.6021 25.3671 57.5536 25.2292 57.5536H24.2173V59.4956L25.2292 59.5442Z" fill="#1A1A18"/>
<path d="M35.6239 59.4466C35.4859 59.6894 35.302 59.8836 35.072 60.0292C34.8421 60.2234 34.6121 60.3691 34.3361 60.5147C34.0602 60.6604 33.7842 60.7575 33.5083 60.8546C33.1863 60.9517 32.9104 61.0002 32.5884 61.0002C32.0825 61.0002 31.5766 60.9031 31.1167 60.7089C30.7028 60.5147 30.2888 60.2234 29.9669 59.8836C29.645 59.5437 29.369 59.1067 29.231 58.6212C29.0471 58.1357 28.9551 57.6016 28.9551 57.0676C28.9551 56.5335 29.0471 55.9994 29.231 55.5139C29.415 55.0284 29.645 54.5914 29.9669 54.2516C30.2888 53.9117 30.7028 53.6204 31.1167 53.4262C31.5766 53.232 32.0825 53.0863 32.6344 53.1349C33.2323 53.1349 33.8302 53.232 34.3821 53.5233C34.8881 53.7661 35.302 54.1545 35.6239 54.64L34.5201 55.7567C34.3361 55.4654 34.0602 55.1741 33.7382 54.9799C33.4163 54.7856 33.0484 54.6885 32.6804 54.6885C32.4045 54.6885 32.0825 54.7371 31.8066 54.8828C31.5766 54.9799 31.3467 55.1741 31.1627 55.4168C30.9787 55.6596 30.8408 55.9023 30.7488 56.1936C30.6568 56.485 30.6108 56.7763 30.6108 57.1161C30.6108 57.456 30.6568 57.7473 30.7488 58.0386C30.8408 58.3299 30.9787 58.5727 31.1627 58.7669C31.3467 58.9611 31.5766 59.1553 31.8066 59.2524C32.0825 59.398 32.3585 59.4466 32.6344 59.4466C32.8644 59.4466 33.0944 59.398 33.3243 59.3495C33.5083 59.3009 33.6463 59.2038 33.8302 59.1067C33.9682 59.0096 34.1062 58.9125 34.1982 58.7669C34.3361 58.6212 34.4281 58.5241 34.5201 58.3785L35.6239 59.4466Z" fill="#1A1A18"/>
</svg>
