<svg width="65" height="48" viewBox="0 0 65 48" fill="none" xmlns="http://www.w3.org/2000/svg">
<path fill-rule="evenodd" clip-rule="evenodd" d="M15.507 44.8001H13.5547L15.0848 37.6684L17.2306 36.8818L15.507 44.8001Z" fill="#B0AAAD"/>
<path fill-rule="evenodd" clip-rule="evenodd" d="M11.3045 40.7091C10.8296 40.7091 10.5658 41.0937 10.4602 41.5481C11.3924 41.5481 11.6738 41.251 11.6738 41.0237C11.6738 40.8489 11.5155 40.7091 11.3045 40.7091ZM10.2492 42.7892C10.2316 42.8416 10.2316 42.929 10.2316 42.9814C10.2316 43.2961 10.4426 43.4009 11.0231 43.4009C11.5507 43.4009 12.2718 43.2786 12.7115 43.1213V44.5721C12.1663 44.7644 11.3045 44.8867 10.6185 44.8867C9.00043 44.8867 8.22656 44.4497 8.22656 42.9989C8.22656 41.5656 8.89491 39.3457 11.4627 39.3457C13.0984 39.3457 13.5909 40.0798 13.5909 40.8489C13.5733 41.8453 12.7115 42.7018 10.2492 42.7892Z" fill="#B0AAAD"/>
<path fill-rule="evenodd" clip-rule="evenodd" d="M19.0787 39.0843C18.4104 39.0843 17.9883 38.6647 17.9883 38.0704C17.9883 37.3013 18.5335 36.8818 19.2018 36.8818C19.8878 36.8818 20.2923 37.3013 20.2923 37.8782C20.2747 38.6647 19.7471 39.0843 19.0787 39.0843Z" fill="#B0AAAD"/>
<path fill-rule="evenodd" clip-rule="evenodd" d="M17.69 39.5205H19.7127L18.6926 44.7119H16.6523L17.3735 41.0762" fill="#B0AAAD"/>
<path fill-rule="evenodd" clip-rule="evenodd" d="M25.5141 39.5205C24.8106 41.2685 24.0543 42.964 23.0694 44.7119H20.5719C20.2553 43.0688 20.1146 41.3209 20.1498 39.5205H22.19C22.1548 40.3595 22.1548 41.216 22.2076 42.055C22.2252 42.2823 22.2428 42.4745 22.2604 42.6843H22.278C22.3659 42.4745 22.4714 42.2648 22.5594 42.055C22.9111 41.1985 23.2277 40.2721 23.4739 39.5205H25.5141Z" fill="#B0AAAD"/>
<path fill-rule="evenodd" clip-rule="evenodd" d="M28.24 40.7091C27.7651 40.7091 27.5013 41.0937 27.3958 41.5481C28.328 41.5481 28.6094 41.251 28.6094 41.0237C28.5918 40.8489 28.4511 40.7091 28.24 40.7091ZM27.1671 42.7892C27.1496 42.8416 27.1496 42.9115 27.1496 42.9814C27.1496 43.2961 27.3782 43.4009 27.941 43.4009C28.4687 43.4009 29.1898 43.2786 29.6295 43.1213V44.5721C29.0842 44.7644 28.2224 44.8867 27.5365 44.8867C25.9184 44.8867 25.1445 44.4497 25.1445 42.9989C25.1445 41.5656 25.8129 39.3457 28.3807 39.3457C30.0164 39.3457 30.5089 40.0798 30.5089 40.8489C30.5089 41.8453 29.6471 42.7018 27.1671 42.7892Z" fill="#B0AAAD"/>
<path fill-rule="evenodd" clip-rule="evenodd" d="M34.4338 41.3559C34.2755 41.321 34.1173 41.3035 33.9414 41.3035C33.4841 41.3035 33.1323 41.758 32.974 42.5795L32.5519 44.7295H30.5117L31.5318 39.5381H33.062L33.1147 40.2373C33.5896 39.6604 33.959 39.3633 34.5218 39.3633C34.7856 39.3633 34.9263 39.3808 34.9967 39.3982L34.4338 41.3559Z" fill="#B0AAAD"/>
<path fill-rule="evenodd" clip-rule="evenodd" d="M40.8005 39.5205C39.9035 41.8453 39.1121 43.5408 38.303 44.7119C37.1422 46.4249 36.1221 46.8269 35.0844 46.8269C34.7678 46.8269 34.4513 46.7395 34.293 46.6696L34.6096 45.1664H35.3131C35.6648 45.1664 35.8055 45.0266 36.0342 44.7294C35.6472 43.331 35.4538 41.3733 35.4714 39.538H37.5116C37.4764 40.377 37.4764 41.216 37.5292 42.0376C37.5467 42.2648 37.5643 42.492 37.5819 42.7018H37.5995C37.6875 42.492 37.793 42.2823 37.8809 42.055C38.2151 41.2335 38.5141 40.377 38.7603 39.5205H40.8005" fill="#B0AAAD"/>
<path fill-rule="evenodd" clip-rule="evenodd" d="M48.6245 44.7119H46.4788L46.9888 42.1075H45.1597L44.6496 44.7119H42.5039L43.8582 37.79H46.0215L45.529 40.2721H47.3406L47.8331 37.79H49.9788L48.6245 44.7119Z" fill="#B0AAAD"/>
<path fill-rule="evenodd" clip-rule="evenodd" d="M52.8455 40.7091C52.3706 40.7091 52.1068 41.0937 52.0013 41.5481C52.9334 41.5481 53.2148 41.251 53.2148 41.0237C53.2148 40.8489 53.0565 40.7091 52.8455 40.7091ZM51.7726 42.7892C51.755 42.8416 51.755 42.9115 51.755 42.9814C51.755 43.2961 51.9837 43.4009 52.5465 43.4009C53.0741 43.4009 53.8128 43.2786 54.2349 43.1213V44.5721C53.6897 44.7644 52.8279 44.8867 52.142 44.8867C50.5239 44.8867 49.75 44.4497 49.75 42.9989C49.75 41.5656 50.4183 39.3457 52.9862 39.3457C54.6219 39.3457 55.1143 40.0798 55.1143 40.8489C55.1319 41.8453 54.2525 42.7018 51.7726 42.7892Z" fill="#B0AAAD"/>
<path fill-rule="evenodd" clip-rule="evenodd" d="M59.0393 41.3559C58.881 41.321 58.7227 41.3035 58.5468 41.3035C58.1071 41.3035 57.7378 41.758 57.5795 42.5795L57.1574 44.7295H55.1172L56.1373 39.5381H57.6674L57.7202 40.2373C58.1951 39.6604 58.5644 39.3633 59.1272 39.3633C59.3911 39.3633 59.5318 39.3808 59.6021 39.3982L59.0393 41.3559Z" fill="#B0AAAD"/>
<path fill-rule="evenodd" clip-rule="evenodd" d="M62.3787 40.9363C61.5696 40.9363 61.341 42.1774 61.341 42.7367C61.341 43.1737 61.5345 43.3136 61.9038 43.3136C62.7129 43.3136 62.9239 42.0725 62.9239 41.5132C62.9239 41.0762 62.7304 40.9363 62.3787 40.9363ZM61.6224 44.9042C60.0395 44.9042 59.2656 44.2225 59.2656 42.8766C59.2656 41.3733 60.0043 39.3457 62.6425 39.3457C64.2254 39.3457 64.9993 40.0449 64.9993 41.3733C64.9993 42.894 64.2606 44.9042 61.6224 44.9042Z" fill="#B0AAAD"/>
<path fill-rule="evenodd" clip-rule="evenodd" d="M3.84731 43.069H3.44279L4.16389 39.4157H4.72671C5.57093 39.4157 5.88751 39.9052 5.88751 40.6043C5.86993 41.9852 5.11364 43.069 3.84731 43.069ZM5.74681 39.5556L7.10109 38.2621C6.57345 37.9475 5.85234 37.8076 4.93776 37.8076H2.33474L0.980469 44.7295H3.68902C6.83726 44.7295 8.08601 42.5446 8.08601 40.2722C8.08601 39.6779 7.9629 39.206 7.71666 38.8389L5.74681 39.5556Z" fill="#B0AAAD"/>
<path fill-rule="evenodd" clip-rule="evenodd" d="M47.7079 14.0775L43.5044 15.7631L43.3898 15.838L42.358 20.4076C42.2816 20.5574 42.0905 20.5949 41.9377 20.4825L38.8806 16.9617L21.7611 24.1158C21.6464 24.1907 21.5318 24.0034 21.6464 23.9285L36.4732 13.0662L34.6007 8.87114C34.5243 8.68386 34.6772 8.45912 34.9064 8.53403L39.4538 9.62026L42.9694 6.54886C43.1223 6.4365 43.3133 6.51141 43.3516 6.69869L43.6955 11.3058L47.7461 13.6281C47.9371 13.7779 47.8989 14.0026 47.7079 14.0775ZM45.6443 0.892991C40.3709 -1.12964 34.6007 0.406062 31.0087 4.26404L17.0991 18.8719C16.908 19.0592 16.9844 19.3214 17.2137 19.3589L20.9204 19.5836C21.2261 19.5836 21.2643 19.8458 21.1115 20.0331L12.0549 29.6218C11.9021 29.7716 12.0931 30.0338 12.3224 29.9964L25.2385 25.9886C25.506 25.8762 25.7353 26.1384 25.6206 26.3631L23.901 29.3596C23.8246 29.5469 23.9775 29.7716 24.2067 29.7342L42.893 25.6515C47.3639 24.9773 51.3381 22.0557 53.0959 17.6359C55.7326 10.9687 52.4081 3.47746 45.6443 0.892991Z" fill="#B0AAAD"/>
</svg>
