<svg width="60" height="44" viewBox="0 0 60 44" fill="none" xmlns="http://www.w3.org/2000/svg">
<path d="M5.79466 43.8261H7.74362L7.413 42.1449V32.1546H5.55105V36.715C4.9942 36 4.21114 35.5749 3.30627 35.5749C1.44432 35.5749 0 37.2947 0 39.7874C0 42.2995 1.44432 44 3.30627 44C4.22854 44 5.029 43.5556 5.58585 42.8019L5.79466 43.8261ZM42.616 37.8164C42.9988 37.8164 43.3469 37.9324 43.6601 38.1836L44.5476 35.9807C44.1299 35.6908 43.6601 35.5749 43.1903 35.5749C42.355 35.5749 41.6415 36 41.2065 36.7923L41.0151 35.7681H39.1009L39.4142 37.3527V43.8454H41.2761V38.686C41.5197 38.1449 41.9896 37.8164 42.616 37.8164ZM48.0626 41.8358C46.9838 41.8358 46.1833 41.0435 46.1833 39.8068C46.1833 38.5507 46.9838 37.7778 48.0626 37.7778C49.1589 37.7778 49.942 38.5507 49.942 39.8068C49.942 41.0242 49.1589 41.8358 48.0626 41.8358ZM1.80975 39.7874C1.80975 38.5314 2.61021 37.7585 3.6891 37.7585C4.78538 37.7585 5.56845 38.5314 5.56845 39.7874C5.56845 41.0242 4.78538 41.8164 3.6891 41.8164C2.61021 41.8357 1.80975 41.0242 1.80975 39.7874ZM56.3283 41.8358C55.2494 41.8358 54.449 41.0435 54.449 39.8068C54.449 38.5507 55.2494 37.7778 56.3283 37.7778C57.4246 37.7778 58.2077 38.5507 58.2077 39.8068C58.1903 41.0242 57.4072 41.8358 56.3283 41.8358ZM12.268 37.6425C13.2251 37.6425 13.8515 38.1449 14.0603 39.0725H10.4756C10.6671 38.1256 11.3109 37.6425 12.268 37.6425ZM34.5244 37.6425C35.4814 37.6425 36.1079 38.1449 36.3167 39.0725H32.732C32.9582 38.1256 33.5847 37.6425 34.5244 37.6425ZM25.4408 43.8261H28.4339L30.3828 35.7295H28.3469L26.9374 42.2995L25.5104 35.7488H23.5093L25.4408 43.8261ZM20.6555 43.8261H22.5174V35.7295H20.6555V43.8261ZM12.5464 43.9807C13.5905 43.9807 14.5998 43.6522 15.4524 43.0531L14.739 41.2754C14.0777 41.6812 13.3121 41.8937 12.5638 41.8937C11.5893 41.8937 10.9107 41.4686 10.5974 40.6763H15.8527C15.9049 40.3672 15.9397 40.0966 15.9397 39.7295C15.9397 37.2174 14.3736 35.5556 12.3028 35.5556C10.1972 35.5556 8.66589 37.256 8.66589 39.7681C8.64849 42.3382 10.1798 43.9807 12.5464 43.9807ZM60 39.7874C60 37.2754 58.4339 35.5749 56.3283 35.5749C54.2053 35.5749 52.6566 37.2947 52.6566 39.7874C52.6566 42.2802 54.2227 44 56.3283 44C58.4339 44 60 42.2995 60 39.7874ZM34.7854 44C35.8295 44 36.8387 43.6908 37.6914 43.0725L36.978 41.2947C36.3167 41.7005 35.551 41.913 34.8028 41.913C33.8283 41.913 33.1496 41.4879 32.8364 40.6957H38.0916C38.1438 40.3865 38.1787 40.1159 38.1787 39.7488C38.1787 37.2367 36.6125 35.5749 34.5418 35.5749C32.4362 35.5749 30.9049 37.2754 30.9049 39.7874C30.9049 42.3768 32.4188 44 34.7854 44ZM48.0626 44C50.1856 44 51.7343 42.2802 51.7343 39.7874C51.7343 37.2947 50.1682 35.5749 48.0626 35.5749C45.9397 35.5749 44.3909 37.2947 44.3909 39.7874C44.3909 42.2802 45.9397 44 48.0626 44ZM17.123 43.8261H18.9849V32.1546H17.123V43.8261ZM21.5951 34.628C22.239 34.628 22.761 34.0483 22.761 33.314C22.761 32.5797 22.2564 32 21.5951 32C20.9339 32 20.4118 32.5797 20.4118 33.314C20.4118 34.0483 20.9165 34.628 21.5951 34.628Z" fill="#00CCBC"/>
<path d="M36.6402 0L35.1088 14.1033L32.4979 2.21276L24.2636 3.89058L26.8494 15.7812L15 18.2128L17.1088 27.696L37.9707 32L42.7406 21.6657L45 0.851064L36.6402 0ZM30.0377 20.4742C29.6109 20.8632 29.0586 20.8146 28.431 20.6201C27.8285 20.4255 27.5774 19.7447 27.7782 18.8693C27.954 18.2371 28.7322 18.1398 29.159 18.1398C29.3096 18.1398 29.4603 18.1641 29.6109 18.2371C29.887 18.3587 30.364 18.6261 30.4644 19.0152C30.6151 19.5988 30.4644 20.0851 30.0377 20.4742ZM36.0879 21.1064C35.7615 21.6413 34.9582 21.7143 34.1297 21.3252C33.5774 21.0578 33.5774 20.4255 33.6527 20.0122C33.6778 19.7933 33.7782 19.5745 33.9289 19.4043C34.1297 19.1611 34.4561 18.845 34.8075 18.845C35.4351 18.8207 35.9372 19.0881 36.2385 19.5745C36.5398 20.0608 36.3891 20.5957 36.0879 21.1064Z" fill="#00CCBC"/>
</svg>
