<svg width="64" height="14" viewBox="0 0 64 14" fill="none" xmlns="http://www.w3.org/2000/svg">
<path d="M10.9164 12.4385C9.76481 13.4149 8.29702 14.0001 6.69845 14.0001C5.09986 14.0001 3.63206 13.4149 2.48047 12.4385C3.63206 11.4621 5.09986 10.877 6.69845 10.877C8.29702 10.877 9.76481 11.4621 10.9164 12.4385Z" fill="#A5A8AE"/>
<path fill-rule="evenodd" clip-rule="evenodd" d="M2.44424 10.7491C1.62653 9.73675 1.13367 8.42859 1.13367 7.00014C1.13367 3.78833 3.62533 1.18464 6.69895 1.18464C9.77259 1.18464 12.2643 3.78833 12.2643 7.00014C12.2643 8.42859 11.7714 9.73675 10.9536 10.7491C11.235 10.9327 11.5046 11.1341 11.7611 11.3516L11.8731 11.4465C12.8258 10.2374 13.3979 8.68861 13.3979 7.00014C13.3979 3.13407 10.3987 0 6.69895 0C2.99922 0 0 3.13407 0 7.00014C0 8.68861 0.572076 10.2374 1.52473 11.4465L1.63678 11.3516C1.89326 11.1341 2.1629 10.9327 2.44424 10.7491Z" fill="#A5A8AE"/>
<path d="M9.17344 6.78486C9.17344 8.21233 8.06607 9.36953 6.70002 9.36953C5.33397 9.36953 4.22656 8.21233 4.22656 6.78486C4.22656 5.35739 5.33397 4.2002 6.70002 4.2002C8.06607 4.2002 9.17344 5.35739 9.17344 6.78486Z" fill="#A5A8AE"/>
<path d="M64.0006 11.5233H62.3516V1.93848H64.0006V11.5233Z" fill="#A5A8AE"/>
<path d="M59.3892 5.8205V5.0618H61.0123V11.5234H59.3892V10.5735C58.9388 11.1791 58.2921 11.4819 57.4767 11.4819C56.7 11.4819 55.8969 11.1667 55.3377 10.5362C54.7864 9.89748 54.5195 9.12694 54.5195 8.20622C54.5195 7.29377 54.7864 6.50899 55.3377 5.87027C55.8969 5.23155 56.661 4.9541 57.4376 4.9541C58.253 4.9541 58.9388 5.21496 59.3892 5.8205ZM56.603 9.46618C56.9059 9.78967 57.2903 9.95146 57.7563 9.95146C58.2222 9.95146 58.6066 9.78967 58.9095 9.46618C59.2202 9.13437 59.3892 8.71132 59.3892 8.19703C59.3892 7.68274 59.2202 7.26384 58.9095 6.94033C58.6066 6.60853 58.2222 6.44263 57.7563 6.44263C57.2903 6.44263 56.9059 6.60853 56.603 6.94033C56.3001 7.26384 56.1428 7.68274 56.1428 8.19703C56.1428 8.71132 56.3001 9.13437 56.603 9.46618Z" fill="#A5A8AE"/>
<path d="M49.0484 5.0618V6.20724C49.1826 5.8087 49.5169 5.43816 49.7068 5.30418C49.8825 5.18019 50.286 4.9541 50.7041 4.9541V6.70031C50.2387 6.63247 49.9003 6.84996 49.5648 7.12303C49.2092 7.41248 49.0552 7.82259 49.0552 8.43312V11.5234H47.4062V5.0618H49.0484Z" fill="#A5A8AE"/>
<path d="M32.3802 11.5234C31.4822 11.5234 30.7313 11.2083 30.1273 10.5779C29.5312 9.94744 29.1641 9.18871 29.1641 8.25973C29.1641 7.33073 29.5312 6.53009 30.1273 5.89969C30.7313 5.2693 31.4822 4.9541 32.3802 4.9541C32.9604 4.9541 33.4888 5.09926 33.9657 5.38957C34.4425 5.67988 34.8714 6.06973 35.1178 6.55911L33.7272 7.36784C33.6081 7.1107 33.4253 6.90749 33.1789 6.75819C32.9405 6.60888 32.6703 6.53423 32.3683 6.53423C31.9074 6.53423 31.5259 6.69597 31.224 7.01947C30.9219 7.33466 30.7426 7.7411 30.7426 8.23878C30.7426 8.71987 30.9219 9.12632 31.224 9.45813C31.5259 9.77331 31.9074 9.9309 32.3683 9.9309C32.6782 9.9309 32.9524 9.86038 33.1908 9.71941C33.4372 9.57004 33.6873 9.36687 33.8064 9.1097L35.1415 9.90596C34.8794 10.4037 34.5058 10.7977 34.0211 11.088C33.5443 11.3783 32.9524 11.5234 32.3802 11.5234Z" fill="#A5A8AE"/>
<path d="M26.486 5.82602V5.0618H28.1349V11.5234H26.486V10.6094C26.0284 11.2188 25.3715 11.5234 24.5431 11.5234C23.7542 11.5234 22.9383 11.2062 22.3702 10.5718C21.8101 9.92898 21.5391 9.15354 21.5391 8.22694C21.5391 7.30867 21.8101 6.51889 22.3702 5.87611C22.9383 5.23332 23.7145 4.9541 24.5034 4.9541C25.3318 4.9541 26.0284 5.21662 26.486 5.82602ZM23.6556 9.49488C23.9632 9.82047 24.3538 9.98331 24.8272 9.98331C25.3005 9.98331 25.6911 9.82047 25.9987 9.49488C26.3143 9.16097 26.486 8.73526 26.486 8.2177C26.486 7.70012 26.3143 7.27855 25.9987 6.95298C25.6911 6.61907 25.3005 6.45211 24.8272 6.45211C24.3538 6.45211 23.9632 6.61907 23.6556 6.95298C23.3479 7.27855 23.188 7.70012 23.188 8.2177C23.188 8.73526 23.3479 9.16097 23.6556 9.49488Z" fill="#A5A8AE"/>
<path d="M20.8195 1.94424V3.68685C19.9832 3.62765 19.5875 4.12193 19.5875 4.90007V5.06162H20.8195V6.80903H19.5828V11.5232H17.9338V6.80903H17.1094V5.06162H17.9338V4.90007C17.9338 3.99506 18.2937 3.21294 18.7591 2.75621C19.2324 2.29101 19.9043 1.88503 20.8195 1.94424Z" fill="#A5A8AE"/>
<path d="M53.5943 11.5232H51.9453V5.06152H53.5943V11.5232Z" fill="#A5A8AE"/>
<path d="M53.695 2.90773C53.695 3.44303 53.2796 3.87698 52.7674 3.87698C52.2551 3.87698 51.8398 3.44303 51.8398 2.90773C51.8398 2.37243 52.2551 1.93848 52.7674 1.93848C53.2796 1.93848 53.695 2.37243 53.695 2.90773Z" fill="#A5A8AE"/>
<path fill-rule="evenodd" clip-rule="evenodd" d="M43.3887 11.5232C45.0963 11.5232 46.4805 10.0767 46.4805 8.29235C46.4805 6.50801 45.0963 5.06152 43.3887 5.06152C41.6811 5.06152 40.2969 6.50801 40.2969 8.29235C40.2969 10.0767 41.6811 11.5232 43.3887 11.5232ZM43.3887 9.9616C44.2709 9.9616 44.9861 9.21425 44.9861 8.29235C44.9861 7.37044 44.2709 6.62309 43.3887 6.62309C42.5064 6.62309 41.7912 7.37044 41.7912 8.29235C41.7912 9.21425 42.5064 9.9616 43.3887 9.9616Z" fill="#A5A8AE"/>
<path d="M35.9688 8.83345V3.99668L37.6879 3.44629V5.07192H39.3855V6.76713H37.6879C37.6879 7.35421 37.6664 8.33151 37.6664 8.78944C37.6664 9.51597 38.0938 9.81592 38.5227 9.81592C38.9515 9.81592 39.3349 9.55027 39.3349 9.55027L39.8851 11.0655C39.8851 11.0655 38.6751 11.8596 37.4713 11.3562C36.2675 10.8529 35.9688 9.88802 35.9688 8.83345Z" fill="#A5A8AE"/>
</svg>
