<svg width="32" height="44" viewBox="0 0 32 44" fill="none" xmlns="http://www.w3.org/2000/svg">
<path d="M13.9169 9.39746C13.5551 9.39746 13.2656 9.70114 13.2656 10.0623V19.2464C13.2656 19.6157 13.5631 19.9112 13.9169 19.9112C14.2707 19.9112 14.5681 19.6075 14.5681 19.2464V10.0623C14.5762 9.70114 14.2787 9.39746 13.9169 9.39746ZM18.0817 9.39746C17.7199 9.39746 17.4304 9.70114 17.4304 10.0623V19.2464C17.4304 19.6157 17.7279 19.9112 18.0817 19.9112C18.4435 19.9112 18.733 19.6075 18.733 19.2464V10.0623C18.733 9.70114 18.4355 9.39746 18.0817 9.39746Z" fill="#4C68FF"/>
<path d="M16 0C7.1799 0 0 7.32923 0 16.3328C0 24.4089 5.76482 31.1226 13.3146 32.4357V41.546C13.3146 42.9002 14.4 44 15.7186 44H16.3457C17.6724 44 18.7497 42.892 18.7497 41.546V32.4193C26.2673 31.0815 32 24.3761 32 16.3328C32 7.32923 24.8201 0 16 0ZM18.7578 31.0815V24.3678C21.1779 23.3337 22.8905 20.8961 22.8905 18.0481V16.8006C22.8905 16.7842 22.8985 16.7678 22.8985 16.7596V10.0131C22.8985 9.67655 22.6251 9.3975 22.2955 9.3975H22.191C21.8613 9.3975 21.5879 9.67655 21.5879 10.0131V18.0399C21.5879 20.141 20.4302 21.9713 18.7256 22.8987C18.3317 23.1121 17.9136 23.2763 17.4714 23.3912V41.5378C17.4714 42.1698 16.9729 42.6786 16.3538 42.6786H15.7266C15.1075 42.6786 14.609 42.1698 14.609 41.5378V23.424C14.1668 23.3173 13.7407 23.1614 13.3467 22.9562C11.6101 22.0369 10.4121 20.1903 10.4121 18.0563V16.817C10.4121 16.8006 10.4201 16.7842 10.4201 16.7678V10.0131C10.4201 9.67655 10.1467 9.3975 9.81709 9.3975H9.7206C9.39095 9.3975 9.11759 9.67655 9.11759 10.0131V18.0399C9.11759 20.9125 10.8623 23.3747 13.3226 24.3843V31.0815C6.4804 29.8012 1.29447 23.6784 1.29447 16.3328C1.29447 8.05148 7.89548 1.31319 16.008 1.31319C24.1126 1.3214 30.7136 8.05148 30.7136 16.3328C30.7136 23.6538 25.5518 29.7601 18.7578 31.0815Z" fill="#4C68FF"/>
</svg>
