<svg width="72" height="16" viewBox="0 0 72 16" fill="none" xmlns="http://www.w3.org/2000/svg">
<path d="M20.5977 6.20391H21.5392V5.36097C21.5392 4.34308 22.1338 3.65918 23.3065 3.65918L23.9012 3.77051V4.78841L23.257 4.67707C22.9101 4.67707 22.7284 4.89974 22.7284 5.24964V6.20391H23.9012V7.22181H22.7284V11.5319H21.5557V7.22181H20.6142L20.5977 6.20391Z" fill="#D70F64"/>
<path d="M26.957 6.0918C28.4931 6.0918 29.8476 7.22102 29.8476 8.8751C29.8476 10.5133 28.4931 11.6584 26.957 11.6584C25.4208 11.6584 24.0664 10.5292 24.0664 8.8751C24.0664 7.22102 25.4208 6.0918 26.957 6.0918ZM26.957 10.6246C28.0802 10.6246 28.6583 9.82937 28.6583 8.85919C28.6583 7.88901 28.0637 7.09379 26.957 7.09379C25.8338 7.09379 25.2557 7.88901 25.2557 8.85919C25.2392 9.82937 25.8338 10.6246 26.957 10.6246Z" fill="#D70F64"/>
<path d="M33.2343 6.0918C34.7705 6.0918 36.1249 7.22102 36.1249 8.8751C36.1249 10.5133 34.7705 11.6584 33.2343 11.6584C31.6982 11.6584 30.3438 10.5292 30.3438 8.8751C30.3603 7.22102 31.7147 6.0918 33.2343 6.0918ZM33.2343 10.6246C34.3575 10.6246 34.9356 9.82937 34.9356 8.85919C34.9356 7.88901 34.341 7.09379 33.2343 7.09379C32.1111 7.09379 31.533 7.88901 31.533 8.85919C31.533 9.82937 32.1276 10.6246 33.2343 10.6246Z" fill="#D70F64"/>
<path d="M42.3003 11.531H41.2432L41.1275 11.0856L41.0615 11.022L40.9954 11.0856C40.6485 11.4196 40.0539 11.6582 39.4593 11.6582C37.9231 11.6582 36.6348 10.529 36.6348 8.8749C36.6348 7.23673 37.9397 6.0916 39.4593 6.0916C40.0374 6.0916 40.632 6.31427 40.9954 6.66417L41.0615 6.72779L41.1275 6.66417V3.6582H42.3003V11.531ZM39.5419 7.10949C38.4187 7.10949 37.824 7.90472 37.824 8.8749C37.824 9.84508 38.4187 10.6403 39.5419 10.6403C40.5494 10.6403 41.2432 9.84508 41.2432 8.8749C41.2432 7.90472 40.5329 7.10949 39.5419 7.10949Z" fill="#D70F64"/>
<path d="M43.4892 6.20341H44.5463L44.6454 6.64874L44.7115 6.71235L44.7775 6.64874C45.1244 6.31474 45.719 6.07617 46.3137 6.07617C47.8498 6.07617 49.1382 7.2054 49.1382 8.85947C49.1382 10.4976 47.8333 11.6428 46.3137 11.6428C45.7356 11.6428 45.1409 11.4201 44.7775 11.0702L44.7115 11.0066L44.6454 11.0702V13.933H43.4727V6.20341H43.4892ZM46.2476 10.6249C47.3708 10.6249 47.9489 9.82965 47.9489 8.85947C47.9489 7.88929 47.3543 7.09407 46.2476 7.09407C45.24 7.09407 44.5463 7.88929 44.5463 8.85947C44.5463 9.82965 45.2566 10.6249 46.2476 10.6249Z" fill="#D70F64"/>
<path d="M52.0969 8.22329H53.055V7.98472C53.055 7.34854 52.5925 7.04635 51.9648 7.04635C51.4528 7.04635 51.1059 7.28492 50.9242 7.76206L49.8671 7.5553C50.0983 6.64874 50.9077 6.07617 51.9648 6.07617C53.4514 6.07617 54.1947 6.77597 54.1947 8.20739V11.5473H53.2201L53.1045 10.8475C52.7081 11.3724 52.1465 11.6428 51.3702 11.6428C50.3791 11.6428 49.6523 11.0861 49.6523 10.0046C49.6854 8.87538 50.6599 8.22329 52.0969 8.22329ZM51.6014 10.6249C51.9978 10.6249 52.3282 10.5135 52.6255 10.275C52.9228 10.0205 53.0715 9.70241 53.0715 9.25709V9.14575H52.0639C51.3537 9.14575 50.9077 9.46385 50.9077 9.97279C50.9077 10.3704 51.1554 10.6249 51.6014 10.6249Z" fill="#D70F64"/>
<path d="M55.3008 6.20341H56.3579L56.4735 6.64874L56.5396 6.71235L56.6057 6.64874C56.8369 6.31474 57.4316 6.07617 57.9106 6.07617C59.3311 6.07617 60.1404 6.98273 60.1404 8.22329V11.5155H58.9677V8.22329C58.9346 7.49168 58.5713 7.09407 57.7949 7.09407C57.1012 7.09407 56.5231 7.63482 56.49 8.28691V11.5155H55.3173L55.3008 6.20341Z" fill="#D70F64"/>
<path d="M66.5503 11.531H65.4932L65.3775 11.0856L65.3115 11.022L65.2454 11.0856C64.8985 11.4196 64.3039 11.6582 63.7093 11.6582C62.1731 11.6582 60.8848 10.529 60.8848 8.8749C60.8848 7.23673 62.1897 6.0916 63.7093 6.0916C64.2874 6.0916 64.882 6.31427 65.2454 6.66417L65.3115 6.72779L65.3775 6.66417V3.6582H66.5503V11.531ZM63.7753 7.10949C62.6521 7.10949 62.0575 7.90472 62.0575 8.8749C62.0575 9.84508 62.6521 10.6403 63.7753 10.6403C64.7829 10.6403 65.4766 9.84508 65.4766 8.8749C65.4932 7.90472 64.7829 7.10949 63.7753 7.10949Z" fill="#D70F64"/>
<path d="M69.9016 8.22329H70.8597V7.98472C70.8597 7.34854 70.3972 7.04635 69.7695 7.04635C69.2574 7.04635 68.9106 7.28492 68.7289 7.76206L67.6718 7.5553C67.903 6.64874 68.7124 6.07617 69.7695 6.07617C71.2561 6.07617 71.9994 6.77597 71.9994 8.20739V11.5473H71.0248L70.9092 10.8475C70.5128 11.3724 69.9512 11.6428 69.1749 11.6428C68.1838 11.6428 67.457 11.0861 67.457 10.0046C67.4901 8.87538 68.4481 8.22329 69.9016 8.22329ZM69.4061 10.6249C69.8025 10.6249 70.1329 10.5135 70.4302 10.275C70.7275 10.0205 70.8762 9.70241 70.8762 9.25709V9.14575H69.8686C69.1583 9.14575 68.7124 9.46385 68.7124 9.97279C68.7124 10.3704 68.9436 10.6249 69.4061 10.6249Z" fill="#D70F64"/>
<path d="M8.21046 11.817C9.33365 11.817 10.2421 11.0536 10.2421 10.1152H6.19531C6.19531 11.0536 7.08726 11.817 8.21046 11.817Z" fill="#D70F64"/>
<path d="M15.031 3.67396C15.4935 3.29225 15.7908 2.73559 15.7908 2.0994C15.7908 0.954274 14.8163 0.0159055 13.6105 0.0159055C12.8342 0.0159055 12.1734 0.397615 11.7935 0.97018C10.7199 0.461234 9.4976 0.174951 8.22575 0.174951C6.9539 0.174951 5.7316 0.461233 4.65795 0.954274C4.26153 0.38171 3.60083 0 2.84102 0C1.65176 0 0.660703 0.938371 0.660703 2.0835C0.660703 2.71968 0.958019 3.27634 1.40399 3.65805C0.512045 4.91451 0 6.44135 0 8.07952C0 12.4533 3.68342 16 8.22575 16C12.7681 16 16.4515 12.4533 16.4515 8.07952C16.4515 6.45726 15.9229 4.93042 15.031 3.67396ZM8.22575 15.3956C4.04681 15.3956 0.644185 12.1193 0.644185 8.09543C0.644185 6.58449 1.1232 5.16899 1.94907 4.00795C2.69236 2.95825 3.71645 2.0835 4.92224 1.52684C5.91329 1.0497 7.03649 0.795229 8.22575 0.795229C9.41502 0.795229 10.5382 1.06561 11.5293 1.52684C12.735 2.0835 13.7591 2.94235 14.5024 4.00795C15.3283 5.16899 15.8073 6.58449 15.8073 8.09543C15.8073 12.1193 12.4047 15.3956 8.22575 15.3956Z" fill="#D70F64"/>
<path d="M8.20957 9.62198C8.34171 9.65379 9.63009 9.22436 9.63009 8.6359C9.63009 8.3019 8.57296 8.23828 8.20957 8.23828C7.84619 8.23828 6.78906 8.3019 6.78906 8.6359C6.78906 9.22436 8.09395 9.65379 8.20957 9.62198Z" fill="#D70F64"/>
<path d="M12.9817 4.67589C12.2714 4.21466 10.6857 3.94428 10.0746 4.73951C10.0746 4.73951 9.29826 5.55064 10.0581 6.37768C10.8344 7.22062 11.4125 7.99995 11.5942 8.68385C11.7759 9.36774 12.0567 9.63812 12.6183 9.65402C13.1964 9.65402 14.2866 8.81108 14.4187 7.45919C14.5674 6.10731 13.7085 5.12122 12.9817 4.67589ZM11.3464 6.39359C11.0987 6.39359 10.917 6.20273 10.917 5.98007C10.917 5.7415 11.1152 5.56655 11.3464 5.56655C11.5942 5.56655 11.7759 5.7574 11.7759 5.98007C11.7759 6.20273 11.5777 6.39359 11.3464 6.39359Z" fill="#D70F64"/>
<path d="M6.34126 4.72433C5.71359 3.94501 4.12791 4.19948 3.43417 4.66072C2.72391 5.12195 1.84848 6.09213 1.99714 7.44402C2.12928 8.79591 3.23596 9.63885 3.79756 9.63885C4.37567 9.63885 4.65647 9.35257 4.82164 8.66867C5.00334 7.98477 5.59797 7.20545 6.35778 6.36251C7.11759 5.53547 6.34126 4.72433 6.34126 4.72433ZM5.20155 6.39431C4.95379 6.39431 4.77209 6.20346 4.77209 5.9808C4.77209 5.74223 4.9703 5.56728 5.20155 5.56728C5.43279 5.56728 5.63101 5.75813 5.63101 5.9808C5.61449 6.20346 5.43279 6.39431 5.20155 6.39431Z" fill="#D70F64"/>
</svg>
