<svg width="40" height="40" viewBox="0 0 40 40" fill="none" xmlns="http://www.w3.org/2000/svg">
<g clip-path="url(#clip0_384_5127)">
<path d="M39.9789 20.3746C39.9789 18.7358 39.8429 17.54 39.5484 16.2998H20.3984V23.6964H31.639C31.4125 25.5346 30.1887 28.3029 27.4691 30.163L27.431 30.4106L33.4859 34.9943L33.9053 35.0352C37.7579 31.5583 39.9789 26.4426 39.9789 20.3746Z" fill="#4285F4"/>
<path d="M20.3966 39.8624C25.9035 39.8624 30.5266 38.0906 33.9034 35.0346L27.4672 30.1624C25.7449 31.3361 23.4333 32.1555 20.3966 32.1555C15.0029 32.1555 10.4251 28.6787 8.79322 23.873L8.55403 23.8929L2.25812 28.6543L2.17578 28.8779C5.52981 35.3888 12.4193 39.8624 20.3966 39.8624Z" fill="#34A853"/>
<path d="M8.793 23.8736C8.36242 22.6335 8.11322 21.3046 8.11322 19.9317C8.11322 18.5585 8.36242 17.2298 8.77034 15.9897L8.75894 15.7256L2.38413 10.8877L2.17556 10.9846C0.793199 13.6865 0 16.7205 0 19.9317C0 23.1428 0.793199 26.1767 2.17556 28.8785L8.793 23.8736Z" fill="#FBBC05"/>
<path d="M20.3966 7.70672C24.2265 7.70672 26.81 9.32336 28.2831 10.6743L34.0394 5.18214C30.5041 1.97099 25.9035 0 20.3966 0C12.4193 0 5.52981 4.47343 2.17578 10.9843L8.77057 15.9893C10.4251 11.1837 15.0029 7.70672 20.3966 7.70672Z" fill="#EB4335"/>
</g>
<defs>
<clipPath id="clip0_384_5127">
<rect width="40" height="40" fill="white"/>
</clipPath>
</defs>
</svg>
