<svg width="72" height="30" viewBox="0 0 72 30" fill="none" xmlns="http://www.w3.org/2000/svg">
<path d="M18.7092 8.12033C18.1547 7.20025 17.5725 6.30806 16.9071 5.47164L16.8794 5.44375C16.8517 5.38799 16.7685 5.30435 16.7408 5.24859C16.4358 4.83037 16.1031 1.54042 16.0477 1.2895C15.9922 1.01069 15.909 0.703995 15.4932 0.648233C15.1605 0.620352 14.6615 0.564588 14.107 0.536707C13.8574 0.508826 13.7188 0.648233 13.6634 0.787638C13.6079 0.871281 13.6079 0.982804 13.6079 1.06645C13.6079 1.48466 13.6079 1.70771 13.6079 1.73559C13.6079 1.73559 13.6079 1.73559 13.6079 1.76347C13.6079 1.79135 13.5802 1.81923 13.5525 1.84711C13.497 1.875 13.4416 1.875 13.3861 1.84711C13.1366 1.65195 11.7781 0.620351 11.0296 0.146375C11.0018 0.118494 10.9464 0.118495 10.9187 0.0906143C10.6414 -0.0209094 10.3365 -0.0487929 10.0592 0.118493C10.0315 0.118493 10.0315 0.146375 10.0038 0.146375C9.75424 0.313661 5.54014 2.71142 2.32412 8.09244C2.32412 8.09244 2.13005 8.37125 2.26867 8.62218C2.40729 8.92887 3.82123 9.01251 4.04303 9.04039C4.29255 9.06827 4.29255 9.26344 4.29255 9.26344C4.32027 11.466 4.34799 12.5255 4.70841 16.2616C4.70841 16.2616 4.76386 16.6519 5.152 16.6798C5.31835 16.6798 5.87283 16.6519 7.4254 16.624C7.48085 16.624 7.5363 16.5961 7.5363 16.5404V16.5125C7.39767 14.979 7.34222 13.6686 7.34222 13.585C7.34222 13.5292 7.28678 13.4456 7.23133 13.4177C6.67684 13.0831 6.34415 12.5255 6.31642 11.8564C6.26098 8.84523 6.45505 6.50323 6.45505 6.50323C6.45505 6.50323 6.48277 6.19654 6.76001 6.19654C7.03726 6.22442 7.00953 6.53111 7.00953 6.53111C6.89864 7.84151 6.87091 10.1835 6.87091 10.1835C6.87091 10.1835 6.87091 10.6296 7.28678 10.6296C7.70264 10.6296 7.70264 10.1835 7.70264 10.1835C7.67492 8.34337 7.84126 6.50323 7.84126 6.50323C7.84126 6.50323 7.84126 6.19654 8.14623 6.19654C8.31258 6.19654 8.36803 6.30806 8.39575 6.3917C8.39575 6.44747 8.42348 6.50323 8.39575 6.53111C8.28485 8.12032 8.25713 10.1835 8.25713 10.1835C8.25713 10.1835 8.25713 10.6296 8.67299 10.6296C9.08886 10.6296 9.08886 10.1556 9.08886 10.1556C9.08886 8.62218 9.22748 6.50323 9.22748 6.50323C9.22748 6.33594 9.31065 6.19654 9.53245 6.19654C9.78197 6.19654 9.80969 6.44747 9.78197 6.50323C9.64335 8.14821 9.64335 10.6854 9.64335 11.7727C9.67107 12.414 9.33838 13.0274 8.78389 13.3898C8.72844 13.4177 8.70072 13.4735 8.70072 13.5571C8.72844 14.5608 8.81161 15.6761 8.89479 16.4846C8.89479 16.5404 8.95024 16.5682 8.97796 16.5961C9.39383 16.5961 10.2256 16.5961 10.7246 16.5961C11.5563 16.5961 11.8613 16.5961 12.4712 16.624C12.5267 16.624 12.5821 16.5682 12.5821 16.5125C12.7485 15.0627 12.8039 14.0311 12.8039 13.9196C12.8039 13.808 12.693 13.808 12.693 13.808C12.499 13.7802 12.0554 13.7244 11.6949 13.6686C11.3068 13.6129 11.3068 13.1668 11.3068 13.1668C11.0018 8.65006 13.3584 5.86197 13.3584 5.86197C13.3584 5.86197 13.5802 5.55528 13.9129 5.6668C14.1901 5.77833 14.2733 6.61475 14.2733 6.67051C14.5783 10.4066 14.2179 14.756 14.0238 16.5404C14.0238 16.624 14.0515 16.6798 14.107 16.6798C14.1901 16.7077 15.6041 16.7355 15.7427 16.7355C15.9645 16.7077 16.1586 16.5404 16.1863 16.2894C16.6853 12.8043 16.6022 9.29132 16.6022 9.29132C16.6022 9.15192 16.7131 9.06828 16.824 9.06828L18.1824 8.92887C18.3488 8.90099 18.5151 8.81735 18.5983 8.67794C18.8201 8.48278 18.8201 8.28761 18.7092 8.12033Z" fill="#FF8000"/>
<path d="M25.9458 5.7501H23.811C23.1179 5.7501 23.1179 5.7501 22.9793 6.55865C22.8406 7.36719 22.8406 7.39507 23.4783 7.39507H24.7536L24.0328 11.5493C23.8664 12.4694 23.4506 13.1107 22.203 13.501C21.8703 13.5846 21.7871 13.6962 21.7871 13.8356C21.7871 14.0029 21.8426 14.1701 21.9812 14.5047C22.1752 15.0066 22.2861 15.0902 22.4802 15.0902C22.6743 15.0902 22.9793 15.0066 23.0902 14.9787C24.8645 14.3932 25.5853 13.027 25.8626 11.4099L26.6666 6.72593C26.8052 5.7501 26.8052 5.7501 25.9458 5.7501ZM33.2095 5.7501C32.3501 5.7501 32.3501 5.7501 32.2115 6.475L31.5738 10.2668C31.4075 11.3821 31.1025 12.0233 30.049 12.0233C28.9954 12.0233 28.635 11.3821 28.8014 10.4062L29.4113 6.7817C29.5777 5.7501 29.5499 5.7501 28.6627 5.7501C27.8033 5.7501 27.7756 5.7501 27.6369 6.44712L26.9993 10.2389C26.6111 12.3858 27.9696 13.724 29.8272 13.724C31.9342 13.724 33.0155 12.7761 33.3759 10.4899L34.0135 6.72593C34.1799 5.72222 34.1244 5.72222 33.2095 5.7501ZM37.1741 11.9397C37.8672 11.9118 38.2554 11.6051 38.2554 11.2705C38.2554 10.8523 37.7563 10.7129 37.0909 10.5177C35.7879 10.0995 34.5958 9.65343 34.5958 8.25939C34.5958 6.61441 35.9543 5.69434 37.6732 5.69434C38.394 5.69434 39.198 5.72222 39.7248 5.77798C40.1961 5.83374 40.307 5.97315 40.1684 6.69805C40.0297 7.42296 39.8634 7.47872 39.4475 7.45084C38.9485 7.42296 38.3108 7.36719 37.5623 7.36719C36.7028 7.36719 36.4256 7.70177 36.4256 7.98058C36.4256 8.37091 36.7583 8.56607 37.59 8.78912C39.0871 9.23522 40.0852 9.8486 40.0852 11.159C40.0852 12.6925 38.9485 13.6125 37.1187 13.6683C36.1206 13.6962 35.2611 13.6404 34.5126 13.5289C33.9304 13.4452 33.9026 13.4452 34.0413 12.6088C34.1799 11.856 34.1799 11.8003 34.7344 11.856C35.8156 11.9397 36.481 11.9675 37.1741 11.9397ZM46.6558 5.7501H41.7486C41.0555 5.7501 41.0555 5.7501 40.9169 6.58653C40.7783 7.42296 40.806 7.42296 41.4159 7.42296H43.024L42.1368 12.6367C41.9704 13.6683 41.9982 13.6683 42.8853 13.6683C43.7171 13.6683 43.7448 13.6683 43.8834 12.9434L44.7983 7.45084H46.3232C47.0163 7.45084 47.0163 7.45084 47.1549 6.61441C47.2935 5.7501 47.2935 5.7501 46.6558 5.7501ZM55.2781 7.39507C55.9712 7.39507 55.9712 7.39507 56.1099 6.55865C56.2485 5.72222 56.2485 5.72222 55.6108 5.72222H52.1175C50.87 5.72222 50.8977 5.72222 50.7036 6.97686L49.8164 12.2464C49.5946 13.6125 49.6224 13.6125 50.87 13.6125H54.28C55.0009 13.6125 54.9732 13.6125 55.1118 12.804C55.2504 11.9675 55.2504 11.9675 54.6127 11.9675H51.674L51.8958 10.462H54.3632C55.0286 10.462 55.0286 10.462 55.1395 9.68131C55.2504 8.87276 55.2504 8.87277 54.3632 8.87277H52.2007L52.4225 7.45084L55.2781 7.39507ZM58.9932 10.1832L60.1299 7.67388C60.2131 7.47872 60.2131 7.47872 60.3517 7.47872C60.4903 7.47872 60.4903 7.47872 60.518 7.70177L60.8507 10.1832H58.9932ZM62.0706 6.69805C61.9042 5.69434 61.9042 5.69434 60.518 5.69434C59.215 5.69434 59.2427 5.69434 58.8268 6.50289L55.8881 12.6367C55.4445 13.501 55.5554 13.5846 56.6089 13.5846C57.4406 13.5846 57.4406 13.5846 57.801 12.804L58.2724 11.7445H61.1002L61.2389 12.804C61.3498 13.5846 61.3775 13.5846 62.2369 13.5846C63.1796 13.5846 63.2905 13.5289 63.0964 12.553L62.0706 6.69805ZM68.974 5.7501H64.039C63.3459 5.7501 63.3459 5.7501 63.2073 6.58653C63.0687 7.42296 63.0964 7.42296 63.7063 7.42296H65.3143L64.4272 12.6367C64.2608 13.6683 64.2885 13.6683 65.1757 13.6683C66.0075 13.6683 66.0352 13.6683 66.1461 12.9434L67.061 7.45084H68.5858C69.2789 7.45084 69.2789 7.45084 69.4175 6.61441C69.6116 5.7501 69.6116 5.7501 68.974 5.7501Z" fill="#FF8000"/>
<path d="M2.10704 21.5243H0.249517C0.110896 21.5243 0 21.4128 0 21.2734V20.1582C0 20.0188 0.110896 19.9072 0.249517 19.9072H6.07163C6.21025 19.9072 6.32115 20.0188 6.32115 20.1582V21.2734C6.32115 21.4128 6.21025 21.5243 6.07163 21.5243H4.2141C4.15865 21.5243 4.1032 21.5801 4.1032 21.6358V27.4351C4.1032 27.5745 3.9923 27.686 3.85368 27.686H2.46747C2.32884 27.686 2.21795 27.5745 2.21795 27.4351V21.6358C2.21795 21.5801 2.19022 21.5243 2.10704 21.5243Z" fill="#FF8000"/>
<path d="M5.10156 26.0134C5.10156 24.926 5.90557 24.3405 7.5413 24.2569L9.0107 24.1732V24.1453C9.0107 23.4483 8.51166 23.1695 7.84627 23.1695C7.37496 23.1695 6.93137 23.3089 6.65413 23.5319C6.59868 23.5877 6.5155 23.5877 6.43233 23.5319C6.23826 23.3647 5.87784 22.9743 5.62832 22.7513C5.54515 22.6676 5.51743 22.5003 5.62832 22.4167C6.12736 21.9706 6.93137 21.6082 7.98489 21.6082C9.73153 21.6082 10.7296 22.584 10.7296 24.0338V27.4074C10.7296 27.5468 10.6187 27.6583 10.4801 27.6583H9.37111C9.23249 27.6583 9.12159 27.5468 9.12159 27.4074V27.0728H9.09387C8.73345 27.5468 8.12352 27.7977 7.34724 27.7977C6.07192 27.8256 5.10156 27.1565 5.10156 26.0134ZM9.0107 25.5115V25.4836C9.0107 25.4278 8.95525 25.3721 8.87208 25.3721L7.7631 25.4278C7.18089 25.4557 6.87592 25.6509 6.87592 26.0134C6.87592 26.4037 7.26406 26.5988 7.73538 26.5988C8.45621 26.571 9.0107 26.1528 9.0107 25.5115ZM12.9198 27.6583H11.6445C11.5059 27.6583 11.395 27.5468 11.395 27.4074V19.4892C11.395 19.3498 11.5059 19.2383 11.6445 19.2383H12.9198C13.0584 19.2383 13.1694 19.3498 13.1694 19.4892V23.6992C13.1694 23.8108 13.308 23.8665 13.3634 23.7829L15.1932 21.8312C15.2487 21.7754 15.3041 21.7476 15.3596 21.7476H16.8567C17.0785 21.7476 17.1617 21.9985 17.023 22.1379L15.1101 24.229C15.0823 24.2847 15.0823 24.3405 15.1101 24.3963L17.2448 27.268C17.3557 27.4353 17.2448 27.6583 17.0508 27.6583H15.5259C15.4427 27.6583 15.3873 27.6304 15.3318 27.5747L13.9734 25.7903C13.8902 25.6788 13.7516 25.6788 13.6407 25.7345L13.6129 25.7624L13.2248 26.1528C13.1693 26.2085 13.1694 26.2643 13.1694 26.32V27.4074C13.1694 27.5747 13.0584 27.6583 12.9198 27.6583Z" fill="#FF8000"/>
<path d="M16.9121 24.7301C16.9121 23.2803 17.7993 21.6353 19.9063 21.6353C22.0411 21.6353 22.8728 23.2803 22.8728 24.7301C22.8728 24.8416 22.8728 25.0089 22.8451 25.1204C22.8174 25.2319 22.7342 25.3156 22.5956 25.3156H18.8528C18.7696 25.3156 18.7142 25.3992 18.7419 25.4829C18.9637 26.0126 19.5182 26.2357 20.0727 26.2357C20.5163 26.2357 20.9321 26.1241 21.2094 25.9011C21.2926 25.8453 21.4312 25.8453 21.5143 25.929L22.2629 26.6539C22.3738 26.7375 22.3738 26.9048 22.2629 26.9884C21.7916 27.4624 20.9876 27.797 20.0172 27.797C17.8825 27.797 16.9121 26.152 16.9121 24.7301ZM18.8251 24.1167H20.9876C21.0708 24.1167 21.1262 24.0331 21.0985 23.9494C20.9321 23.3639 20.4608 23.113 19.9063 23.113C19.3518 23.113 18.8805 23.3639 18.6865 23.9494C18.6865 24.0331 18.7419 24.1167 18.8251 24.1167ZM28.9722 21.7747H30.4139C30.5248 21.7747 30.6079 21.8305 30.6357 21.942L31.7169 25.455H31.7446L32.8259 21.942C32.8536 21.8305 32.9368 21.7747 33.0477 21.7747H34.5171C34.628 21.7747 34.7111 21.8305 34.7389 21.942L35.8478 25.455H35.8756L36.9568 21.942C36.9845 21.8305 37.0677 21.7747 37.1786 21.7747H38.6203C38.7866 21.7747 38.8975 21.942 38.8421 22.1093L36.9014 27.5182C36.8736 27.6018 36.7905 27.6855 36.6796 27.6855H35.1547C35.0438 27.6855 34.9607 27.6297 34.9329 27.5182L33.8794 24.507C33.8517 24.3955 33.6853 24.3955 33.6576 24.507L32.6595 27.5182C32.6318 27.6018 32.5486 27.6855 32.4377 27.6855H30.9129C30.802 27.6855 30.7188 27.6297 30.6911 27.5182L28.7504 22.1093C28.6672 21.942 28.8059 21.7747 28.9722 21.7747ZM44.886 29.7208V28.6334C44.886 28.494 44.9969 28.3825 45.1632 28.4104C45.2464 28.4104 45.3573 28.4383 45.4405 28.4383C46.0227 28.4383 46.2722 28.2431 46.4663 27.797C46.494 27.7412 46.494 27.6576 46.4663 27.6018L44.3315 22.1372C44.276 22.0256 44.3315 21.8862 44.4701 21.8305C44.4978 21.8305 44.5256 21.8026 44.5533 21.8026H45.9672C46.0781 21.8026 46.1613 21.8584 46.189 21.9699L47.4643 25.5665H47.4921L48.7397 21.942C48.7674 21.8583 48.8506 21.7747 48.9615 21.7747H50.32C50.4863 21.7747 50.5972 21.942 50.5417 22.1093L48.3515 27.6855C47.7693 29.1632 47.1871 29.9996 45.5791 29.9996C45.4127 29.9996 45.2464 29.9996 45.08 29.9717C44.9691 29.9438 44.886 29.8323 44.886 29.7208ZM50.9299 24.7301C50.9299 23.2524 51.8448 21.6353 53.9241 21.6353C54.7558 21.6353 55.449 21.942 55.9203 22.3881C56.0312 22.4717 56.0034 22.639 55.9203 22.7227L55.5598 23.0851C55.4767 23.1688 55.3381 23.1688 55.2272 23.0851C54.8667 22.7505 54.3954 22.6111 53.9241 22.6111C52.8151 22.6111 52.0111 23.5033 52.0111 24.7301C52.0111 25.9568 52.8429 26.849 53.9241 26.849C54.4232 26.849 54.8667 26.7096 55.2549 26.3751C55.3381 26.2914 55.4767 26.2914 55.5876 26.4029L55.948 26.7654C56.0589 26.8769 56.0312 27.0163 55.948 27.1C55.449 27.5461 54.7836 27.8249 53.9518 27.8249C51.8448 27.8249 50.9299 26.1799 50.9299 24.7301ZM56.1975 24.7301C56.1975 23.2803 57.1679 21.6353 59.2472 21.6353C61.3265 21.6353 62.2969 23.2803 62.2969 24.7301C62.2969 26.1799 61.3265 27.8249 59.2472 27.8249C57.1679 27.8249 56.1975 26.152 56.1975 24.7301ZM59.2195 26.849C60.3562 26.849 61.1879 25.9568 61.1879 24.7022C61.1879 23.4476 60.3562 22.5554 59.2195 22.5554C58.0828 22.5554 57.251 23.4476 57.251 24.7022C57.251 25.9568 58.0828 26.849 59.2195 26.849ZM62.9345 21.7747H63.4613C63.5999 21.7747 63.7108 21.8862 63.7108 22.0256V22.3881H63.7385C64.0435 21.942 64.6534 21.6353 65.4574 21.6353C66.2892 21.6353 66.9546 21.942 67.3704 22.4717C67.4259 22.5275 67.5091 22.5275 67.5645 22.4717C68.0081 21.9141 68.7012 21.6353 69.5884 21.6353C71.0578 21.6353 72.0004 22.5275 72.0004 24.1167V27.4345C72.0004 27.5739 71.8895 27.6855 71.7509 27.6855H71.1964C71.0578 27.6855 70.9469 27.5739 70.9469 27.4345V24.3119C70.9469 23.1966 70.4201 22.5833 69.422 22.5833C68.4517 22.5833 67.8695 23.1966 67.8695 24.3119V27.4345C67.8695 27.5739 67.7586 27.6855 67.6199 27.6855H67.0654C66.9268 27.6855 66.8159 27.5739 66.8159 27.4345V24.3119C66.8159 23.1966 66.2892 22.5833 65.2911 22.5833C64.3207 22.5833 63.7385 23.1966 63.7385 24.3119V27.4345C63.7385 27.5739 63.6276 27.6855 63.489 27.6855H62.9345C62.7959 27.6855 62.685 27.5739 62.685 27.4345V22.0256C62.7127 21.8862 62.8236 21.7747 62.9345 21.7747ZM23.0115 26.0126C23.0115 24.9253 23.8155 24.3398 25.4512 24.2561L26.9206 24.1725V24.1446C26.9206 23.4476 26.4216 23.1688 25.7562 23.1688C25.2849 23.1688 24.8413 23.3082 24.564 23.5312C24.5086 23.587 24.4254 23.587 24.3422 23.5312C24.1482 23.3639 23.7877 22.9736 23.5382 22.7505C23.4551 22.6669 23.4273 22.4996 23.5382 22.416C24.0373 21.9699 24.8413 21.6074 25.8948 21.6074C27.6414 21.6074 28.6395 22.5833 28.6395 24.0331V27.4067C28.6395 27.5461 28.5286 27.6576 28.39 27.6576H27.2256C27.0869 27.6576 26.976 27.5461 26.976 27.4067V27.0721H26.9483C26.5879 27.5461 25.978 27.797 25.2017 27.797C23.9818 27.8249 23.0115 27.1557 23.0115 26.0126ZM26.9206 25.5108V25.4829C26.9206 25.4271 26.8651 25.3713 26.782 25.3713L25.673 25.4271C25.0908 25.455 24.7858 25.6502 24.7858 26.0126C24.7858 26.4029 25.174 26.5981 25.6453 26.5981C26.3661 26.5702 26.9206 26.152 26.9206 25.5108ZM38.648 26.0126C38.648 24.9253 39.452 24.3398 41.0877 24.2561L42.5571 24.1725V24.1446C42.5571 23.4476 42.0581 23.1688 41.3927 23.1688C40.9214 23.1688 40.4778 23.3082 40.2006 23.5312C40.1451 23.587 40.0619 23.587 39.9788 23.5312C39.7847 23.3639 39.4243 22.9736 39.1748 22.7505C39.0916 22.6669 39.0639 22.4996 39.1748 22.416C39.6738 21.9699 40.4778 21.6074 41.5313 21.6074C43.278 21.6074 44.276 22.5833 44.276 24.0331V27.4067C44.276 27.5461 44.1651 27.6576 44.0265 27.6576H42.8621C42.7235 27.6576 42.6126 27.5461 42.6126 27.4067V27.0721H42.5849C42.2244 27.5461 41.6145 27.797 40.8382 27.797C39.6183 27.8249 38.648 27.1557 38.648 26.0126ZM42.5294 25.5108V25.4829C42.5294 25.4271 42.474 25.3713 42.3908 25.3713L41.2818 25.4271C40.6996 25.455 40.3946 25.6502 40.3946 26.0126C40.3946 26.4029 40.7828 26.5981 41.2541 26.5981C42.0026 26.5702 42.5294 26.152 42.5294 25.5108Z" fill="#FF8000"/>
<path d="M50.0974 27.77C50.4802 27.77 50.7905 27.458 50.7905 27.073C50.7905 26.688 50.4802 26.376 50.0974 26.376C49.7146 26.376 49.4043 26.688 49.4043 27.073C49.4043 27.458 49.7146 27.77 50.0974 27.77Z" fill="#FF8000"/>
</svg>
