<svg width="72" height="24" viewBox="0 0 72 24" fill="none" xmlns="http://www.w3.org/2000/svg">
<path d="M8 0L9.09966 1.92442C9.31959 2.32258 9.31959 2.80922 9.09966 3.20737L2.5457 14.6433L5.64674 20.0406C6.13058 20.8811 7.0323 21.412 8 21.412C8.9677 21.412 9.86942 20.8811 10.3533 20.0406L13.4543 14.6433L12.6405 13.1834L9.12165 19.3106C8.90172 19.7088 8.46186 19.9521 8.02199 19.9521C7.56014 19.9521 7.14227 19.7088 6.92234 19.3106L4.21718 14.6433L10.3093 4.02581L11.4089 5.95023C11.6289 6.34839 11.6289 6.83502 11.4089 7.23318L7.16426 14.6433L8 16.1032L12.6186 8.05161L15.6536 13.3382C16.1155 14.1567 16.1155 15.1521 15.6536 15.9705L12.5746 21.3456C12.1127 22.1641 10.6392 24 8 24C5.36082 24 3.90928 22.1641 3.42543 21.3456L0.346392 15.9705C-0.115464 15.1521 -0.115464 14.1567 0.346392 13.3382L8 0Z" fill="#ED5153"/>
<path d="M20 9.12988H21.3556V17.3741H20V9.12988Z" fill="#040707"/>
<path d="M23.1716 10.6402C23.6115 10.6402 23.9682 10.273 23.9682 9.8201C23.9682 9.36717 23.6115 9 23.1716 9C22.7316 9 22.375 9.36717 22.375 9.8201C22.375 10.273 22.7316 10.6402 23.1716 10.6402Z" fill="#040707"/>
<path d="M22.4863 11.6485H23.8559V17.3748H22.4863V11.6485ZM27.4475 11.5046C25.8963 11.5046 24.6385 12.6268 24.6385 14.4109C24.6385 16.195 25.7286 17.2885 27.4615 17.2885C28.1463 17.2885 28.873 17.6481 28.873 18.4395C28.873 19.2308 28.2581 19.6768 27.4615 19.6768C26.6649 19.6768 26.0081 19.1876 26.0081 18.4395H24.6385C24.6385 19.979 25.8404 21.0005 27.4615 21.0005C29.0686 21.0005 30.2425 20.0221 30.2425 18.4395C30.2425 17.7057 30.0189 17.0151 29.0966 16.5403C30.005 16.1087 30.2705 15.1159 30.2705 14.3965C30.2705 12.6268 28.9988 11.5046 27.4475 11.5046ZM27.4615 16.123C26.6649 16.123 26.0081 15.418 26.0081 14.4109C26.0081 13.4181 26.6649 12.6844 27.4615 12.6844C28.2581 12.6844 28.9009 13.4325 28.9009 14.4109C28.9009 15.4037 28.2441 16.123 27.4615 16.123ZM34.2394 11.5046C33.6106 11.5046 33.0096 11.706 32.5065 12.3535V9.11621H31.137V17.3604H32.5065V14.4541C32.5065 13.6052 33.0655 12.9002 33.8761 12.9002C34.6028 12.9002 35.1338 13.3462 35.1338 14.3821V17.3604H36.5034V14.2814C36.5174 12.598 35.8186 11.5046 34.2394 11.5046ZM39.8435 16.3964C39.6758 16.3964 39.536 16.3389 39.4522 16.2238C39.3683 16.1087 39.3264 15.936 39.3264 15.677V12.857H40.4304L40.5562 11.6341H39.3404V10.0658L37.9568 10.2241V11.6485H36.9087V12.8714H37.9568V15.7202C37.9568 16.3101 38.0966 16.7561 38.3621 17.0583C38.6276 17.3604 39.0329 17.5187 39.55 17.5187C39.7876 17.5187 40.0112 17.4899 40.2488 17.4179C40.4863 17.346 40.696 17.2453 40.8776 17.1158L40.4025 16.2094C40.2208 16.3389 40.0252 16.3964 39.8435 16.3964ZM45.4755 14.2958C44.9165 13.9361 44.2596 13.8929 43.6168 13.8498C43.2394 13.821 42.6665 13.7347 42.6665 13.2311C42.6665 12.8714 43.0298 12.67 43.6866 12.67C44.2177 12.67 44.6789 12.7995 45.0702 13.1736L45.8388 12.2527C45.196 11.6772 44.5391 11.5046 43.6587 11.5046C42.6385 11.5046 41.2969 11.965 41.2969 13.2887C41.2969 13.8354 41.5764 14.339 42.0376 14.6267C42.5547 14.9576 43.2255 15.0008 43.7984 15.0727C44.1897 15.1159 44.8326 15.2166 44.7208 15.7777C44.6509 16.1662 44.1897 16.2813 43.8683 16.2957C43.5189 16.3101 43.1696 16.2813 42.8202 16.195C42.4568 16.0943 42.1634 15.9216 41.8419 15.7058L41.1432 16.6122C41.1851 16.641 41.227 16.6842 41.227 16.6842C42.1214 17.4467 43.3652 17.6913 44.4972 17.4323C45.3497 17.2309 46.0764 16.5978 46.0764 15.6483C46.1043 15.1159 45.9366 14.5836 45.4755 14.2958ZM49.9894 11.5046C49.3606 11.5046 48.6199 11.7779 48.1866 12.411L48.1447 11.6341H46.8171V19.8783L48.1866 19.72V16.6986C48.5779 17.3172 49.4304 17.5187 50.0174 17.5187C51.7922 17.5187 52.8264 16.1518 52.8264 14.4972C52.8264 12.8139 51.6944 11.5046 49.9894 11.5046ZM49.8776 16.2957C48.9413 16.2957 48.3124 15.418 48.3124 14.526C48.3124 13.634 48.8994 12.6844 49.8776 12.6844C50.8699 12.6844 51.4429 13.6484 51.4429 14.526C51.4568 15.418 50.814 16.2957 49.8776 16.2957ZM54.6152 15.0152C54.7689 15.6914 55.3699 16.2813 56.3481 16.2813C56.8512 16.2813 57.522 16.0223 57.8435 15.6914L58.7239 16.5835C58.137 17.2021 57.1727 17.5043 56.3342 17.5043C54.6012 17.5043 53.3435 16.3245 53.3435 14.4972C53.3435 12.7707 54.6432 11.5046 56.2363 11.5046C57.9134 11.5046 59.3109 12.6844 59.1711 15.0152H54.6152ZM57.8435 13.9361C57.6898 13.2599 57.0329 12.67 56.2363 12.67C55.4957 12.67 54.8109 13.1879 54.6152 13.9361H57.8435ZM60.9599 15.0152C61.1137 15.6914 61.7146 16.2813 62.6929 16.2813C63.196 16.2813 63.8668 16.0223 64.1882 15.6914L65.0686 16.5835C64.4817 17.2021 63.5174 17.5043 62.6789 17.5043C60.946 17.5043 59.6882 16.3245 59.6882 14.4972C59.6882 12.7707 60.9879 11.5046 62.5811 11.5046C64.2581 11.5046 65.6556 12.6844 65.5158 15.0152H60.9599ZM64.2022 13.9361C64.0485 13.2599 63.3916 12.67 62.595 12.67C61.8543 12.67 61.1696 13.1879 60.9739 13.9361H64.2022ZM68.828 17.5187C69.4568 17.5187 70.1975 17.2453 70.6307 16.6122L70.6727 17.3748H72.0003V9.1306H70.6307V12.3247C70.2394 11.706 69.373 11.519 68.786 11.519C67.0112 11.519 65.991 12.8714 65.991 14.5404C65.991 16.2094 67.123 17.5187 68.828 17.5187ZM68.9258 12.7275C69.8621 12.7275 70.491 13.6052 70.491 14.4972C70.491 15.3893 69.904 16.3389 68.9258 16.3389C67.9335 16.3389 67.3606 15.3749 67.3606 14.4972C67.3606 13.6052 67.9894 12.7275 68.9258 12.7275Z" fill="#040707"/>
</svg>
