<svg width="80" height="16" viewBox="0 0 80 16" fill="none" xmlns="http://www.w3.org/2000/svg">
<g clip-path="url(#clip0_384_5163)">
<path d="M14.6488 8.74388C13.496 9.13158 10.8856 10.0009 9.0072 10.0009C6.7224 10.0009 9.5528 6.77148 7.7944 6.77148C5.4288 6.77148 1.2912 9.45061 0.3368 10.0348C0.128 10.1626 0 10.4025 0 10.6624V12.627V16.0006L2.176 12.627H13.9936C14.5568 12.627 15.0128 12.1315 15.0128 11.5195V9.03509C15.0128 8.82994 14.8296 8.68303 14.6488 8.74388Z" fill="#00A295"/>
<path d="M13.9937 0.87189H7.50654L1.99374 0.89623C1.91374 0.389438 1.50734 0 1.01934 0C0.473744 0 0.0273438 0.485059 0.0273438 1.07791V4.66022C0.0273438 4.6637 0.0281437 4.66717 0.0281437 4.67152L0.0273438 6.83082C0.0281438 7.09595 0.291344 7.26111 0.503344 7.12985C1.99054 6.20754 6.65054 3.47539 9.68174 3.47539C12.0401 3.47539 8.40094 6.78214 10.7697 6.78214C12.1793 6.78214 13.9569 6.24492 14.6817 5.88591C14.8833 5.78594 15.0121 5.56775 15.0121 5.32783V1.97935C15.0129 1.36825 14.5561 0.87189 13.9937 0.87189Z" fill="#00A295"/>
<path d="M20.6758 12.7574V0.793473H23.1006V1.91659C23.8158 0.981238 24.7702 0.512695 25.9622 0.512695C26.7302 0.512695 27.3662 0.656996 27.8702 0.944728C28.3734 1.23246 28.8174 1.70796 29.2014 2.37035C30.0622 1.13249 31.235 0.513565 32.719 0.513565C35.6998 0.513565 37.191 2.29212 37.191 5.84748V12.7583H34.5478V6.19258C34.5478 5.12771 34.3854 4.35318 34.0606 3.87073C33.7358 3.38828 33.2094 3.14749 32.4806 3.14749C31.6854 3.14749 31.1158 3.43174 30.7718 4.00025C30.427 4.56876 30.255 5.52237 30.255 6.86193V12.7574H27.6118V6.19258C27.6118 5.12771 27.443 4.35318 27.1046 3.87073C26.767 3.38828 26.227 3.14749 25.4846 3.14749C24.6894 3.14749 24.1294 3.42479 23.8054 3.97852C23.4806 4.53312 23.3182 5.49368 23.3182 6.86193V12.7574H20.6758Z" fill="#00A295"/>
<path d="M49.6724 8.04948H41.146C41.3052 8.76924 41.6524 9.3421 42.1892 9.76631C42.726 10.1914 43.3916 10.4035 44.1868 10.4035C44.7436 10.4035 45.2004 10.3174 45.558 10.1444C45.9156 9.97146 46.2668 9.66199 46.6116 9.21605H49.4932C49.162 10.3392 48.506 11.2571 47.526 11.9699C46.5452 12.6827 45.4524 13.0392 44.2468 13.0392C42.5772 13.0392 41.166 12.442 40.014 11.2467C38.8612 10.0514 38.2852 8.57626 38.2852 6.81944C38.2852 5.06349 38.8484 3.57267 39.9748 2.3496C41.1004 1.12565 42.4724 0.513672 44.0892 0.513672C45.7316 0.513672 47.09 1.11869 48.1636 2.32786C49.2372 3.53703 49.7732 5.07827 49.7732 6.94897C49.7716 7.33753 49.7388 7.70437 49.6724 8.04948ZM41.0668 5.52334H47.1684C46.8236 3.93951 45.8172 3.1476 44.1476 3.1476C42.5172 3.1476 41.4908 3.93951 41.0668 5.52334Z" fill="#00A295"/>
<path d="M61.7974 8.04948H53.271C53.4302 8.76924 53.7774 9.3421 54.3142 9.76631C54.851 10.1914 55.5166 10.4035 56.3118 10.4035C56.8686 10.4035 57.3254 10.3174 57.683 10.1444C58.0406 9.97146 58.3918 9.66199 58.7366 9.21605H61.6182C61.287 10.3392 60.631 11.2571 59.651 11.9699C58.6702 12.6827 57.5774 13.0392 56.3718 13.0392C54.7022 13.0392 53.291 12.442 52.139 11.2467C50.9862 10.0514 50.4102 8.57626 50.4102 6.81944C50.4102 5.06349 50.9734 3.57267 52.0998 2.3496C53.2254 1.12565 54.5974 0.513672 56.2142 0.513672C57.8566 0.513672 59.215 1.11869 60.2886 2.32786C61.3622 3.53703 61.8982 5.07827 61.8982 6.94897C61.8966 7.33753 61.8638 7.70437 61.7974 8.04948ZM53.1918 5.52334H59.2934C58.9486 3.93951 57.9422 3.1476 56.2726 3.1476C54.6422 3.1476 53.6158 3.93951 53.1918 5.52334Z" fill="#00A295"/>
<path d="M63.0078 12.7574V0.793473H65.4326V1.95918C65.7774 1.4124 66.1214 1.03426 66.4662 0.825637C66.811 0.617009 67.2542 0.512695 67.7974 0.512695H68.0158V3.27701C66.439 3.27701 65.651 4.22018 65.651 6.10565V12.7574H63.0078Z" fill="#00A295"/>
<path d="M74.1354 0.512695C75.7778 0.512695 77.1666 1.12119 78.2994 2.33732C79.4322 3.55431 79.9986 5.04078 79.9986 6.79673C79.9986 8.51009 79.429 9.9783 78.2898 11.2023C77.1498 12.4262 75.7722 13.0382 74.1562 13.0382C72.5394 13.0382 71.1586 12.4305 70.0122 11.2136C68.8658 9.99743 68.293 8.51791 68.293 6.77587C68.293 5.04774 68.8626 3.57257 70.0018 2.34862C71.141 1.12467 72.5186 0.512695 74.1354 0.512695ZM74.1354 3.14749C73.2554 3.14749 72.5018 3.50042 71.8754 4.2054C71.249 4.91126 70.9354 5.7675 70.9354 6.775C70.9354 7.7825 71.2482 8.63961 71.8754 9.3446C72.5018 10.0505 73.2554 10.4025 74.1354 10.4025C75.0282 10.4025 75.7882 10.0496 76.4154 9.3446C77.0418 8.63961 77.3554 7.7825 77.3554 6.775C77.3554 5.7675 77.0418 4.91039 76.4154 4.2054C75.789 3.50042 75.029 3.14749 74.1354 3.14749Z" fill="#00A295"/>
</g>
<defs>
<clipPath id="clip0_384_5163">
<rect width="80" height="16" fill="white"/>
</clipPath>
</defs>
</svg>
