<svg width="72" height="19" viewBox="0 0 72 19" fill="none" xmlns="http://www.w3.org/2000/svg">
<path d="M63.5353 5.60736C63.5353 5.26737 63.2636 4.99131 62.9254 4.99131H62.0208C61.6826 4.99131 61.4109 5.26737 61.4109 5.60736V15.1155C61.4109 15.4555 61.6826 15.7316 62.0208 15.7316H62.9254C63.2636 15.7316 63.5353 15.4555 63.5353 15.1155V5.60736ZM64.6885 5.86017V6.31059C64.6885 6.49657 64.8417 6.64768 65.0267 6.64768H71.2668C71.5501 6.64768 71.7813 6.41811 71.7813 6.13042V5.36617C71.7813 5.07848 71.5472 4.81986 71.2639 4.84892C71.2639 4.84892 65.2319 5.44463 65.0382 5.46497C64.8157 5.49403 64.6885 5.6742 64.6885 5.86017ZM59.6363 15.7345C58.0842 15.7345 57.1073 14.5518 57.1073 13.2325V9.42864H56.6622C56.4252 9.42864 56.2344 9.23685 56.2344 8.99857V8.36217C56.2344 8.12388 56.428 7.93209 56.665 7.93209H57.1073V5.59283C57.1073 5.26156 57.3732 4.99421 57.7027 4.99421H58.5842C58.9137 4.99421 59.1796 5.26446 59.1796 5.59574V7.93209H60.5554C60.7924 7.93209 60.986 8.12388 60.986 8.36217V8.99857C60.986 9.23685 60.7953 9.42864 60.5583 9.42864H59.1825V12.9477C59.1825 13.6393 59.5987 14.1101 60.3444 14.1101H60.4687C60.7259 14.1101 60.934 14.3193 60.934 14.5779V15.2695C60.934 15.5282 60.7259 15.7374 60.4687 15.7374L59.6363 15.7345ZM45.1039 9.28625C46.0316 9.28625 46.8294 9.9488 46.9103 10.8438H43.3119C43.3899 9.9488 44.1761 9.28625 45.1039 9.28625V7.65894C42.5951 7.65894 41.1875 9.63205 41.1875 11.7127C41.1875 13.9299 42.6933 15.8827 45.1212 15.8827C46.7802 15.8827 48.419 15.0022 48.7254 13.5579C48.7659 13.3633 48.6358 13.1075 48.3641 13.1075H47.1791C46.9623 13.1075 46.786 13.2121 46.682 13.3691C46.3438 13.8689 45.8438 14.1362 45.1096 14.1362C44.0691 14.1362 43.3494 13.3139 43.2974 12.4014H48.341C48.8063 12.4014 49.0144 12.1486 49.0144 11.7156C49.0144 9.68727 47.8207 7.66184 45.1067 7.66184L45.1039 9.28625ZM68.0904 9.28625C69.0153 9.28625 69.8159 9.9488 69.8968 10.8438H66.2984C66.3764 9.9488 67.1626 9.28625 68.0904 9.28625V7.65894C65.5816 7.65894 64.174 9.63205 64.174 11.7127C64.174 13.9299 65.6828 15.8827 68.1077 15.8827C69.7668 15.8827 71.4027 15.0022 71.7119 13.5579C71.7524 13.3633 71.6223 13.1075 71.3507 13.1075H70.1656C69.9517 13.1075 69.7754 13.2121 69.6685 13.3691C69.3303 13.8689 68.8332 14.1362 68.0962 14.1362C67.0586 14.1362 66.336 13.3139 66.2811 12.4014H71.3275C71.7929 12.4014 72.001 12.1486 72.001 11.7156C72.001 9.68727 70.8073 7.66184 68.0933 7.66184L68.0904 9.28625Z" fill="#20201F"/>
<path d="M55.41 5.09811H39.0711C38.6983 5.09811 38.4006 5.40033 38.4006 5.77519L38.4555 12.2263C38.4555 12.2263 34.9351 5.83331 34.7501 5.50494C34.5767 5.19982 34.2067 4.91504 33.6952 4.91504H32.3512C31.9812 4.91504 31.6777 5.21725 31.6777 5.59212V15.0538C31.6777 15.4257 31.9783 15.7309 32.3512 15.7309H33.2125C33.5853 15.7309 33.8859 15.4257 33.8859 15.0538L33.831 8.41957C33.831 8.41957 37.3861 14.8794 37.5364 15.1322C37.7416 15.4751 38.0884 15.7309 38.5913 15.7309H39.8255C40.1983 15.7309 40.4989 15.4257 40.4989 15.0538V6.69927H55.4129C55.6672 6.69927 55.8724 6.49295 55.8724 6.23723V5.55434C55.8695 5.30443 55.6643 5.09811 55.41 5.09811Z" fill="#20201F"/>
<path d="M52.7653 9.20725C53.4763 9.20725 54.0081 9.46587 54.1989 9.91338C54.2913 10.1284 54.4676 10.1691 54.7133 10.1691H55.6902C55.8521 10.1691 56.0371 10.0296 56.0371 9.81749C56.0371 8.67546 54.6844 7.65549 52.7653 7.65549C50.7796 7.65549 49.479 8.60572 49.479 10.1197C49.479 11.2792 50.3894 11.9679 51.508 12.2614C52.0167 12.395 52.8895 12.613 53.3115 12.7234C53.7682 12.8455 54.1786 12.9849 54.1786 13.3772C54.1786 13.9991 53.5283 14.2112 52.8144 14.2112C52.141 14.2112 51.4675 13.909 51.2768 13.4266C51.164 13.1477 50.9704 13.107 50.6727 13.107H49.6813C49.5079 13.107 49.3085 13.2581 49.3085 13.4848V13.6126C49.3085 14.7169 50.7825 15.8763 52.8173 15.8763C54.2595 15.8763 56.2683 15.2748 56.2683 13.3278C56.2683 12.2003 55.5197 11.4216 54.3 11.1106C53.8231 10.9886 52.6757 10.6951 52.4271 10.6311C51.982 10.5149 51.5687 10.3696 51.5687 9.98894C51.5658 9.40485 52.1005 9.20725 52.7653 9.20725ZM16.5932 2.91303C16.7753 2.91303 16.9198 2.76483 16.9198 2.58466C16.9198 2.40159 16.7724 2.25629 16.5932 2.25629C16.414 2.25629 16.2666 2.4045 16.2666 2.58466C16.2666 2.76483 16.414 2.91303 16.5932 2.91303ZM12.197 2.32894C12.3502 2.32894 12.4716 2.20399 12.4716 2.05288C12.4716 1.89887 12.3473 1.77682 12.197 1.77682C12.0438 1.77682 11.9225 1.90177 11.9225 2.05288C11.9196 2.20399 12.0438 2.32894 12.197 2.32894ZM8.8992 9.10263L8.76625 8.95734C9.1391 8.60863 9.53507 8.05069 9.60154 7.72523C9.66224 7.42011 10.0958 7.46951 10.012 7.80078C9.90503 8.22505 9.39055 8.73358 8.8992 9.10263ZM6.11006 2.44518C5.42217 2.74449 5.32101 3.45644 5.80369 3.8807C6.38464 4.39505 7.34711 3.94754 7.25462 3.16294C8.035 3.20362 8.53792 2.38997 8.41363 1.82331C8.76047 1.524 8.79515 0.884702 8.37895 0.634793C7.93384 0.364543 7.51186 0.469156 7.24306 0.986409C6.52627 0.931196 5.84127 1.49785 6.11006 2.44518L5.77768 2.29988C5.34125 1.38161 6.10428 0.443002 7.04363 0.65804C7.2315 0.201811 7.93095 -0.271853 8.68532 0.187282C9.28939 0.553427 9.41657 1.50076 8.77492 1.95989C9.07551 2.84329 8.47433 3.56396 7.5581 3.48259C7.45116 4.6188 6.38464 4.7641 5.69675 4.22651C5.30656 3.92138 5.1476 3.50003 5.07534 3.18038C4.9973 2.84329 4.9973 2.54107 4.66492 2.19527C4.41635 1.93374 3.97124 1.94246 3.97124 1.94246C3.97124 1.11718 3.20242 0.361637 2.24863 0.727782C1.91046 0.434285 1.49426 0.405226 1.19367 0.768465C1.02025 0.977691 0.924869 1.52982 1.45957 1.78263C1.43067 2.53526 2.00295 3.01474 2.83536 2.9479C2.86715 3.34892 3.30937 3.71797 3.69956 3.77318L3.69667 3.97369C3.28046 3.93301 3.05502 4.08121 2.77755 4.42701C1.79774 4.38052 1.10985 4.81931 1.13875 5.52545C0.45086 5.65622 0.320797 6.3827 0.710987 6.76918C1.10118 7.15567 1.67346 7.00456 1.87 6.54252C2.56656 6.67619 3.1793 6.17347 3.20821 5.5981C3.85563 5.5981 4.14177 5.33947 4.24871 4.74085L4.49439 4.76119C4.56665 5.40631 4.26894 6.01946 3.49434 5.94681C3.47411 6.71978 2.72842 7.14986 2.03474 6.88542C1.71103 7.49566 0.968224 7.74267 0.343919 7.14405C-0.257263 6.56577 -0.0376002 5.57776 0.748561 5.33947C0.765903 4.58393 1.32373 3.86327 2.40181 4.14223C2.40181 4.14223 2.54055 3.80515 2.87871 3.78481C2.65327 3.69182 2.48274 3.56686 2.4365 3.33439C1.62143 3.50874 0.93065 2.75611 1.11563 1.99767C0.378603 1.60246 0.367042 0.870172 0.731219 0.437191C1.10985 -0.0161324 1.74282 -0.114934 2.30932 0.37326C3.2689 -0.161428 4.35276 0.492403 4.28629 1.59084C4.95684 1.54725 5.36437 2.13425 5.28922 2.7503C5.39905 2.48005 5.52911 2.3551 5.77768 2.29988L6.11006 2.44518Z" fill="#20201F"/>
<path d="M7.75537 1.12598L7.91723 1.24221C7.60219 1.90767 7.04725 2.61671 6.57035 3.0061L6.38826 2.86953C6.72642 2.32031 7.45189 1.40785 7.75537 1.12598ZM3.06731 4.79034L3.17714 4.95307C2.77828 5.3628 2.04414 5.90911 1.65395 6.098L1.50076 5.93236C1.87939 5.52263 2.59908 4.98794 3.06731 4.79034ZM4.01532 2.8085L3.82456 3.04679C3.30431 2.70389 2.27826 1.78271 2.04703 1.44853L2.20889 1.2829C2.70602 1.53862 3.67427 2.40749 4.01532 2.8085ZM3.05286 11.5553C3.11355 11.8546 3.06153 12.1859 3.33032 12.5084C3.4257 12.6218 3.94596 13.3105 4.3217 13.6679C3.81011 13.8713 2.78406 14.2898 2.04414 14.3828C1.89674 14.4002 1.7291 14.5048 1.59036 14.5862C1.49787 14.746 1.40249 15.0279 1.36203 15.3475C1.33313 15.5771 1.33602 15.8328 1.33602 16.0914C1.33602 16.321 1.45741 17.0417 1.71176 17.5241C1.9661 18.0064 2.21178 18.2244 2.51237 18.3639C2.57307 18.3377 2.70313 18.3174 2.90834 18.3145C3.46617 18.3028 3.9026 18.6109 4.09336 18.8782C4.16562 18.9799 4.31592 19.0003 4.50957 19.0003C4.96045 19.0003 5.45469 18.8521 5.92292 18.6719C6.02408 18.5876 6.30733 18.3987 6.5848 18.1808C6.86227 17.9599 8.41147 16.6407 9.09647 16.3065C9.45776 16.5041 10.0503 16.7569 10.663 16.7569C10.6977 16.7569 10.8162 16.7569 10.9405 16.7307C11.1312 16.6872 11.3769 16.6 11.6862 16.5419C12.2382 16.4343 12.8857 16.3384 13.0764 16.3414C13.5851 16.3501 15.0736 16.3878 15.4262 16.3878C15.7962 16.3878 16.3251 16.3559 16.5274 16.3355C16.8396 16.2338 17.5333 16.0391 18.198 15.7311C18.8628 15.4347 20.2588 14.4583 20.4871 14.2375C20.597 14.1358 20.6952 14.0282 20.7704 13.9294C20.7993 13.8917 20.808 13.8771 20.808 13.8481C20.808 13.819 20.8022 12.863 20.8022 12.863C20.8022 12.863 21.1375 12.4881 21.2646 12.3602C21.2762 12.3486 21.2791 12.3312 21.2762 12.3196C21.2184 12.1278 21.1606 11.535 21.1953 10.9305L20.8571 10.7707C20.8455 11.5204 20.571 12.1597 20.3166 12.5549C19.8137 12.6334 18.8541 12.9327 18.5073 13.3308L18.698 13.386C19.0218 13.2059 19.3715 13.0809 19.7675 13.0809C20.1172 13.0809 20.2733 13.1739 20.2733 13.2727C20.2733 13.3424 20.2068 13.511 20.1808 13.5633C20.149 13.6243 20.1316 13.6999 20.0709 13.7638C19.5969 14.2811 19.0622 14.7228 18.4061 15.0889C17.9668 15.3359 17.5506 15.5044 16.8974 15.6875C16.7037 15.7427 16.4349 15.8212 16.2615 15.8822C16.0158 15.8764 14.7354 15.8386 13.9869 15.8386C13.2383 15.8386 11.6977 15.9491 11.2064 16.074C10.9838 16.1321 10.9289 16.2193 10.6688 16.2193C10.1861 16.2193 9.55025 15.9723 9.16295 15.7834C9.10514 15.8009 8.96641 15.8619 8.82478 15.9345C8.5502 16.0711 7.93457 16.9283 7.57617 16.6697C7.39408 17.0446 6.60503 17.402 6.33623 17.7914C6.36803 17.588 6.68307 16.2629 6.71486 15.9985C6.72064 15.952 6.72353 15.9142 6.69463 15.8648C6.4056 15.3824 5.60499 15.0744 5.15121 14.9843C5.01826 14.9581 4.95178 14.9407 4.86218 14.9204L4.14828 14.7024L3.4864 14.9204L4.25233 15.0686L3.28119 15.7137C3.44883 15.6497 4.49511 15.3562 4.57315 15.333C4.65986 15.3068 4.77258 15.2836 4.89687 15.3272C5.03849 15.3766 5.44313 15.4696 5.68303 15.5539C5.82465 15.6033 6.05588 15.8648 6.11657 16.0043C6.13969 16.0624 6.15126 16.1844 6.16571 16.4518C6.17438 16.6203 6.13102 16.8586 6.09056 17.0417C5.98362 17.5212 5.76685 17.896 5.69748 18.0297C5.6021 18.2157 5.47203 18.2738 5.34197 18.3348C5.13098 18.4365 4.87085 18.4975 4.58471 18.5004C4.38817 18.5034 4.25522 18.4917 4.1714 18.3784C3.90549 18.0181 3.25229 17.6694 2.58174 17.8001C2.17131 17.5502 1.76378 16.7453 1.76378 16.1031C1.76378 15.7195 1.95743 15.1122 2.06148 14.807C2.72914 14.7169 4.06446 14.2055 4.71478 13.9091C4.85062 13.9033 5.22347 13.7696 5.58187 13.7696C6.45474 13.7696 7.32472 14.5397 7.85075 15.0569C7.93746 14.9145 8.09932 14.6966 8.54442 14.6966C9.16295 14.6966 9.51845 15.2633 9.69476 15.8444L10.0185 15.6091C9.96067 15.2749 9.79014 14.9116 9.52713 14.6501C9.31324 14.4351 8.90571 14.2578 8.58778 14.2578C8.39702 14.2578 8.19759 14.3014 8.07041 14.3014C7.6282 14.3014 7.449 14.1038 7.1224 13.8771C6.76978 13.633 6.11368 13.2785 5.64545 13.2785C5.34486 13.2785 5.20902 13.3977 4.96045 13.3977C4.59338 13.3977 4.46043 13.2466 4.28412 13.0257C4.20897 12.9298 3.83613 12.6014 3.73786 12.4678C3.68005 12.3922 3.57889 12.0784 3.54421 11.9244L3.05286 11.5553Z" fill="#20201F"/>
<path d="M3.55507 11.9154C3.66201 12.0287 3.76317 12.1566 3.89612 12.2583C4.02619 12.3571 4.18515 12.4414 4.33834 12.5286C4.55222 12.6506 4.7979 12.7901 5.03779 12.8685C5.24878 12.9325 5.52336 12.9586 5.7806 12.9586C6.14767 12.9586 6.58121 12.8831 6.93961 13.0516C7.1795 13.165 7.19684 13.4207 7.3876 13.4933C7.6853 13.6096 8.51193 13.6357 8.97149 13.6357C9.87904 13.6357 10.8646 13.5195 11.4456 13.38L11.1623 13.0661C10.7606 13.133 9.58134 13.2608 9.04085 13.2608C8.27782 13.2608 7.55813 13.1388 7.55813 12.8221C7.55813 12.6012 7.79225 12.2845 8.24024 12.2845C8.72003 12.2845 9.4455 12.5751 9.58134 12.6157C9.71429 12.6564 9.76921 12.6448 9.85303 12.607L10.1334 12.4617C9.76054 12.2874 8.46279 11.8369 8.01191 11.8369C7.79803 11.8369 7.68241 11.8689 7.54368 12.0491C7.37026 12.2728 6.90492 12.4792 6.1679 12.4792C5.76326 12.4792 5.18231 12.4065 5.05513 12.3542C4.83258 12.2612 4.39615 12.0084 4.11579 11.805C3.75739 11.5435 3.44235 11.2558 3.22846 10.9158C3.16199 10.8112 3.13308 10.6949 3.13308 10.5903C3.13308 10.5031 3.1591 10.4218 3.16777 10.3549C3.23135 10.445 3.30072 10.5089 3.39032 10.5932C3.78051 10.9768 4.35857 11.2616 4.95108 11.3778C5.11872 11.4098 5.26902 11.4359 5.43665 11.4359C5.691 11.4359 5.92222 11.2994 6.07252 11.1657L5.8384 10.8925C5.76326 10.9158 5.60718 10.9158 5.50602 10.9158C4.64471 10.9158 3.55218 10.3491 3.30072 9.69529C3.27471 9.63136 3.24581 9.59649 3.27182 9.53546C3.29783 9.47734 3.32673 9.34948 3.34697 9.23034C3.3961 9.28846 3.50304 9.37564 3.63311 9.46281C3.95393 9.66913 4.56378 9.95391 4.68228 10.0295C4.98866 9.93938 5.21988 9.83768 5.40486 9.74178C5.58406 9.64879 5.82973 9.56452 6.11298 9.56452C6.74307 9.56452 7.46564 9.92485 8.14197 10.2619L8.60731 10.0789C8.00324 9.6517 6.69393 9.05599 5.96558 9.05599C5.53492 9.05599 5.13028 9.37273 4.84414 9.37273C4.49152 9.37273 3.47992 8.87582 3.47992 8.46318C3.47992 8.14643 4.13313 7.96336 5.18809 7.8355C5.006 8.10866 4.83258 8.38762 4.67072 8.6724L4.93952 8.82351C6.58988 6.42032 8.30383 4.86275 9.74898 3.91251C10.2721 3.56671 10.3935 3.3662 10.5756 2.98843C11.0236 2.07016 11.4456 1.36403 12.1797 1.36403C12.5208 1.36403 12.8011 1.55872 12.9948 1.79701L13.5266 1.95683L12.989 2.32298L13.5382 2.54383C12.8214 2.74434 11.8416 3.44757 11.4456 4.47626C10.6825 4.51694 10.3126 5.13881 10.064 5.65897C9.89638 6.01059 9.62759 6.15007 9.2374 6.41741L6.11298 8.60847L6.54364 8.6695L9.43105 6.72544C10.0004 6.33895 10.2721 6.05417 10.408 5.78102C10.6768 5.24342 10.9629 4.84241 11.5294 4.84241C11.8069 4.84241 12.1046 4.96155 12.3445 5.18821L12.8503 5.35385L12.2982 5.69384L12.7607 5.98153C11.4369 6.39707 10.6161 7.35312 10.1392 9.17513L10.4889 9.25359C10.6652 8.64916 10.8386 8.09703 11.1479 7.60593C11.9138 7.59722 12.6913 7.56816 13.4543 7.56816C15.4891 7.56816 17.177 7.65533 18.0904 7.92558L17.7667 7.36184C16.7926 7.1962 15.3764 7.10902 13.4543 7.10902C12.8098 7.10902 12.1566 7.13227 11.5092 7.14099C11.9283 6.69638 12.5294 6.32152 13.4572 6.03093L12.7982 5.66769L13.5295 5.26086L12.5208 4.88309C12.3474 4.72617 12.1306 4.58087 11.856 4.51113C12.1739 3.52603 13.2636 2.95066 14.3041 2.55255L13.5757 2.25324L14.3128 1.84931L13.1798 1.48607C12.8821 1.13736 12.5988 0.977539 12.1624 0.977539C11.1103 0.977539 10.671 1.89581 10.2519 2.70947C10.0322 3.13663 9.89349 3.31971 9.52064 3.5638C8.71136 4.09559 7.68241 4.90924 6.69682 5.94956C6.18235 5.5776 5.13317 4.48789 4.84703 3.89217C4.73431 4.03166 4.62448 4.33678 4.62448 4.33678C4.73142 4.45011 5.96847 5.70837 6.42802 6.24015C6.39334 6.27793 6.35866 6.31861 6.32397 6.35639C5.83262 6.45519 4.56089 6.57724 4.12735 6.51912L3.88456 6.95501C4.20828 6.92304 5.47423 6.77194 5.99737 6.74288C5.83551 6.93757 5.67944 7.13808 5.52914 7.3415C3.9019 7.52747 2.81515 7.86165 2.81515 8.46608C2.81515 8.56489 2.85562 8.67822 2.85562 8.78574C2.85562 9.03855 2.76024 9.13154 2.58393 9.24487C2.46832 9.31752 2.45965 9.36982 2.50878 9.43957C2.55792 9.50931 2.80937 9.88417 2.80937 9.95682C2.80937 10.0789 2.68798 10.198 2.5926 10.3084C2.50878 10.4043 2.51167 10.4276 2.57815 10.5467L3.04927 11.5551L3.55507 11.9154ZM23.6976 6.30408C23.5935 6.41451 23.501 6.53074 23.4259 6.6557L23.1629 6.28665C24.0386 5.11266 26.3509 4.56344 27.7035 4.46754V3.83987C27.533 3.89217 27.3451 3.9532 27.1746 3.99388C26.9318 4.052 26.7064 4.10721 26.5185 4.1014C26.3277 4.09849 26.1745 4.02003 26.1052 3.91833C25.9231 3.65679 26.0907 3.26159 26.6861 2.89254L26.2179 2.50024C25.8537 2.9739 25.4982 3.49406 25.134 3.805C24.8045 4.08687 24.4577 4.22926 24.1802 4.02003C24.0299 3.9067 23.9721 3.8544 23.9577 3.5609C23.9779 3.12792 24.238 2.46537 24.4693 2.0411L23.9143 1.97717C23.8132 2.63101 23.5502 3.18604 23.264 3.64517C22.9085 4.21764 22.4518 4.61865 21.9807 4.94702L21.6715 4.6419C22.0501 4.41524 22.527 4.04909 22.8536 3.54346C23.2322 2.95647 23.5415 2.22999 23.5415 1.57035L25.1514 1.72436C24.9259 2.01495 24.5531 2.67169 24.4115 3.14535C24.3392 3.39236 24.3421 3.58705 24.4317 3.65389C24.6022 3.78175 24.8999 3.57833 25.1918 3.2645C25.5994 2.8228 26.0011 2.15734 26.1774 1.91906L27.3393 2.88963C26.822 3.16569 26.3219 3.47953 26.4202 3.65679C26.5127 3.81953 26.8422 3.77012 27.2064 3.65679C27.5041 3.5638 27.8191 3.42723 28.0706 3.27902V4.85984C27.5099 4.85113 26.559 4.95864 25.6456 5.23471C25.8624 5.54273 26.4867 5.65606 26.8856 5.71128L26.6861 6.99569C25.6832 6.57433 24.9115 6.32733 23.6976 6.30408L24.0993 5.95828C24.9924 5.97571 25.8884 6.23725 26.3971 6.49587L26.4694 6.01059C26.0127 5.94956 25.4346 5.68803 25.1918 5.39163C24.793 5.54273 24.4172 5.72871 24.0993 5.95828L23.6976 6.30408Z" fill="#20201F"/>
<path d="M18.9039 10.3813L19.2767 9.5735C18.8865 9.10855 18.4472 8.52156 18.0772 7.92294L17.7535 7.35919C17.0078 5.93529 17.2795 5.25822 16.8807 4.63054C16.5512 4.11328 14.9557 4.43584 14.6927 4.49105L15.1552 3.72099L14.2447 3.79363L15.0164 2.87246C15.1002 2.75332 15.1407 2.64289 15.2303 2.32324C15.3661 1.83795 15.7824 1.00977 16.9963 1.00977C18.346 1.00977 18.7622 2.1082 19.3519 2.58477C20.0195 3.12527 20.8953 3.88372 21.6728 4.64216L21.982 4.94728C22.3809 5.35702 22.7884 5.77838 23.1642 6.28691L23.4272 6.65596C25.0515 9.03881 27.0661 13.5924 27.9592 15.6788C28.0459 15.8822 28.1066 16.0857 28.1615 16.2426C27.5545 15.9055 26.8869 15.4899 26.2019 15.0134L25.8001 14.7315C25.5487 14.5484 25.3001 14.3625 25.0544 14.1736L24.644 13.8481C24.3954 13.6476 24.1527 13.4442 23.9128 13.2379L24.7249 17.989C24.7856 18.268 25.0226 18.2215 25.2134 17.9774C25.407 17.7304 25.4793 17.6636 25.407 17.3381L24.644 13.8481L25.0544 14.1736L25.7857 17.1405C25.855 17.4079 25.9678 17.4921 26.2799 17.5067C26.5921 17.5212 26.6585 17.3991 26.5921 17.1928L25.8001 14.7315L26.2019 15.0134L26.9505 17.2248C27.1441 17.7914 26.9505 17.8583 26.6123 17.8583C26.2741 17.8583 25.9707 17.7798 25.7857 17.899C25.6007 18.0181 25.3695 18.3465 25.0891 18.6312C24.8434 18.8841 24.485 18.8172 24.4157 18.3436L23.5197 12.8862C22.9358 12.3574 22.378 11.8023 21.8809 11.2357C21.6612 11.1427 21.4155 11.0294 21.1988 10.9277L20.8606 10.7678C20.7421 10.7126 20.6525 10.6719 20.6178 10.6632C20.3693 10.9625 20.1323 11.2967 19.8548 11.5379C19.7074 11.6658 19.6062 11.7384 19.3866 11.7384C19.3201 11.7384 19.2363 11.7384 19.1582 11.6948C19.0744 11.6483 18.9964 11.5524 18.9097 11.4217C18.8432 11.32 18.7449 11.1892 18.6611 11.0468C18.4848 10.7475 18.2911 10.3726 18.1206 10.0675C17.927 9.72752 17.7622 9.47179 17.7391 9.42821C17.7044 9.36427 17.609 9.28291 17.609 9.28291C17.5136 9.43692 17.4443 9.73623 17.4443 9.90187L17.1061 9.78854C17.1495 9.56478 17.2391 9.27419 17.2911 9.13471C17.2911 9.01556 17.1581 8.85574 17.0483 8.85574C16.8951 8.85574 16.7361 9.02428 16.6552 9.34975L16.3142 9.50085C16.3546 8.97779 16.5338 8.40242 17.0483 8.40242C17.4645 8.40242 17.7217 8.72207 17.9212 9.02138C18.1148 9.31487 18.7651 10.207 18.9039 10.3813L19.1611 10.7097C19.2045 10.9131 19.2941 11.0323 19.3345 11.0991C19.4241 11.2386 19.5224 11.2299 19.6582 11.1049C19.7189 11.0497 19.9155 10.887 20.1062 10.6865C20.271 10.5121 20.4328 10.3029 20.4964 10.1954C20.6872 10.2796 21.0369 10.4511 21.3231 10.576C20.1033 9.06497 18.9386 7.23424 18.4299 5.9876C18.2218 5.47325 18.6293 5.2989 18.8287 5.80743C19.3663 7.18484 20.9329 9.62 22.0861 10.8986C23.4185 12.3748 25.8579 14.5136 27.4476 15.3708C27.2164 14.9175 26.9129 14.2695 26.5632 13.5168C24.6324 12.4213 22.6786 10.4046 21.7682 8.67267L22.1699 8.71916C23.0168 10.2244 25.04 12.2353 26.2366 12.8194C25.144 10.486 23.722 7.53064 22.6092 6.26076C21.2306 4.68284 19.7276 3.46527 19.0108 2.82887C18.3027 2.2041 18.0108 1.41659 16.9934 1.41659C16.1523 1.41659 15.7101 2.02684 15.5425 2.63998C15.5078 2.75913 15.4875 2.83468 15.4037 2.95964L15.0049 3.43911L15.8633 3.3345L15.3661 4.03483C15.3661 4.03483 16.713 3.7297 17.1841 4.37482C17.6928 5.06933 17.3633 5.84812 18.1958 7.35919C18.5628 8.02465 19.4473 9.21898 19.745 9.48632L19.164 10.7126L18.9039 10.3813ZM5.67498 10.5906L5.47266 10.4511C5.58538 10.3552 5.81082 10.207 6.03337 10.1111C6.14899 10.0617 6.27905 10.0384 6.37443 10.0384C6.60276 10.0384 6.7993 10.1343 6.99006 10.2361C7.29354 10.3988 7.6346 10.5906 7.89473 10.5906C7.99589 10.5906 8.09127 10.5673 8.2011 10.5673C8.45833 10.5673 8.7069 10.6836 8.84853 10.6836C8.93523 10.6836 8.99304 10.6051 9.05085 10.5237C9.19247 10.3174 9.38901 10.1634 9.64047 10.0588C9.90927 9.94546 10.2359 9.89896 10.5885 9.89896C10.866 9.89896 11.1319 9.93965 11.2706 9.96871C11.2706 9.96871 11.0596 10.2244 11.0047 10.2825C10.7243 10.2825 10.1896 10.2738 9.84568 10.4133C9.63469 10.5005 9.55954 10.6225 9.55954 10.7998C9.55954 11.0555 9.84279 11.1543 10.1578 11.2502C10.3428 11.3083 10.5509 11.32 10.7272 11.32C10.944 11.32 11.3573 11.2386 11.7677 11.1485C12.262 11.0381 12.7215 10.9102 12.8545 10.8579L13.0337 11.1805C12.4845 11.3694 11.9209 11.5466 11.3978 11.6512C11.103 11.7123 10.8226 11.75 10.5711 11.75C10.152 11.75 9.69827 11.5728 9.32253 11.3926C9.00749 11.2415 8.72424 11.0904 8.47568 11.0904C8.19243 11.0904 7.92652 11.1892 7.6635 11.3403C7.53633 11.4129 7.14903 11.6803 6.80508 11.8169C6.54207 11.9215 6.32529 11.9796 6.0565 11.9796C5.81949 11.9796 5.67498 11.9447 5.55069 11.8488L5.9669 11.5931C6.01892 11.6454 6.1143 11.657 6.175 11.657C6.2357 11.657 6.30795 11.6512 6.46981 11.5815C6.5623 11.5437 6.69814 11.4594 6.77618 11.4071C6.94093 11.3025 6.99584 11.2386 7.05943 11.1863C7.1866 11.0875 7.22996 10.9538 7.07099 10.8114C6.99584 10.7446 6.91781 10.6748 6.81665 10.6138C6.67502 10.5266 6.57097 10.4424 6.31084 10.4424C6.00736 10.4453 5.79348 10.5295 5.67498 10.5906Z" fill="#20201F"/>
<path d="M11.4512 10.7567C11.4512 10.7567 11.2056 10.6899 11.1188 10.6811C11.2865 10.4516 11.5033 10.2627 11.6738 10.1464C12.0091 9.91688 12.3617 9.79192 12.8964 9.75996C13.0409 9.75124 13.3386 9.72218 13.5005 9.7309C13.6507 9.73671 13.9022 9.74834 14.1334 9.79192C14.2982 9.82389 14.4514 9.86748 14.5756 9.88782C14.6537 9.89944 14.9225 9.89654 15.015 9.88201C15.3936 9.82098 15.8474 9.67569 16.0844 9.54492L16.1855 9.90816C15.6768 10.1697 15.0988 10.4225 14.5728 10.4225C14.304 10.4225 14.0178 10.4022 13.7519 10.376C13.2837 10.3324 12.8761 10.2685 12.7374 10.2685C12.3617 10.2685 11.8154 10.4458 11.4512 10.7567ZM11.0755 12.785L10.5957 12.5642C11.2605 12.2271 12.2779 11.8871 12.6941 11.8203C13.1103 11.7534 13.5872 11.704 13.8617 11.611C13.9889 11.9307 14.2346 12.2736 14.593 12.2736C14.723 12.2736 14.9369 12.1748 15.1537 12.0789C15.3965 11.9714 15.6393 11.8551 15.7636 11.797C15.8994 11.736 16.3416 11.5413 16.7145 11.3727C16.859 11.3088 17.2521 11.1199 17.2723 11.1083L17.5237 11.2449C17.4486 11.5791 17.3243 11.9859 17.1827 12.2794C17.1278 12.3927 17.0729 12.4886 17.0122 12.5555C16.9023 12.6804 16.726 12.8431 16.4948 13.0088C16.2433 13.1889 15.937 13.372 15.6104 13.5609C15.356 13.7062 15.1017 13.8573 14.8444 13.9764L14.7115 13.7323C15.1103 13.5057 15.515 13.218 15.8705 12.9536C16.0381 12.8286 16.2029 12.7007 16.3185 12.5932C16.4052 12.5148 16.4601 12.4479 16.5035 12.384C16.6104 12.2271 16.7809 11.922 16.8359 11.7767C16.6885 11.8493 16.1248 12.1167 15.8734 12.2503C15.5901 12.4014 15.1277 12.6368 14.8705 12.7589C14.6681 12.8548 14.486 12.9071 14.356 12.9071C14.067 12.9071 13.9369 12.6978 13.8646 12.5729C13.6825 12.2474 13.486 12.2155 12.9744 12.2096C12.379 12.198 11.5611 12.4479 11.0755 12.785ZM13.8733 11.2827C13.8733 11.2827 13.8039 10.9979 13.7693 10.8933C13.7693 10.8933 13.8531 10.8671 13.9629 10.8671C14.1421 10.8671 14.5814 10.9165 14.7664 10.9165C15.4572 10.9165 15.7115 10.6986 15.9139 10.5155C16.0873 10.3586 16.2636 10.2307 16.7318 10.2307C17.1451 10.2307 17.6191 10.3993 17.755 10.4661L17.7261 10.8439C17.5237 10.7305 17.2463 10.655 17.0006 10.655C16.8301 10.655 16.6769 10.6695 16.5671 10.7247C16.4457 10.7887 16.3705 10.8845 16.2578 10.9775C16.1364 11.0792 15.9688 11.1751 15.752 11.2565C15.5352 11.3379 15.2635 11.3931 14.8618 11.3931C14.3271 11.3902 14.038 11.303 13.8733 11.2827Z" fill="#20201F"/>
<path d="M9.50586 14.1383L9.82379 14.0046C10.1157 14.1179 10.5377 14.2458 10.8296 14.2458C11.0059 14.2458 11.1504 14.1819 11.2718 14.1296C11.3643 14.0889 12.4251 13.5658 12.9511 13.374C13.1187 13.313 13.2864 13.2781 13.3702 13.2781C13.4974 13.2781 13.5031 13.3362 13.5378 13.3914C13.6361 13.5513 14.4194 14.673 14.4974 14.7601C15.1622 14.5538 15.8414 14.2545 16.2316 13.8767C16.6391 13.4815 16.9773 13.0224 17.3068 12.6679C17.4339 12.5313 17.59 12.4063 17.6681 12.3657C18.0062 12.1855 19.0612 12.1681 19.5063 12.1884L19.2433 12.5633C18.4629 12.5633 18.0265 12.6446 17.8299 12.7928C17.7461 12.8568 17.6218 12.9817 17.5004 13.1386C17.2345 13.4873 16.9426 13.9668 16.827 14.0598C17.0553 14.2196 17.3039 14.3591 17.7027 14.3591C18.3646 14.3591 18.8386 13.9436 19.0988 13.7082L19.3213 13.8419C19.1566 14.0569 18.9687 14.2778 18.7288 14.4405C18.4629 14.6207 18.1276 14.7398 17.9282 14.795C17.5438 14.7224 16.6998 14.5509 16.5004 14.5102C15.7691 14.8095 14.5783 15.2948 14.1766 15.4169C14.1188 15.4343 14.0263 15.4488 13.9078 15.4605C13.5899 15.4779 13.1505 15.475 12.7517 15.4692C12.4684 15.4663 12.1967 15.4692 12.0638 15.443L11.7112 15.0711C12.0204 15.1321 12.1447 15.1495 12.4337 15.1495C13.1216 15.1495 13.5667 15.0333 13.7112 14.9955C13.8326 14.9636 13.8529 14.8909 13.8182 14.7805C13.7604 14.6032 13.6592 14.4347 13.5031 14.2545C13.4193 14.1557 13.2343 13.9901 13.1563 13.9378C13.0609 13.8738 12.9684 13.8564 12.7083 13.9465C12.4684 14.0278 11.7198 14.4347 11.3961 14.6061C11.2371 14.6904 11.1129 14.7165 10.8267 14.6497C10.5204 14.5829 9.79778 14.3184 9.50586 14.1383ZM11.5782 5.8012C11.7285 5.8012 11.8499 5.67915 11.8499 5.52804C11.8499 5.37693 11.7285 5.25488 11.5782 5.25488C11.4279 5.25488 11.3065 5.37693 11.3065 5.52804C11.3065 5.67915 11.4279 5.8012 11.5782 5.8012Z" fill="#20201F"/>
</svg>
