<svg width="40" height="40" viewBox="0 0 40 40" fill="none" xmlns="http://www.w3.org/2000/svg">
<path d="M0 0H40V40H0V0Z" fill="#E51F59"/>
<path d="M14.3298 23.5556V16.7146C14.3357 16.6511 14.3288 16.587 14.3095 16.5264C14.2901 16.4658 14.2588 16.4101 14.2176 16.3629C14.1764 16.3157 14.1261 16.2779 14.0699 16.2521C14.0138 16.2262 13.9531 16.2129 13.8918 16.2129C13.8304 16.2129 13.7697 16.2262 13.7136 16.2521C13.6575 16.2779 13.6072 16.3157 13.5659 16.3629C13.5247 16.4101 13.4934 16.4658 13.4741 16.5264C13.4548 16.587 13.4478 16.6511 13.4538 16.7146V23.5556C13.4643 23.6688 13.515 23.7738 13.596 23.8502C13.677 23.9266 13.7824 23.9689 13.8918 23.9689C14.0011 23.9689 14.1065 23.9266 14.1875 23.8502C14.2685 23.7738 14.3192 23.6688 14.3298 23.5556ZM5.249 16.3127H3.60393C3.54633 16.3126 3.48931 16.3245 3.43615 16.3476C3.38299 16.3706 3.33474 16.4044 3.29421 16.4469C3.25367 16.4894 3.22165 16.5399 3.19998 16.5954C3.17832 16.6509 3.16744 16.7103 3.16799 16.7701V23.5556C3.17855 23.6688 3.22925 23.7738 3.31023 23.8502C3.3912 23.9266 3.49663 23.9689 3.60599 23.9689C3.71534 23.9689 3.82078 23.9266 3.90175 23.8502C3.98272 23.7738 4.03343 23.6688 4.04399 23.5556V20.4686H5.27779C5.80789 20.4686 6.31628 20.2497 6.69112 19.86C7.06596 19.4703 7.27654 18.9417 7.27654 18.3906C7.27654 17.8395 7.06596 17.311 6.69112 16.9213C6.31628 16.5316 5.80789 16.3127 5.27779 16.3127H5.249ZM5.27779 19.5536H4.04399V17.2276H5.27779C5.43067 17.218 5.58383 17.241 5.72785 17.2952C5.87187 17.3494 6.0037 17.4337 6.11523 17.5428C6.22676 17.6519 6.31563 17.7836 6.37638 17.9298C6.43713 18.076 6.46846 18.2335 6.46846 18.3928C6.46846 18.552 6.43713 18.7095 6.37638 18.8557C6.31563 19.0019 6.22676 19.1336 6.11523 19.2427C6.0037 19.3519 5.87187 19.4361 5.72785 19.4903C5.58383 19.5445 5.43067 19.5675 5.27779 19.5579V19.5536ZM12.0472 26.2578C11.9316 26.2578 11.8207 26.3056 11.739 26.3906C11.6572 26.4756 11.6113 26.5909 11.6113 26.7111V31.4741L9.55496 26.8864C9.46159 26.6297 9.29149 26.4109 9.06966 26.2621C9.00339 26.2223 8.92821 26.2014 8.85169 26.2014C8.77517 26.2014 8.69999 26.2223 8.63372 26.2621C8.56694 26.3001 8.51159 26.3565 8.47383 26.4252C8.43607 26.4939 8.41739 26.5721 8.41986 26.6512V33.4923C8.41393 33.5558 8.42085 33.6199 8.44017 33.6804C8.45948 33.741 8.49077 33.7967 8.53202 33.8439C8.57326 33.8912 8.62356 33.9289 8.67968 33.9548C8.73579 33.9806 8.79649 33.9939 8.85786 33.9939C8.91923 33.9939 8.97992 33.9806 9.03604 33.9548C9.09215 33.9289 9.14245 33.8912 9.1837 33.8439C9.22495 33.7967 9.25624 33.741 9.27555 33.6804C9.29487 33.6199 9.30178 33.5558 9.29586 33.4923V28.4812L11.636 33.7317C11.6721 33.8128 11.7303 33.8812 11.8034 33.9283C11.8765 33.9754 11.9613 33.9992 12.0472 33.9968C12.0786 34.0012 12.1104 34.0012 12.1418 33.9968C12.2371 33.9758 12.3228 33.9224 12.3854 33.8449C12.448 33.7674 12.4839 33.6704 12.4873 33.5692V26.7282C12.4895 26.6669 12.4798 26.6057 12.4586 26.5485C12.4374 26.4912 12.4053 26.439 12.3641 26.395C12.323 26.351 12.2737 26.3162 12.2192 26.2926C12.1647 26.2691 12.1062 26.2572 12.0472 26.2578ZM19.4089 16.3127C19.2922 16.3127 19.1803 16.3609 19.0977 16.4466C19.0152 16.5324 18.9688 16.6488 18.9688 16.7701V21.5332L16.9125 16.9412C16.821 16.6834 16.6505 16.464 16.4272 16.3169C16.3607 16.278 16.2856 16.2575 16.2092 16.2575C16.1329 16.2575 16.0578 16.278 15.9913 16.3169C15.9259 16.3576 15.8719 16.4153 15.8344 16.4842C15.7969 16.5532 15.7773 16.6311 15.7774 16.7103V23.5513C15.788 23.6645 15.8387 23.7695 15.9197 23.8459C16.0006 23.9223 16.1061 23.9647 16.2154 23.9647C16.3248 23.9647 16.4302 23.9223 16.5112 23.8459C16.5921 23.7695 16.6429 23.6645 16.6534 23.5513V18.536L18.9976 23.7822C19.0333 23.8637 19.0914 23.9324 19.1646 23.9795C19.2378 24.0267 19.3228 24.0503 19.4089 24.0473H19.5035C19.6043 24.0255 19.6947 23.968 19.7592 23.8845C19.8238 23.8011 19.8584 23.6969 19.8572 23.5898V16.7701C19.8572 16.6488 19.8108 16.5324 19.7283 16.4466C19.6458 16.3609 19.5338 16.3127 19.4171 16.3127" fill="white"/>
<path d="M24.5175 16.3802H21.3343C21.2732 16.3741 21.2115 16.3813 21.1533 16.4013C21.095 16.4214 21.0414 16.454 20.996 16.4968C20.9506 16.5397 20.9142 16.592 20.8894 16.6504C20.8645 16.7087 20.8517 16.7718 20.8517 16.8356C20.8517 16.8994 20.8645 16.9625 20.8894 17.0208C20.9142 17.0792 20.9506 17.1315 20.996 17.1744C21.0414 17.2172 21.095 17.2498 21.1533 17.2698C21.2115 17.2899 21.2732 17.2971 21.3343 17.291H22.457V23.5548C22.4676 23.668 22.5183 23.773 22.5992 23.8494C22.6802 23.9258 22.7857 23.9681 22.895 23.9681C23.0044 23.9681 23.1098 23.9258 23.1908 23.8494C23.2717 23.773 23.3224 23.668 23.333 23.5548V17.291H24.5175C24.5785 17.2971 24.6402 17.2899 24.6984 17.2698C24.7567 17.2498 24.8103 17.2172 24.8557 17.1744C24.9012 17.1315 24.9375 17.0792 24.9623 17.0208C24.9872 16.9625 25 16.8994 25 16.8356C25 16.7718 24.9872 16.7087 24.9623 16.6504C24.9375 16.592 24.9012 16.5397 24.8557 16.4968C24.8103 16.454 24.7567 16.4214 24.6984 16.4013C24.6402 16.3813 24.5785 16.3741 24.5175 16.3802ZM10.0902 23.9824C10.6356 23.9824 11.1586 23.7571 11.5443 23.3562C11.9299 22.9553 12.1466 22.4115 12.1466 21.8445V18.424C12.1858 18.1218 12.1625 17.8144 12.078 17.5224C11.9936 17.2304 11.8501 16.9606 11.657 16.731C11.464 16.5014 11.226 16.3174 10.959 16.1913C10.6919 16.0652 10.402 16 10.1087 16C9.81545 16 9.52555 16.0652 9.2585 16.1913C8.99145 16.3174 8.75344 16.5014 8.56043 16.731C8.36742 16.9606 8.22388 17.2304 8.13945 17.5224C8.05502 17.8144 8.03165 18.1218 8.07091 18.424V21.8445C8.07089 22.4078 8.28471 22.9484 8.66591 23.3487C9.04711 23.749 9.56488 23.9767 10.1067 23.9824H10.0902ZM8.93046 18.424C8.92103 18.2593 8.94409 18.0944 8.99821 17.9393C9.05234 17.7843 9.13639 17.6424 9.2452 17.5223C9.35401 17.4023 9.48529 17.3066 9.63096 17.2412C9.77663 17.1758 9.93362 17.1421 10.0923 17.1421C10.251 17.1421 10.4079 17.1758 10.5536 17.2412C10.6993 17.3066 10.8306 17.4023 10.9394 17.5223C11.0482 17.6424 11.1322 17.7843 11.1864 17.9393C11.2405 18.0944 11.2635 18.2593 11.2541 18.424V21.8445C11.2635 22.0092 11.2405 22.1741 11.1864 22.3292C11.1322 22.4843 11.0482 22.6262 10.9394 22.7462C10.8306 22.8663 10.6993 22.9619 10.5536 23.0273C10.4079 23.0927 10.251 23.1264 10.0923 23.1264C9.93362 23.1264 9.77663 23.0927 9.63096 23.0273C9.48529 22.9619 9.35401 22.8663 9.2452 22.7462C9.13639 22.6262 9.05234 22.4843 8.99821 22.3292C8.94409 22.1741 8.92103 22.0092 8.93046 21.8445V18.424ZM5.05633 26.163C4.51096 26.163 3.98792 26.3882 3.60229 26.7891C3.21665 27.19 3 27.7338 3 28.3008V31.747C3.06317 32.2631 3.30519 32.7375 3.68071 33.0813C4.05623 33.4252 4.53947 33.6149 5.03988 33.6149C5.5403 33.6149 6.02354 33.4252 6.39905 33.0813C6.77457 32.7375 7.01659 32.2631 7.07976 31.747V28.2837C7.07976 27.7167 6.86311 27.1729 6.47748 26.772C6.09184 26.3711 5.5688 26.1458 5.02343 26.1458L5.05633 26.163ZM6.1832 31.7042C6.16557 32.0121 6.03549 32.3014 5.81954 32.513C5.60359 32.7245 5.31808 32.8423 5.02137 32.8423C4.72466 32.8423 4.43916 32.7245 4.22321 32.513C4.00726 32.3014 3.87718 32.0121 3.85955 31.7042V28.2837C3.85012 28.119 3.87318 27.9541 3.9273 27.799C3.98143 27.644 4.06548 27.502 4.17429 27.382C4.2831 27.2619 4.41437 27.1663 4.56004 27.1009C4.70571 27.0355 4.86271 27.0018 5.02137 27.0018C5.18004 27.0018 5.33703 27.0355 5.48271 27.1009C5.62838 27.1663 5.75965 27.2619 5.86846 27.382C5.97727 27.502 6.06132 27.644 6.11545 27.799C6.16957 27.9541 6.19263 28.119 6.1832 28.2837V31.7042ZM17.6287 32.7731H14.8198V30.3274H16.7363C16.853 30.3274 16.9649 30.2792 17.0475 30.1934C17.13 30.1077 17.1764 29.9913 17.1764 29.87C17.1764 29.7486 17.13 29.6323 17.0475 29.5465C16.9649 29.4607 16.853 29.4125 16.7363 29.4125H14.8198V27.1164H17.5671C17.6759 27.1054 17.7769 27.0527 17.8504 26.9685C17.9239 26.8844 17.9646 26.7748 17.9646 26.6611C17.9646 26.5474 17.9239 26.4378 17.8504 26.3536C17.7769 26.2694 17.6759 26.2167 17.5671 26.2057H14.3797C14.2641 26.2057 14.1532 26.2535 14.0715 26.3385C13.9897 26.4234 13.9438 26.5387 13.9438 26.6589V33.2306C13.9433 33.2905 13.9541 33.3499 13.9758 33.4054C13.9975 33.4609 14.0295 33.5113 14.07 33.5539C14.1106 33.5964 14.1588 33.6302 14.212 33.6532C14.2651 33.6763 14.3221 33.6881 14.3797 33.6881H17.6287C17.7455 33.6881 17.8574 33.6399 17.9399 33.5541C18.0224 33.4683 18.0688 33.352 18.0688 33.2306C18.0688 33.1093 18.0224 32.9929 17.9399 32.9071C17.8574 32.8213 17.7455 32.7731 17.6287 32.7731Z" fill="white"/>
</svg>
