<svg width="99" height="32" viewBox="0 0 99 32" fill="none" xmlns="http://www.w3.org/2000/svg">
<path d="M16.6623 16.2462C17.103 16.6855 17.4526 17.2075 17.6912 17.7822C17.9297 18.3569 18.0525 18.973 18.0525 19.5952C18.0525 20.2174 17.9297 20.8335 17.6912 21.4082C17.4526 21.9829 17.103 22.5048 16.6623 22.9442L9.1066 30.4999C8.15415 31.4571 6.86049 31.9967 5.51019 32C4.1599 32.0033 2.86358 31.4701 1.90642 30.5177C0.949261 29.5652 0.409661 28.2716 0.406327 26.9213C0.402993 25.571 0.936197 24.2747 1.88864 23.3175L12.8045 12.4061L16.6623 16.2462Z" fill="#2E26F1"/>
<path d="M27.1783 20.7485C28.5798 21.8503 30.2871 22.4929 32.0673 22.5886C33.4006 22.5886 33.934 22.1441 33.934 21.553C33.934 20.8374 32.9873 20.5796 31.5473 20.3485C29.1917 19.9441 25.8582 19.4596 25.8582 15.904C25.8582 13.4595 27.9561 11.335 31.805 11.335C33.8872 11.3142 35.9219 11.9571 37.6141 13.1706L35.9163 16.104C34.7843 15.1209 33.3354 14.5795 31.8362 14.5795C30.8006 14.5795 30.0583 14.9262 30.0583 15.5306C30.0583 16.1351 30.805 16.3929 32.2806 16.6506C34.6407 17.0551 38.1474 17.6284 38.1474 21.3085C38.1474 23.953 35.8185 25.9042 31.8228 25.9042C29.3517 25.9042 26.7916 25.0731 25.3249 23.7797L27.1783 20.7485Z" fill="black"/>
<path d="M45.7476 20.6641L44.4142 22.2464V25.5798H39.9697V6.40598H44.4142V17.2418L48.6632 11.695H53.9967L48.881 18.0196L54.2589 25.5753H48.7965L45.7476 20.6641Z" fill="black"/>
<path d="M61.2991 11.3527C65.4103 11.3527 68.4104 14.3705 68.4104 19.0818V20.0329H58.5123C58.7701 21.3263 59.979 22.5041 62.068 22.5041C63.2983 22.5016 64.4922 22.087 65.4592 21.3263L67.3303 24.0997C65.9525 25.3353 63.6502 25.9353 61.5257 25.9353C57.2412 25.9353 53.9344 23.1485 53.9344 18.6373C53.9122 14.5972 56.9612 11.3527 61.2991 11.3527ZM58.4412 17.1573H64.1747C64.0591 16.1795 63.3436 14.7706 61.2991 14.7706C60.61 14.7368 59.9335 14.9636 59.404 15.4058C58.8745 15.848 58.5308 16.4733 58.4412 17.1573Z" fill="black"/>
<path d="M70.157 6.40598H74.6016V25.5798H70.157V6.40598Z" fill="black"/>
<path d="M77.3705 6.40598H81.8151V25.5798H77.3705V6.40598Z" fill="black"/>
<path d="M83.6641 18.624C83.6641 14.7128 86.513 11.3527 91.2198 11.3527C95.9266 11.3527 98.8111 14.7128 98.8111 18.624C98.8111 22.5352 95.9977 25.9219 91.2242 25.9219C86.4508 25.9219 83.6641 22.5307 83.6641 18.624ZM94.2732 18.624C94.2732 16.7839 93.1798 15.2595 91.2242 15.2595C89.2686 15.2595 88.2197 16.7839 88.2197 18.624C88.2197 20.464 89.282 22.0152 91.2065 22.0152C93.131 22.0152 94.2732 20.4907 94.2732 18.624Z" fill="black"/>
<path d="M5.61324 5.21042L1.38647 9.43274C0.498693 10.3212 0 11.5257 0 12.7817C0 14.0377 0.498693 15.2423 1.38647 16.1307L5.23101 19.9708L16.1424 9.06384L12.7912 12.415L5.61324 5.21042Z" fill="#459FFF"/>
<path d="M16.5291 1.48587C15.5744 0.534314 14.2814 0 12.9335 0C11.5855 0 10.2925 0.534314 9.33782 1.48587L5.61328 5.21041L12.8046 12.4017L16.1558 9.0505L16.5291 8.67716C17.4807 7.72244 18.015 6.42946 18.015 5.08152C18.015 3.73357 17.4807 2.44059 16.5291 1.48587Z" fill="#1A6EFC"/>
</svg>
