<svg width="64" height="26" viewBox="0 0 64 26" fill="none" xmlns="http://www.w3.org/2000/svg">
<g clip-path="url(#clip0_384_4351)">
<path d="M4.46654 10.143C4.46654 9.46907 5.03148 9.20988 5.96716 9.20988C7.30889 9.20988 9.0037 9.60731 10.3454 10.3158V6.25512C8.88012 5.6849 7.43247 5.46027 5.96716 5.46027C2.38333 5.46027 0 7.29188 0 10.3503C0 15.1194 6.70864 14.3591 6.70864 16.4154C6.70864 17.2102 6.00247 17.4694 5.01383 17.4694C3.54852 17.4694 1.67716 16.8819 0.194198 16.0871V20.1995C1.83605 20.8907 3.49556 21.1845 5.01383 21.1845C8.68593 21.1845 11.2105 19.4047 11.2105 16.3117C11.1928 11.1624 4.46654 12.0783 4.46654 10.143ZM16.4009 2.0044L12.0932 2.90293L12.0756 16.7437C12.0756 19.301 14.0352 21.1845 16.648 21.1845C18.0957 21.1845 19.1549 20.9253 19.7375 20.6142V17.1065C19.1726 17.3312 16.3832 18.126 16.3832 15.5687V9.43452H19.7375V5.75402H16.3832L16.4009 2.0044ZM25.228 7.03269L24.9456 5.75402H21.1322V20.8734H25.5458V10.6268C26.5874 9.29628 28.3528 9.53819 28.9001 9.72826V5.75402C28.3352 5.54667 26.2696 5.16652 25.228 7.03269ZM29.977 5.75402H34.4083V20.8734H29.977V5.75402ZM29.977 4.44079L34.4083 3.5077V0L29.977 0.915805V4.44079ZM43.6238 5.46027C41.8937 5.46027 40.7815 6.25512 40.1636 6.80806L39.9341 5.73674H36.0501V25.8844L40.4637 24.9686L40.4814 20.0786C41.1169 20.5278 42.0526 21.1672 43.6062 21.1672C46.7663 21.1672 49.644 18.679 49.644 13.2014C49.6263 8.1904 46.7133 5.46027 43.6238 5.46027ZM42.5646 17.3657C41.523 17.3657 40.9051 17.0029 40.4814 16.5536L40.4637 10.143C40.9227 9.64187 41.5583 9.29628 42.5646 9.29628C44.1711 9.29628 45.2833 11.0588 45.2833 13.3224C45.2833 15.6378 44.1888 17.3657 42.5646 17.3657ZM63.5556 13.3742C63.5556 8.9507 61.3664 5.46027 57.1823 5.46027C52.9806 5.46027 50.4384 8.9507 50.4384 13.3396C50.4384 18.5407 53.4396 21.1672 57.7473 21.1672C59.8481 21.1672 61.437 20.7006 62.6375 20.044V16.5882C61.437 17.1757 60.06 17.5385 58.3122 17.5385C56.5998 17.5385 55.0815 16.951 54.8873 14.9121H63.5202C63.5202 14.6874 63.5556 13.7889 63.5556 13.3742ZM54.8343 11.7327C54.8343 9.7801 56.0525 8.96797 57.1647 8.96797C58.2416 8.96797 59.3891 9.7801 59.3891 11.7327H54.8343Z" fill="#6772E5"/>
</g>
<defs>
<clipPath id="clip0_384_4351">
<rect width="63.5556" height="26" fill="white"/>
</clipPath>
</defs>
</svg>
