<svg width="72" height="18" viewBox="0 0 72 18" fill="none" xmlns="http://www.w3.org/2000/svg">
<g clip-path="url(#clip0_384_5940)">
<path fill-rule="evenodd" clip-rule="evenodd" d="M6.82858 0.371789C6.77255 0.26407 6.68953 0.173059 6.58781 0.107827C6.48608 0.0425941 6.36921 0.00541693 6.24882 0L0 0L3.84141 8.44299H10.4959L6.82858 0.371789Z" fill="#4E4D66"/>
<path fill-rule="evenodd" clip-rule="evenodd" d="M6.82858 16.5122C6.77289 16.6194 6.6905 16.71 6.58954 16.7752C6.48858 16.8404 6.37253 16.8779 6.25284 16.884H0L3.84141 8.44238H10.4959L6.82858 16.5122Z" fill="#787A7F"/>
<path d="M16.6513 10.5064C16.6714 11.4838 17.3823 12.0273 18.5646 12.0273C19.6625 12.0273 20.2423 11.5703 20.2423 10.8538C20.2423 10.4482 20.1365 10.1778 19.8125 10.0291C19.5706 9.89959 19.3091 9.81142 19.0386 9.76818L16.9954 9.42073C14.7366 9.00703 13.6172 7.89977 13.6172 6.053C13.6172 3.68571 15.4918 2.2959 18.4147 2.2959C21.3603 2.2959 23.1906 3.72898 23.2549 5.96647H20.0281C20.0067 5.07553 19.4684 4.64155 18.3718 4.64155C17.4252 4.64155 16.8869 5.0539 16.8869 5.74881C16.8799 5.87552 16.9014 6.0022 16.9498 6.1193C16.9983 6.2364 17.0725 6.34085 17.1668 6.42479C17.5323 6.75196 17.7907 6.77359 18.3718 6.85877L20.3521 7.18324C22.5252 7.53069 23.6004 8.65958 23.6004 10.5496C23.6004 12.9615 21.6214 14.373 18.5445 14.373C15.3405 14.373 13.4258 12.8304 13.4258 10.5064H16.6513Z" fill="#A5A8AE"/>
<path d="M22.8008 2.51367H26.3289L27.6852 6.96568L28.6305 10.2672H28.7858L29.6896 6.96568L30.979 2.51367H34.396L30.3082 14.3731C29.4486 16.8715 27.7923 18.0004 25.0167 18.0004C24.5262 18.0033 24.0365 17.958 23.5546 17.8652V15.1978C23.9454 15.2616 24.341 15.291 24.7369 15.2856C25.9205 15.2856 26.6516 14.8287 26.91 13.9337L27.0814 13.4118L22.8008 2.51367Z" fill="#A5A8AE"/>
<path d="M34.7422 14.1545V2.51281H35.8843C36.449 2.51281 36.9907 2.73925 37.3901 3.14234C37.7896 3.54543 38.0142 4.09219 38.0145 4.66243H38.2074C38.9371 3.07658 40.2064 2.29785 41.9925 2.29785C44.5954 2.29785 45.9504 4.16626 45.9504 7.18519V14.1545H42.6593V7.52994C42.6593 5.85756 41.9483 5.03287 40.5505 5.03287C38.9799 5.03287 38.0065 6.20502 38.0065 8.00718V14.1545H34.7422Z" fill="#A5A8AE"/>
<path d="M58.3611 2.51367V14.1554H57.1788C56.6206 14.1554 56.0853 13.932 55.69 13.5341C55.2947 13.1363 55.0717 12.5964 55.07 12.0328H54.8772C54.1631 13.5957 52.9134 14.3776 51.1281 14.3785C48.6109 14.3785 47.2773 12.6615 47.2773 9.79533V2.51367H50.5685V9.27347C50.5685 10.8593 51.2379 11.6624 52.5916 11.6624C54.118 11.6624 55.086 10.4686 55.086 8.66509V2.51367H58.3611Z" fill="#A5A8AE"/>
<path d="M60.0391 2.51281H63.3088V4.6408H63.5029C64.1054 3.18609 65.5461 2.29785 67.2667 2.29785C68.7301 2.29785 69.8923 2.83864 70.7305 3.9202C71.5687 5.00177 71.9998 6.48893 71.9998 8.3303C71.9998 12.0874 70.1253 14.3682 67.2667 14.3682C65.439 14.3682 64.0398 13.4556 63.5029 12.0441H63.3088V17.7778H60.0391V2.51281ZM63.3088 8.73183C63.3088 10.4691 64.3625 11.6629 65.9773 11.6629C67.7179 11.6629 68.6659 10.3609 68.6659 8.2965C68.6659 6.19015 67.655 5.01664 66.0201 5.01664C64.4067 5.01664 63.3088 6.23341 63.3088 7.97068V8.73183Z" fill="#A5A8AE"/>
</g>
<defs>
<clipPath id="clip0_384_5940">
<rect width="72" height="18" fill="white"/>
</clipPath>
</defs>
</svg>
