<svg width="40" height="44" viewBox="0 0 40 44" fill="none" xmlns="http://www.w3.org/2000/svg">
<path d="M20.8514 0H19.1486V17.4247H20.8167L20.8514 0ZM25.0217 0.470936L23.3536 0.201832V17.1892L25.0217 16.8528V0.470936ZM16.6464 0.201832L14.9783 0.470936V16.8865L16.6464 17.2229V0.201832ZM18.0365 42.1153C18.106 41.0389 18.1755 39.2897 18.1755 38.7178C18.1755 38.1459 18.2103 38.1123 18.0712 36.3967C17.9322 34.6476 17.7237 34.0084 17.5847 33.302C17.4805 32.5956 17.2719 31.8219 16.9244 30.7455C16.5769 29.7027 16.2989 29.1645 15.8471 28.1553C15.3606 27.1462 14.5613 25.7334 13.7619 24.3542C12.9279 22.9414 12.3371 21.4277 12.0243 19.8467C11.7463 18.1647 11.6768 16.4828 11.8158 14.8009C11.8853 13.6572 12.0591 10.697 12.1981 9.14964C4.93484 11.8744 0 18.2993 0 25.9016C0 35.2867 7.81929 43.0571 17.8627 43.999L18.0365 42.1153ZM21.9983 42.1153C21.9288 41.0389 21.8593 39.2897 21.8593 38.7178C21.8593 38.1459 21.8245 38.1123 21.9635 36.3967C22.1025 34.6476 22.311 34.0084 22.45 33.302C22.5543 32.5956 22.7628 31.8219 23.1103 30.7455C23.4579 29.7027 23.7359 29.1645 24.1877 28.1553C24.6742 27.1462 25.4735 25.7334 26.2728 24.3542C27.1069 22.9414 27.6977 21.4277 28.0104 19.8467C28.358 18.0302 28.3232 15.9446 28.2189 14.8009C28.1842 13.6572 27.9757 10.697 27.8367 9.14964C35.0304 11.908 40 18.2993 40 25.9016C40 35.2867 32.1807 43.0571 22.1373 43.999C22.1025 44.0327 22.0678 43.1917 21.9983 42.1153Z" fill="#787A7F"/>
</svg>
