<svg width="88" height="14" viewBox="0 0 88 14" fill="none" xmlns="http://www.w3.org/2000/svg">
<path d="M65.8449 8.66385C65.8449 6.93924 64.4461 5.57984 62.677 5.57984C60.9285 5.57984 59.5092 6.93924 59.5092 8.66385C59.5092 10.3885 60.9285 11.7479 62.677 11.7479C64.4461 11.7682 65.8449 10.4088 65.8449 8.66385ZM68.4368 3.61176V13.7362H65.7832V12.8232C64.8575 13.5739 63.7056 14 62.4302 14C59.3035 14 56.8556 11.6261 56.8556 8.68414C56.8556 5.74216 59.3035 3.36828 62.4302 3.36828C63.685 3.36828 64.8575 3.79436 65.7832 4.54508V3.63205C65.7832 3.61176 68.4368 3.61176 68.4368 3.61176ZM77.1997 11.4435H75.2044C74.6079 11.4435 74.217 11.1798 74.217 10.6522V5.90447H77.1997V3.61176H74.217V0.730642H71.5429V3.61176H69.527V5.90447H71.5429V11.2812C71.5429 12.6406 72.5303 13.7159 74.3199 13.7159H77.1792L77.1997 11.4435ZM83.2269 14C86.2713 14 87.9992 12.6 87.9992 10.6522C87.9992 9.27254 86.9707 8.23777 84.8519 7.7914L82.5892 7.34503C81.2933 7.12185 80.8613 6.87837 80.8613 6.41171C80.8613 5.80303 81.4784 5.43781 82.6509 5.43781C83.9057 5.43781 84.8314 5.76245 85.0988 6.89866H87.7318C87.5878 4.78855 86.0039 3.36828 82.8155 3.36828C80.059 3.36828 78.1254 4.46392 78.1254 6.61461C78.1254 8.09574 79.1951 9.04935 81.499 9.51601L84.0086 10.0841C84.9959 10.2667 85.2634 10.5305 85.2634 10.916C85.2634 11.545 84.5023 11.9508 83.3092 11.9508C81.787 11.9508 80.9024 11.6261 80.5733 10.4899H77.8991C78.3106 12.5797 79.9356 14 83.2269 14ZM46.2207 0.0205078H56.1768V2.3538H48.9154V5.70158H55.9917V7.9943H48.9154V11.3826H56.1768V13.7159H46.2207V0.0205078Z" fill="#06C167"/>
<path d="M41.4905 5.49846V3.65212H40.7706C39.6392 3.65212 38.8164 4.15936 38.3021 4.97094V3.73327H36.2862V13.7157H38.3227V8.03465C38.3227 6.49265 39.2895 5.47818 40.6266 5.47818H41.4905V5.49846ZM26.8238 7.81147C27.1941 6.28976 28.4694 5.25499 29.9711 5.25499C31.4727 5.25499 32.7687 6.26947 33.0978 7.81147H26.8238ZM30.0122 3.55067C27.009 3.55067 24.7051 5.92454 24.7051 8.74479C24.7051 11.7274 27.0912 13.9592 30.1974 13.9592C32.0693 13.9592 33.6121 13.1679 34.6406 11.8288L33.1595 10.7737C32.3984 11.7679 31.3699 12.2346 30.1768 12.2346C28.4283 12.2346 27.0501 11.0172 26.7621 9.39405H35.1548V8.74479C35.1754 5.76223 32.9949 3.55067 30.0122 3.55067ZM18.3488 12.2143C16.374 12.2143 14.7901 10.6723 14.7901 8.74479C14.7901 6.81728 16.3946 5.27528 18.3488 5.27528C20.2824 5.27528 21.8869 6.79699 21.8869 8.74479C21.8869 10.6723 20.2824 12.2143 18.3488 12.2143ZM12.7742 13.736H14.7901V12.4781C15.7158 13.4114 17.0323 13.9592 18.4722 13.9592C21.4961 13.9592 23.8822 11.6259 23.8822 8.74479C23.8822 5.84338 21.4961 3.51009 18.4722 3.51009C17.0323 3.51009 15.7364 4.0782 14.8107 4.99122V0H12.7742C12.7742 0.0202895 12.7742 13.736 12.7742 13.736ZM5.59515 12.1129C7.54934 12.1129 9.07155 10.652 9.07155 8.46074V0H11.1903V13.6954H9.09212V12.4578C8.14588 13.4114 6.82938 13.9592 5.34831 13.9592C2.32446 13.9592 0 11.8288 0 8.58247V0H2.13932V8.46074C2.11875 10.6926 3.62039 12.1129 5.59515 12.1129Z" fill="#142328"/>
</svg>
