<svg width="60" height="24" viewBox="0 0 60 24" fill="none" xmlns="http://www.w3.org/2000/svg">
<path d="M59.5034 5.26465H55.995L55.9162 5.49114L52.6702 14.8146L49.587 5.52183L49.5103 5.29057H45.3516L45.5208 5.73058L50.6833 19.4876L50.6009 19.7169C50.2596 20.6897 49.8839 20.9707 48.9266 20.9707H46.9039V23.9997H49.3776C51.7732 23.9997 53.1628 23.0603 54.0239 20.8616L59.829 5.70875L59.9996 5.26465H59.5034Z" fill="#787A7F"/>
<path d="M44.4317 8.29953H44.9157L44.7601 7.86225L43.9168 5.48891L43.8401 5.26447H41.55V0H37.8171V5.26447H35.5664V8.29953H37.8171V15.8903C37.8171 19.087 40.8487 19.087 41.8447 19.087C42.9732 19.087 44.4345 18.9506 44.4976 18.9431L44.811 18.9131V15.835L44.4159 15.8862C43.8296 15.962 43.2387 16 42.647 16.0001H42.6104C41.6876 16.0001 41.5607 15.6454 41.5607 15.2613V8.29953H44.4317Z" fill="#787A7F"/>
<path d="M30.9539 0.0712891H30.6055V0.402834V18.6398V18.9707H30.9539H33.9518H34.2996V18.6398V0.402834V0.0712891H33.9518H30.9539Z" fill="#787A7F"/>
<path d="M28.9025 13.3298V12.8864C28.8904 10.3336 28.1196 8.24272 26.6712 6.83673C25.3805 5.58423 23.5571 4.89453 21.5359 4.89453C17.2796 4.915 14.1914 7.94733 14.1914 12.1039C14.1914 16.2817 17.3176 19.314 21.6262 19.314C21.7058 19.314 21.799 19.3188 21.8922 19.3188C23.3104 19.3175 24.698 18.9265 25.8881 18.1927C27.0782 17.459 28.0202 16.4137 28.6007 15.1827L28.8158 14.729L28.2938 14.716L24.8865 14.6321L24.7008 14.6273L24.5932 14.772C24.2798 15.1942 23.8645 15.5388 23.3822 15.7768C22.8999 16.0148 22.3646 16.1393 21.8212 16.1398C21.771 16.1398 21.7209 16.1398 21.6699 16.1364H21.6284C20.7959 16.1364 19.9908 15.8538 19.358 15.3392C18.7252 14.8247 18.3063 14.1121 18.1766 13.3298H28.9025ZM24.7703 10.554H18.1809C18.3663 9.85155 18.7925 9.22797 19.3923 8.78193C19.992 8.33589 20.7309 8.09285 21.4921 8.09128H21.6176C22.3604 8.0949 23.0793 8.34168 23.6535 8.79016C24.2276 9.23863 24.622 9.86146 24.7703 10.554Z" fill="#787A7F"/>
<path d="M1.66879 5.26465H1.32031V5.59551V7.96817V8.29972H1.66879H12.1208L12.3639 5.26465H1.66879Z" fill="#787A7F"/>
<path d="M6.052 15.9355H2.47693L2.23242 18.9706H12.9454H13.2939V18.6398V16.2664V15.9355H12.9454H6.052Z" fill="#787A7F"/>
<path d="M2.27724 14.6783L12.3654 5.26273C12.6587 5.54726 12.8903 5.88397 13.0469 6.25365C13.2035 6.62333 13.282 7.01873 13.278 7.41728C13.274 7.81584 13.1875 8.20973 13.0235 8.57648C12.8595 8.94323 12.6211 9.27566 12.3221 9.55477L2.23394 18.9703C1.64146 18.3957 1.31317 17.6207 1.32129 16.8158C1.32941 16.0109 1.67328 15.242 2.27724 14.6783Z" fill="#C0C0C0"/>
</svg>
