<svg width="131" height="41" viewBox="0 0 131 41" fill="none" xmlns="http://www.w3.org/2000/svg">
    <path d="M49.864 15.3795C49.6083 15.8121 49.2673 16.1582 48.8411 16.5043C48.4149 16.8504 47.9888 17.11 47.5626 17.3696C47.0511 17.6292 46.5397 17.8888 45.943 17.9753C45.3464 18.1483 44.7497 18.2349 44.153 18.2349C43.2154 18.2349 42.2778 18.0618 41.4254 17.7157C40.573 17.3696 39.8911 16.8504 39.2945 16.2448C38.6978 15.6391 38.1864 14.8603 37.8454 13.9951C37.5045 13.1298 37.334 12.178 37.334 11.2262C37.334 10.2744 37.5045 9.32262 37.8454 8.45736C38.1864 7.59209 38.6126 6.81335 39.2945 6.20767C39.8911 5.60198 40.6583 5.08282 41.4254 4.65019C42.2778 4.30408 43.3007 4.0445 44.2383 4.13103C45.3464 4.13103 46.4545 4.30408 47.4773 4.82324C48.4149 5.25587 49.1821 5.94809 49.7788 6.81335L47.733 8.71694C47.3921 8.19778 46.8807 7.67862 46.284 7.33251C45.7726 6.98641 45.0907 6.81335 44.4087 6.81335C43.8121 6.81335 43.3007 6.89988 42.7892 7.15946C42.363 7.33251 41.9368 7.67862 41.5959 8.11125C41.2549 8.54388 40.9992 8.97652 40.8287 9.49568C40.6583 10.0148 40.573 10.6205 40.573 11.1397C40.573 11.7454 40.6583 12.2645 40.8287 12.7837C40.9992 13.3028 41.2549 13.7355 41.5959 14.0816C41.9368 14.4277 42.363 14.7738 42.7892 14.9469C43.3007 15.2064 43.8121 15.293 44.3235 15.293C44.7497 15.293 45.1759 15.2064 45.6021 15.1199C45.943 15.0334 46.284 14.8603 46.5397 14.6873C46.7954 14.5142 47.0511 14.3412 47.2216 14.0816C47.3921 13.822 47.6478 13.649 47.8183 13.3894L49.864 15.3795Z" fill="white"/>
    <path d="M55.7439 15.6388C56.0848 15.6388 56.4258 15.5522 56.6815 15.4657C56.9372 15.2926 57.1929 15.1196 57.3634 14.86C57.5339 14.6004 57.7044 14.3409 57.7896 14.0813C57.8748 13.7352 57.9601 13.4756 57.9601 13.1295C57.9601 12.7834 57.8748 12.5238 57.7896 12.1777C57.7044 11.9181 57.5339 11.572 57.3634 11.399C57.1929 11.1394 56.9372 10.9663 56.6815 10.7933C56.4258 10.6202 56.0848 10.5337 55.7439 10.6202C55.4029 10.6202 55.062 10.7067 54.8063 10.7933C54.5506 10.9663 54.2948 11.1394 54.1244 11.399C53.9539 11.6585 53.7834 11.9181 53.6982 12.1777C53.6129 12.4373 53.5277 12.7834 53.5277 13.1295C53.5277 13.4756 53.6129 13.7352 53.6982 14.0813C53.7834 14.3409 53.9539 14.687 54.1244 14.86C54.2948 15.1196 54.5506 15.2926 54.8063 15.4657C55.062 15.5522 55.4029 15.6388 55.7439 15.6388ZM50.7148 13.043C50.7148 12.3507 50.8001 11.7451 51.0558 11.0528C51.3115 10.4472 51.6525 9.928 52.0787 9.49537C52.5048 9.06273 53.1015 8.6301 53.6982 8.45705C54.3801 8.19747 55.062 8.02441 55.7439 8.02441C56.4258 8.02441 57.1077 8.11094 57.7896 8.45705C58.3863 8.71663 58.8977 9.06273 59.3239 9.49537C59.7501 9.928 60.091 10.5337 60.3468 11.0528C60.6025 11.6585 60.6877 12.3507 60.6877 13.043C60.6877 13.7352 60.6025 14.4274 60.3468 15.0331C60.091 15.6388 59.7501 16.1579 59.3239 16.5905C58.8977 17.0232 58.3863 17.4558 57.7896 17.7154C57.1077 17.975 56.4258 18.148 55.7439 18.148C55.062 18.148 54.3801 17.975 53.6982 17.7154C53.1015 17.4558 52.5901 17.1097 52.1639 16.5905C51.7377 16.1579 51.3967 15.5522 51.141 15.0331C50.8853 14.4274 50.7148 13.8217 50.7148 13.043Z" fill="white"/>
    <path d="M70.663 16.5909C70.2368 17.0236 69.7254 17.4562 69.1287 17.7158C68.4468 18.0619 67.6797 18.2349 66.9126 18.1484C66.2306 18.1484 65.5487 18.0619 64.8668 17.8023C64.2702 17.5427 63.7587 17.1966 63.3326 16.764C62.9064 16.3314 62.5654 15.7257 62.3097 15.2065C62.054 14.5143 61.9688 13.8221 61.9688 13.1299C61.9688 12.4377 62.054 11.7454 62.3097 11.1398C62.5654 10.5341 62.9064 10.0149 63.3326 9.58228C63.7587 9.14965 64.3554 8.71701 64.9521 8.54396C65.634 8.28438 66.3159 8.11133 66.9978 8.11133C67.7649 8.11133 68.5321 8.28438 69.214 8.54396C69.8107 8.80354 70.3221 9.14965 70.7483 9.66881L69.0435 11.5724C68.7878 11.3128 68.5321 11.1398 68.2764 10.9667C67.9354 10.7937 67.5092 10.6206 67.083 10.7071C66.7421 10.7071 66.4011 10.7937 66.1454 10.8802C65.8897 11.0532 65.634 11.2263 65.4635 11.4859C65.293 11.7454 65.1226 12.005 65.0373 12.2646C64.9521 12.6107 64.8668 12.8703 64.8668 13.2164C64.8668 13.5625 64.9521 13.8221 65.0373 14.1682C65.1226 14.4278 65.293 14.7739 65.4635 14.9469C65.634 15.2065 65.8897 15.3796 66.1454 15.5526C66.4011 15.7257 66.7421 15.8122 67.083 15.8122C67.5092 15.8122 67.9354 15.7257 68.2764 15.5526C68.5321 15.3796 68.873 15.2065 69.0435 14.9469L70.663 16.5909Z" fill="white"/>
    <path d="M77.4823 13.6502C77.3971 13.6502 77.2266 13.5637 77.1413 13.5637C76.9709 13.5637 76.7152 13.5637 76.4594 13.5637C75.8628 13.4772 75.2661 13.6502 74.7547 13.9098C74.4137 14.0828 74.2432 14.5155 74.2432 14.8616C74.2432 15.6403 74.6694 15.9864 75.6071 15.9864C75.8628 15.9864 76.0332 15.9864 76.289 15.8999C76.4594 15.8134 76.7152 15.7268 76.8856 15.5538C77.0561 15.3807 77.2266 15.2077 77.3118 15.0346C77.3971 14.775 77.4823 14.602 77.4823 14.3424V13.6502ZM77.4823 16.9382C77.1413 17.2843 76.7151 17.6304 76.289 17.8035C75.7775 17.9765 75.2661 18.1496 74.6694 18.0631C74.3285 18.0631 73.9875 17.9765 73.6466 17.89C73.3056 17.8035 72.9647 17.6304 72.6237 17.3708C72.2828 17.1113 72.0271 16.8517 71.8566 16.5056C71.6009 16.0729 71.5156 15.5538 71.5156 15.1212C71.5156 14.602 71.6009 14.0828 71.8566 13.6502C72.1123 13.2176 72.368 12.8715 72.7942 12.6119C73.2204 12.3523 73.6466 12.0927 74.158 11.9197C74.7547 11.7466 75.2661 11.6601 75.8628 11.7466C76.2037 11.7466 76.5447 11.7466 76.8856 11.7466C77.1413 11.7466 77.3118 11.7466 77.5675 11.8331V11.6601C77.5675 11.4005 77.5675 11.2275 77.3971 11.0544C77.3118 10.8814 77.1413 10.7083 76.9709 10.6218C76.8004 10.5352 76.6299 10.4487 76.3742 10.3622C76.1185 10.2757 75.948 10.2757 75.6923 10.2757C75.1809 10.2757 74.5842 10.3622 74.0728 10.5352C73.7318 10.7083 73.3056 10.8814 73.0499 11.0544L71.8566 9.32388C72.1123 9.15082 72.2828 8.97777 72.5385 8.89124C72.7942 8.71819 73.1351 8.63166 73.3909 8.45861C73.7318 8.37208 74.158 8.19903 74.5842 8.19903C75.0956 8.1125 75.6071 8.1125 76.0332 8.1125C77.2266 8.02598 78.3347 8.37208 79.1871 9.23735C79.869 10.1026 80.2951 11.2275 80.2099 12.3523V17.89H77.5675L77.4823 16.9382Z" fill="white"/>
    <path d="M89.2432 10.7949H82.9355V13.5638H89.2432V10.7949Z" fill="white"/>
    <path d="M104.077 15.3795C103.821 15.8121 103.48 16.1582 103.054 16.5043C102.628 16.8504 102.202 17.11 101.69 17.3696C101.179 17.6292 100.667 17.8022 100.156 17.9753C99.5593 18.1483 98.9626 18.2349 98.3659 18.2349C97.4283 18.2349 96.4907 18.0618 95.6383 17.7157C94.7859 17.3696 94.104 16.8504 93.5074 16.2448C92.9107 15.6391 92.3993 14.8603 92.0583 13.9951C91.7173 13.1298 91.5469 12.178 91.5469 11.2262C91.5469 10.2744 91.7173 9.32262 92.0583 8.45736C92.3993 7.59209 92.8254 6.81335 93.5074 6.20767C94.104 5.60198 94.8712 5.08282 95.6383 4.65019C96.4907 4.30408 97.5135 4.0445 98.4512 4.13103C99.5593 4.13103 100.667 4.30408 101.69 4.82324C102.628 5.25587 103.395 5.94809 103.992 6.81335L101.946 8.80346C101.605 8.2843 101.094 7.76514 100.497 7.41904C99.9002 7.07293 99.2183 6.89988 98.5364 6.89988C98.025 6.89988 97.4283 6.98641 96.9169 7.24599C96.4907 7.41904 96.0645 7.76514 95.7235 8.19778C95.3826 8.63041 95.1269 9.06304 94.9564 9.5822C94.7859 10.1014 94.7007 10.707 94.7007 11.2262C94.7007 11.8319 94.7859 12.3511 94.9564 12.8702C95.1269 13.3894 95.3826 13.822 95.7235 14.1681C96.0645 14.5142 96.4907 14.8603 96.9169 15.0334C97.4283 15.293 97.9397 15.3795 98.4512 15.3795C98.8774 15.3795 99.3035 15.293 99.7297 15.2064C100.071 15.1199 100.412 14.9469 100.667 14.7738C100.923 14.6007 101.179 14.4277 101.349 14.1681C101.52 13.9085 101.775 13.7355 101.946 13.4759L104.077 15.3795Z" fill="white"/>
    <path d="M109.957 15.6388C110.298 15.6388 110.639 15.5522 110.894 15.4657C111.15 15.2926 111.406 15.1196 111.576 14.86C111.747 14.6004 111.917 14.3409 112.003 14.0813C112.088 13.7352 112.173 13.4756 112.173 13.1295C112.173 12.7834 112.088 12.5238 112.003 12.1777C111.917 11.9181 111.747 11.572 111.576 11.399C111.406 11.1394 111.15 10.9663 110.894 10.7933C110.639 10.6202 110.298 10.5337 109.957 10.6202C109.616 10.6202 109.275 10.7067 109.019 10.7933C108.763 10.9663 108.508 11.1394 108.337 11.399C108.167 11.6585 107.996 11.9181 107.911 12.1777C107.826 12.4373 107.741 12.7834 107.741 13.1295C107.741 13.4756 107.826 13.7352 107.911 14.0813C107.996 14.3409 108.167 14.687 108.337 14.86C108.508 15.1196 108.763 15.2926 109.019 15.4657C109.275 15.5522 109.616 15.6388 109.957 15.6388ZM104.928 13.043C104.928 12.3507 105.013 11.7451 105.269 11.0528C105.524 10.4472 105.865 9.928 106.292 9.49537C106.718 9.06273 107.314 8.6301 107.826 8.45705C108.508 8.19747 109.19 8.02441 109.872 8.02441C110.553 8.02441 111.235 8.11094 111.917 8.45705C112.514 8.71663 113.025 9.06273 113.452 9.49537C113.878 9.928 114.219 10.5337 114.474 11.0528C114.73 11.6585 114.815 12.3507 114.815 13.043C114.815 13.7352 114.73 14.4274 114.474 15.0331C114.219 15.6388 113.878 16.1579 113.452 16.5905C113.025 17.0232 112.514 17.4558 111.917 17.7154C111.235 17.975 110.553 18.148 109.872 18.148C109.19 18.148 108.508 17.975 107.826 17.7154C107.229 17.4558 106.718 17.1097 106.292 16.5905C105.865 16.1579 105.524 15.5522 105.269 15.0331C105.098 14.4274 104.928 13.7352 104.928 13.043Z" fill="white"/>
    <path d="M119.504 4.3916H116.605V17.8897H119.504V4.3916Z" fill="white"/>
    <path d="M127.264 13.6492C127.178 13.6492 127.008 13.5627 126.923 13.5627C126.752 13.5627 126.496 13.5627 126.241 13.5627C125.644 13.4762 125.047 13.6492 124.536 13.9088C124.195 14.0818 124.025 14.5145 124.025 14.8606C124.025 15.6393 124.451 15.9854 125.388 15.9854C125.644 15.9854 125.815 15.9854 126.07 15.8989C126.241 15.8124 126.496 15.7258 126.667 15.5528C126.837 15.3797 127.008 15.2067 127.093 15.0336C127.178 14.7741 127.264 14.601 127.264 14.3414V13.6492ZM127.264 16.9372C126.923 17.2833 126.496 17.6294 126.07 17.8025C125.559 17.9755 125.047 18.1486 124.451 18.0621C124.11 18.0621 123.769 17.9755 123.428 17.889C123.087 17.8025 122.746 17.6294 122.405 17.3698C122.064 17.1103 121.808 16.8507 121.638 16.5046C121.382 16.0719 121.297 15.5528 121.297 15.1202C121.297 14.601 121.382 14.0818 121.638 13.6492C121.894 13.2166 122.149 12.8705 122.575 12.6109C123.002 12.3513 123.428 12.0917 123.939 11.9187C124.536 11.7456 125.047 11.6591 125.644 11.7456C125.985 11.7456 126.326 11.7456 126.667 11.7456C126.923 11.7456 127.093 11.7456 127.349 11.8321V11.6591C127.349 11.3995 127.264 11.2265 127.178 11.0534C127.093 10.8804 126.923 10.7073 126.752 10.6208C126.582 10.5342 126.411 10.4477 126.155 10.3612C125.9 10.2747 125.729 10.2747 125.474 10.2747C124.962 10.2747 124.365 10.3612 123.854 10.5342C123.513 10.7073 123.087 10.8804 122.831 11.0534L121.638 9.32288C121.894 9.14982 122.064 8.97677 122.32 8.89024C122.575 8.71719 122.916 8.63066 123.172 8.45761C123.513 8.37108 123.939 8.19803 124.365 8.19803C124.877 8.1115 125.388 8.1115 125.815 8.1115C127.008 8.02498 128.116 8.45761 128.968 9.23635C129.65 10.1016 130.076 11.2265 129.991 12.3513V17.889H127.349L127.264 16.9372Z" fill="white"/>
    <path d="M25.315 28.9638V28.7042C25.315 28.2716 25.4002 27.9255 25.4002 27.7524C25.4002 27.4063 25.9116 24.0318 25.9969 23.253C26.0821 22.4743 25.9116 22.3012 25.9116 22.3012C26.1674 20.3111 26.0821 18.2345 25.4854 16.2444C25.8264 15.9848 25.1445 14.4273 25.1445 14.4273C24.6331 13.1294 23.9512 11.3123 23.9512 11.3123C23.8659 10.8797 23.6954 10.274 23.6102 9.66834C23.525 8.63003 23.525 7.67823 23.525 7.33213C23.4397 6.98602 23.7807 7.07255 23.7807 6.81297C23.6954 6.46686 23.6102 6.12075 23.4397 5.77465C23.4397 5.68812 23.4397 5.60159 23.4397 5.51507C23.4397 5.42854 23.525 5.42854 23.525 5.34201C23.525 4.99591 23.2693 4.73633 22.9283 4.73633H20.1154C19.7745 4.73633 19.5188 4.99591 19.5188 5.34201C19.604 5.34201 19.604 5.42854 19.604 5.51507C19.604 5.60159 19.604 5.68812 19.604 5.77465C19.5188 6.12075 19.4335 6.46686 19.3483 6.81297C19.3483 7.07255 19.6893 7.07255 19.6893 7.33213C19.6893 7.59171 19.6893 8.71655 19.604 9.66834C19.5188 10.3606 19.3483 10.9662 19.2631 11.3123C19.2631 11.3123 18.5812 13.1294 18.0697 14.4273C18.0697 14.4273 17.3878 15.9848 17.7288 16.2444C17.1321 18.2345 17.0469 20.2246 17.3026 22.2147C17.3026 22.2147 17.1321 22.3878 17.2174 23.1665C17.3026 23.9452 17.814 27.3198 17.814 27.6659C17.814 27.7524 17.814 28.0985 17.8993 28.6177V28.8772C17.8993 30.9539 17.0469 31.9057 17.0469 33.2901C17.0469 35.1072 18.155 35.9724 21.6497 35.9724C25.1445 35.9724 26.2526 35.0206 26.2526 33.2901C26.1674 31.9922 25.315 30.9539 25.315 28.9638Z" fill="white"/>
    <path d="M8.2681 28.9642V28.7046C8.2681 28.2719 8.35333 27.9258 8.35333 27.7528C8.35333 27.4067 8.86476 24.0321 8.95 23.2534C9.03524 22.4747 8.86476 22.3016 8.86476 22.3016C9.12048 20.3115 8.95 18.2349 8.43857 16.2448C8.77953 15.9852 8.09762 14.4277 8.09762 14.4277C7.50095 13.1298 6.81905 11.3127 6.81905 11.3127C6.73381 10.8801 6.56333 10.2744 6.4781 9.66873C6.39286 8.63041 6.39286 7.59209 6.39286 7.33251C6.39286 6.98641 6.73381 7.07293 6.73381 6.81335C6.64857 6.46725 6.56333 6.20767 6.39286 5.86156C6.39286 5.77503 6.39286 5.68851 6.39286 5.60198C6.39286 5.51546 6.4781 5.51545 6.4781 5.42893C6.4781 5.08282 6.22238 4.82324 5.88143 4.82324H3.06857C2.72762 4.90977 2.47191 5.16935 2.47191 5.51546C2.47191 5.51546 2.55714 5.60198 2.55714 5.68851C2.55714 5.77503 2.55714 5.86156 2.55714 5.94809C2.47191 6.20767 2.30143 6.55377 2.30143 6.81335C2.30143 7.07293 2.64238 7.07293 2.64238 7.33251C2.64238 7.59209 2.64238 8.71694 2.55714 9.66873C2.47191 10.3609 2.30143 10.8801 2.21619 11.3127C2.21619 11.3127 1.53429 13.1298 1.02286 14.4277C1.02286 14.4277 0.340952 15.9852 0.681905 16.2448C0.0852381 18.2349 0 20.225 0.255714 22.3016C0.255714 22.3016 0.0852381 22.4747 0.170476 23.2534C0.255714 24.0321 0.767143 27.4067 0.767143 27.7528C0.767143 27.8393 0.767143 28.1854 0.852381 28.7046V28.9642C0.852381 30.9543 0 31.9926 0 33.2905C0 35.1076 1.1081 35.9728 4.60286 35.9728C8.09762 35.9728 9.20572 35.021 9.20572 33.2905C9.12048 31.9926 8.2681 30.9543 8.2681 28.9642Z" fill="white"/>
    <path d="M17.8995 31.1275C17.8995 31.041 17.8995 30.8679 17.8995 30.7814C17.8995 30.1757 17.9847 29.7431 17.9847 29.57C17.9847 29.1374 18.6666 24.7245 18.8371 23.7727C19.0076 22.8209 18.6666 22.5614 18.6666 22.5614C19.0076 19.9656 18.8371 17.2832 18.0699 14.774C18.4961 14.4279 17.5585 12.4378 17.5585 12.4378C16.8766 10.7937 16.1095 8.45753 16.1095 8.45753C15.939 7.93837 15.7685 7.15963 15.6833 6.29437C15.598 4.99647 15.598 3.69857 15.598 3.26594C15.598 2.8333 16.0242 2.91983 16.0242 2.66025C15.939 2.22762 15.7685 1.79498 15.598 1.36235C15.598 1.27583 15.598 1.1893 15.598 1.10277C15.598 1.01625 15.6833 1.01625 15.6833 0.929719C15.6833 0.497086 15.2571 0.0644531 14.8309 0.0644531H11.1656C10.7395 0.0644531 10.3985 0.410559 10.3985 0.843192C10.4837 0.929719 10.4837 0.929719 10.4837 1.01625C10.4837 1.10277 10.4837 1.1893 10.4837 1.27583C10.3985 1.79498 10.228 2.22762 10.1428 2.66025C10.1428 2.91983 10.569 2.91983 10.569 3.26594C10.569 3.61204 10.569 4.99647 10.4837 6.29437C10.3133 7.15963 10.1428 7.93837 10.0576 8.45753C10.0576 8.45753 9.20517 10.7937 8.52327 12.4378C8.52327 12.4378 7.58565 14.4279 8.01184 14.774C7.2447 17.2832 7.07422 19.9656 7.41517 22.5614C7.41517 22.5614 7.15946 22.8209 7.2447 23.7727C7.32993 24.7245 8.09708 29.1374 8.09708 29.57C8.09708 29.7431 8.18231 30.1757 8.18231 30.7814V31.214C8.18231 33.8963 7.07422 35.1942 7.07422 36.9248C7.07422 39.261 8.52327 40.3858 13.0409 40.3858C17.5585 40.3858 19.0076 39.1745 19.0076 36.9248C19.0076 35.1942 17.8995 33.8963 17.8995 31.214" fill="white"/>
    <path d="M37.9316 23.2539H40.915V28.4455H46.6259V23.2539H49.6093V36.6655H46.6259V31.1278H40.915V36.6655H37.9316V23.2539Z" fill="white"/>
    <path d="M52.1685 23.2539H57.1123C57.7942 23.2539 58.5614 23.3404 59.1581 23.5135C59.6695 23.6865 60.0957 23.9461 60.5219 24.2922C60.8628 24.5518 61.1185 24.9844 61.289 25.4171C61.4595 25.8497 61.5447 26.2823 61.5447 26.715C61.5447 27.1476 61.4595 27.4937 61.289 27.8398C61.1185 28.1859 60.9481 28.4455 60.7776 28.7051C60.6071 28.9647 60.3514 29.1377 60.0957 29.2242C59.9252 29.3108 59.7547 29.3973 59.499 29.4838C59.7547 29.5703 60.0104 29.6569 60.2661 29.7434C60.6071 29.9165 60.8628 30.0895 61.1185 30.3491C61.3742 30.6087 61.63 30.9548 61.8004 31.3009C61.9709 31.7335 62.1414 32.2527 62.0561 32.6853C62.0561 33.291 61.9709 33.8967 61.7152 34.4158C61.4595 34.935 61.1185 35.2811 60.6923 35.6272C60.1809 35.9733 59.6695 36.1464 59.0728 36.3194C58.3909 36.4925 57.6238 36.4925 56.9419 36.4925H51.998V23.2539H52.1685ZM56.8566 28.6186C57.1123 28.6186 57.2828 28.6186 57.5385 28.532C57.709 28.4455 57.9647 28.359 58.1352 28.2724C58.3057 28.1859 58.4761 28.0129 58.5614 27.8398C58.6466 27.5802 58.7319 27.4072 58.7319 27.1476C58.7319 26.888 58.6466 26.6284 58.5614 26.4554C58.4761 26.2823 58.3057 26.1093 58.1352 26.0228C57.9647 25.9362 57.7942 25.8497 57.5385 25.7632C57.368 25.6767 57.1123 25.6767 56.8566 25.6767H55.0666V28.6186H56.8566ZM57.0271 34.3293C57.2828 34.3293 57.5385 34.3293 57.709 34.2428C57.9647 34.2428 58.2204 34.1563 58.4761 33.9832C58.7319 33.8967 58.9023 33.6371 59.0728 33.464C59.2433 33.2045 59.3285 32.8584 59.3285 32.5123C59.3285 32.1661 59.2433 31.9066 59.1581 31.647C58.9876 31.3874 58.8171 31.2144 58.5614 31.1278C58.3057 31.0413 58.05 30.9548 57.7942 30.8682C57.5385 30.8682 57.2828 30.7817 57.0271 30.7817H55.1519V34.2428L57.0271 34.3293Z" fill="white"/>
    <path d="M76.2892 34.1568C76.0335 34.5895 75.6925 34.9356 75.2664 35.1951C74.8402 35.5413 74.414 35.8008 73.9025 36.0604C73.3911 36.32 72.8797 36.493 72.3683 36.6661C71.7716 36.8392 71.2602 36.9257 70.6635 36.9257C69.7259 36.9257 68.7883 36.7526 67.9359 36.4065C67.1687 36.0604 66.4016 35.5413 65.8049 34.9356C65.2083 34.3299 64.6968 33.5511 64.4411 32.6859C64.1002 31.8206 63.9297 30.8688 63.9297 29.917C63.9297 28.9652 64.1002 28.0134 64.4411 27.1482C64.7821 26.2829 65.2083 25.5042 65.8049 24.8985C66.4016 24.2928 67.1687 23.7736 67.9359 23.4275C68.7883 23.0814 69.7259 22.8218 70.7487 22.9084C71.8568 22.9084 72.9649 23.0814 73.9878 23.6006C74.9254 24.0332 75.6925 24.7254 76.2892 25.5907L74.2435 27.5808C73.9025 27.0616 73.3911 26.5425 72.7945 26.1964C72.1978 25.8503 71.5159 25.6772 70.834 25.6772C70.3225 25.6772 69.7259 25.7637 69.2145 26.0233C68.7883 26.1964 68.3621 26.5425 68.0211 26.9751C67.6802 27.4078 67.4245 27.8404 67.254 28.3595C67.0835 28.8787 66.9983 29.3979 66.9983 30.0036C66.9983 30.6092 67.0835 31.1284 67.254 31.6476C67.4245 32.1667 67.6802 32.5994 68.0211 32.9455C68.3621 33.2916 68.7883 33.6377 69.2145 33.8107C69.7259 34.0703 70.2373 34.1568 70.7487 34.1568C71.1749 34.1568 71.6011 34.0703 72.0273 33.9838C72.3683 33.8973 72.624 33.7242 72.9649 33.5511C73.2206 33.3781 73.4764 33.205 73.6468 32.9455C73.9025 32.6859 74.073 32.5128 74.2435 32.2532L76.2892 34.1568Z" fill="white"/>
</svg>
