<svg width="96" height="56" viewBox="0 0 96 56" fill="none" xmlns="http://www.w3.org/2000/svg">
<path fill-rule="evenodd" clip-rule="evenodd" d="M48.599 6.74802C49.112 5.89433 49.2332 5.13199 48.9312 4.39975C48.6591 3.97316 48.3874 3.79048 48.146 3.8512C47.935 3.88233 47.7537 4.0645 47.5729 4.39975C47.331 5.13199 47.482 5.98567 48.0854 6.90008C48.2369 7.02255 48.448 6.96131 48.599 6.74802ZM49.112 50.1074L48.9918 48.9802C48.8706 48.5526 48.6596 48.3087 48.3278 48.1867C48.1768 48.2474 47.996 48.4607 47.7845 48.7965C47.4527 49.8033 47.483 50.5952 47.9658 51.1744L48.5995 51.2055C48.7807 51.1136 48.9014 50.9611 48.9918 50.7483L49.112 50.1074Z" fill="white"/>
<path fill-rule="evenodd" clip-rule="evenodd" d="M11.6371 26.1117V22.2086H8.89062V32.362H11.6371V28.4283H14.3825V32.362H17.1285V22.2086H14.3825V26.1117H11.6371ZM19.9648 24.8309C20.3874 24.8309 20.749 24.709 21.0206 24.4651C21.3226 24.1905 21.4433 23.8854 21.4433 23.5195C21.4433 23.1843 21.3226 22.8791 21.0206 22.6046C20.7295 22.3448 20.3532 22.2035 19.9648 22.2081C19.5724 22.2081 19.2407 22.3607 18.9387 22.6046C18.6671 22.8791 18.5166 23.1843 18.5166 23.5195C18.5166 23.8854 18.6676 24.19 18.9387 24.4651C19.2271 24.706 19.5907 24.8356 19.9648 24.8309ZM23.5252 22.2086C23.1031 22.2086 22.7708 22.3612 22.4992 22.6051C22.1972 22.8796 22.0467 23.1848 22.0467 23.52C22.0467 23.8859 22.1977 24.1905 22.4992 24.4656C22.7708 24.7095 23.1026 24.8314 23.5252 24.8314C23.9171 24.8314 24.2498 24.7095 24.5513 24.4656C24.823 24.191 24.9734 23.8859 24.9734 23.52C24.9734 23.1848 24.823 22.8796 24.5513 22.6051C24.2498 22.3612 23.9171 22.2086 23.5252 22.2086ZM58.7988 27.1782H56.2342V29.3744H58.7988V27.1782ZM22.4694 25.5014L22.3487 25.928C22.0617 25.6908 21.7185 25.5332 21.3529 25.4708L20.7798 25.4101C19.8138 25.4101 19.0296 25.7754 18.3959 26.447C17.7925 27.1174 17.491 27.941 17.491 28.9463C17.491 29.9229 17.7627 30.7154 18.2757 31.3859C18.8488 32.1186 19.6638 32.5141 20.7495 32.5141L21.3534 32.4534C21.8059 32.3926 22.1982 32.2089 22.5603 31.9349L22.6809 32.3615H24.9138V25.5014H22.4694ZM21.3529 27.6359C21.715 27.6359 21.9866 27.7573 22.1977 28.0017C22.379 28.2462 22.4694 28.5809 22.4694 29.0085C22.4694 29.4657 22.379 29.801 22.1674 30.0449C21.9866 30.2893 21.6847 30.4107 21.3529 30.4107C21.0212 30.4107 20.749 30.2893 20.5384 30.0449C20.3268 29.8005 20.2365 29.4657 20.2365 29.0085C20.2365 28.5809 20.3571 28.2462 20.5682 28.0017C20.7793 27.7573 21.0206 27.6359 21.3529 27.6359ZM36.9828 25.4713L36.4096 25.4106C35.6249 25.4106 34.9306 25.6846 34.3272 26.1724C33.543 26.8429 33.1805 27.7885 33.1805 29.0085C33.1805 30.2582 33.5728 31.2042 34.3272 31.8441C34.9008 32.3013 35.5341 32.5457 36.2885 32.5457L36.9823 32.5146C37.4655 32.4227 37.7973 32.2712 38.0083 32.0574V32.4233C38.0083 33.0642 37.6766 33.4606 36.9823 33.6132L36.2885 33.6739L34.9003 33.5214L34.2666 33.3081V35.2895C34.9301 35.5645 35.8052 35.6859 36.8914 35.6859H36.9818C37.9477 35.6859 38.7319 35.4415 39.396 34.9843C40.2109 34.4052 40.6331 33.5821 40.6331 32.4227V25.5014H38.1891L38.0078 25.9586C37.723 25.6948 37.3655 25.5249 36.9828 25.4713ZM36.9828 30.3796C36.8316 30.3826 36.6815 30.3544 36.5415 30.2969C36.4014 30.2393 36.2745 30.1536 36.1683 30.0449C35.9572 29.8005 35.8365 29.4351 35.8365 29.0085C35.8365 28.5809 35.9572 28.2462 36.1986 27.9711C36.4399 27.7578 36.6813 27.667 36.9828 27.667C37.7372 27.667 38.0992 28.0936 38.0992 29.0085C38.0992 29.4657 38.0088 29.801 37.7978 30.0449C37.6165 30.2893 37.3453 30.3796 36.9828 30.3796ZM44.5263 25.4106C43.5305 25.4106 42.716 25.6846 42.0818 26.2944C41.3577 26.9348 40.9956 27.8196 40.9956 28.9774C40.9956 29.9234 41.3279 30.6848 41.9616 31.3257C42.5953 31.9354 43.4401 32.3013 44.5263 32.4227L45.2807 32.4845C46.2164 32.4845 47.0309 32.3013 47.7545 31.965V30.1051C46.9698 30.4409 46.276 30.6235 45.6725 30.6235C45.1595 30.6235 44.7677 30.5628 44.5258 30.3791L44.2839 30.1658L48.267 28.8861C48.2367 27.9094 47.9352 27.1476 47.4222 26.5373C46.7284 25.7744 45.7927 25.4096 44.5556 25.4096H44.5263V25.4106ZM43.5608 28.5508C43.4401 28.1849 43.5007 27.8793 43.7113 27.6053C43.9224 27.3915 44.1945 27.2695 44.5263 27.2394C45.009 27.2394 45.3408 27.4522 45.5221 27.9099L43.5608 28.5508ZM54.5744 26.0199C54.1219 25.5928 53.5488 25.4106 52.8838 25.4106C52.0092 25.4106 51.3452 25.5928 50.863 25.9897L50.6817 25.5019H48.5392V32.3625H51.1038V28.1854C51.1038 27.6971 51.376 27.4527 51.9491 27.4527C52.2203 27.4527 52.4324 27.5139 52.6126 27.6971C52.7939 27.8793 52.9146 28.1543 52.9146 28.4595V32.362H55.3586V27.8793C55.3586 27.0873 55.0874 26.447 54.5744 26.0199ZM76.3606 27.4838H78.7137L76.1789 32.362H82.0924V30.4419H79.9812L82.5155 25.5014H76.3606V27.4838Z" fill="white"/>
<path fill-rule="evenodd" clip-rule="evenodd" d="M87.5212 25.7444C86.9481 25.5005 86.1326 25.379 85.047 25.379C84.2926 25.379 83.6594 25.5612 83.116 25.8969C82.4818 26.324 82.1505 26.9032 82.1505 27.666C82.1505 28.2141 82.3308 28.6718 82.6328 29.0076C82.9049 29.251 83.2963 29.4949 83.8704 29.6781L84.7748 29.9225C85.1379 30.0439 85.3181 30.1659 85.3181 30.3179C85.3181 30.5624 85.0162 30.6838 84.3829 30.6838C83.6952 30.6894 83.0182 30.5105 82.4212 30.1654V32.2085L84.6844 32.5136C85.559 32.5136 86.2831 32.3611 86.8865 32.0263C87.701 31.5691 88.0939 30.8675 88.0939 29.8913C88.0939 28.9152 87.4304 28.2758 86.072 27.9697L85.1369 27.7875C84.8647 27.7268 84.7445 27.6349 84.7445 27.5431C84.7445 27.2992 85.1066 27.1471 85.8302 27.1471C86.3735 27.1471 86.9168 27.2685 87.5207 27.5125L87.5212 25.7444ZM68.4208 27.2083C68.4208 25.7143 68.0285 24.5243 67.2135 23.6099C66.4601 22.7261 65.4037 22.2689 64.0752 22.2383H59.7603V32.3616L64.0752 32.3008C65.5239 32.1187 66.6101 31.5691 67.3645 30.6843C68.0588 29.8 68.4208 28.6407 68.4208 27.2083ZM62.6275 24.4335H63.3208L64.0752 24.5559C64.5882 24.7386 64.9806 25.1045 65.2219 25.6836C65.433 26.1107 65.5239 26.6292 65.5239 27.2083C65.5239 28.7024 65.0407 29.6163 64.0752 29.9832L63.2006 30.1046H62.6275V24.4335ZM72.3736 25.4703L71.8005 25.4096C70.8042 25.4096 70.0195 25.775 69.4166 26.4465C68.8132 27.117 68.5112 27.9406 68.5112 28.9458C68.5112 29.9225 68.7531 30.7149 69.2656 31.3854C69.8387 32.1182 70.684 32.5136 71.7697 32.5136L72.3731 32.4529C72.8041 32.3896 73.2105 32.2106 73.5497 31.9345L73.7006 32.3611H75.9335V25.5005H73.4896L73.3386 25.927C73.0594 25.6963 72.7278 25.5393 72.3736 25.4703ZM73.4901 29.0076C73.4901 29.4648 73.3699 29.8 73.1881 30.0439C72.977 30.2883 72.7049 30.4098 72.3736 30.4098C72.0116 30.4098 71.7404 30.2883 71.5591 30.0439C71.348 29.7995 71.2269 29.4648 71.2269 29.0076C71.2269 28.5799 71.348 28.2452 71.5591 28.0008C71.7702 27.7564 72.0424 27.6349 72.3736 27.6349C73.0977 27.6349 73.4901 28.0926 73.4901 29.0076ZM29.1944 25.4703L28.6213 25.4096C27.6553 25.4096 26.8408 25.775 26.2374 26.4465C25.634 27.1165 25.332 27.9401 25.332 28.9458C25.332 29.9225 25.5734 30.7149 26.0864 31.3854C26.6899 32.1182 27.5049 32.5136 28.5905 32.5136L29.1939 32.4529C29.6268 32.3955 30.0348 32.2158 30.371 31.9345L30.5215 32.3611H32.7847V25.5005H30.3104L30.1897 25.927C29.8584 25.6836 29.5267 25.5311 29.1944 25.4703ZM30.3109 29.0076C30.3109 29.4648 30.22 29.8 30.0089 30.0439C29.8281 30.2883 29.5262 30.4098 29.1944 30.4098C28.8627 30.4098 28.591 30.2883 28.3799 30.0439C28.1689 29.7995 28.0482 29.4648 28.0482 29.0076C28.0482 28.5799 28.1689 28.2452 28.4102 28.0008C28.6213 27.7564 28.8627 27.6349 29.1944 27.6349C29.5565 27.6349 29.8281 27.7564 30.0089 28.0008C30.2205 28.2452 30.3109 28.5799 30.3109 29.0076ZM86.7668 33.002L86.525 32.8188L86.223 32.7877H86.1932L85.921 32.8188L85.6792 33.002L85.4989 33.276L85.4388 33.5811L85.4989 33.8245L85.6792 34.0996L85.921 34.2521L86.1932 34.344H86.223L86.4942 34.2521L86.736 34.0996L86.9173 33.8551L86.9774 33.5811L86.9173 33.276L86.7668 33.002ZM86.4346 32.9708L86.6467 33.1234L86.7966 33.3066L86.8577 33.5806L86.7966 33.7939L86.6467 33.9771L86.4346 34.1297L86.2235 34.1904H86.1937L85.9816 34.1297L85.7706 33.9771L85.6504 33.7638C85.6196 33.7327 85.5903 33.672 85.5903 33.5806L85.6504 33.3066L85.7706 33.1234L85.9816 32.9708L86.1937 32.9101H86.2235L86.4346 32.9708Z" fill="white"/>
<path fill-rule="evenodd" clip-rule="evenodd" d="M86.2238 33.123H85.8926V33.9461H86.1036V33.6114H86.1945L86.3455 33.9461H86.5864L86.4061 33.5803L86.5263 33.4884L86.5864 33.3358L86.4955 33.1537L86.2238 33.123ZM86.1036 33.2756H86.3147L86.3455 33.3675L86.3147 33.4282L86.2238 33.4593H86.1036V33.2756Z" fill="white"/>
<path d="M63.9766 4.96814L64.2218 5.25447L64.5906 5.17632C67.2645 4.60968 69.0017 4.86191 69.9791 5.632L69.9904 5.64095L70.0022 5.64937L71.8511 6.97438L72.0751 7.13488L72.3453 7.08095C74.9001 6.571 76.7682 7.08779 78.0909 8.46848L79.1463 9.83565L79.3538 10.1044L79.6925 10.0811C82.5213 9.88653 84.2534 10.6364 85.1898 12.1202L85.8524 13.2588C85.8531 13.26 85.8538 13.2612 85.8545 13.2624C86.1681 13.816 86.5797 14.2373 87.1287 14.4034L87.138 14.4062L87.1474 14.4087C89.5969 15.0687 90.8445 16.0682 91.2466 17.2551C91.247 17.2565 91.2475 17.258 91.248 17.2594L91.9853 19.56L92.0359 19.7179L92.1573 19.8309C93.4401 21.0255 94.219 21.8553 94.5715 22.4197L94.5792 22.432L94.5874 22.4439C95.2742 23.4393 95.4884 24.4143 95.2993 25.369L94.6311 27.8631L94.579 28.0578L94.6486 28.2469C95.6059 30.8461 95.4694 32.4849 94.6878 33.432L94.666 33.4585L94.6472 33.4871C94.4118 33.8446 94.0794 34.2443 93.5812 34.685L93.5749 34.6907L92.2299 35.9128L92.0825 36.0469L92.038 36.2411C91.741 37.5385 91.4225 38.4579 91.0941 39.0628C90.5456 40.0156 89.9192 40.5599 89.1387 40.8054L89.125 40.8097L89.1116 40.8146L86.6911 41.6974L86.4604 41.7815L86.3463 41.9991C85.7617 43.1141 85.2186 43.8862 84.787 44.3857C84.081 45.159 83.3738 45.558 82.6693 45.6374L82.668 45.6376L81.2253 45.8034H79.6816H79.2812L79.1086 46.1647C78.6969 47.0267 78.0485 47.7171 77.1735 48.2358L77.1735 48.2357L77.1654 48.2407C76.3218 48.7581 75.4346 49.0255 74.4945 49.0297L72.2327 48.8616L71.9757 48.8425L71.7781 49.0078C70.8209 49.8087 70.0806 50.3264 69.5889 50.606C68.7837 51.0578 68.0086 51.2257 67.2143 51.1397C67.2138 51.1397 67.2134 51.1396 67.213 51.1396L64.4926 50.8345L64.1778 50.7993L63.9603 51.0295C62.7523 52.308 61.2043 52.7746 59.1721 52.3722C58.6031 52.2497 57.9239 52.0029 57.2 51.6221L55.1603 50.4393L55.1603 50.4393L55.1543 50.4359C53.4268 49.4591 51.8295 48.9572 50.4202 49.0293C49.8011 49.0348 49.3166 49.3194 48.9757 49.8123L48.7372 50.1571L48.9606 50.5118C49.3919 51.1969 49.6531 51.8556 49.741 52.5923L49.7418 52.5995L49.7429 52.6067C49.8632 53.4512 49.733 54.0941 49.4094 54.573L49.3969 54.5915L49.3857 54.6109C49.1972 54.9372 48.9932 55.1273 48.7843 55.2343C48.5827 55.3375 48.3276 55.3884 47.9878 55.3547C47.6264 55.2714 47.3446 55.1243 47.1315 54.8657L47.123 54.8553L47.114 54.8453C46.855 54.5569 46.6945 54.2416 46.5815 53.8443C46.3045 52.8009 46.5088 51.7273 47.2789 50.5137L47.4574 50.2325L47.3274 49.9258C47.1341 49.4697 46.7425 49.1791 46.2297 49.0758L46.2015 49.0702L46.1729 49.067L45.2312 48.9647L45.16 48.957L45.0888 48.9653C44.1151 49.0793 43.0299 49.4515 41.9046 50.0558L41.9045 50.0557L41.8948 50.0611L39.1199 51.6147C38.0509 52.1378 37.1814 52.4459 36.4338 52.5678C35.5142 52.6823 34.6164 52.5146 33.66 52.0072L32.0412 50.9049L31.7931 50.736L31.5051 50.8204C30.3038 51.1727 29.1805 51.2646 28.1295 51.1393C26.8707 50.9837 25.9526 50.5295 25.3046 49.7894L25.2657 49.745L25.2194 49.7085L24.3115 48.9945L24.0833 48.8151L23.7982 48.8703C21.4911 49.317 19.7202 48.959 18.3597 47.899C17.8682 47.3968 17.3984 46.7959 16.9538 46.1209L16.7436 45.8018L16.3633 45.8381C13.6544 46.0962 11.9104 45.3855 10.9076 43.9536L10.1918 42.7364C9.865 42.0884 9.36124 41.6171 8.65603 41.5007C6.6143 40.9471 5.45336 40.113 4.93114 39.1016C4.71504 38.5943 4.42447 37.688 4.02368 36.3374L3.96955 36.155L3.82402 36.0324C2.62366 35.0213 1.80845 34.1868 1.39089 33.5529L1.3882 33.5489C0.705781 32.5297 0.514918 31.5875 0.703884 30.592L1.22835 28.9028C1.49769 28.1198 1.49661 27.338 1.04635 26.6609C0.711439 25.9055 0.599662 25.1231 0.716667 24.2366L0.717006 24.234C0.835123 23.3091 1.18142 22.5939 1.74504 22.0224L3.82512 19.9885L3.93478 19.8813L3.98341 19.7358L4.81424 17.2508C5.16136 16.4739 5.63375 15.9109 6.20106 15.514L9.35938 14.2838L9.59263 14.1929L9.70114 13.9674C10.2117 12.9058 10.8374 12.0276 11.6018 11.3477L11.6018 11.3478L11.6062 11.3438C12.4868 10.5459 13.4089 10.1887 14.2858 10.217L14.3015 10.2175L14.3172 10.2172L16.3337 10.1826L16.6819 10.1766L16.864 9.87986C17.4305 8.95694 18.1009 8.23026 18.9258 7.75392L18.9332 7.74967L18.9404 7.74523C19.7781 7.23119 20.6974 6.96029 21.6759 6.95573L23.734 7.12353L23.964 7.14228L24.1523 7.00905L26.4775 5.36431C27.2728 4.92409 28.0363 4.76302 28.7818 4.84528L31.4285 5.21692L31.6962 5.25452L31.9089 5.08754C32.7608 4.41869 33.6316 3.94977 34.5202 3.66931C35.5171 3.39584 36.4631 3.40041 37.3396 3.66478C37.9849 3.88457 38.6093 4.16284 39.2052 4.49622C39.2057 4.4965 39.2062 4.49677 39.2066 4.49704L41.118 5.58157C41.1183 5.58173 41.1186 5.58188 41.1188 5.58204C42.7194 6.49718 44.2003 6.9855 45.5155 7.02361L45.5949 7.02592L45.6724 7.00859L46.2777 6.8733L46.2859 6.87146L46.2941 6.86941C46.7135 6.76389 47.0285 6.53118 47.2229 6.20376L47.414 5.88187L47.2249 5.55879C46.4121 4.17025 46.2115 3.00198 46.5058 1.97317C46.6379 1.63381 46.8294 1.32168 47.071 1.05171C47.3529 0.769887 47.615 0.657471 47.8296 0.637263C48.2888 0.615098 48.6855 0.755645 48.9911 1.00456C49.594 1.68535 49.8455 2.55018 49.6518 3.63796C49.469 4.33903 49.1962 4.92261 48.8844 5.45848L48.7056 5.76579L48.8741 6.07885C49.2537 6.78382 50.0942 6.99034 50.9452 6.99034H50.9574L50.9696 6.98988C51.9563 6.95202 52.9484 6.64705 53.9637 6.18677L53.9909 6.17445L54.0168 6.15964L56.5711 4.69877L56.5714 4.69861C57.5492 4.13874 58.3365 3.79325 59.0044 3.60769C59.8772 3.396 60.7716 3.39843 61.6326 3.63879L61.6446 3.64215L61.6568 3.64503C62.6907 3.89027 63.4379 4.33898 63.9766 4.96814Z" stroke="white" stroke-width="1.26997"/>
</svg>
