<svg width="130" height="33" viewBox="0 0 130 33" fill="none" xmlns="http://www.w3.org/2000/svg">
    <path d="M114.715 9.61664C114.715 9.03942 114.225 8.57073 113.614 8.57073H111.981C111.37 8.57073 110.88 9.03942 110.88 9.61664V25.7591C110.88 26.3363 111.37 26.805 111.981 26.805H113.614C114.225 26.805 114.715 26.3363 114.715 25.7591V9.61664ZM116.798 10.0459V10.8105C116.798 11.1263 117.074 11.3828 117.408 11.3828H128.675C129.187 11.3828 129.604 10.9931 129.604 10.5047V9.20716C129.604 8.71874 129.181 8.27966 128.67 8.32899C128.67 8.32899 117.779 9.34036 117.429 9.37489C117.027 9.42423 116.798 9.73011 116.798 10.0459ZM107.676 26.8099C104.873 26.8099 103.109 24.802 103.109 22.5622V16.1042H102.306C101.878 16.1042 101.533 15.7786 101.533 15.374V14.2936C101.533 13.8891 101.883 13.5634 102.311 13.5634H103.109V9.59197C103.109 9.02955 103.589 8.57567 104.184 8.57567H105.776C106.371 8.57567 106.851 9.03448 106.851 9.5969V13.5634H109.335C109.763 13.5634 110.113 13.8891 110.113 14.2936V15.374C110.113 15.7786 109.768 16.1042 109.34 16.1042H106.856V22.0787C106.856 23.2529 107.608 24.0521 108.954 24.0521H109.178C109.643 24.0521 110.019 24.4073 110.019 24.8464V26.0205C110.019 26.4596 109.643 26.8148 109.178 26.8148L107.676 26.8099ZM81.4364 15.8625C83.1116 15.8625 84.5519 16.9873 84.6981 18.5068H78.2009C78.3418 16.9873 79.7613 15.8625 81.4364 15.8625V13.0997C76.9067 13.0997 74.3652 16.4495 74.3652 19.9819C74.3652 23.7462 77.0841 27.0615 81.4677 27.0615C84.4632 27.0615 87.4222 25.5667 87.9753 23.1147C88.0484 22.7842 87.8136 22.35 87.323 22.35H85.1834C84.792 22.35 84.4736 22.5276 84.2858 22.794C83.6752 23.6426 82.7724 24.0965 81.4469 24.0965C79.5682 24.0965 78.2687 22.7003 78.1748 21.1512H87.2813C88.1214 21.1512 88.4972 20.722 88.4972 19.9869C88.4972 16.5433 86.3419 13.1046 81.4416 13.1046L81.4364 15.8625ZM122.94 15.8625C124.61 15.8625 126.055 16.9873 126.202 18.5068H119.704C119.845 16.9873 121.265 15.8625 122.94 15.8625V13.0997C118.41 13.0997 115.869 16.4495 115.869 19.9819C115.869 23.7462 118.593 27.0615 122.971 27.0615C125.967 27.0615 128.92 25.5667 129.479 23.1147C129.552 22.7842 129.317 22.35 128.826 22.35H126.687C126.301 22.35 125.982 22.5276 125.789 22.794C125.179 23.6426 124.281 24.0965 122.95 24.0965C121.077 24.0965 119.772 22.7003 119.673 21.1512H128.785C129.625 21.1512 130.001 20.722 130.001 19.9869C130.001 16.5433 127.845 13.1046 122.945 13.1046L122.94 15.8625Z" fill="white"/>
    <path d="M100.045 8.75319H70.5445C69.8713 8.75319 69.3338 9.26628 69.3338 9.9027L69.4329 20.8551C69.4329 20.8551 63.0767 10.0014 62.7427 9.44388C62.4296 8.92587 61.7616 8.44238 60.8379 8.44238H58.4112C57.7433 8.44238 57.1953 8.95547 57.1953 9.59189V25.6554C57.1953 26.2869 57.738 26.8049 58.4112 26.8049H59.9664C60.6396 26.8049 61.1823 26.2869 61.1823 25.6554L61.0832 14.3922C61.0832 14.3922 67.502 25.3594 67.7734 25.7886C68.1439 26.3707 68.7702 26.8049 69.6782 26.8049H71.9065C72.5797 26.8049 73.1225 26.2869 73.1225 25.6554V11.4716H100.05C100.51 11.4716 100.88 11.1213 100.88 10.6871V9.52775C100.875 9.10347 100.504 8.75319 100.045 8.75319Z" fill="white"/>
    <path d="M95.2706 15.7282C96.5544 15.7282 97.5146 16.1673 97.859 16.9271C98.026 17.2922 98.3444 17.3612 98.7879 17.3612H100.552C100.844 17.3612 101.178 17.1244 101.178 16.7643C101.178 14.8254 98.7358 13.0937 95.2706 13.0937C91.6854 13.0937 89.3371 14.707 89.3371 17.2774C89.3371 19.2458 90.9809 20.4151 93.0005 20.9134C93.919 21.1403 95.495 21.5103 96.2569 21.6978C97.0815 21.905 97.8225 22.1418 97.8225 22.8078C97.8225 23.8636 96.6483 24.2237 95.3593 24.2237C94.1434 24.2237 92.9275 23.7107 92.583 22.8917C92.3795 22.4181 92.0299 22.349 91.4924 22.349H89.7024C89.3893 22.349 89.0292 22.6055 89.0292 22.9904V23.2074C89.0292 25.0822 91.6907 27.0506 95.3646 27.0506C97.9686 27.0506 101.596 26.0294 101.596 22.724C101.596 20.8098 100.244 19.4876 98.0417 18.9597C97.1806 18.7525 95.1088 18.2542 94.66 18.1457C93.8564 17.9483 93.1101 17.7016 93.1101 17.0554C93.1049 16.0637 94.0703 15.7282 95.2706 15.7282ZM29.9599 5.04227C30.2887 5.04227 30.5496 4.79066 30.5496 4.48478C30.5496 4.17397 30.2835 3.92729 29.9599 3.92729C29.6364 3.92729 29.3702 4.1789 29.3702 4.48478C29.3702 4.79066 29.6364 5.04227 29.9599 5.04227ZM22.0224 4.05063C22.299 4.05063 22.5182 3.83849 22.5182 3.58195C22.5182 3.32047 22.2938 3.11326 22.0224 3.11326C21.7458 3.11326 21.5267 3.32541 21.5267 3.58195C21.5214 3.83849 21.7458 4.05063 22.0224 4.05063ZM16.068 15.5506L15.8279 15.304C16.5011 14.7119 17.2161 13.7647 17.3361 13.2122C17.4457 12.6941 18.2285 12.778 18.0772 13.3404C17.8841 14.0607 16.9552 14.9241 16.068 15.5506ZM11.0321 4.24797C9.79004 4.75612 9.60739 5.96483 10.4789 6.68512C11.5278 7.55835 13.2656 6.79859 13.0986 5.46655C14.5076 5.53562 15.4157 4.15423 15.1913 3.1922C15.8175 2.68405 15.8801 1.59868 15.1287 1.1744C14.325 0.71558 13.5631 0.893187 13.0778 1.77135C11.7835 1.67761 10.5467 2.63965 11.0321 4.24797L10.4319 4.0013C9.64392 2.44231 11.0216 0.848785 12.7177 1.21386C13.0569 0.439304 14.3198 -0.364858 15.6818 0.414636C16.7725 1.03626 17.0021 2.64458 15.8436 3.42408C16.3863 4.92386 15.3009 6.14737 13.6466 6.00923C13.4535 7.93823 11.5278 8.18491 10.2858 7.27221C9.58129 6.75419 9.29427 6.03883 9.16381 5.49615C9.0229 4.92386 9.0229 4.41078 8.42276 3.82369C7.97397 3.37967 7.1703 3.39447 7.1703 3.39447C7.1703 1.99336 5.78216 0.710647 4.06002 1.33227C3.44944 0.833984 2.69797 0.784649 2.15523 1.40134C1.84212 1.75655 1.6699 2.69392 2.63534 3.12313C2.58316 4.40091 3.61644 5.21494 5.11939 5.10147C5.1768 5.78229 5.97524 6.40885 6.67975 6.50258L6.67454 6.843C5.92306 6.77393 5.51601 7.02554 5.01502 7.61262C3.24592 7.53369 2.00389 8.27865 2.05608 9.47749C0.814054 9.6995 0.579217 10.9329 1.28373 11.589C1.98824 12.2452 3.02152 11.9886 3.37638 11.2042C4.63407 11.4312 5.74041 10.5777 5.79259 9.60083C6.96156 9.60083 7.4782 9.16174 7.67129 8.14544L8.11487 8.17998C8.24533 9.27521 7.70782 10.3162 6.30923 10.1928C6.2727 11.5052 4.92631 12.2353 3.67384 11.7864C3.08936 12.8224 1.74818 13.2418 0.620965 12.2255C-0.464502 11.2437 -0.0678892 9.56629 1.35157 9.16174C1.38288 7.87903 2.39007 6.65552 4.33661 7.12914C4.33661 7.12914 4.5871 6.55685 5.19767 6.52232C4.79062 6.36445 4.48273 6.1523 4.39923 5.75762C2.92758 6.05363 1.68034 4.77586 2.01433 3.48821C0.683589 2.81725 0.662714 1.57401 1.32026 0.838918C2.00389 0.0692909 3.14677 -0.0984482 4.16961 0.730381C5.90218 -0.177384 7.85916 0.932655 7.73913 2.79752C8.94984 2.72352 9.68567 3.72009 9.54998 4.76599C9.74829 4.30717 9.98312 4.09503 10.4319 4.0013L11.0321 4.24797Z" fill="white"/>
    <path d="M14.0008 2.00684L14.293 2.20418C13.7242 3.33395 12.7222 4.53772 11.8612 5.19881L11.5324 4.96694C12.143 4.03451 13.4528 2.48539 14.0008 2.00684ZM5.53624 8.22799L5.73455 8.50426C5.01438 9.19989 3.68886 10.1274 2.98435 10.4481L2.70776 10.1669C3.3914 9.47123 4.69083 8.56347 5.53624 8.22799ZM7.24794 4.86334L6.90351 5.26788C5.96416 4.68573 4.11156 3.12181 3.69408 2.55446L3.98632 2.27325C4.88392 2.70739 6.63214 4.18251 7.24794 4.86334ZM5.51015 19.7132C5.61974 20.2213 5.5258 20.7838 6.01113 21.3314C6.18335 21.5238 7.12269 22.693 7.80111 23.2998C6.87742 23.6452 5.02482 24.3556 3.68886 24.5135C3.42271 24.5431 3.12003 24.7207 2.86954 24.8588C2.70254 25.1302 2.53033 25.6087 2.45727 26.1514C2.40508 26.5412 2.4103 26.9753 2.4103 27.4144C2.4103 27.8041 2.62948 29.0276 3.08872 29.8466C3.54796 30.6656 3.99154 31.0356 4.53427 31.2724C4.64386 31.228 4.8787 31.1935 5.24922 31.1885C6.25641 31.1688 7.04441 31.6917 7.38884 32.1456C7.51931 32.3183 7.79067 32.3528 8.14032 32.3528C8.95442 32.3528 9.8468 32.1012 10.6922 31.7953C10.8749 31.6523 11.3863 31.3316 11.8873 30.9616C12.3883 30.5866 15.1854 28.3468 16.4222 27.7795C17.0746 28.1149 18.1444 28.5442 19.2507 28.5442C19.3133 28.5442 19.5273 28.5442 19.7517 28.4998C20.0961 28.4258 20.5397 28.2778 21.0981 28.1791C22.0948 27.9965 23.2638 27.8337 23.6082 27.8387C24.5267 27.8535 27.2143 27.9176 27.851 27.9176C28.5189 27.9176 29.4739 27.8633 29.8392 27.8288C30.4028 27.6561 31.6553 27.3256 32.8556 26.8026C34.0559 26.2994 36.5764 24.6418 36.9887 24.2668C37.187 24.0941 37.3645 23.9116 37.5001 23.7439C37.5523 23.6797 37.568 23.6551 37.568 23.6057C37.568 23.5564 37.5575 21.9333 37.5575 21.9333C37.5575 21.9333 38.1629 21.2968 38.3925 21.0798C38.4134 21.06 38.4186 21.0304 38.4134 21.0107C38.309 20.6851 38.2046 19.6787 38.2673 18.6525L37.6567 18.3811C37.6358 19.654 37.1401 20.7394 36.6808 21.4103C35.7728 21.5435 34.0402 22.0517 33.414 22.7276L33.7584 22.8213C34.3429 22.5154 34.9743 22.3033 35.6893 22.3033C36.3207 22.3033 36.6025 22.4612 36.6025 22.6289C36.6025 22.7473 36.4825 23.0334 36.4355 23.1222C36.3781 23.2258 36.3468 23.3541 36.2372 23.4627C35.3814 24.3408 34.4159 25.0907 33.2313 25.7123C32.4381 26.1317 31.6866 26.4178 30.5072 26.7286C30.1576 26.8224 29.6722 26.9556 29.3591 27.0592C28.9155 27.0493 26.6037 26.9852 25.2521 26.9852C23.9005 26.9852 21.119 27.1726 20.2318 27.3848C19.83 27.4835 19.7308 27.6315 19.2611 27.6315C18.3896 27.6315 17.2415 27.2121 16.5423 26.8914C16.4379 26.921 16.1874 27.0246 15.9317 27.148C15.4359 27.3799 14.3244 28.8352 13.6772 28.3962C13.3485 29.0326 11.9238 29.6394 11.4385 30.3005C11.4959 29.9551 12.0647 27.7055 12.1221 27.2565C12.1325 27.1776 12.1378 27.1134 12.0856 27.0296C11.5637 26.2106 10.1182 25.6877 9.29885 25.5347C9.05879 25.4903 8.93876 25.4607 8.77699 25.4262L7.488 25.0562L6.29294 25.4262L7.67586 25.6778L5.92242 26.773C6.22509 26.6645 8.11423 26.1662 8.25513 26.1267C8.41169 26.0823 8.61521 26.0429 8.83961 26.1169C9.09532 26.2007 9.82592 26.3586 10.2591 26.5017C10.5148 26.5856 10.9323 27.0296 11.0419 27.2664C11.0836 27.3651 11.1045 27.5723 11.1306 28.0261C11.1462 28.3123 11.068 28.7168 10.9949 29.0276C10.8018 29.8417 10.4104 30.4781 10.2852 30.705C10.1129 31.0208 9.87811 31.1195 9.64327 31.2231C9.26232 31.3957 8.79264 31.4993 8.276 31.5043C7.92114 31.5092 7.68108 31.4895 7.52974 31.2971C7.04963 30.6853 5.87023 30.0933 4.65952 30.3153C3.91848 29.891 3.18265 28.5244 3.18265 27.4341C3.18265 26.7829 3.5323 25.7518 3.72017 25.2338C4.92566 25.0808 7.33666 24.2125 8.51084 23.7093C8.75611 23.6995 9.42931 23.4725 10.0764 23.4725C11.6524 23.4725 13.2232 24.7799 14.173 25.6581C14.3296 25.4163 14.6218 25.0463 15.4255 25.0463C16.5423 25.0463 17.1841 26.0083 17.5025 26.995L18.087 26.5954C17.9826 26.0281 17.6747 25.4114 17.1998 24.9674C16.8136 24.6023 16.0778 24.3013 15.5038 24.3013C15.1593 24.3013 14.7992 24.3754 14.5696 24.3754C13.7712 24.3754 13.4476 24.0399 12.8579 23.6551C12.2213 23.2406 11.0366 22.6388 10.1912 22.6388C9.64849 22.6388 9.40322 22.841 8.95442 22.841C8.29166 22.841 8.0516 22.5845 7.73327 22.2095C7.59759 22.0467 6.92439 21.4893 6.74695 21.2623C6.64258 21.134 6.45993 20.6012 6.39731 20.3397L5.51015 19.7132Z" fill="white"/>
    <path d="M6.41877 20.3265C6.61185 20.519 6.7945 20.736 7.03456 20.9087C7.2694 21.0764 7.55642 21.2195 7.833 21.3675C8.21918 21.5747 8.66276 21.8115 9.0959 21.9447C9.47686 22.0533 9.97263 22.0977 10.4371 22.0977C11.0998 22.0977 11.8826 21.9694 12.5297 22.2556C12.9629 22.448 12.9942 22.8821 13.3386 23.0054C13.8761 23.2028 15.3687 23.2472 16.1984 23.2472C17.8371 23.2472 19.6166 23.0498 20.6655 22.813L20.1541 22.2802C19.4287 22.3937 17.2995 22.6108 16.3237 22.6108C14.9459 22.6108 13.6465 22.4036 13.6465 21.8658C13.6465 21.4909 14.0692 20.9531 14.8781 20.9531C15.7444 20.9531 17.0543 21.4465 17.2995 21.5155C17.5396 21.5846 17.6387 21.5649 17.7901 21.5007L18.2963 21.254C17.6231 20.958 15.2799 20.1933 14.4658 20.1933C14.0797 20.1933 13.8709 20.2476 13.6204 20.5535C13.3073 20.9334 12.4671 21.2836 11.1364 21.2836C10.4058 21.2836 9.35683 21.1603 9.12722 21.0715C8.72538 20.9136 7.93738 20.4844 7.43117 20.1391C6.78407 19.6951 6.21524 19.2066 5.82906 18.6294C5.70904 18.4518 5.65685 18.2545 5.65685 18.0769C5.65685 17.9289 5.70382 17.7907 5.71947 17.6773C5.83428 17.8302 5.95953 17.9387 6.12131 18.0818C6.82582 18.733 7.86953 19.2165 8.93935 19.4139C9.24202 19.4681 9.51339 19.5125 9.81607 19.5125C10.2753 19.5125 10.6928 19.2806 10.9642 19.0537L10.5415 18.59C10.4058 18.6294 10.124 18.6294 9.94132 18.6294C8.38618 18.6294 6.41355 17.6674 5.95953 16.5574C5.91256 16.4488 5.86038 16.3896 5.90734 16.286C5.95431 16.1873 6.0065 15.9703 6.04303 15.768C6.13174 15.8667 6.32483 16.0147 6.55967 16.1627C7.13893 16.513 8.24006 16.9964 8.45402 17.1247C9.00719 16.9718 9.42468 16.7991 9.75867 16.6363C10.0822 16.4784 10.5258 16.3353 11.0372 16.3353C12.1749 16.3353 13.4795 16.9471 14.7007 17.5194L15.5409 17.2086C14.4502 16.4833 12.0862 15.472 10.7711 15.472C9.9935 15.472 9.2629 16.0097 8.74626 16.0097C8.10959 16.0097 6.28308 15.1661 6.28308 14.4655C6.28308 13.9278 7.46248 13.617 9.36727 13.3999C9.0385 13.8637 8.72538 14.3373 8.43314 14.8208L8.91847 15.0773C11.8983 10.9973 14.9929 8.35293 17.6022 6.73968C18.5468 6.15259 18.766 5.81218 19.0947 5.17082C19.9036 3.61183 20.6655 2.41299 21.9911 2.41299C22.6068 2.41299 23.1131 2.74354 23.4627 3.14808L24.4229 3.41943L23.4523 4.04105L24.4438 4.416C23.1496 4.75641 21.3805 5.95032 20.6655 7.69678C19.2878 7.76585 18.6198 8.82162 18.171 9.70471C17.8684 10.3017 17.383 10.5385 16.6785 10.9924L11.0372 14.7122L11.8148 14.8158L17.0282 11.5153C18.0562 10.8592 18.5468 10.3757 18.7921 9.91192C19.2774 8.99922 19.794 8.3184 20.8169 8.3184C21.3179 8.3184 21.8554 8.52067 22.2885 8.90549L23.2018 9.1867L22.205 9.76392L23.04 10.2523C20.6499 10.9578 19.1678 12.5809 18.3067 15.6743L18.9382 15.8075C19.2565 14.7813 19.5696 13.8439 20.128 13.0102C21.5109 12.9954 22.9147 12.946 24.2925 12.946C27.9663 12.946 31.014 13.094 32.6631 13.5528L32.0786 12.5957C30.3199 12.3145 27.7628 12.1665 24.2925 12.1665C23.1287 12.1665 21.9493 12.206 20.7803 12.2208C21.537 11.466 22.6225 10.8296 24.2977 10.3362L23.1078 9.71951L24.4281 9.02882L22.6068 8.38747C22.2937 8.12106 21.9023 7.87438 21.4066 7.75598C21.9806 6.08352 23.948 5.10669 25.8267 4.4308L24.5116 3.92264L25.8424 3.23689L23.7967 2.6202C23.2592 2.02818 22.7477 1.75684 21.9597 1.75684C20.0602 1.75684 19.2669 3.31582 18.5102 4.69721C18.1136 5.42243 17.8631 5.73324 17.1899 6.14766C15.7287 7.05049 13.8709 8.43187 12.0914 10.1981C11.1625 9.56658 9.26812 7.71651 8.75148 6.70514C8.54795 6.94195 8.34965 7.45997 8.34965 7.45997C8.54273 7.65237 10.7763 9.78858 11.606 10.6914C11.5434 10.7556 11.4808 10.8246 11.4182 10.8888C10.531 11.0565 8.23484 11.2637 7.45205 11.165L7.01368 11.9051C7.59817 11.8508 9.88391 11.5942 10.8285 11.5449C10.5362 11.8755 10.2544 12.2159 9.98307 12.5612C7.045 12.877 5.0828 13.4443 5.0828 14.4705C5.0828 14.6382 5.15587 14.8306 5.15587 15.0132C5.15587 15.4424 4.98365 15.6003 4.66532 15.7927C4.45657 15.916 4.44092 16.0048 4.52963 16.1232C4.61835 16.2416 5.07237 16.878 5.07237 17.0014C5.07237 17.2086 4.85319 17.4108 4.68097 17.5983C4.52963 17.7611 4.53485 17.8006 4.65488 18.0029L5.50551 19.7148L6.41877 20.3265ZM42.7872 10.8C42.5993 10.9874 42.4323 11.1848 42.2966 11.3969L41.8217 10.7704C43.403 8.77722 47.5778 7.84478 50.0201 7.68198V6.61634C49.7122 6.70514 49.373 6.80875 49.0651 6.87781C48.6268 6.97648 48.2197 7.07022 47.8805 7.06035C47.5361 7.05542 47.2595 6.92222 47.1342 6.74954C46.8055 6.30553 47.1082 5.63457 48.1832 5.00802L47.3378 4.34199C46.6802 5.14615 46.0383 6.02925 45.3808 6.55714C44.7859 7.03569 44.1596 7.27743 43.6587 6.92222C43.3873 6.72981 43.2829 6.64101 43.2568 6.14272C43.2934 5.40763 43.763 4.28279 44.1805 3.5625L43.1786 3.45396C42.9959 4.564 42.521 5.5063 42.0044 6.28579C41.3625 7.25769 40.5379 7.93852 39.6873 8.496L39.1289 7.97799C39.8126 7.59317 40.6736 6.97155 41.2633 6.11312C41.947 5.11655 42.5053 3.88318 42.5053 2.76327L45.4121 3.02475C45.0051 3.5181 44.3319 4.63307 44.0761 5.43723C43.9457 5.85658 43.9509 6.18712 44.1127 6.30059C44.4206 6.51767 44.9581 6.17232 45.4852 5.6395C46.221 4.88961 46.9464 3.75984 47.2647 3.35529L49.3626 5.00308C48.4285 5.47177 47.5256 6.00458 47.7031 6.30553C47.8701 6.5818 48.465 6.49793 49.1225 6.30553C49.66 6.14766 50.2289 5.91578 50.6829 5.66417V8.348C49.6705 8.3332 47.9536 8.51574 46.3045 8.98442C46.6959 9.50737 47.8231 9.69978 48.5433 9.79352L48.1832 11.9741C46.3723 11.2588 44.979 10.8394 42.7872 10.8L43.5125 10.2129C45.1251 10.2425 46.7429 10.6865 47.6613 11.1256L47.7918 10.3017C46.9673 10.1981 45.9235 9.75405 45.4852 9.25083C44.765 9.50737 44.0866 9.82312 43.5125 10.2129L42.7872 10.8Z" fill="white"/>
    <path d="M34.1297 17.7221L34.8029 16.3506C34.0984 15.5612 33.3052 14.5646 32.6372 13.5483L32.0527 12.5912C30.7063 10.1738 31.1969 9.02431 30.4767 7.95867C29.8818 7.08051 27.0011 7.62813 26.5262 7.72187L27.3612 6.41449L25.7173 6.53782L27.1107 4.9739C27.262 4.77163 27.3351 4.58415 27.4969 4.04147C27.7422 3.21757 28.4936 1.81152 30.6854 1.81152C33.1225 1.81152 33.874 3.67639 34.9386 4.48548C36.1441 5.40312 37.7253 6.69076 39.1291 7.97841L39.6875 8.49643C40.4077 9.19205 41.1435 9.90741 41.8219 10.7708L42.2968 11.3973C45.2297 15.4428 48.867 23.1736 50.4796 26.7159C50.6361 27.0612 50.7457 27.4066 50.8449 27.673C49.749 27.1007 48.5435 26.3952 47.3067 25.5861L46.5813 25.1075C46.1273 24.7967 45.6785 24.481 45.2349 24.1603L44.4939 23.6078C44.0451 23.2673 43.6067 22.922 43.1735 22.5717L44.64 30.638C44.7496 31.1116 45.1775 31.0327 45.5219 30.6183C45.8716 30.1989 46.002 30.0855 45.8716 29.5329L44.4939 23.6078L45.2349 24.1603L46.5552 29.1974C46.6804 29.6513 46.884 29.7944 47.4476 29.819C48.0112 29.8437 48.1312 29.6365 48.0112 29.2862L46.5813 25.1075L47.3067 25.5861L48.6583 29.3405C49.0079 30.3025 48.6583 30.416 48.0477 30.416C47.4371 30.416 46.8892 30.2828 46.5552 30.4851C46.2212 30.6873 45.8037 31.2448 45.2975 31.7283C44.8539 32.1575 44.2068 32.0441 44.0816 31.2399L42.4638 21.9748C41.4097 21.0769 40.4025 20.1346 39.5049 19.1725C39.1083 19.0147 38.6647 18.8223 38.2733 18.6496L37.6627 18.3782C37.4487 18.2845 37.287 18.2154 37.2243 18.2006C36.7755 18.7088 36.3476 19.2761 35.8466 19.6856C35.5805 19.9027 35.3978 20.026 35.0012 20.026C34.8812 20.026 34.7299 20.026 34.589 19.952C34.4376 19.8731 34.2967 19.7103 34.1402 19.4883C34.0201 19.3156 33.8427 19.0936 33.6914 18.8519C33.373 18.3437 33.0234 17.7073 32.7155 17.1893C32.3658 16.612 32.0684 16.1779 32.0266 16.1039C31.964 15.9954 31.7918 15.8572 31.7918 15.8572C31.6196 16.1187 31.4943 16.6268 31.4943 16.9081L30.8838 16.7156C30.962 16.3358 31.1238 15.8424 31.2177 15.6056C31.2177 15.4033 30.9777 15.132 30.7794 15.132C30.5028 15.132 30.2158 15.4181 30.0697 15.9707L29.4539 16.2272C29.5269 15.3392 29.8505 14.3624 30.7794 14.3624C31.5309 14.3624 31.9953 14.9051 32.3554 15.4132C32.705 15.9115 33.8792 17.4261 34.1297 17.7221L34.5942 18.2796C34.6725 18.6249 34.8342 18.8272 34.9073 18.9407C35.0691 19.1775 35.2465 19.1627 35.4918 18.9505C35.6014 18.8568 35.9562 18.5805 36.3007 18.2401C36.5981 17.9441 36.8904 17.5889 37.0052 17.4063C37.3496 17.5494 37.981 17.8405 38.4977 18.0526C36.2954 15.4872 34.1923 12.3791 33.2739 10.2626C32.8981 9.38939 33.634 9.09338 33.994 9.95674C34.9647 12.2952 37.7932 16.4295 39.8754 18.6002C42.2812 21.1065 46.6857 24.7375 49.5559 26.1929C49.1384 25.4233 48.5904 24.3231 47.959 23.0453C44.473 21.1854 40.9452 17.7616 39.3014 14.8212L40.0267 14.9001C41.5558 17.4557 45.2088 20.8697 47.3693 21.8613C45.3967 17.8997 42.8291 12.8823 40.82 10.7264C38.3307 8.04748 35.617 5.98034 34.3228 4.8999C33.0443 3.8392 32.5172 2.50221 30.6802 2.50221C29.1616 2.50221 28.3632 3.53825 28.0605 4.57922C27.9979 4.78149 27.9613 4.90977 27.81 5.12191L27.0898 5.93594L28.6398 5.75833L27.7422 6.9473C27.7422 6.9473 30.174 6.42929 31.0247 7.52452C31.9431 8.70363 31.3482 10.0258 32.8512 12.5912C33.5139 13.721 35.1108 15.7487 35.6483 16.2026L34.5994 18.2845L34.1297 17.7221ZM10.2442 18.0773L9.87891 17.8405C10.0824 17.6777 10.4895 17.4261 10.8913 17.2633C11.1001 17.1794 11.3349 17.1399 11.5071 17.1399C11.9194 17.1399 12.2742 17.3027 12.6187 17.4754C13.1666 17.7517 13.7824 18.0773 14.2521 18.0773C14.4347 18.0773 14.607 18.0378 14.8053 18.0378C15.2697 18.0378 15.7185 18.2352 15.9742 18.2352C16.1308 18.2352 16.2352 18.102 16.3395 17.9638C16.5952 17.6135 16.9501 17.3521 17.4041 17.1745C17.8895 16.9821 18.4792 16.9031 19.1158 16.9031C19.6168 16.9031 20.0969 16.9722 20.3474 17.0215C20.3474 17.0215 19.9665 17.4557 19.8673 17.5543C19.3611 17.5543 18.3957 17.5395 17.7746 17.7764C17.3937 17.9244 17.258 18.1316 17.258 18.4325C17.258 18.8667 17.7694 19.0344 18.3383 19.1972C18.6722 19.2959 19.048 19.3156 19.3663 19.3156C19.7577 19.3156 20.504 19.1775 21.245 19.0245C22.1374 18.8371 22.9671 18.62 23.2072 18.5312L23.5308 19.0788C22.5392 19.3995 21.5216 19.7004 20.577 19.878C20.0447 19.9816 19.5385 20.0458 19.0845 20.0458C18.3278 20.0458 17.5085 19.7448 16.8301 19.4389C16.2612 19.1824 15.7498 18.9259 15.301 18.9259C14.7896 18.9259 14.3095 19.0936 13.8346 19.3501C13.605 19.4735 12.9057 19.9274 12.2847 20.1592C11.8098 20.3368 11.4184 20.4355 10.9331 20.4355C10.5051 20.4355 10.2442 20.3763 10.0198 20.2135L10.7713 19.7794C10.8652 19.8682 11.0374 19.8879 11.147 19.8879C11.2566 19.8879 11.3871 19.878 11.6793 19.7596C11.8463 19.6955 12.0916 19.5524 12.2325 19.4636C12.53 19.286 12.6291 19.1775 12.7439 19.0887C12.9735 18.9209 13.0518 18.694 12.7648 18.4522C12.6291 18.3388 12.4882 18.2204 12.3056 18.1168C12.0498 17.9688 11.862 17.8257 11.3923 17.8257C10.8443 17.8306 10.4582 17.9737 10.2442 18.0773Z" fill="white"/>
    <path d="M20.6736 18.359C20.6736 18.359 20.23 18.2456 20.0735 18.2308C20.3761 17.841 20.7675 17.5203 21.0754 17.323C21.6808 16.9332 22.3175 16.7211 23.2829 16.6668C23.5438 16.652 24.0814 16.6027 24.3736 16.6175C24.645 16.6274 25.099 16.6471 25.5165 16.7211C25.8139 16.7754 26.0905 16.8494 26.3149 16.8839C26.4558 16.9036 26.9411 16.8987 27.1081 16.874C27.7918 16.7704 28.6111 16.5238 29.039 16.3018L29.2217 16.9184C28.3032 17.3625 27.2595 17.7917 26.3097 17.7917C25.8244 17.7917 25.3077 17.7571 24.8276 17.7127C23.9822 17.6387 23.2464 17.5302 22.9959 17.5302C22.3175 17.5302 21.3312 17.8311 20.6736 18.359ZM19.9952 21.8026L19.1289 21.4277C20.3292 20.8554 22.1661 20.2782 22.9176 20.1647C23.6691 20.0512 24.5302 19.9674 25.0259 19.8095C25.2555 20.3522 25.6991 20.9343 26.3462 20.9343C26.5811 20.9343 26.9672 20.7666 27.3586 20.6038C27.797 20.4212 28.2354 20.2239 28.4598 20.1252C28.705 20.0216 29.5035 19.6911 30.1767 19.4049C30.4376 19.2964 31.1473 18.9757 31.1839 18.956L31.6379 19.1879C31.5022 19.7552 31.2778 20.4459 31.0221 20.9442C30.9229 21.1366 30.8238 21.2994 30.7142 21.4129C30.5159 21.625 30.1975 21.9013 29.7801 22.1825C29.326 22.4884 28.7729 22.7992 28.1832 23.1199C27.7239 23.3665 27.2647 23.6231 26.8002 23.8254L26.5602 23.4109C27.2803 23.0261 28.011 22.5377 28.6528 22.0888C28.9555 21.8766 29.253 21.6595 29.4617 21.477C29.6183 21.3438 29.7174 21.2303 29.7957 21.1218C29.9888 20.8554 30.2967 20.3374 30.3958 20.0907C30.1297 20.214 29.1121 20.6679 28.6581 20.8949C28.1466 21.1514 27.3117 21.551 26.8472 21.7582C26.4819 21.921 26.1531 22.0098 25.9183 22.0098C25.3964 22.0098 25.1616 21.6546 25.0311 21.4425C24.7024 20.8899 24.3475 20.8357 23.4238 20.8258C22.3488 20.806 20.8719 21.2303 19.9952 21.8026ZM25.0468 19.252C25.0468 19.252 24.9215 18.7685 24.8589 18.5909C24.8589 18.5909 25.0103 18.5465 25.2086 18.5465C25.5321 18.5465 26.3253 18.6304 26.6593 18.6304C27.9066 18.6304 28.3658 18.2604 28.7311 17.9495C29.0442 17.6831 29.3626 17.4661 30.208 17.4661C30.9542 17.4661 31.8101 17.7522 32.0554 17.8657L32.0032 18.507C31.6379 18.3146 31.1369 18.1864 30.6933 18.1864C30.3854 18.1864 30.1088 18.211 29.9105 18.3048C29.6913 18.4133 29.5557 18.5761 29.3521 18.734C29.1329 18.9066 28.8303 19.0695 28.4389 19.2076C28.0475 19.3457 27.5569 19.4395 26.8316 19.4395C25.8661 19.4345 25.3443 19.2865 25.0468 19.252Z" fill="white"/>
    <path d="M17.1621 24.1013L17.7362 23.8743C18.2632 24.0667 19.0251 24.2838 19.5522 24.2838C19.8706 24.2838 20.1315 24.1753 20.3507 24.0865C20.5177 24.0174 22.4329 23.1294 23.3827 22.8038C23.6854 22.7001 23.988 22.6409 24.1394 22.6409C24.369 22.6409 24.3794 22.7396 24.442 22.8334C24.6195 23.1047 26.0337 25.009 26.1746 25.157C27.3749 24.8068 28.6013 24.2986 29.3058 23.6572C30.0416 22.9863 30.6522 22.2068 31.2471 21.6049C31.4767 21.373 31.7585 21.1609 31.8994 21.0918C32.51 20.7859 34.4148 20.7563 35.2184 20.7909L34.7436 21.4273C33.3345 21.4273 32.5465 21.5654 32.1917 21.817C32.0403 21.9256 31.8159 22.1377 31.5967 22.4041C31.1166 22.9962 30.5896 23.8102 30.3808 23.9681C30.7931 24.2394 31.2419 24.4762 31.962 24.4762C33.1571 24.4762 34.013 23.7707 34.4826 23.3711L34.8845 23.598C34.587 23.9631 34.2478 24.3381 33.8146 24.6143C33.3345 24.9202 32.7292 25.1225 32.3691 25.2162C31.675 25.0929 30.1512 24.8018 29.7911 24.7327C28.4708 25.2409 26.3207 26.0648 25.5954 26.272C25.491 26.3016 25.324 26.3263 25.11 26.346C24.536 26.3756 23.7428 26.3707 23.0226 26.3608C22.5112 26.3559 22.0206 26.3608 21.7806 26.3164L21.1439 25.6849C21.7023 25.7885 21.9267 25.8181 22.4485 25.8181C23.6906 25.8181 24.4942 25.6208 24.7552 25.5566C24.9743 25.5024 25.0109 25.379 24.9483 25.1916C24.8439 24.8906 24.6612 24.6045 24.3794 24.2986C24.2281 24.1309 23.8941 23.8497 23.7532 23.7608C23.581 23.6523 23.414 23.6227 22.9443 23.7756C22.5112 23.9138 21.1596 24.6045 20.5751 24.8956C20.288 25.0386 20.0636 25.083 19.547 24.9696C18.9938 24.8561 17.6892 24.4071 17.1621 24.1013ZM20.9038 9.94703C21.1752 9.94703 21.3944 9.73982 21.3944 9.48328C21.3944 9.22674 21.1752 9.01953 20.9038 9.01953C20.6325 9.01953 20.4133 9.22674 20.4133 9.48328C20.4133 9.73982 20.6325 9.94703 20.9038 9.94703Z" fill="white"/>
</svg>
