<svg width="130" height="21" viewBox="0 0 130 21" fill="none" xmlns="http://www.w3.org/2000/svg">
    <path d="M97.2696 12.6041C97.2696 10.1205 95.2032 8.16294 92.5898 8.16294C90.0068 8.16294 87.91 10.1205 87.91 12.6041C87.91 15.0876 90.0068 17.0452 92.5898 17.0452C95.2032 17.0744 97.2696 15.1168 97.2696 12.6041ZM101.098 5.3288V19.9086H97.1784V18.5937C95.8109 19.6748 94.1092 20.2884 92.2251 20.2884C87.6061 20.2884 83.99 16.8699 83.99 12.6333C83.99 8.39668 87.6061 4.97819 92.2251 4.97819C94.0788 4.97819 95.8109 5.59176 97.1784 6.67283V5.35802C97.1784 5.3288 101.098 5.3288 101.098 5.3288ZM114.044 16.6069H111.096C110.215 16.6069 109.638 16.2271 109.638 15.4674V8.63043H114.044V5.3288H109.638V1.17985H105.687V5.3288H102.709V8.63043H105.687V16.3732C105.687 18.3308 107.146 19.8793 109.789 19.8793H114.013L114.044 16.6069ZM122.948 20.2884C127.445 20.2884 129.998 18.2724 129.998 15.4674C129.998 13.4806 128.478 11.9905 125.348 11.3477L122.005 10.7049C120.091 10.3835 119.453 10.0329 119.453 9.36088C119.453 8.48434 120.365 7.95842 122.097 7.95842C123.95 7.95842 125.318 8.42591 125.713 10.0621H129.603C129.39 7.02344 127.05 4.97819 122.34 4.97819C118.268 4.97819 115.411 6.55595 115.411 9.65306C115.411 11.786 116.991 13.1592 120.395 13.8312L124.102 14.6493C125.561 14.9123 125.956 15.2921 125.956 15.8473C125.956 16.753 124.832 17.3374 123.069 17.3374C120.82 17.3374 119.514 16.8699 119.027 15.2337H115.077C115.685 18.2431 118.085 20.2884 122.948 20.2884ZM68.2793 0.157227H82.9871V3.51729H72.2601V8.33825H82.7136V11.6399H72.2601V16.5193H82.9871V19.8793H68.2793V0.157227Z" fill="white"/>
    <path d="M61.2928 8.04696V5.38813H60.2292C58.5579 5.38813 57.3424 6.11858 56.5827 7.2873V5.505H53.6046V19.8802H56.6131V11.6992C56.6131 9.47864 58.0413 8.01775 60.0165 8.01775H61.2928V8.04696ZM39.6261 11.3778C40.1731 9.18647 42.0571 7.69635 44.2755 7.69635C46.4938 7.69635 48.4083 9.15725 48.8945 11.3778H39.6261ZM44.3363 5.24205C39.8996 5.24205 36.4961 8.66054 36.4961 12.7218C36.4961 17.0169 40.0211 20.2308 44.6097 20.2308C47.3751 20.2308 49.6542 19.0913 51.1736 17.163L48.9856 15.6436C47.8613 17.0753 46.3419 17.7473 44.5794 17.7473C41.9964 17.7473 39.9604 15.9942 39.5349 13.6568H51.9333V12.7218C51.9637 8.4268 48.7425 5.24205 44.3363 5.24205ZM27.1062 17.7181C24.1889 17.7181 21.8491 15.4975 21.8491 12.7218C21.8491 9.94613 24.2193 7.72557 27.1062 7.72557C29.9627 7.72557 32.333 9.91691 32.333 12.7218C32.333 15.4975 29.9627 17.7181 27.1062 17.7181ZM18.871 19.9094H21.8491V18.0979C23.2165 19.442 25.1614 20.2308 27.2885 20.2308C31.7556 20.2308 35.2806 16.8708 35.2806 12.7218C35.2806 8.54367 31.7556 5.18361 27.2885 5.18361C25.1614 5.18361 23.2469 6.00171 21.8794 7.31652V0.128906H18.871C18.871 0.158124 18.871 19.9094 18.871 19.9094ZM8.26557 17.572C11.1524 17.572 13.4012 15.4683 13.4012 12.3128V0.128906H16.5311V19.851H13.4315V18.0687C12.0337 19.442 10.0889 20.2308 7.90091 20.2308C3.43386 20.2308 0 17.163 0 12.4881V0.128906H3.16036V12.3128C3.12998 15.5268 5.34831 17.572 8.26557 17.572Z" fill="white"/>
</svg>
