<?xml version="1.0" encoding="UTF-8"?>
<svg width="64px" height="64px" viewBox="0 0 64 64" version="1.1" xmlns="http://www.w3.org/2000/svg" xmlns:xlink="http://www.w3.org/1999/xlink">
    <!-- Generator: Sketch 52.5 (67469) - http://www.bohemiancoding.com/sketch -->
    <title>Icon</title>
    <desc>Created with Sketch.</desc>
    <defs>
        <path d="M29.91759,19.76412 C30.2794,19.76412 30.57688,20.0581 30.56884,20.4077 L30.56884,29.29857 C30.56884,29.64817 30.27136,29.94215 29.91759,29.94215 C29.56382,29.94215 29.26633,29.65611 29.26633,29.29857 L29.26633,20.4077 C29.26633,20.0581 29.55578,19.76412 29.91759,19.76412 Z M34.08241,19.76412 C34.43618,19.76412 34.73367,20.0581 34.73367,20.4077 L34.73367,29.29857 C34.73367,29.64817 34.44422,29.94215 34.08241,29.94215 C33.72864,29.94215 33.43116,29.65611 33.43116,29.29857 L33.43116,20.4077 C33.43116,20.0581 33.7206,19.76412 34.08241,19.76412 Z" id="path-1"></path>
        <path d="M32,10.66667 C40.8201,10.66667 48,17.76189 48,26.47796 C48,34.26443 42.26734,40.7558 34.74975,42.0509 L34.74975,50.88616 C34.74975,52.1892 33.67236,53.26182 32.34573,53.26182 L31.71859,53.26182 C30.4,53.26182 29.31457,52.19714 29.31457,50.88616 L29.31457,42.06679 C21.76482,40.79553 16,34.29621 16,26.47796 C16,17.76189 23.1799,10.66667 32,10.66667 Z M34.75779,40.7558 C41.55176,39.4766 46.71357,33.56524 46.71357,26.47796 C46.71357,18.46108 40.11256,11.94587 32.00804,11.93793 C23.89548,11.93793 17.29447,18.46108 17.29447,26.47796 C17.29447,33.58908 22.4804,39.51633 29.32261,40.7558 L29.32261,34.27238 C26.86231,33.2951 25.11759,30.91148 25.11759,28.1306 L25.11759,20.36002 C25.11759,20.03426 25.39095,19.76412 25.7206,19.76412 L25.81709,19.76412 C26.14673,19.76412 26.4201,20.03426 26.4201,20.36002 L26.4201,26.89907 C26.4201,26.91496 26.41206,26.93085 26.41206,26.94674 L26.41206,28.14649 C26.41206,30.21229 27.61005,32 29.34673,32.88988 C29.7407,33.08852 30.16683,33.23948 30.60905,33.34277 L30.60905,50.87821 C30.60905,51.49001 31.10754,51.98262 31.72663,51.98262 L32.35377,51.98262 C32.97286,51.98262 33.47136,51.49001 33.47136,50.87821 L33.47136,33.31099 C33.91357,33.19975 34.33166,33.04084 34.72563,32.83426 C36.43015,31.93644 37.58794,30.16462 37.58794,28.1306 L37.58794,20.36002 C37.58794,20.03426 37.86131,19.76412 38.19095,19.76412 L38.29548,19.76412 C38.62513,19.76412 38.89849,20.03426 38.89849,20.36002 L38.89849,26.89112 C38.89849,26.89907 38.89045,26.91496 38.89045,26.93085 L38.89045,28.13855 C38.89045,30.89559 37.17789,33.25537 34.75779,34.25649 L34.75779,40.7558 Z" id="path-3"></path>
    </defs>
    <g id="Icon" stroke="none" stroke-width="1" fill="none" fill-rule="evenodd">
        <g id="group">
            <g id="Group-3">
                <circle id="Oval" fill="#4C68FF" cx="32" cy="32" r="32"></circle>
                <mask id="mask-2" fill="white">
                    <use xlink:href="#path-1"></use>
                </mask>
                <g id="Clip-5"></g>
                <polygon id="Fill-4" fill="#FFFFFF" mask="url(#mask-2)" points="24.26633 34.94215 39.73367 34.94215 39.73367 14.76412 24.26633 14.76412"></polygon>
                <mask id="mask-4" fill="white">
                    <use xlink:href="#path-3"></use>
                </mask>
                <g id="Clip-8"></g>
                <polygon id="Fill-7" fill="#FFFFFF" mask="url(#mask-4)" points="11 58.261825 53 58.261825 53 5.666665 11 5.666665"></polygon>
            </g>
        </g>
    </g>
</svg>