<?xml version="1.0" encoding="utf-8"?>
<!-- Generator: Adobe Illustrator 21.1.0, SVG Export Plug-In . SVG Version: 6.00 Build 0)  -->
<svg version="1.1" id="Calque_1" xmlns="http://www.w3.org/2000/svg" xmlns:xlink="http://www.w3.org/1999/xlink" x="0px" y="0px"
	 viewBox="0 0 398 536.1" style="enable-background:new 0 0 398 536.1;" xml:space="preserve">
<style type="text/css">
	.st0{fill:#FFFFFF;}
	.st1{fill:#1D1D1B;}
	.st2{fill:#4C68FF;}
	.st3{fill:url(#SVGID_1_);}
	.st4{fill:url(#SVGID_2_);}
	.st5{fill:url(#SVGID_3_);}
	.st6{fill:url(#SVGID_4_);}
	.st7{fill:url(#SVGID_5_);}
	.st8{fill:url(#SVGID_6_);}
	.st9{fill:url(#SVGID_7_);}
	.st10{fill:url(#SVGID_8_);}
	.st11{fill:url(#SVGID_9_);}
	.st12{fill:url(#SVGID_10_);}
	.st13{fill:url(#SVGID_11_);}
	.st14{fill:url(#SVGID_12_);}
	.st15{fill:url(#SVGID_13_);}
	.st16{fill:url(#SVGID_14_);}
	.st17{fill:url(#SVGID_15_);}
	.st18{fill:url(#SVGID_16_);}
	.st19{fill:url(#SVGID_17_);}
	.st20{fill:url(#SVGID_18_);}
	.st21{fill:url(#SVGID_19_);}
	.st22{fill:url(#SVGID_20_);}
	.st23{fill:url(#SVGID_21_);}
	.st24{fill:url(#SVGID_22_);}
</style>
<g>
	<path class="st2" d="M173.1,114.5c-4.5,0-8.1,3.7-8.1,8.1v111.9c0,4.5,3.7,8.1,8.1,8.1s8.1-3.7,8.1-8.1V122.6
		C181.3,118.2,177.6,114.5,173.1,114.5z"/>
	<path class="st2" d="M224.9,114.5c-4.5,0-8.1,3.7-8.1,8.1v111.9c0,4.5,3.7,8.1,8.1,8.1c4.5,0,8.1-3.7,8.1-8.1V122.6
		C233,118.2,229.3,114.5,224.9,114.5z"/>
	<path class="st2" d="M199,0C89.3,0,0,89.3,0,199c0,98.4,71.7,180.2,165.6,196.2v111c0,16.5,13.5,29.9,29.9,29.9h7.8
		c16.5,0,29.9-13.5,29.9-29.9V395C326.7,378.7,398,297,398,199C398,89.3,308.7,0,199,0z M233.3,378.7v-81.8
		c30.1-12.6,51.4-42.3,51.4-77v-15.2c0-0.2,0.1-0.4,0.1-0.5V122c0-4.1-3.4-7.5-7.5-7.5H276c-4.1,0-7.5,3.4-7.5,7.5v82.1
		c0,0.1,0,0.1,0,0.2v15.5c0,25.6-14.4,47.9-35.6,59.2c-4.9,2.6-10.1,4.6-15.6,6v16.6V381v16.1v109c0,7.7-6.2,13.9-13.9,13.9h-7.8
		c-7.7,0-13.9-6.2-13.9-13.9V397.2v-16.1v-79.2v-16.5c-5.5-1.3-10.8-3.2-15.7-5.7c-21.6-11.2-36.5-33.7-36.5-59.7v-15.1
		c0-0.2,0.1-0.4,0.1-0.6V122c0-4.1-3.4-7.5-7.5-7.5h-1.2c-4.1,0-7.5,3.4-7.5,7.5v82.1c0,0,0,0.1,0,0.1v15.6c0,35,21.7,65,52.3,77.3
		v81.6C80.6,363.1,16.1,288.5,16.1,199c0-100.9,82.1-183,183-183C299.9,16.1,382,98.1,382,199C382,288.2,317.8,362.6,233.3,378.7z"
		/>
</g>
</svg>
