<svg width="340" height="150" viewBox="0 0 340 150" fill="none" xmlns="http://www.w3.org/2000/svg">
<path d="M335.853 0.310914C336.232 0.124579 336.69 0.280437 336.876 0.659035L339.912 6.82859C340.099 7.20718 339.943 7.66515 339.564 7.85148C339.186 8.0378 338.728 7.88195 338.541 7.50335L335.842 2.01931L330.358 4.71834C329.98 4.90467 329.522 4.74881 329.335 4.37022C329.149 3.99163 329.305 3.53366 329.684 3.34733L335.853 0.310914ZM0.772102 120.278C81.5219 149.599 152.957 155.674 210.295 136.474C267.594 117.287 310.941 72.8147 335.467 0.750253L336.914 1.24258C312.261 73.6783 268.606 118.559 210.78 137.923C152.992 157.274 81.1772 151.099 0.250572 121.715L0.772102 120.278Z" fill="black"/>
</svg>
