<svg width="309" height="289" viewBox="0 0 309 289" fill="none" xmlns="http://www.w3.org/2000/svg">
<g clip-path="url(#clip0_1251_237392)">
<path d="M285.585 277.952C285.303 277.965 285.024 277.891 284.786 277.741C284.547 277.59 284.361 277.369 284.252 277.109C284.144 276.848 284.117 276.561 284.177 276.285C284.237 276.01 284.381 275.759 284.588 275.567L284.682 275.193C284.67 275.163 284.657 275.133 284.645 275.103C284.361 274.432 283.885 273.86 283.277 273.459C282.669 273.058 281.956 272.845 281.228 272.848C280.5 272.851 279.788 273.069 279.184 273.474C278.579 273.88 278.107 274.455 277.828 275.128C276.713 277.813 275.294 280.503 274.944 283.342C274.791 284.597 274.856 285.869 275.136 287.102C272.518 281.39 271.158 275.181 271.149 268.898C271.149 267.321 271.237 265.746 271.412 264.179C271.557 262.894 271.758 261.619 272.015 260.352C273.418 253.481 276.432 247.041 280.807 241.561C282.925 240.406 284.638 238.629 285.715 236.47C286.105 235.694 286.38 234.865 286.533 234.01C286.294 234.042 285.632 230.403 285.813 230.18C285.48 229.675 284.884 229.424 284.52 228.931C282.712 226.479 280.22 226.907 278.92 230.239C276.141 231.641 276.114 233.967 277.819 236.204C278.904 237.627 279.053 239.552 280.005 241.076C279.907 241.201 279.805 241.322 279.707 241.448C277.917 243.749 276.357 246.221 275.049 248.826C275.367 245.907 274.988 242.954 273.942 240.21C272.882 237.653 270.895 235.499 269.145 233.288C267.044 230.633 262.734 231.792 262.364 235.158C262.36 235.191 262.357 235.223 262.353 235.256C262.613 235.402 262.867 235.558 263.116 235.723C263.429 235.932 263.671 236.23 263.812 236.579C263.952 236.928 263.983 237.311 263.902 237.678C263.82 238.046 263.63 238.38 263.356 238.637C263.081 238.894 262.736 239.062 262.364 239.119L262.326 239.125C262.418 240.062 262.582 240.99 262.815 241.902C260.571 250.583 265.417 253.744 272.336 253.886C272.489 253.965 272.638 254.043 272.79 254.117C271.477 257.841 270.652 261.719 270.339 265.655C270.161 267.977 270.172 270.31 270.37 272.63L270.358 272.548C269.857 269.968 268.481 267.64 266.462 265.957C263.463 263.493 259.226 262.586 255.991 260.606C255.647 260.385 255.247 260.267 254.838 260.266C254.43 260.265 254.029 260.381 253.685 260.6C253.34 260.819 253.065 261.133 252.892 261.503C252.719 261.873 252.656 262.285 252.709 262.69C252.714 262.719 252.718 262.748 252.723 262.777C253.205 262.973 253.675 263.199 254.129 263.454C254.389 263.601 254.643 263.756 254.892 263.921C255.205 264.13 255.447 264.428 255.587 264.777C255.727 265.126 255.759 265.51 255.677 265.877C255.596 266.244 255.406 266.578 255.131 266.835C254.857 267.092 254.511 267.26 254.139 267.318L254.101 267.324C254.074 267.327 254.05 267.331 254.023 267.335C254.847 269.303 256.004 271.114 257.442 272.689C258.846 280.267 264.874 280.986 271.322 278.779H271.326C272.033 281.853 273.058 284.846 274.384 287.709H285.311C285.35 287.587 285.386 287.462 285.421 287.34C284.41 287.404 283.394 287.343 282.397 287.16C283.208 286.165 284.019 285.163 284.83 284.168C284.848 284.149 284.865 284.13 284.88 284.109C285.292 283.6 285.707 283.095 286.118 282.586L286.118 282.585C286.14 281.025 285.961 279.468 285.585 277.953L285.585 277.952Z" fill="#F2F2F2"/>
<path d="M267.379 180.791C270.274 170.276 275.676 161.321 284.398 154.431C284.743 153.898 285.286 153.524 285.907 153.39C286.527 153.256 287.176 153.375 287.71 153.718L307.617 166.572C308.15 166.917 308.525 167.46 308.658 168.08C308.792 168.701 308.674 169.35 308.33 169.884L291.31 196.243C290.965 196.776 290.423 197.151 289.802 197.284C289.181 197.418 288.533 197.3 287.999 196.956L268.092 184.103C267.558 183.757 267.184 183.215 267.05 182.594C266.917 181.973 267.035 181.325 267.379 180.791Z" fill="#F2F2F2"/>
<path d="M274.045 173.815C274.791 168.259 279.387 162.58 284.986 156.869C285.31 156.369 285.818 156.019 286.399 155.894C286.98 155.768 287.588 155.879 288.088 156.201L305.196 167.248C305.696 167.571 306.046 168.079 306.172 168.66C306.297 169.242 306.186 169.849 305.864 170.349L290.719 193.805C290.396 194.305 289.888 194.655 289.306 194.781C288.725 194.906 288.118 194.795 287.618 194.473L277.019 187.63C274.795 186.19 273.233 183.927 272.675 181.338C272.118 178.748 272.61 176.042 274.045 173.815Z" fill="white"/>
<path d="M275.572 196.464C273.046 185.855 273.468 175.405 277.793 165.167C277.839 164.533 278.134 163.944 278.614 163.528C279.093 163.111 279.719 162.903 280.352 162.947L303.989 164.624C304.622 164.67 305.212 164.965 305.628 165.444C306.044 165.924 306.253 166.549 306.209 167.183L303.988 198.481C303.942 199.114 303.647 199.703 303.168 200.12C302.688 200.536 302.063 200.745 301.429 200.7L277.792 199.023C277.159 198.978 276.569 198.683 276.153 198.203C275.737 197.723 275.528 197.098 275.572 196.464Z" fill="#F2F2F2"/>
<path d="M278.056 187.142C276.034 181.914 277.327 174.723 279.483 167.021C279.526 166.428 279.802 165.876 280.252 165.486C280.701 165.096 281.287 164.901 281.88 164.942L302.194 166.383C302.787 166.426 303.339 166.702 303.729 167.152C304.118 167.601 304.314 168.187 304.273 168.78L302.297 196.631C302.254 197.224 301.977 197.776 301.528 198.166C301.079 198.555 300.493 198.751 299.9 198.71L287.316 197.817C284.674 197.626 282.215 196.395 280.479 194.394C278.743 192.393 277.871 189.785 278.056 187.142Z" fill="white"/>
<path d="M277.609 130.968L267.483 93.4877C267.05 91.9011 266.009 90.5486 264.587 89.7221C263.165 88.8956 261.475 88.6614 259.882 89.07C259.058 89.2813 258.285 89.6584 257.611 90.1781C256.937 90.6978 256.377 91.3492 255.963 92.0928C255.549 92.8363 255.291 93.6563 255.204 94.5028C255.118 95.3493 255.205 96.2046 255.459 97.0165L267.172 135.627L273.299 159.388C272.407 160.069 271.746 161.009 271.406 162.079C271.066 163.149 271.064 164.298 271.4 165.37C271.736 166.441 272.393 167.383 273.283 168.068C274.173 168.753 275.253 169.147 276.374 169.197C277.496 169.247 278.606 168.951 279.554 168.348C280.501 167.745 281.24 166.865 281.67 165.828C282.1 164.791 282.2 163.646 281.957 162.55C281.714 161.454 281.139 160.459 280.311 159.701L277.609 130.968Z" fill="#FFB6B6"/>
<path d="M204.581 137.453L214.966 100.044C215.401 98.4578 215.195 96.764 214.393 95.3282C213.59 93.8924 212.255 92.8298 210.676 92.3695C209.859 92.1314 209.002 92.0621 208.158 92.166C207.313 92.2698 206.499 92.5446 205.764 92.9735C205.029 93.4025 204.389 93.9766 203.883 94.6609C203.377 95.3451 203.016 96.1253 202.822 96.9537L193.226 136.144L186.391 159.711C185.276 159.843 184.229 160.314 183.391 161.062C182.553 161.81 181.966 162.797 181.709 163.89C181.452 164.984 181.538 166.129 181.955 167.172C182.372 168.215 183.099 169.104 184.039 169.718C184.979 170.333 186.085 170.643 187.207 170.608C188.33 170.572 189.414 170.191 190.312 169.518C191.211 168.844 191.88 167.91 192.23 166.843C192.579 165.776 192.591 164.627 192.265 163.553L204.581 137.453Z" fill="#FFB6B6"/>
<path d="M264.007 281.153L257.39 281.152L254.242 255.629L264.008 255.629L264.007 281.153Z" fill="#FFB6B6"/>
<path d="M264.24 288.056L243.892 288.055V287.798C243.892 285.698 244.726 283.683 246.212 282.198C247.697 280.713 249.711 279.878 251.812 279.878H251.812L255.529 277.058L262.464 279.878L264.241 279.878L264.24 288.056Z" fill="#2F2E41"/>
<path d="M217.439 281.218L210.925 280.056L212.306 254.375L221.921 256.091L217.439 281.218Z" fill="#FFB6B6"/>
<path d="M216.458 288.054L196.425 284.482L196.47 284.228C196.839 282.16 198.014 280.324 199.737 279.122C201.46 277.921 203.59 277.453 205.658 277.821L205.658 277.821L209.812 275.698L216.145 279.692L217.893 280.003L216.458 288.054Z" fill="#2F2E41"/>
<path d="M218.084 163.8C218.084 163.8 211.917 172.536 212.169 175.467C212.42 178.398 214.598 176.06 212.42 178.398C210.242 180.737 208.973 179.168 210.043 182.057C211.113 184.946 211.549 183.075 211.113 184.946C210.678 186.817 211.549 258.373 211.549 258.373H222.889C222.889 258.373 229.285 216.881 228.475 214.944C227.666 213.007 227.684 213.85 228.546 211.792C229.408 209.733 230.219 207.284 230.219 207.284L239.183 182.057L246.097 217.577L254.237 259.785H265.104C265.104 259.785 266.965 197.717 267.788 196.944C268.611 196.17 267.626 194.432 266.594 193.431C265.562 192.429 265.767 191.412 266.1 189.348C266.433 187.284 267.836 186.133 267.788 184.838C267.74 183.543 270.789 162.965 265.997 159.691C261.206 156.417 218.084 163.8 218.084 163.8Z" fill="#2F2E41"/>
<path d="M256 76.7887L243.315 73.5015L237.393 65.3345L223.331 67.0632L220.337 78.2031L210.326 84.0144C228.272 84.1217 218.608 136.114 221.245 139.468C223.392 142.198 210.531 148.692 214.562 152.835C218.592 156.978 217.102 155.32 216.167 159.83C215.232 164.34 208.414 169.114 216.167 169.066C223.92 169.019 270.703 168.35 269.367 163.004C268.03 157.657 268.051 159.015 266.036 155.663C264.02 152.31 262.664 154.184 263.342 149.237C264.02 144.29 261.817 140.464 263.352 138.275C265.707 134.916 263.334 110.662 261.112 111.309L256 76.7887Z" fill="#00002B"/>
<path d="M252.382 76.9653C252.382 76.9653 261.662 73.0232 265.003 80.3748C266.071 82.7229 266.969 88.6208 267.835 87.3129C268.701 86.005 267.866 88.8722 268.402 88.8758C268.88 88.8789 269.616 88.1051 269.06 90.7711C268.886 91.6457 268.936 92.5501 269.205 93.4C269.475 94.25 269.956 95.0177 270.603 95.6318L254.475 105.291L252.382 76.9653Z" fill="#00002B"/>
<path d="M217.517 83.6474C217.517 83.6474 208.238 79.7053 204.896 87.057C203.956 89.1246 204.19 93.7187 202.36 93.2029C200.53 92.6871 201.829 94.6305 201.588 95.3056C201.318 96.058 202.493 98.1875 200.843 97.4423C199.193 96.6971 199.297 102.314 199.297 102.314L215.424 111.973L217.517 83.6474Z" fill="#00002B"/>
<path d="M221.919 72.6343L219.246 77.3126C219.246 77.3126 211.894 81.3226 211.894 81.991C211.894 82.6593 213.231 88.1165 211.894 92.4054C210.557 96.6943 214.446 104.76 215.236 111.398C218.577 139.468 208.64 149.667 206.547 167.538L227.755 173.732C227.755 173.732 231.276 126.769 231.276 116.076C231.276 105.383 221.919 72.6343 221.919 72.6343Z" fill="#2F2E41"/>
<path d="M241.299 70.6313L246.762 73.7388C246.762 73.7388 253.912 75.3152 253.997 75.978C254.082 76.6409 254.108 83.6858 255.981 87.7689C257.855 91.8519 257.339 94.023 262.384 106.093C264.963 112.261 270.881 161.603 270.881 161.603L250.638 170.455C250.638 170.455 241.148 124.327 239.782 113.721C238.416 103.116 241.299 70.6313 241.299 70.6313Z" fill="#2F2E41"/>
<path d="M227.637 64.259C235.269 64.259 241.456 58.0719 241.456 50.4398C241.456 42.8077 235.269 36.6206 227.637 36.6206C220.005 36.6206 213.818 42.8077 213.818 50.4398C213.818 58.0719 220.005 64.259 227.637 64.259Z" fill="#FFB6B6"/>
<path d="M236.731 61.1769C233.464 58.6236 237.929 47.3911 232.535 49.7886C232.535 49.7886 225.942 45.593 224.617 48.3501C223.083 51.5426 217.628 50.0943 214.278 48.9675C214.541 48.3554 214.728 47.7132 214.835 47.0555C214.217 47.5428 213.561 47.9816 212.875 48.3681C212.415 48.1222 212.008 47.7882 211.676 47.3851C211.35 47.0108 211.145 46.5454 211.09 46.0515C211.036 45.5575 211.134 45.0587 211.371 44.622C211.928 43.7648 213.079 43.5011 213.756 42.7399C213.835 42.6328 213.886 42.5084 213.905 42.3773C213.925 42.2461 213.912 42.1122 213.869 41.9869C213.788 41.6807 213.776 41.3604 213.833 41.0488C213.89 40.7373 214.016 40.4423 214.2 40.1847C214.384 39.9271 214.623 39.7133 214.899 39.5586C215.176 39.4038 215.483 39.312 215.799 39.2895C215.926 39.2934 216.052 39.2659 216.166 39.2095C216.734 38.8615 217.26 38.447 217.73 37.9748C216.945 38.0107 217.905 33.2044 225.69 34.1147C227.65 34.0428 228.674 36.2044 230.604 36.5461C235.282 33.8727 239.458 37.7291 241.49 41.4152C243.522 45.1015 245.721 56.9812 236.731 61.1769Z" fill="#2F2E41"/>
<path d="M177.767 41.3511H53.8913C51.5346 41.353 49.275 42.2898 47.6081 43.9557C45.9412 45.6217 45.0033 47.8808 45 50.2375V161.859C45.0031 164.216 45.9408 166.476 47.6076 168.143C49.2744 169.81 51.5341 170.747 53.8913 170.75H177.767C180.123 170.747 182.383 169.809 184.048 168.142C185.714 166.476 186.651 164.216 186.653 161.859V50.2375C186.651 47.8813 185.714 45.6223 184.048 43.9562C182.382 42.2902 180.123 41.3532 177.767 41.3511Z" fill="white"/>
<path d="M121.167 66.9723H107.933C107.283 66.9723 106.66 66.7141 106.2 66.2545C105.741 65.7949 105.482 65.1715 105.482 64.5215C105.482 63.8716 105.741 63.2482 106.2 62.7886C106.66 62.329 107.283 62.0708 107.933 62.0708H121.167C121.817 62.0708 122.441 62.329 122.9 62.7886C123.36 63.2482 123.618 63.8716 123.618 64.5215C123.618 65.1715 123.36 65.7949 122.9 66.2545C122.441 66.7141 121.817 66.9723 121.167 66.9723Z" fill="#00002B"/>
<path d="M296.641 179.575H283.407C282.757 179.575 282.134 179.317 281.674 178.857C281.215 178.397 280.957 177.774 280.957 177.124C280.957 176.474 281.215 175.851 281.674 175.391C282.134 174.932 282.757 174.673 283.407 174.673H296.641C297.291 174.673 297.915 174.932 298.374 175.391C298.834 175.851 299.092 176.474 299.092 177.124C299.092 177.774 298.834 178.397 298.374 178.857C297.915 179.317 297.291 179.575 296.641 179.575Z" fill="#00002B"/>
<path d="M155.476 118.306H73.6212C72.9712 118.306 72.3478 118.048 71.8882 117.588C71.4286 117.128 71.1704 116.505 71.1704 115.855C71.1704 115.205 71.4286 114.582 71.8882 114.122C72.3478 113.662 72.9712 113.404 73.6212 113.404H155.476C156.126 113.404 156.749 113.662 157.209 114.122C157.669 114.582 157.927 115.205 157.927 115.855C157.927 116.505 157.669 117.128 157.209 117.588C156.749 118.048 156.126 118.306 155.476 118.306Z" fill="#E6E6E6"/>
<path d="M155.476 134.479H73.6212C72.9712 134.479 72.3478 134.22 71.8882 133.761C71.4286 133.301 71.1704 132.678 71.1704 132.028C71.1704 131.378 71.4286 130.755 71.8882 130.295C72.3478 129.835 72.9712 129.577 73.6212 129.577H155.476C156.126 129.577 156.749 129.835 157.209 130.295C157.669 130.755 157.927 131.378 157.927 132.028C157.927 132.678 157.669 133.301 157.209 133.761C156.749 134.22 156.126 134.479 155.476 134.479Z" fill="#E6E6E6"/>
<path d="M155.476 150.655H73.6212C72.9712 150.655 72.3478 150.397 71.8882 149.937C71.4286 149.477 71.1704 148.854 71.1704 148.204C71.1704 147.554 71.4286 146.931 71.8882 146.471C72.3478 146.012 72.9712 145.753 73.6212 145.753H155.476C156.126 145.753 156.749 146.012 157.209 146.471C157.669 146.931 157.927 147.554 157.927 148.204C157.927 148.854 157.669 149.477 157.209 149.937C156.749 150.397 156.126 150.655 155.476 150.655Z" fill="#E6E6E6"/>
<path d="M138.746 74.3252H90.3537C87.997 74.3272 85.7374 75.2639 84.0705 76.9298C82.4036 78.5958 81.4657 80.8549 81.4624 83.2116V97.7837C81.4655 100.141 82.4032 102.401 84.07 104.067C85.7368 105.734 87.9965 106.672 90.3537 106.675H138.746C141.103 106.672 143.362 105.734 145.028 104.067C146.694 102.4 147.631 100.14 147.633 97.7837V83.2116C147.63 80.8554 146.693 78.5964 145.027 76.9303C143.361 75.2643 141.102 74.3273 138.746 74.3252ZM146.652 97.7837C146.652 99.8819 145.819 101.894 144.335 103.378C142.852 104.861 140.839 105.695 138.741 105.695H104.003C98.2848 105.695 92.8009 103.423 88.7576 99.3799C84.7142 95.3365 82.4427 89.8526 82.4427 84.1344V83.2116C82.446 81.1149 83.2807 79.1052 84.7638 77.6231C86.2468 76.141 88.257 75.3075 90.3537 75.3055H138.746C140.842 75.3077 142.852 76.1414 144.334 77.6236C145.816 79.1058 146.65 81.1155 146.652 83.2116V97.7837Z" fill="#E6E6E6"/>
<path d="M115.09 95.7578C119.692 95.7578 123.423 92.0272 123.423 87.4253C123.423 82.8234 119.692 79.0928 115.09 79.0928C110.488 79.0928 106.758 82.8234 106.758 87.4253C106.758 92.0272 110.488 95.7578 115.09 95.7578Z" fill="#E6E6E6"/>
<path d="M134.26 106.673L96.9551 106.541L108.719 103.6L110.184 98.762L121.463 98.6982L124.84 103.482L133.368 105.693L134.143 105.894L134.26 106.673Z" fill="#E6E6E6"/>
<path d="M110.355 92.7446C112.143 91.347 109.699 85.1986 112.651 86.511C112.651 86.511 116.26 84.2144 116.985 85.7236C117.825 87.4711 120.811 86.6783 122.645 86.0615C122.501 85.7264 122.398 85.3749 122.34 85.0149C122.678 85.2816 123.037 85.5218 123.413 85.7334C123.665 85.5988 123.887 85.416 124.069 85.1953C124.248 84.9904 124.36 84.7357 124.39 84.4653C124.419 84.195 124.366 83.9219 124.236 83.6828C123.931 83.2137 123.301 83.0693 122.93 82.6526C122.888 82.5941 122.86 82.5259 122.849 82.4542C122.838 82.3824 122.845 82.309 122.869 82.2405C122.913 82.0728 122.92 81.8975 122.888 81.727C122.857 81.5565 122.788 81.395 122.688 81.254C122.587 81.113 122.456 80.996 122.305 80.9113C122.153 80.8266 121.985 80.7763 121.812 80.764C121.743 80.7661 121.674 80.7511 121.611 80.7202C121.3 80.5297 121.013 80.3028 120.755 80.0443C121.185 80.064 120.659 77.4332 116.398 77.9315C115.325 77.8921 114.765 79.0753 113.709 79.2623C111.148 77.799 108.862 79.9098 107.75 81.9276C106.638 83.9453 105.433 90.448 110.355 92.7446Z" fill="#E6E6E6"/>
<path d="M177.767 41.3511H53.8913C51.5346 41.353 49.275 42.2898 47.6081 43.9557C45.9412 45.6217 45.0033 47.8808 45 50.2375V161.859C45.0031 164.216 45.9408 166.476 47.6076 168.143C49.2744 169.81 51.5341 170.747 53.8913 170.75H177.767C180.123 170.747 182.383 169.809 184.048 168.142C185.714 166.476 186.651 164.216 186.653 161.859V50.2375C186.651 47.8813 185.714 45.6223 184.048 43.9562C182.382 42.2902 180.123 41.3532 177.767 41.3511ZM185.673 161.859C185.673 163.957 184.839 165.97 183.356 167.453C181.872 168.937 179.86 169.77 177.762 169.77H109.798C101.417 169.77 93.1188 168.119 85.3761 164.912C77.6333 161.705 70.5981 157.004 64.6721 151.078C58.7461 145.152 54.0453 138.117 50.8381 130.374C47.631 122.632 45.9803 114.333 45.9803 105.952V50.2375C45.9836 48.1408 46.8183 46.1311 48.3014 44.649C49.7844 43.1669 51.7946 42.3334 53.8913 42.3314H177.767C179.863 42.3336 181.872 43.1673 183.355 44.6495C184.837 46.1317 185.671 48.1413 185.673 50.2375V161.859Z" fill="#E6E6E6"/>
<path d="M307.183 288.848L152.611 288.999C152.457 288.998 152.309 288.936 152.2 288.827C152.091 288.717 152.03 288.569 152.03 288.415C152.03 288.261 152.091 288.113 152.2 288.003C152.309 287.894 152.457 287.832 152.611 287.831L307.183 287.681C307.337 287.681 307.485 287.743 307.594 287.853C307.703 287.962 307.764 288.11 307.764 288.264C307.764 288.419 307.703 288.567 307.594 288.676C307.485 288.785 307.337 288.847 307.183 288.848Z" fill="#CACACA"/>
</g>
<g filter="url(#filter0_d_1251_237392)">
<circle cx="46" cy="46" r="30" fill="white"/>
</g>
<path d="M57.3148 46.2036V59.2881H35.4414V46.2036" stroke="#93A4FF" stroke-width="2.83988" stroke-linecap="round" stroke-linejoin="round"/>
<path d="M39.5425 42.6976L41.8187 34.9844L39.5425 42.6976ZM53.2134 42.6976L50.9372 34.9844L53.2134 42.6976Z" stroke="#4C68FF" stroke-width="2.12991" stroke-linecap="round" stroke-linejoin="round"/>
<path d="M55.763 34.9844H36.9929L32.707 42.6976C32.707 43.6275 33.0671 44.5193 33.7081 45.1768C34.349 45.8343 35.2183 46.2037 36.1248 46.2037C37.0312 46.2037 37.9005 45.8343 38.5414 45.1768C39.1824 44.5193 39.5425 43.6275 39.5425 42.6976C39.5425 43.6275 39.9026 44.5193 40.5435 45.1768C41.1844 45.8343 42.0538 46.2037 42.9602 46.2037C43.8666 46.2037 44.7359 45.8343 45.3769 45.1768C46.0178 44.5193 46.3779 43.6275 46.3779 42.6976C46.3779 43.6275 46.738 44.5193 47.3789 45.1768C48.0199 45.8343 48.8892 46.2037 49.7956 46.2037C50.7021 46.2037 51.5714 45.8343 52.2123 45.1768C52.8533 44.5193 53.2134 43.6275 53.2134 42.6976C53.2134 43.6275 53.5734 44.5193 54.2144 45.1768C54.8553 45.8343 55.7246 46.2037 56.6311 46.2037C57.5375 46.2037 58.4068 45.8343 59.0478 45.1768C59.6887 44.5193 60.0488 43.6275 60.0488 42.6976L55.763 34.9844Z" stroke="#93A4FF" stroke-width="2.83988" stroke-linecap="round" stroke-linejoin="round"/>
<defs>
<filter id="filter0_d_1251_237392" x="0" y="0" width="92" height="92" filterUnits="userSpaceOnUse" color-interpolation-filters="sRGB">
<feFlood flood-opacity="0" result="BackgroundImageFix"/>
<feColorMatrix in="SourceAlpha" type="matrix" values="0 0 0 0 0 0 0 0 0 0 0 0 0 0 0 0 0 0 127 0" result="hardAlpha"/>
<feOffset/>
<feGaussianBlur stdDeviation="8"/>
<feComposite in2="hardAlpha" operator="out"/>
<feColorMatrix type="matrix" values="0 0 0 0 0.215686 0 0 0 0 0.317647 0 0 0 0 1 0 0 0 0.15 0"/>
<feBlend mode="normal" in2="BackgroundImageFix" result="effect1_dropShadow_1251_237392"/>
<feBlend mode="normal" in="SourceGraphic" in2="effect1_dropShadow_1251_237392" result="shape"/>
</filter>
<clipPath id="clip0_1251_237392">
<rect width="263.711" height="255" fill="white" transform="translate(45 34)"/>
</clipPath>
</defs>
</svg>
