<svg width="22" height="22" viewBox="0 0 22 22" fill="none" xmlns="http://www.w3.org/2000/svg">
<path d="M9.00048 11C9.00048 9.89547 9.89567 8.99984 11.0002 8.99984C12.1048 8.99984 13.0005 9.89547 13.0005 11C13.0005 12.1045 12.1048 13.0002 11.0002 13.0002C9.89567 13.0002 9.00048 12.1045 9.00048 11ZM7.91919 11C7.91919 12.7016 9.29857 14.0809 11.0002 14.0809C12.7019 14.0809 14.0813 12.7016 14.0813 11C14.0813 9.2984 12.7019 7.91907 11.0002 7.91907C9.29857 7.91907 7.91919 9.2984 7.91919 11ZM13.4832 7.79691C13.4831 8.19454 13.8053 8.51706 14.203 8.5172C14.6006 8.51734 14.9231 8.19512 14.9233 7.79749C14.9234 7.39986 14.6012 7.07734 14.2036 7.0772H14.2033C13.8058 7.07739 13.4836 7.39947 13.4832 7.79691ZM8.57614 15.8839C7.99114 15.8572 7.67318 15.7598 7.46187 15.6775C7.18174 15.5684 6.98186 15.4385 6.7717 15.2287C6.56155 15.0188 6.43147 14.8191 6.32288 14.539C6.24051 14.3278 6.14307 14.0097 6.11648 13.4248C6.08739 12.7923 6.08158 12.6023 6.08158 11C6.08158 9.39776 6.08787 9.2083 6.11648 8.57533C6.14312 7.99035 6.24128 7.67293 6.32288 7.4611C6.43195 7.18098 6.56184 6.9811 6.7717 6.77096C6.98157 6.56082 7.18126 6.43074 7.46187 6.32216C7.67308 6.23979 7.99114 6.14235 8.57614 6.11576C9.20862 6.08667 9.39861 6.08086 11.0002 6.08086C12.6019 6.08086 12.7921 6.08715 13.4251 6.11576C14.0101 6.1424 14.3275 6.24056 14.5393 6.32216C14.8195 6.43074 15.0193 6.5611 15.2295 6.77096C15.4396 6.98082 15.5693 7.18098 15.6783 7.4611C15.7607 7.6723 15.8581 7.99035 15.8847 8.57533C15.9138 9.2083 15.9196 9.39776 15.9196 11C15.9196 12.6023 15.9138 12.7918 15.8847 13.4248C15.8581 14.0097 15.7602 14.3277 15.6783 14.539C15.5693 14.8191 15.4394 15.019 15.2295 15.2287C15.0196 15.4383 14.8195 15.5684 14.5393 15.6775C14.3281 15.7598 14.0101 15.8573 13.4251 15.8839C12.7926 15.9129 12.6026 15.9188 11.0002 15.9188C9.39789 15.9188 9.20842 15.9129 8.57614 15.8839ZM8.52646 5.03634C7.8877 5.06542 7.45122 5.1667 7.07003 5.31502C6.67527 5.46819 6.34108 5.67368 6.00713 6.00709C5.67318 6.3405 5.46821 6.6752 5.31504 7.06995C5.16671 7.45136 5.06543 7.88758 5.03634 8.52632C5.00677 9.16606 5 9.37059 5 11C5 12.6294 5.00677 12.8339 5.03634 13.4737C5.06543 14.1125 5.16671 14.5486 5.31504 14.93C5.46821 15.3246 5.67323 15.6596 6.00713 15.9929C6.34103 16.3262 6.67527 16.5314 7.07003 16.685C7.45194 16.8333 7.8877 16.9346 8.52646 16.9637C9.16657 16.9928 9.37077 17 11.0002 17C12.6297 17 12.8342 16.9932 13.474 16.9637C14.1128 16.9346 14.549 16.8333 14.9304 16.685C15.325 16.5314 15.6594 16.3263 15.9934 15.9929C16.3273 15.6595 16.5318 15.3246 16.6854 14.93C16.8338 14.5486 16.9355 14.1124 16.9641 13.4737C16.9932 12.8335 17 12.6294 17 11C17 9.37059 16.9932 9.16606 16.9641 8.52632C16.9351 7.88754 16.8338 7.45112 16.6854 7.06995C16.5318 6.67544 16.3268 6.34102 15.9934 6.00709C15.6599 5.67315 15.325 5.46819 14.9309 5.31502C14.549 5.1667 14.1128 5.06494 13.4745 5.03634C12.8347 5.00725 12.6302 5 11.0007 5C9.37125 5 9.16657 5.00677 8.52646 5.03634Z" fill="url(#paint0_radial_1251_119893)"/>
<path d="M9.00048 11C9.00048 9.89547 9.89567 8.99984 11.0002 8.99984C12.1048 8.99984 13.0005 9.89547 13.0005 11C13.0005 12.1045 12.1048 13.0002 11.0002 13.0002C9.89567 13.0002 9.00048 12.1045 9.00048 11ZM7.91919 11C7.91919 12.7016 9.29857 14.0809 11.0002 14.0809C12.7019 14.0809 14.0813 12.7016 14.0813 11C14.0813 9.2984 12.7019 7.91907 11.0002 7.91907C9.29857 7.91907 7.91919 9.2984 7.91919 11ZM13.4832 7.79691C13.4831 8.19454 13.8053 8.51706 14.203 8.5172C14.6006 8.51734 14.9231 8.19512 14.9233 7.79749C14.9234 7.39986 14.6012 7.07734 14.2036 7.0772H14.2033C13.8058 7.07739 13.4836 7.39947 13.4832 7.79691ZM8.57614 15.8839C7.99114 15.8572 7.67318 15.7598 7.46187 15.6775C7.18174 15.5684 6.98186 15.4385 6.7717 15.2287C6.56155 15.0188 6.43147 14.8191 6.32288 14.539C6.24051 14.3278 6.14307 14.0097 6.11648 13.4248C6.08739 12.7923 6.08158 12.6023 6.08158 11C6.08158 9.39776 6.08787 9.2083 6.11648 8.57533C6.14312 7.99035 6.24128 7.67293 6.32288 7.4611C6.43195 7.18098 6.56184 6.9811 6.7717 6.77096C6.98157 6.56082 7.18126 6.43074 7.46187 6.32216C7.67308 6.23979 7.99114 6.14235 8.57614 6.11576C9.20862 6.08667 9.39861 6.08086 11.0002 6.08086C12.6019 6.08086 12.7921 6.08715 13.4251 6.11576C14.0101 6.1424 14.3275 6.24056 14.5393 6.32216C14.8195 6.43074 15.0193 6.5611 15.2295 6.77096C15.4396 6.98082 15.5693 7.18098 15.6783 7.4611C15.7607 7.6723 15.8581 7.99035 15.8847 8.57533C15.9138 9.2083 15.9196 9.39776 15.9196 11C15.9196 12.6023 15.9138 12.7918 15.8847 13.4248C15.8581 14.0097 15.7602 14.3277 15.6783 14.539C15.5693 14.8191 15.4394 15.019 15.2295 15.2287C15.0196 15.4383 14.8195 15.5684 14.5393 15.6775C14.3281 15.7598 14.0101 15.8573 13.4251 15.8839C12.7926 15.9129 12.6026 15.9188 11.0002 15.9188C9.39789 15.9188 9.20842 15.9129 8.57614 15.8839ZM8.52646 5.03634C7.8877 5.06542 7.45122 5.1667 7.07003 5.31502C6.67527 5.46819 6.34108 5.67368 6.00713 6.00709C5.67318 6.3405 5.46821 6.6752 5.31504 7.06995C5.16671 7.45136 5.06543 7.88758 5.03634 8.52632C5.00677 9.16606 5 9.37059 5 11C5 12.6294 5.00677 12.8339 5.03634 13.4737C5.06543 14.1125 5.16671 14.5486 5.31504 14.93C5.46821 15.3246 5.67323 15.6596 6.00713 15.9929C6.34103 16.3262 6.67527 16.5314 7.07003 16.685C7.45194 16.8333 7.8877 16.9346 8.52646 16.9637C9.16657 16.9928 9.37077 17 11.0002 17C12.6297 17 12.8342 16.9932 13.474 16.9637C14.1128 16.9346 14.549 16.8333 14.9304 16.685C15.325 16.5314 15.6594 16.3263 15.9934 15.9929C16.3273 15.6595 16.5318 15.3246 16.6854 14.93C16.8338 14.5486 16.9355 14.1124 16.9641 13.4737C16.9932 12.8335 17 12.6294 17 11C17 9.37059 16.9932 9.16606 16.9641 8.52632C16.9351 7.88754 16.8338 7.45112 16.6854 7.06995C16.5318 6.67544 16.3268 6.34102 15.9934 6.00709C15.6599 5.67315 15.325 5.46819 14.9309 5.31502C14.549 5.1667 14.1128 5.06494 13.4745 5.03634C12.8347 5.00725 12.6302 5 11.0007 5C9.37125 5 9.16657 5.00677 8.52646 5.03634Z" fill="#20201F"/>
<circle cx="11" cy="11" r="10.8451" stroke="black" stroke-width="0.309856"/>
<defs>
<radialGradient id="paint0_radial_1251_119893" cx="0" cy="0" r="1" gradientUnits="userSpaceOnUse" gradientTransform="translate(6.59433 17.0567) scale(15.6656 15.665)">
<stop offset="0.09" stop-color="#FA8F21"/>
<stop offset="0.78" stop-color="#D82D7E"/>
</radialGradient>
</defs>
</svg>
