<svg width="331" height="160" viewBox="0 0 331 160" fill="none" xmlns="http://www.w3.org/2000/svg">
<g clip-path="url(#clip0_1251_139076)">
<path d="M198.552 109.192C224.679 109.192 245.858 108.094 245.858 106.74C245.858 105.385 224.679 104.287 198.552 104.287C172.426 104.287 151.246 105.385 151.246 106.74C151.246 108.094 172.426 109.192 198.552 109.192Z" fill="#F0F0F0"/>
<path d="M52.421 160.003C61.1299 160.003 68.1897 158.905 68.1897 157.551C68.1897 156.196 61.1299 155.098 52.421 155.098C43.7122 155.098 36.6523 156.196 36.6523 157.551C36.6523 158.905 43.7122 160.003 52.421 160.003Z" fill="#F0F0F0"/>
<path d="M205.702 3.52983L205.52 5.31934L240.031 8.83418L240.214 7.04467L205.702 3.52983Z" fill="#E6E6E6"/>
<path d="M196.169 6.6811C198.014 6.6811 199.509 5.18548 199.509 3.34055C199.509 1.49562 198.014 0 196.169 0C194.324 0 192.828 1.49562 192.828 3.34055C192.828 5.18548 194.324 6.6811 196.169 6.6811Z" fill="#E6E6E6"/>
<path d="M205.702 13.3399L205.52 15.1294L240.031 18.6442L240.214 16.8547L205.702 13.3399Z" fill="#E4E4E4"/>
<path d="M196.169 16.4912C198.014 16.4912 199.509 14.9955 199.509 13.1506C199.509 11.3057 198.014 9.81006 196.169 9.81006C194.324 9.81006 192.828 11.3057 192.828 13.1506C192.828 14.9955 194.324 16.4912 196.169 16.4912Z" fill="#E4E4E4"/>
<path d="M205.702 23.1661L205.52 24.9556L240.031 28.4704L240.214 26.6809L205.702 23.1661Z" fill="#0F1555"/>
<path d="M196.169 26.3173C198.014 26.3173 199.509 24.8217 199.509 22.9768C199.509 21.1318 198.014 19.6362 196.169 19.6362C194.324 19.6362 192.828 21.1318 192.828 22.9768C192.828 24.8217 194.324 26.3173 196.169 26.3173Z" fill="#0F1555"/>
<path d="M7.80078 58.4596L26.8371 44.0127L26.6819 72.1416L8.73464 86.947L7.80078 58.4596Z" fill="#E4E4E4"/>
<path d="M90.8555 5.86725L127.908 0.633789L128.465 32.9053L91.1814 39.0793L90.8555 5.86725Z" fill="#0F1555"/>
<path d="M305.781 60.7939V89.3188L324.204 107.024L325.064 78.1083L305.781 60.7939Z" fill="#0F1555"/>
<path d="M305.859 35.1777V39.3862L318.695 49.8146L319.298 46.2053L305.859 35.1777Z" fill="#0F1555"/>
<path d="M306.086 42.3877L305.883 46.5997L330.149 69.4573L329.75 64.6461L306.086 42.3877Z" fill="#E6E6E6"/>
<path d="M305.883 50.2095V54.2182L330.149 77.4823V72.2681L305.883 50.2095Z" fill="#E6E6E6"/>
<path d="M53.3377 154.612H51.4149L50.5 147.194H53.338L53.3377 154.612Z" fill="#9E616A"/>
<path d="M53.8411 156.479L47.6406 156.479V156.4C47.6407 155.76 47.895 155.146 48.3475 154.694C48.8001 154.241 49.414 153.987 50.054 153.987H50.0542L53.8412 153.987L53.8411 156.479Z" fill="#2F2E41"/>
<path d="M60.1677 152.712L58.39 153.446L54.7148 146.939L57.3381 145.856L60.1677 152.712Z" fill="#9E616A"/>
<path d="M61.315 154.248L55.5835 156.614L55.5536 156.541C55.3094 155.95 55.3103 155.285 55.556 154.694C55.8017 154.103 56.272 153.634 56.8637 153.39L56.8638 153.39L60.3644 151.945L61.315 154.248Z" fill="#2F2E41"/>
<path d="M54.6069 98.8369C54.6069 98.8369 61.7421 102.218 57.0012 117.707L56.6404 129.961L54.2757 152.489L50.4281 152.244L48.7265 130.557L43.0547 112.645L44.1802 103.994L54.6069 98.8369Z" fill="#2F2E41"/>
<path d="M43.719 106.281L44.2992 95.0349C40.3534 88.4088 44.3976 84.6234 44.7262 84.3328L48.3418 79.0532L51.5051 78.1848C52.1264 78.0143 52.7787 77.9901 53.4108 78.1141C54.043 78.2381 54.6378 78.5069 55.1486 78.8995C55.6594 79.2921 56.0722 79.7977 56.3547 80.3767C56.6372 80.9557 56.7816 81.5923 56.7767 82.2365L56.6348 100.664L43.719 106.281Z" fill="#0F1555"/>
<path d="M50.9453 133.831L54.9215 150.322L59.4779 148.47L53.3033 133.543L50.9453 133.831Z" fill="#2F2E41"/>
<path d="M44.8553 112.115C45.1246 112.001 45.3657 111.83 45.5615 111.612C45.7572 111.395 45.903 111.137 45.9884 110.857C46.0739 110.578 46.0969 110.283 46.056 109.993C46.015 109.703 45.9111 109.426 45.7514 109.181L49.7829 103.472L46.4241 103.279L42.8516 108.659C42.4576 108.954 42.1857 109.384 42.0874 109.867C41.9891 110.349 42.0712 110.851 42.3181 111.277C42.5651 111.703 42.9598 112.024 43.4274 112.178C43.895 112.333 44.4031 112.31 44.8553 112.115Z" fill="#9E616A"/>
<path d="M46.2708 84.5665L48.0334 97.001L43.0547 106.377L47.2208 108.985L54.3983 98.3736L51.3928 83.3394L46.2708 84.5665Z" fill="#0F1555"/>
<path d="M49.9287 76.1074C52.8665 76.1074 55.248 73.7258 55.248 70.7881C55.248 67.8503 52.8665 65.4688 49.9287 65.4688C46.9909 65.4688 44.6094 67.8503 44.6094 70.7881C44.6094 73.7258 46.9909 76.1074 49.9287 76.1074Z" fill="#9E616A"/>
<path d="M57.9569 90.6339C58.1556 87.658 59.4015 84.8709 60.4058 82.0626C61.4101 79.2542 62.1899 76.1977 61.4306 73.3134C60.9866 71.8268 60.2888 70.4283 59.368 69.1796C57.7065 66.7699 55.588 64.5292 52.8429 63.5136C50.0977 62.4981 46.6382 63.0043 44.8323 65.3078C44.1698 66.1183 43.8131 67.1358 43.8245 68.1826C43.837 68.7025 43.9758 69.2116 44.229 69.6658C44.4821 70.1201 44.8419 70.506 45.2775 70.7902C45.779 71.0938 46.3753 71.2362 46.8318 71.6039C47.2883 71.9717 47.5381 72.7193 47.1228 73.1331L47.2886 73.2147C48.7763 73.5353 49.6063 75.2216 49.5937 76.7434C49.581 78.2652 48.9621 79.706 48.579 81.1788C48.1959 82.6517 48.0839 84.3409 48.9685 85.5792C49.8478 86.8104 51.5475 87.3521 52.1893 88.7223C53.065 90.5921 51.4778 92.7326 51.6683 94.7885C51.8512 96.7622 53.7011 98.2527 55.6371 98.6782C57.5732 99.1036 59.5839 98.7011 61.5249 98.2988C58.8837 96.9133 57.7581 93.6098 57.9569 90.6339Z" fill="#2F2E41"/>
<path d="M181.147 63.3307L181.407 54.6882L180.253 46.6509L178.527 46.7679L177.074 55.2249L178.697 64.2922C178.384 64.7209 178.219 65.2395 178.227 65.77C178.234 66.3005 178.413 66.8144 178.737 67.2344C179.061 67.6545 179.513 67.958 180.024 68.0993C180.536 68.2407 181.079 68.2123 181.573 68.0185C182.067 67.8246 182.485 67.4758 182.764 67.0243C183.042 66.5728 183.167 66.043 183.119 65.5146C183.071 64.9862 182.853 64.4877 182.497 64.0939C182.141 63.7 181.668 63.4322 181.147 63.3307H181.147Z" fill="#9E616A"/>
<path d="M180.924 83.605L176.086 104.089L179.732 104.348L186.719 84.5224L180.924 83.605Z" fill="#9E616A"/>
<path d="M189.555 82.265L196.232 102.226L199.467 100.525L194.343 80.4575L189.555 82.265Z" fill="#9E616A"/>
<path d="M180.677 65.0711C180.677 65.0711 178.359 67.6349 182.359 72.556L177.172 99.7286L181.026 101.13L188.035 82.9087L194.342 98.6774L199.248 96.5749L192.547 72.556L193.291 66.4391L191.438 64.7271L180.677 65.0711Z" fill="#E4E4E4"/>
<path d="M185.485 37.4092C185.485 37.4092 178.469 40.1578 179.17 44.3628L180.896 60.9851L179.121 66.7496C179.121 66.7496 190.959 68.6509 193.124 66.4937L193.537 48.2174L194.313 40.9935L190.563 39.4766L189.627 38.089L185.485 37.4092Z" fill="#3F3D56"/>
<path d="M180.246 42.2734L177.688 48.0346L181.492 49.5078L180.246 42.2734Z" fill="#3F3D56"/>
<path d="M199.455 65.7202L196.37 49.2493L191.461 48.8394L192.844 57.1077L196.187 66.4633C195.911 66.8709 195.764 67.3522 195.765 67.8445C195.765 68.3369 195.915 68.8176 196.192 69.2242C196.47 69.6307 196.864 69.9443 197.322 70.1241C197.78 70.304 198.282 70.3418 198.762 70.2326C199.243 70.1235 199.679 69.8724 200.014 69.5121C200.35 69.1517 200.569 68.6988 200.644 68.2121C200.719 67.7254 200.645 67.2275 200.433 66.7831C200.221 66.3387 199.88 65.9684 199.455 65.7203V65.7202Z" fill="#9E616A"/>
<path d="M188.742 43.0029L191.573 51.04L197.053 50.3161C197.053 50.3161 198.254 42.8767 194.324 40.9897L188.742 43.0029Z" fill="#3F3D56"/>
<path d="M192.594 31.2791C192.451 38.1595 181.853 36.9846 183.257 30.2249C184.338 24.8456 192.738 25.8017 192.594 31.2791Z" fill="#9E616A"/>
<path d="M190.02 24.9556C186.697 25.522 181.551 24.1898 181.652 29.3919C181.311 29.9014 180.937 30.4595 181.179 31.0984C182.351 32.5277 182.963 34.7412 184.493 35.7452C185.857 35.7351 187.637 35.9255 188.551 34.7358C188.94 33.7602 188.253 32.571 188.839 31.6555C189.607 31.4103 190.357 32.3939 190.657 30.993C190.615 30.653 190.666 30.3079 190.803 29.994C190.941 29.6802 191.16 29.4092 191.439 29.2096C192.642 27.8318 191.822 25.2928 190.02 24.9556Z" fill="#3F3D56"/>
<path d="M175.168 103.589L180.898 103.588H180.898C181.866 103.588 182.795 103.973 183.48 104.658C184.164 105.343 184.549 106.271 184.549 107.24V107.358L175.168 107.359L175.168 103.589Z" fill="#2F2E41"/>
<path d="M194.832 101.108L200.433 99.8999L200.433 99.8999C201.38 99.6958 202.369 99.8762 203.182 100.401C203.996 100.926 204.568 101.753 204.772 102.7L204.797 102.816L195.627 104.793L194.832 101.108Z" fill="#2F2E41"/>
<path d="M218.621 105.002H220.473L221.353 97.8623H218.621L218.621 105.002Z" fill="#FFB6B6"/>
<path d="M218.176 104.401L221.821 104.401H221.821C222.438 104.401 223.028 104.646 223.464 105.081C223.9 105.517 224.145 106.108 224.145 106.724V106.8L218.176 106.8L218.176 104.401Z" fill="#2F2E41"/>
<path d="M209.172 105.002H211.023L211.904 97.8623H209.172L209.172 105.002Z" fill="#FFB6B6"/>
<path d="M208.703 104.401L212.349 104.401H212.349C212.965 104.401 213.556 104.646 213.991 105.081C214.427 105.517 214.672 106.108 214.672 106.724V106.8L208.703 106.8L208.703 104.401Z" fill="#2F2E41"/>
<path d="M230.797 25.4344C230.797 25.1237 230.728 24.8169 230.596 24.5359C230.463 24.255 230.27 24.0069 230.03 23.8096C229.79 23.6123 229.509 23.4706 229.208 23.3947C228.906 23.3188 228.592 23.3107 228.287 23.3708C227.982 23.431 227.695 23.5579 227.445 23.7426C227.195 23.9272 226.989 24.1649 226.842 24.4386C226.695 24.7123 226.611 25.0152 226.595 25.3254C226.579 25.6357 226.632 25.9457 226.75 26.233L222.496 32.9633L219.848 38.3002L222.033 40.2397L223.715 38.4697L229.215 27.4692C229.667 27.3539 230.068 27.0913 230.354 26.7228C230.641 26.3544 230.796 25.9011 230.797 25.4344Z" fill="#FFB6B6"/>
<path d="M208.722 47.5134L204.552 46.8672L203.559 54.4108L198.147 66.0566C197.794 66.2766 197.514 66.5963 197.343 66.9753C197.172 67.3543 197.117 67.7756 197.185 68.186C197.253 68.5963 197.441 68.9773 197.725 69.2807C198.01 69.5841 198.378 69.7963 198.783 69.8906C199.188 69.9848 199.612 69.9569 200.001 69.8102C200.391 69.6635 200.728 69.4048 200.97 69.0666C201.212 68.7285 201.349 68.3261 201.362 67.9104C201.376 67.4947 201.266 67.0843 201.046 66.731L206.705 56.5135L208.722 47.5134Z" fill="#FFB6B6"/>
<path d="M211.015 60.085C211.015 60.085 207.348 63.4757 207.814 72.0014L208.842 85.1724L208.583 103.532L212.349 103.236L215.639 72.4676L218.793 85.0826L217.661 101.887L221.288 101.971L225.1 82.9801L224.197 68.9025L222.679 60.085H211.015Z" fill="#2F2E41"/>
<path d="M214.944 40.2314L206.184 42.6844L210.638 56.0303L209.972 61.1359L223.479 61.2234L220.351 51.3551C220.351 51.3551 222.107 47.7451 220.102 45.2147L214.944 40.2314Z" fill="#E4E4E4"/>
<path d="M213.906 42.3317L214.957 40.2292C214.957 40.2292 214.924 39.7009 217.393 39.4394L220.291 36.5591L222.944 39.2028L218.462 45.8359L213.906 42.3317Z" fill="#E4E4E4"/>
<path d="M209.701 44.4297C209.701 44.4297 206.547 40.9255 204.795 42.6776C203.043 44.4297 203.941 50.0009 203.941 50.0009L209.398 50.8477L209.701 44.4297Z" fill="#E4E4E4"/>
<path d="M211.286 30.9634C216.657 30.9875 216.656 39.1538 211.286 39.1771C205.915 39.153 205.915 30.9867 211.286 30.9634Z" fill="#FFB6B6"/>
<path d="M211.883 34.8003C212.609 35.2278 213.363 35.6651 214.201 35.7568C215.038 35.8484 215.986 35.4959 216.322 34.7233C216.427 34.4556 216.483 34.1711 216.487 33.8836C216.561 32.4162 216.053 30.9789 215.074 29.8835C214.582 29.3465 213.981 28.9218 213.311 28.6384C212.64 28.3549 211.917 28.2194 211.189 28.241C209.801 28.3013 208.519 28.9582 207.287 29.6009C206.155 30.1919 204.959 30.8431 204.344 31.9626C203.432 33.6214 204.097 35.6523 204.274 37.5368C204.398 38.9421 204.238 40.3579 203.803 41.6999C203.368 43.0419 202.667 44.2825 201.742 45.3476L209.384 46.0717C210.31 46.2082 211.251 46.1986 212.174 46.0433C212.96 45.8676 213.685 45.4821 214.269 44.9277C214.854 44.3734 215.278 43.6708 215.496 42.8949C215.713 42.1189 215.716 41.2985 215.505 40.5209C215.293 39.7432 214.875 39.0374 214.295 38.4785C213.21 37.4343 211.466 36.695 211.423 35.1899" fill="#2F2E41"/>
<path d="M0.835938 53.2803L28.8275 32.7891L28.606 34.5422L0.923191 55.2167L0.835938 53.2803Z" fill="#0F1555"/>
<path d="M146.949 148.251C154.667 148.22 154.667 149.923 146.949 149.891C139.231 149.923 139.231 148.22 146.949 148.251Z" fill="#F0F0F0"/>
<path d="M34.4451 147.541C42.1634 147.51 42.1635 149.213 34.4449 149.181C26.7267 149.213 26.7266 147.51 34.4451 147.541Z" fill="#F0F0F0"/>
<path d="M250.312 117.765C258.031 117.733 258.031 119.436 250.312 119.405C242.594 119.436 242.594 117.733 250.312 117.765Z" fill="#F0F0F0"/>
<path d="M249.69 116.513C249.705 115.765 249.169 114.952 248.421 114.947C248.122 114.968 247.84 115.088 247.619 115.29C247.398 115.492 247.252 115.762 247.205 116.057C247.167 116.353 247.191 116.654 247.275 116.941C247.359 117.228 247.502 117.494 247.694 117.722C248.081 118.177 248.529 118.576 249.026 118.907L249.158 118.425C249.066 118.483 248.967 118.531 248.865 118.568C249.268 117.938 249.674 117.261 249.69 116.513Z" fill="#F0F0F0"/>
<path d="M249.137 118.426C249.252 118.352 249.358 118.264 249.452 118.165C249.365 118.182 249.28 118.206 249.193 118.222L249.137 118.426Z" fill="#F0F0F0"/>
<path d="M254.787 112.57C254.441 112.298 254.031 112.12 253.597 112.053C253.163 111.985 252.719 112.031 252.307 112.184C251.898 112.345 251.53 112.594 251.229 112.913C250.927 113.233 250.699 113.614 250.562 114.031C250.291 114.836 250.347 115.709 250.215 116.548C250.14 117.148 249.885 117.711 249.484 118.164C250.827 117.896 252.132 117.466 253.37 116.883C254.266 116.46 255.193 115.877 255.503 114.936C255.628 114.515 255.627 114.066 255.5 113.645C255.372 113.225 255.124 112.851 254.787 112.57Z" fill="#F0F0F0"/>
<path d="M147.018 147C147.033 146.252 146.497 145.439 145.749 145.434C145.45 145.454 145.168 145.575 144.947 145.777C144.726 145.978 144.581 146.249 144.533 146.544C144.495 146.84 144.519 147.141 144.603 147.428C144.687 147.714 144.83 147.98 145.022 148.209C145.409 148.664 145.857 149.063 146.354 149.393L146.486 148.912C146.394 148.97 146.296 149.018 146.193 149.055C146.596 148.425 147.002 147.748 147.018 147Z" fill="#F0F0F0"/>
<path d="M146.484 148.918C146.599 148.844 146.705 148.756 146.799 148.657C146.713 148.675 146.627 148.698 146.54 148.714L146.484 148.918Z" fill="#F0F0F0"/>
<path d="M152.103 143.056C151.757 142.785 151.348 142.607 150.914 142.539C150.479 142.472 150.035 142.517 149.623 142.67C149.215 142.831 148.847 143.08 148.545 143.4C148.243 143.719 148.016 144.101 147.878 144.518C147.607 145.322 147.663 146.196 147.532 147.034C147.457 147.634 147.202 148.198 146.801 148.651C148.143 148.383 149.448 147.952 150.687 147.37C151.582 146.946 152.509 146.363 152.82 145.423C152.945 145.001 152.944 144.552 152.816 144.132C152.689 143.711 152.441 143.337 152.103 143.056Z" fill="#F0F0F0"/>
<path d="M34.5294 146.3C34.5451 145.552 34.0084 144.74 33.2604 144.735C32.9622 144.755 32.6797 144.876 32.4589 145.078C32.2382 145.279 32.0922 145.549 32.0448 145.845C32.0069 146.141 32.0308 146.442 32.115 146.729C32.1992 147.015 32.3418 147.281 32.5339 147.51C32.9206 147.965 33.3687 148.363 33.8655 148.694L33.9976 148.212C33.9054 148.271 33.8073 148.319 33.7049 148.356C34.1073 147.725 34.5137 147.048 34.5294 146.3Z" fill="#F0F0F0"/>
<path d="M34 148.208C34.1151 148.134 34.2208 148.046 34.315 147.947C34.2283 147.965 34.1429 147.988 34.056 148.004L34 148.208Z" fill="#F0F0F0"/>
<path d="M39.6186 142.357C39.2729 142.086 38.8633 141.908 38.4291 141.841C37.9949 141.773 37.5507 141.818 37.139 141.972C36.7304 142.133 36.3622 142.382 36.0606 142.701C35.759 143.02 35.5313 143.402 35.3937 143.819C35.1231 144.623 35.1788 145.497 35.0475 146.335C34.9722 146.935 34.7173 147.499 34.3164 147.952C35.6588 147.684 36.9636 147.254 38.2022 146.671C39.0978 146.247 40.0246 145.664 40.3353 144.724C40.4604 144.302 40.4592 143.854 40.3318 143.433C40.2044 143.012 39.9564 142.638 39.6186 142.357Z" fill="#F0F0F0"/>
</g>
<defs>
<clipPath id="clip0_1251_139076">
<rect width="329.324" height="160" fill="white" transform="translate(0.835938)"/>
</clipPath>
</defs>
</svg>
