<svg width="125" height="115" viewBox="0 0 125 115" fill="none" xmlns="http://www.w3.org/2000/svg">
<g clip-path="url(#clip0_1251_139016)">
<path d="M94.988 27.3284H94.3517V10.0185C94.3517 7.36144 93.2888 4.81319 91.3967 2.93436C89.5046 1.05552 86.9383 0 84.2625 0H47.3314C44.6556 0 42.0893 1.05552 40.1972 2.93436C38.3052 4.81319 37.2422 7.36144 37.2422 10.0185V104.981C37.2422 107.639 38.3052 110.187 40.1972 112.066C42.0893 113.944 44.6556 115 47.3314 115H84.2632C86.939 115 89.5053 113.944 91.3973 112.066C93.2894 110.187 94.3524 107.639 94.3524 104.981V39.6497H94.988V27.3284Z" fill="#3F3D56"/>
<path d="M92.2985 9.34826V105.652C92.2982 107.667 91.4922 109.599 90.0579 111.024C88.6235 112.448 86.6781 113.249 84.6493 113.25H46.9586C44.929 113.25 42.9824 112.45 41.5471 111.025C40.1117 109.6 39.3051 107.667 39.3047 105.652V9.34826C39.3053 7.33302 40.112 5.40055 41.5474 3.97586C42.9827 2.55117 44.9292 1.75094 46.9586 1.75116H51.5306C51.3061 2.29938 51.2207 2.89395 51.2818 3.48262C51.3429 4.0713 51.5487 4.63605 51.8812 5.12725C52.2136 5.61844 52.6624 6.02103 53.1882 6.29964C53.714 6.57825 54.3006 6.72434 54.8966 6.72508H76.3843C76.9803 6.72428 77.567 6.5781 78.0928 6.29941C78.6186 6.02072 79.0674 5.61804 79.3997 5.12678C79.7321 4.63551 79.9378 4.07069 79.9988 3.48198C80.0598 2.89327 79.9743 2.29868 79.7497 1.75049H84.6471C86.6758 1.75085 88.6214 2.55116 90.056 3.97548C91.4907 5.39981 92.2971 7.33156 92.2978 9.34606L92.2985 9.34826Z" fill="#E6E6E6"/>
<path d="M88.2768 108.222H43.3148C42.931 108.222 42.5631 108.07 42.2917 107.801C42.0203 107.531 41.8676 107.166 41.8672 106.785V12.9248C41.8676 12.5437 42.0203 12.1783 42.2917 11.9088C42.5631 11.6393 42.931 11.4877 43.3148 11.4873H88.2768C88.6606 11.4877 89.0286 11.6393 89.3 11.9088C89.5714 12.1783 89.724 12.5437 89.7244 12.9248V106.785C89.724 107.166 89.5714 107.531 89.3 107.801C89.0286 108.07 88.6606 108.222 88.2768 108.222Z" fill="white"/>
<path d="M65.6299 43.1766C72.4714 43.1766 78.0176 37.6692 78.0176 30.8756C78.0176 24.082 72.4714 18.5747 65.6299 18.5747C58.7884 18.5747 53.2422 24.082 53.2422 30.8756C53.2422 37.6692 58.7884 43.1766 65.6299 43.1766Z" fill="#E6E6E6"/>
<path d="M65.4607 41.511C71.376 41.511 76.1713 36.7493 76.1713 30.8754C76.1713 25.0015 71.376 20.2397 65.4607 20.2397C59.5453 20.2397 54.75 25.0015 54.75 30.8754C54.75 36.7493 59.5453 41.511 65.4607 41.511Z" fill="white"/>
<path d="M65.6965 24.8423C64.4887 24.8423 63.3081 25.1979 62.3038 25.8642C61.2996 26.5305 60.5169 27.4776 60.0547 28.5856C59.5925 29.6936 59.4716 30.9129 59.7072 32.0892C59.9428 33.2654 60.5244 34.3459 61.3784 35.194C62.2325 36.042 63.3206 36.6195 64.5051 36.8535C65.6897 37.0875 66.9176 36.9674 68.0334 36.5084C69.1493 36.0495 70.103 35.2723 70.774 34.2751C71.445 33.2779 71.8032 32.1055 71.8032 30.9062C71.8032 29.2979 71.1598 27.7555 70.0146 26.6184C68.8693 25.4812 67.3161 24.8423 65.6965 24.8423ZM65.6965 26.6615C66.0588 26.6615 66.413 26.7682 66.7143 26.9681C67.0156 27.168 67.2504 27.4521 67.3891 27.7845C67.5277 28.1169 67.564 28.4827 67.4933 28.8356C67.4226 29.1885 67.2482 29.5126 66.9919 29.767C66.7357 30.0215 66.4093 30.1947 66.0539 30.2649C65.6985 30.3351 65.3302 30.2991 64.9954 30.1614C64.6607 30.0237 64.3745 29.7905 64.1732 29.4914C63.9719 29.1922 63.8645 28.8405 63.8645 28.4807C63.8645 28.2418 63.9119 28.0052 64.0039 27.7845C64.096 27.5638 64.2309 27.3632 64.4011 27.1943C64.5712 27.0254 64.7731 26.8914 64.9954 26.8C65.2177 26.7085 65.4559 26.6615 65.6965 26.6615ZM65.6965 35.4191C64.9728 35.4158 64.2608 35.2372 63.6223 34.8989C62.9838 34.5605 62.4381 34.0726 62.0324 33.4774C62.0617 32.2647 64.475 31.597 65.6965 31.597C66.918 31.597 69.3311 32.2647 69.3606 33.4774C68.9545 34.0722 68.4087 34.5599 67.7703 34.8983C67.1319 35.2367 66.4202 35.4156 65.6965 35.4196V35.4191Z" fill="#0F1555"/>
<path d="M75.8534 47.3105H54.4219V48.9101H75.8534V47.3105Z" fill="#E6E6E6"/>
<path d="M78.5264 51.4678H51.5547V53.0673H78.5264V51.4678Z" fill="#E6E6E6"/>
<path d="M84.796 63.4077H46.8008V101.137H84.796V63.4077Z" fill="#E6E6E6"/>
<path d="M83.7939 64.2061H47.4062V100.339H83.7939V64.2061Z" fill="white"/>
<path d="M69.055 67.6914H54.8906V68.7486H69.055V67.6914Z" fill="#E6E6E6"/>
<path d="M76.7634 70.7969H54.8906V71.854H76.7634V70.7969Z" fill="#0F1555"/>
<path d="M72.947 73.7524H55.1211V74.8096H72.947V73.7524Z" fill="#E6E6E6"/>
<path d="M65.2971 76.9932H54.8906V78.0503H65.2971V76.9932Z" fill="#E6E6E6"/>
<path d="M70.5967 80.1626H54.8906V81.2198H70.5967V80.1626Z" fill="#0F1555"/>
<path d="M69.055 83.3501H54.8906V84.4073H69.055V83.3501Z" fill="#E6E6E6"/>
<path d="M76.7634 86.4517H54.8906V87.5088H76.7634V86.4517Z" fill="#0F1555"/>
<path d="M72.947 89.4072H55.1211V90.4644H72.947V89.4072Z" fill="#E6E6E6"/>
<path d="M65.2971 92.6514H54.8906V93.7085H65.2971V92.6514Z" fill="#E6E6E6"/>
<path d="M70.5967 95.8174H54.8906V96.8745H70.5967V95.8174Z" fill="#E6E6E6"/>
<path d="M118.488 82.0251C118.386 82.2011 118.251 82.3556 118.09 82.4797C117.928 82.6038 117.744 82.6951 117.547 82.7484C117.35 82.8017 117.144 82.8159 116.941 82.7903C116.739 82.7647 116.543 82.6997 116.366 82.5991C116.189 82.4984 116.033 82.3641 115.908 82.2037C115.783 82.0434 115.691 81.8602 115.638 81.6645C115.584 81.4689 115.57 81.2647 115.595 81.0635C115.621 80.8624 115.687 80.6683 115.788 80.4923C115.791 80.4862 115.795 80.4802 115.799 80.4743C115.842 80.4019 115.891 80.3329 115.945 80.2679L114.637 71.0104L114.598 70.7331L114.332 68.8441L114.293 68.5718L114.438 68.5785L116.972 68.6935L117.651 68.724L117.737 70.4473L118.219 80.136C118.47 80.3752 118.634 80.6916 118.683 81.0343C118.732 81.3769 118.663 81.7259 118.488 82.0251Z" fill="#FFB8B8"/>
<path d="M114.601 70.8164L117.819 70.5233C117.986 70.5076 118.14 70.427 118.247 70.2991C118.354 70.1712 118.406 70.0064 118.392 69.8406L117.796 63.1956C117.767 62.8787 117.676 62.5705 117.528 62.2885C117.379 62.0066 117.176 61.7564 116.931 61.5523C116.685 61.3483 116.401 61.1943 116.095 61.0991C115.789 61.004 115.468 60.9696 115.149 60.9979C114.83 61.0262 114.519 61.1166 114.235 61.264C113.951 61.4114 113.699 61.6129 113.494 61.857C113.288 62.1011 113.133 62.383 113.037 62.6866C112.942 62.9902 112.907 63.3096 112.935 63.6265C112.94 63.6723 112.945 63.7179 112.952 63.7633L113.917 70.2811C113.939 70.4305 114.014 70.5669 114.129 70.6657C114.244 70.7644 114.391 70.8188 114.543 70.8191C114.562 70.8194 114.582 70.8185 114.601 70.8164Z" fill="#0F1555"/>
<path d="M117.039 65.4484C117.364 64.5329 117.379 63.5369 117.082 62.6121C116.784 61.6873 116.19 60.8845 115.39 60.3261C114.177 59.5017 112.516 59.2057 110.728 61.3197C107.152 65.5476 106.215 70.1984 106.215 70.1984L113.538 71.3822C113.538 71.3822 116.029 68.3592 117.039 65.4484Z" fill="#0F1555"/>
<path d="M105.195 113.073H103.107L102.113 105.076H105.195L105.195 113.073Z" fill="#FFB8B8"/>
<path d="M99.082 114.999H105.644V112.481H101.617C100.945 112.481 100.3 112.746 99.8246 113.218C99.3492 113.691 99.082 114.331 99.082 114.999Z" fill="#2F2E41"/>
<path d="M122.367 111.265L120.385 111.915L116.914 104.632L119.84 103.671L122.367 111.265Z" fill="#FFB8B8"/>
<path d="M117.163 114.998L123.394 112.953L122.598 110.563L118.775 111.818C118.459 111.922 118.166 112.086 117.914 112.302C117.662 112.518 117.455 112.781 117.306 113.077C117.156 113.372 117.066 113.694 117.042 114.023C117.018 114.353 117.059 114.685 117.163 114.998Z" fill="#2F2E41"/>
<path d="M112.445 58.2293C114.755 58.2293 116.628 56.3696 116.628 54.0756C116.628 51.7815 114.755 49.9219 112.445 49.9219C110.135 49.9219 108.262 51.7815 108.262 54.0756C108.262 56.3696 110.135 58.2293 112.445 58.2293Z" fill="#FFB8B8"/>
<path d="M108.785 110.849L110.724 98.1403C110.745 98.0046 110.812 97.8804 110.915 97.7887C111.018 97.697 111.149 97.6436 111.287 97.6376C111.425 97.6316 111.561 97.6734 111.672 97.7558C111.782 97.8383 111.86 97.9562 111.893 98.0895L114.846 110.2C114.892 110.386 115.007 110.547 115.167 110.653C115.327 110.759 115.522 110.802 115.712 110.773L123.857 109.473C123.965 109.456 124.068 109.416 124.159 109.356C124.251 109.296 124.328 109.217 124.386 109.125C124.444 109.033 124.481 108.929 124.495 108.822C124.51 108.714 124.501 108.605 124.469 108.501L113.848 73.73C113.818 73.6312 113.815 73.5263 113.838 73.4256L114.192 71.9036C114.23 71.7386 114.212 71.5654 114.141 71.4117C114.069 71.258 113.947 71.1327 113.795 71.0556C112.349 70.3228 108.686 68.7994 105.922 70.4681C105.832 70.5224 105.754 70.5944 105.693 70.6795C105.632 70.7646 105.59 70.8611 105.568 70.9631L97.2707 109.686C97.2481 109.791 97.2483 109.9 97.2712 110.005C97.2942 110.111 97.3393 110.21 97.4037 110.296C97.4681 110.383 97.5502 110.455 97.6448 110.508C97.7393 110.561 97.844 110.593 97.9519 110.602L107.959 111.492C107.982 111.494 108.004 111.495 108.027 111.495C108.21 111.495 108.387 111.43 108.526 111.311C108.665 111.192 108.757 111.028 108.785 110.848L108.785 110.849Z" fill="#2F2E41"/>
<path d="M115.215 51.1422C114.9 50.9538 114.62 50.7123 114.388 50.4285C114.274 50.2851 114.198 50.1148 114.17 49.9342C114.141 49.7535 114.159 49.5684 114.223 49.3969C114.434 48.9338 115.062 48.788 115.549 48.9451C116.036 49.1023 116.412 49.4816 116.767 49.8471C117.08 50.1684 117.403 50.5053 117.551 50.9279C117.699 51.3505 117.623 51.8864 117.253 52.143C116.891 52.3946 116.369 52.2916 116.02 52.0214C115.672 51.7511 115.456 51.35 115.25 50.961L115.215 51.1422Z" fill="#2F2E41"/>
<path d="M116.633 49.9587C116.656 48.7884 117.999 47.9491 119.16 48.1566C120.32 48.3641 121.212 49.3463 121.658 50.4297C122.601 52.7187 121.893 55.3305 120.985 57.6341C120.076 59.9376 118.951 62.2745 119.084 64.7443C119.173 66.0792 119.625 67.3653 120.389 68.4667C121.154 69.5681 122.205 70.4439 123.429 71.0016C122.12 71.591 120.555 70.9822 119.454 70.0634C117.011 68.023 116.068 64.3902 117.213 61.4309C117.778 59.9713 118.773 58.7225 119.551 57.3627C120.328 56.0028 120.898 54.4001 120.497 52.888C120.096 51.3759 118.388 50.1518 116.928 50.7368L116.633 49.9587Z" fill="#2F2E41"/>
<path d="M112.193 55.9207C112.557 55.3088 112.925 54.5055 112.259 53.9706C112.114 53.8596 111.948 53.7785 111.771 53.732C111.594 53.6855 111.41 53.6747 111.228 53.7C110.477 53.79 109.659 53.827 108.931 53.5559C108.658 53.4627 108.407 53.316 108.193 53.1245C107.978 52.933 107.804 52.7007 107.682 52.4413C107.307 51.5578 107.777 50.4843 108.562 49.9258C109.042 49.5966 109.609 49.4155 110.193 49.4052C110.776 49.395 111.35 49.556 111.842 49.8682C112.858 49.4222 114.092 49.6206 115.016 50.2345C115.939 50.8484 116.571 51.8314 116.915 52.8812C117.231 53.7847 117.285 54.7583 117.072 55.691C116.9 56.3399 116.573 56.9382 116.119 57.435C115.665 57.9319 115.097 58.3129 114.463 58.5456C114.217 58.6423 113.948 58.6728 113.686 58.6343C113.423 58.5957 113.176 58.4893 112.968 58.3257C112.968 58.3257 112.391 57.826 112.211 57.2241C112.072 56.7612 111.998 56.2476 112.193 55.9207Z" fill="#2F2E41"/>
<path d="M99.7843 59.6246C99.8052 59.7159 99.8188 59.8086 99.825 59.902L107.141 64.0931L108.919 63.0765L110.815 65.5409L107.843 67.6444C107.603 67.8143 107.314 67.9024 107.019 67.8953C106.724 67.8881 106.44 67.7862 106.208 67.6048L98.6633 61.6948C98.3228 61.8201 97.9519 61.8394 97.6 61.7502C97.2481 61.661 96.9318 61.4676 96.6934 61.1956C96.4549 60.9236 96.3055 60.5859 96.265 60.2275C96.2246 59.8691 96.295 59.507 96.4668 59.1893C96.6387 58.8716 96.9039 58.6134 97.2272 58.449C97.5505 58.2847 97.9165 58.222 98.2765 58.2692C98.6366 58.3165 98.9736 58.4715 99.2428 58.7136C99.5119 58.9557 99.7005 59.2735 99.7833 59.6246H99.7843Z" fill="#FFB8B8"/>
<path d="M107.387 64.292L109.751 67.3351C109.819 67.4215 109.904 67.4926 110.001 67.5435C110.099 67.5943 110.206 67.6237 110.316 67.6297C110.426 67.6357 110.536 67.6181 110.638 67.5781C110.74 67.5382 110.833 67.4768 110.909 67.3981L113.586 64.638C114.039 64.3032 114.34 63.8036 114.422 63.2488C114.503 62.6941 114.36 62.1298 114.023 61.68C113.686 61.2302 113.183 60.9319 112.624 60.8505C112.065 60.7692 111.497 60.9115 111.044 61.2462C111.021 61.2633 110.998 61.2809 110.976 61.2989L107.619 63.1629C107.523 63.2163 107.439 63.2897 107.374 63.378C107.309 63.4663 107.264 63.5674 107.242 63.6746C107.22 63.7817 107.221 63.8923 107.246 63.9989C107.271 64.1054 107.319 64.2054 107.386 64.292L107.387 64.292Z" fill="#0F1555"/>
<path d="M21.5711 71.5463C21.4875 71.5842 21.4071 71.6288 21.3308 71.6794L13.692 68.442L13.4195 66.4439L10.3672 66.4253L10.5475 71.0084L20.6299 73.6564C20.6512 73.726 20.6766 73.7942 20.7062 73.8607C20.852 74.1696 21.0864 74.4288 21.3801 74.6058C21.6738 74.7828 22.0135 74.8697 22.3568 74.8556C22.7 74.8415 23.0314 74.727 23.3093 74.5264C23.5872 74.3259 23.7992 74.0483 23.9188 73.7285C24.0383 73.4088 24.0601 73.061 23.9812 72.729C23.9024 72.397 23.7265 72.0955 23.4757 71.8624C23.2249 71.6293 22.9103 71.475 22.5715 71.4189C22.2327 71.3627 21.8847 71.4072 21.5712 71.5468L21.5711 71.5463Z" fill="#A0616A"/>
<path d="M9.25425 113.077H11.3423L12.3355 105.08H9.25391L9.25425 113.077Z" fill="#A0616A"/>
<path d="M12.8354 112.482H8.80859V114.999H15.3708C15.3708 114.331 15.1037 113.691 14.6282 113.218C14.1527 112.746 13.5079 112.481 12.8354 112.481H12.8354L12.8354 112.482Z" fill="#2F2E41"/>
<path d="M1.13281 112.488L3.2106 112.691L4.98881 104.829L1.92203 104.53L1.13281 112.488Z" fill="#A0616A"/>
<path d="M4.75516 112.249L0.74847 111.857L0.5 114.362L7.02925 115.001C7.06188 114.672 7.02894 114.339 6.93231 114.023C6.83567 113.707 6.67724 113.412 6.46606 113.157C6.25487 112.901 5.99507 112.69 5.70148 112.534C5.4079 112.378 5.08628 112.281 4.75499 112.249L4.75516 112.249Z" fill="#2F2E41"/>
<path d="M8.67518 57.9617C10.9854 57.9617 12.8582 56.102 12.8582 53.808C12.8582 51.514 10.9854 49.6543 8.67518 49.6543C6.36498 49.6543 4.49219 51.514 4.49219 53.808C4.49219 56.102 6.36498 57.9617 8.67518 57.9617Z" fill="#A0616A"/>
<path d="M11.8089 111.458C11.9884 111.458 12.1623 111.396 12.2999 111.281C12.4375 111.167 12.5299 111.007 12.5608 110.832C13.6408 104.876 17.1742 85.3967 17.2587 84.8567C17.2606 84.8442 17.2615 84.8317 17.2614 84.8191V83.3667C17.2616 83.3138 17.2449 83.2622 17.2139 83.2193L16.7472 82.5702C16.7251 82.539 16.696 82.5132 16.6622 82.4949C16.6284 82.4765 16.5909 82.4662 16.5524 82.4645C13.8918 82.3407 5.17839 81.9776 4.75738 82.4998C4.33467 83.0241 4.48488 84.615 4.51895 84.9284L4.51724 84.961L0.602657 109.821C0.571993 110.02 0.621191 110.222 0.739603 110.384C0.858015 110.547 1.03612 110.657 1.23536 110.69L3.68034 111.09C3.86243 111.119 4.04897 111.082 4.20603 110.986C4.36309 110.89 4.48023 110.741 4.53615 110.567C5.29233 108.167 7.82808 100.095 8.70688 96.9717C8.7125 96.9521 8.72511 96.9351 8.74236 96.9239C8.75962 96.9128 8.78036 96.9082 8.80075 96.9111C8.82113 96.914 8.83978 96.9241 8.85324 96.9395C8.8667 96.955 8.87406 96.9748 8.87396 96.9952C8.83002 99.9727 8.72391 107.569 8.68661 110.193L8.6827 110.475C8.68108 110.667 8.75179 110.851 8.88086 110.994C9.00993 111.136 9.18797 111.224 9.37978 111.242L11.7374 111.454C11.7612 111.457 11.785 111.458 11.8089 111.458Z" fill="#2F2E41"/>
<path d="M11.327 59.5951C12.057 60.0261 12.4938 60.8179 12.7445 61.6246C13.2085 63.1164 13.4879 64.6587 13.5763 66.2176L13.8413 70.8853L17.1206 83.2596C14.2783 85.6477 12.6389 85.1048 8.81271 83.1515C4.98651 81.1982 4.54949 83.8028 4.54949 83.8028L3.78446 73.2739L2.69141 61.7685C2.93681 61.4751 3.21456 61.2099 3.51946 60.978C4.52978 60.1977 5.70528 59.6553 6.95737 59.3917C8.20946 59.128 9.50548 59.15 10.7478 59.456L11.327 59.5951Z" fill="#E6E6E6"/>
<path d="M12.3924 74.0447C12.3043 74.0774 12.2189 74.117 12.137 74.1631L4.58369 70.4087L4.45835 68.3749L1.34268 68.1616L1.17578 72.7976L11.2694 76.1123C11.3518 76.4636 11.5398 76.7816 11.8087 77.024C12.0775 77.2665 12.4143 77.422 12.7743 77.4697C13.1342 77.5175 13.5003 77.4553 13.8238 77.2914C14.1473 77.1275 14.4128 76.8696 14.5852 76.5522C14.7575 76.2347 14.8283 75.8727 14.7884 75.5143C14.7484 75.1559 14.5995 74.818 14.3614 74.5457C14.1234 74.2733 13.8074 74.0794 13.4557 73.9898C13.1039 73.9001 12.733 73.9189 12.3923 74.0437L12.3924 74.0447Z" fill="#A0616A"/>
<path d="M2.74436 61.8216C0.886101 62.4729 0.558594 69.5289 0.558594 69.5289C2.74487 68.335 5.36833 70.2888 5.36833 70.2888C5.36833 70.2888 5.91486 68.4434 6.57072 66.0554C6.76877 65.3837 6.79246 64.6732 6.63958 63.99C6.4867 63.3067 6.16222 62.673 5.69635 62.1478C5.69635 62.1478 4.6028 61.17 2.74436 61.8216Z" fill="#E6E6E6"/>
<path d="M4.92023 54.907C5.44138 54.493 6.15242 55.2453 6.15242 55.2453L6.56934 51.5194C6.56934 51.5194 9.17509 51.8294 10.8431 51.4159C12.5111 51.0025 12.7715 52.9169 12.7715 52.9169C12.8575 52.1436 12.875 51.3643 12.8237 50.5879C12.7194 49.6564 11.3644 48.7248 8.96697 48.1038C6.56951 47.4828 5.31876 50.1739 5.31876 50.1739C3.65006 51.0018 4.39841 55.321 4.92023 54.907Z" fill="#2F2E41"/>
</g>
<defs>
<clipPath id="clip0_1251_139016">
<rect width="124" height="115" fill="white" transform="translate(0.5)"/>
</clipPath>
</defs>
</svg>
