<svg width="353" height="294" viewBox="0 0 353 294" fill="none" xmlns="http://www.w3.org/2000/svg">
<g clip-path="url(#clip0_1251_234753)">
<path d="M168.408 69.865H170.018V25.6123C170.018 18.8195 172.708 12.3049 177.495 7.50167C182.283 2.69843 188.776 0 195.546 0H288.991C295.762 0 302.255 2.69843 307.042 7.50167C311.829 12.3049 314.519 18.8195 314.519 25.6123V268.387C314.519 275.18 311.829 281.695 307.042 286.498C302.255 291.301 295.762 293.999 288.991 293.999H195.546C188.776 293.999 182.283 291.301 177.495 286.498C172.708 281.695 170.018 275.18 170.018 268.387V101.365H168.408V69.865Z" fill="#3F3D56"/>
<path d="M194.516 6.66504H206.714C206.153 8.04484 205.939 9.54189 206.09 11.0243C206.242 12.5067 206.754 13.929 207.583 15.1658C208.411 16.4026 209.53 17.416 210.841 18.1168C212.152 18.8175 213.614 19.1841 215.099 19.1842H268.632C270.118 19.1841 271.58 18.8175 272.891 18.1168C274.202 17.416 275.321 16.4026 276.149 15.1658C276.977 13.929 277.49 12.5067 277.642 11.0243C277.793 9.54189 277.579 8.04484 277.018 6.66504H288.41C290.914 6.66497 293.393 7.15965 295.706 8.12082C298.019 9.08199 300.12 10.4908 301.891 12.2669C303.661 14.043 305.065 16.1515 306.023 18.4721C306.981 20.7927 307.475 23.2799 307.475 25.7917V268.211C307.475 273.284 305.466 278.149 301.891 281.736C298.316 285.323 293.467 287.338 288.411 287.338H194.516C189.46 287.338 184.611 285.323 181.036 281.736C177.46 278.149 175.452 273.284 175.452 268.211V25.7928C175.452 20.7199 177.46 15.8548 181.036 12.2678C184.611 8.68073 189.46 6.66555 194.516 6.66555V6.66504Z" fill="white"/>
<path d="M278.485 69.4633C290.44 69.4633 300.133 59.7389 300.133 47.7434C300.133 35.7478 290.44 26.0234 278.485 26.0234C266.529 26.0234 256.837 35.7478 256.837 47.7434C256.837 59.7389 266.529 69.4633 278.485 69.4633Z" fill="#CCCCCC"/>
<path d="M278.484 68.3832C289.844 68.3832 299.053 59.1434 299.053 47.7455C299.053 36.3477 289.844 27.1079 278.484 27.1079C267.124 27.1079 257.915 36.3477 257.915 47.7455C257.915 59.1434 267.124 68.3832 278.484 68.3832Z" fill="white"/>
<path d="M275.052 56.7701L268.573 48.4112L272.341 45.471L275.409 49.4287L285.773 38.4517L289.239 41.746L275.052 56.7701Z" fill="#2F2E41"/>
<path d="M97.4064 109.554C95.9987 105.052 92.7966 100.924 88.3689 99.3999C83.9411 97.8762 76.2162 99.3004 74.1285 103.525C71.1192 109.614 72.471 117.069 74.0669 123.681C74.899 123.636 75.7387 123.602 76.5809 123.57L77.7725 119.586V123.531C84.346 123.327 91.19 123.455 98.0376 123.586C98.6509 118.907 98.8147 114.056 97.4064 109.554Z" fill="#2F2E41"/>
<path d="M37.0037 281.099L42.534 283.424L54.1043 263.13L45.9426 259.698L37.0037 281.099Z" fill="#A0616A"/>
<path d="M33.3467 285.883L51.1772 293.38L51.2718 293.154C52.0426 291.307 52.051 289.229 51.295 287.376C50.539 285.523 49.0805 284.047 47.2402 283.273L36.3499 278.693L33.3467 285.883Z" fill="#2F2E41"/>
<path d="M118.1 185.236C118.445 184.736 118.677 184.166 118.779 183.566C118.881 182.967 118.851 182.352 118.69 181.765C118.53 181.178 118.243 180.634 117.85 180.17C117.457 179.707 116.968 179.335 116.417 179.082L104.531 143.097L96.5713 147.357L110.757 181.388C110.394 182.346 110.393 183.405 110.755 184.363C111.118 185.321 111.818 186.113 112.724 186.587C113.629 187.062 114.677 187.186 115.668 186.937C116.659 186.688 117.524 186.083 118.1 185.236V185.236Z" fill="#A0616A"/>
<path d="M103.444 287.552H109.44L112.292 264.349H103.443L103.444 287.552Z" fill="#A0616A"/>
<path d="M101.915 293.38H121.248V293.135C121.248 291.132 120.455 289.212 119.044 287.795C117.633 286.379 115.719 285.583 113.723 285.583H101.915L101.915 293.38Z" fill="#2F2E41"/>
<path d="M79.4036 155.573L78.0447 159.117L78.3163 162.661L104.401 159.39L103.587 156.391L100.599 152.847L79.4036 155.573Z" fill="#A0616A"/>
<path d="M87.8112 123.677C93.0559 123.677 97.3076 119.411 97.3076 114.149C97.3076 108.887 93.0559 104.621 87.8112 104.621C82.5666 104.621 78.3149 108.887 78.3149 114.149C78.3149 119.411 82.5666 123.677 87.8112 123.677Z" fill="#A0616A"/>
<path d="M77.8995 159.372L103.765 156.612L104.884 152.935C105.232 152.456 108.515 147.788 107.787 143.121C107.607 142.021 107.203 140.971 106.601 140.034C105.999 139.098 105.211 138.296 104.287 137.678L98.0009 130.29L92.4685 126.986L81.5619 125.892L81.5242 125.9L71.7324 128.124L71.8514 146.132L77.8995 159.372Z" fill="#E6E6E6"/>
<path d="M103.116 161.281L110.363 160.418L110.344 160.189C110.278 159.387 108.693 140.478 107.07 136.135C105.412 131.698 98.2293 130.318 97.9247 130.26L97.8367 130.244L96.2407 131.205L100.645 145.015L103.116 161.281Z" fill="#E6E6E6"/>
<path d="M77.612 162.607V168.593C77.612 168.593 70.6271 177.7 74.3906 184.707C74.3906 184.707 66.3316 199.8 65.7955 205.191L58.2685 229.987C58.2685 229.987 39.4646 248.854 41.0783 262.33L40.0037 266.642L52.3623 272.033L55.0486 268.259L76.0024 232.143L93.7316 199.261L96.9551 238.073C96.9551 238.073 94.8063 268.259 100.716 271.496L101.253 276.347H113.794V271.735C113.794 271.735 118.445 255.324 115.759 242.925L116.834 190.638C116.834 190.638 111.999 168.538 106.089 164.764L103.939 159.372L77.612 162.607Z" fill="#2F2E41"/>
<path d="M87.0798 173.817C86.8607 173.867 86.6457 173.933 86.437 174.017L69.8571 162.567L70.2365 157.676L62.9546 156.137L61.4446 164.73C61.3226 165.425 61.4284 166.14 61.7461 166.769C62.0639 167.398 62.5765 167.906 63.2068 168.218L83.743 178.38C83.8209 179.244 84.1593 180.064 84.7131 180.731C85.2669 181.398 86.0099 181.879 86.8433 182.112C87.6766 182.345 88.5609 182.318 89.3784 182.034C90.1958 181.75 90.9079 181.223 91.4197 180.524C91.9316 179.824 92.219 178.984 92.2437 178.117C92.2685 177.249 92.0294 176.395 91.5582 175.667C91.0871 174.939 90.4063 174.372 89.6063 174.042C88.8063 173.712 87.9251 173.634 87.0798 173.818V173.817Z" fill="#A0616A"/>
<path d="M70.0161 163.197L73.3906 140.611L76.1603 128.944L72.022 128.076C71.9096 128.034 68.5397 126.891 65.8172 128.731C63.8592 130.058 62.7743 132.57 62.5933 136.202L61.4978 162.047L70.0161 163.197Z" fill="#E6E6E6"/>
<path d="M94.3367 101.743C92.512 100.627 90.422 100.023 88.2851 99.9947C86.1483 99.9664 84.0431 100.515 82.1897 101.582C80.3363 102.65 78.8028 104.197 77.7495 106.063C76.6961 107.928 76.1617 110.043 76.2021 112.187C81.5102 112.432 87.0858 112.493 92.7408 112.507L94.0768 109.226L94.8646 112.509C96.5874 112.509 98.3135 112.507 100.043 112.503C100.114 110.365 99.6237 108.246 98.6224 106.358C97.621 104.47 96.1432 102.878 94.3367 101.743Z" fill="#2F2E41"/>
<path d="M0.921555 293.998H352.078C352.587 293.998 353 293.769 353 293.488C353 293.206 352.587 292.978 352.078 292.978H0.921555C0.41297 292.978 0 293.206 0 293.488C0 293.769 0.412486 293.998 0.921555 293.998Z" fill="#CBCBCB"/>
<path d="M233.368 106.515L242.395 97.4878L251.423 106.515" stroke="#00002B" stroke-width="3.70116" stroke-linecap="round" stroke-linejoin="round"/>
<path d="M233.368 119.15L242.395 110.123L251.423 119.15" stroke="#00002B" stroke-width="3.70116" stroke-linecap="round" stroke-linejoin="round"/>
<path d="M251.417 187.043L242.389 196.07L233.362 187.043" stroke="#00002B" stroke-width="3.70116" stroke-linecap="round" stroke-linejoin="round"/>
<path d="M251.417 174.403L242.389 183.43L233.362 174.403" stroke="#00002B" stroke-width="3.70116" stroke-linecap="round" stroke-linejoin="round"/>
</g>
<defs>
<clipPath id="clip0_1251_234753">
<rect width="353" height="294" fill="white"/>
</clipPath>
</defs>
</svg>
