<svg width="22" height="22" viewBox="0 0 22 22" fill="none" xmlns="http://www.w3.org/2000/svg">
<circle cx="11" cy="11" r="10.8451" stroke="black" stroke-width="0.309856"/>
<path d="M11 16C13.7614 16 16 13.7614 16 11C16 8.23858 13.7614 6 11 6C8.23858 6 6 8.23858 6 11C6 13.7614 8.23858 16 11 16Z" stroke="black" stroke-width="1.07274" stroke-linecap="round" stroke-linejoin="round"/>
<path d="M6 11H16" stroke="black" stroke-width="1.07274" stroke-linecap="round" stroke-linejoin="round"/>
<path d="M11 6C12.2506 7.36918 12.9614 9.14602 13 11C12.9614 12.854 12.2506 14.6308 11 16C9.74936 14.6308 9.03862 12.854 9 11C9.03862 9.14602 9.74936 7.36918 11 6V6Z" stroke="black" stroke-width="1.07274" stroke-linecap="round" stroke-linejoin="round"/>
</svg>
